<?xml version="1.0" encoding="UTF-8"?>
<svg id="_图层_1" data-name=" 图层 1" xmlns="http://www.w3.org/2000/svg" viewBox="0 0 46.3 25.83">
  <defs>
    <style>
      .cls-1 {
        fill: #81a562;
      }

      .cls-2 {
        fill: #6b4093;
      }

      .cls-3 {
        fill: #eeece6;
      }

      .cls-4 {
        fill: #9d99ca;
      }
    </style>
  </defs>
  <rect class="cls-3" x=".49" width="45.34" height="25.55"/>
  <g>
    <path class="cls-1" d="M10.36,17.58c.84,2.64,1.13,5.42.86,8.17,0,.1.14.1.15,0,.27-2.77-.02-5.56-.86-8.21-.03-.09-.17-.05-.14.04h0Z"/>
    <g>
      <path class="cls-2" d="M10.56,16.49c0-.08-.04-.18-.11-.18-.09,0-.14.11-.14.21-.01.22,0,.45.06.66.13-.18.21-.47.2-.69h-.01Z"/>
      <path class="cls-2" d="M10.78,18.04c.2-.28.34-.92.19-.99s-.22.2-.23.35c-.02.21-.01.42.01.63l.03.02h0Z"/>
      <path class="cls-2" d="M10.24,17.35v-.03c-.07-.18-.24-.33-.44-.38-.09-.02-.21,0-.22.09,0,.03.01.07.03.09.13.19.39.29.62.23h.01Z"/>
      <path class="cls-2" d="M10.02,18.54c.19.14.42.22.65.22h.02c-.11-.28-.32-.5-.58-.63-.04-.02-.08-.03-.12-.03-.1,0-.16.12-.14.22s.09.17.17.23h0Z"/>
      <path class="cls-2" d="M11.71,18.26h-.09c-.15.08-.25.23-.3.39s-.08.38-.08.55c.27-.2.46-.52.5-.86,0-.03,0-.07-.02-.09h0Z"/>
      <path class="cls-2" d="M10.88,19.81l-.03-.1c-.15-.24-.38-.43-.65-.53-.09-.04-.23-.05-.27.04-.03.06,0,.13.03.18.18.31.57.49.92.4h0Z"/>
      <path class="cls-2" d="M11.99,19.72c.02-.07,0-.17-.07-.19-.02,0-.05,0-.07.01-.16.07-.28.22-.35.39-.06.17-.09.39-.1.57l.04-.02c.24-.21.49-.44.56-.76h-.01Z"/>
      <path class="cls-2" d="M10.58,20.45c-.07-.04-.17-.08-.24-.03-.09.06-.08.19-.03.29.14.25.44.36.72.44l.07.04c-.06-.27-.27-.6-.51-.74h-.01Z"/>
      <path class="cls-2" d="M12.09,21.35c.04-.07.08-.15.08-.23s-.07-.16-.15-.16c-.05,0-.09.03-.13.06-.22.18-.4.53-.42.82.26-.09.49-.26.63-.49h-.01Z"/>
      <path class="cls-2" d="M10.81,21.88c-.12-.05-.28-.03-.36.07-.08.11-.04.27.05.37s.22.16.34.21c.1.04.33.11.43.15v-.05c-.03-.17-.09-.34-.18-.49-.07-.11-.15-.22-.27-.27h-.01Z"/>
      <path class="cls-2" d="M12.28,22.79c.04-.07.07-.16,0-.21-.04-.04-.11-.03-.16-.01-.17.06-.3.2-.39.36s-.13.34-.18.51v.04c.3-.14.56-.39.72-.69h.01Z"/>
      <path class="cls-2" d="M10.73,23.27c-.06-.04-.13-.08-.2-.09-.07,0-.16.02-.19.09-.06.11.03.23.12.31.19.17.42.31.66.4l.08.02c-.06-.29-.24-.55-.47-.72h0Z"/>
      <path class="cls-2" d="M12.58,23.98s0-.06-.02-.07c-.02-.02-.05-.02-.07-.02-.41.02-.79.24-.9.64l.03-.02c.23-.04.46-.12.68-.22.13-.06.28-.16.28-.31Z"/>
      <path class="cls-2" d="M10.47,24.37c-.12-.08-.28-.13-.38-.03-.04.04-.06.1-.06.16-.01.21.16.38.34.49s.46.2.67.24l-.02-.06c-.07-.32-.27-.61-.55-.79h0Z"/>
      <path class="cls-2" d="M12.71,24.79s-.05-.01-.08,0c-.36.03-.71.22-.87.54l-.03.04c.32.01.71-.12.94-.34.07-.06.12-.19.04-.23h0Z"/>
    </g>
    <g>
      <path class="cls-4" d="M11.19,24.51c-.06-.04-.14-.06-.2-.01-.06.05-.07.13-.06.21.02.29.14.58.35.79l.04-.05c.05-.21.04-.55-.01-.75-.02-.07-.06-.14-.11-.18h-.01Z"/>
      <path class="cls-4" d="M11.93,24.43c-.18.11-.41.28-.54.45l.03.05c.28.05.68-.09.84-.33.02-.03.04-.06.03-.09,0-.06-.05-.26-.36-.07h0Z"/>
      <path class="cls-4" d="M11.92,23.61c.01-.07.02-.14,0-.2s-.09-.11-.16-.1c-.04,0-.08.04-.11.08-.22.24-.32.59-.26.91.27-.14.47-.39.53-.69Z"/>
      <path class="cls-4" d="M10.95,22.33c-.08,0-.3.12-.14.49.07.18.45.44.57.59v-.11c-.02-.3-.08-.55-.17-.75-.05-.11-.13-.22-.25-.22h0Z"/>
      <path class="cls-4" d="M11.44,21.5c-.12.19-.18.44-.11.66l.05.08c.15-.18.42-.4.43-.63.03-.39-.23-.34-.37-.11Z"/>
      <path class="cls-4" d="M11.32,20.67c-.05.16-.1.32-.07.48v.02c.09-.07.19-.15.27-.24s.23-.31.22-.43c0-.04-.15-.25-.33.01-.04.05-.07.11-.09.17h0Z"/>
      <path class="cls-4" d="M11.15,20.56l-.03-.09c-.03-.13-.19-.46-.38-.59-.11-.08-.29-.17-.32,0-.05.28.22.41.31.49s.32.15.43.2h-.01Z"/>
      <path class="cls-4" d="M11.15,18.96c-.05.06-.1.31-.11.38,0,.15,0,.21-.02.44v.12c.12-.09.23-.28.32-.49.06-.14.08-.3.08-.36,0-.23-.2-.18-.28-.08h.01Z"/>
      <path class="cls-4" d="M11.17,18.09c0-.08-.04-.18-.12-.17-.06,0-.1.07-.12.13-.06.2-.09.51-.1.77v.07c.15-.13.34-.6.33-.79h.01Z"/>
      <path class="cls-4" d="M10.57,18.09c-.06-.13-.27-.33-.39-.4-.05-.03-.13-.06-.18-.02-.04.03-.05.09-.02.14.02.05.06.08.1.12.11.09.4.25.54.25l-.05-.08h0Z"/>
      <path class="cls-4" d="M10.47,17.72c.13-.21.16-.48.07-.72-.01-.04-.03-.07-.06-.09-.05-.03-.12,0-.15.05s-.04.11-.04.17c0,.17.05.34.13.5l.05.1h0Z"/>
      <path class="cls-4" d="M11.22,21.42c-.08-.15-.21-.28-.35-.37-.07-.04-.15-.07-.22-.03-.06.03-.08.12-.06.18.02.07.07.12.12.16.15.12.34.19.54.18l-.02-.12h0Z"/>
    </g>
  </g>
  <g>
    <path class="cls-1" d="M7.7,1.37c.58,2.7.6,5.49.07,8.2-.02.09.13.13.14.04.54-2.74.51-5.55-.07-8.28-.02-.09-.16-.05-.14.04h0Z"/>
    <g>
      <path class="cls-2" d="M8,.3c0-.08-.02-.18-.1-.19-.09-.02-.15.1-.16.19-.03.22-.04.44,0,.67.14-.16.25-.45.27-.66h-.01Z"/>
      <path class="cls-2" d="M8.08,1.86c.23-.26.43-.88.28-.97s-.24.18-.26.33c-.04.21-.05.42-.05.62,0,0,.03.02.03.02Z"/>
      <path class="cls-2" d="M7.6,1.12v-.03c-.05-.19-.2-.35-.39-.42-.08-.03-.21-.02-.22.07,0,.03,0,.07.02.1.11.21.36.33.59.28Z"/>
      <path class="cls-2" d="M7.28,2.29c.17.16.39.26.63.28h.02c-.09-.29-.28-.53-.52-.68-.04-.02-.07-.04-.12-.04-.1,0-.17.11-.16.2.01.09.08.18.15.24Z"/>
      <path class="cls-2" d="M8.99,2.17s-.06,0-.09,0c-.16.06-.27.21-.34.36s-.11.37-.13.54c.29-.17.51-.47.58-.8,0-.03.01-.07-.01-.1h0Z"/>
      <path class="cls-2" d="M8.01,3.64l-.02-.1c-.13-.25-.34-.46-.59-.59-.09-.05-.22-.07-.28.02-.03.05-.02.12.01.18.14.33.52.54.88.49Z"/>
      <path class="cls-2" d="M9.12,3.65c.02-.07.02-.17-.05-.19h-.07c-.17.05-.3.19-.38.35-.08.16-.13.38-.16.55l.04-.02c.26-.19.53-.4.63-.7h-.01Z"/>
      <path class="cls-2" d="M7.64,4.24c-.07-.05-.16-.09-.24-.05-.09.05-.1.19-.06.28.11.27.4.4.67.5l.06.05c-.04-.27-.21-.62-.44-.78h0Z"/>
      <path class="cls-2" d="M9.07,5.29c.05-.06.1-.14.1-.22s-.06-.17-.14-.18c-.05,0-.1.02-.14.05-.24.16-.45.49-.5.78.27-.06.51-.22.68-.43Z"/>
      <path class="cls-2" d="M7.74,5.69c-.11-.06-.28-.06-.36.04-.09.1-.07.27,0,.38.08.11.2.18.32.25.09.05.32.14.41.19v-.05c-.01-.18-.06-.35-.13-.51-.06-.12-.13-.23-.25-.3h.01Z"/>
      <path class="cls-2" d="M9.12,6.74c.04-.06.08-.16.03-.21-.04-.04-.1-.04-.16-.03-.18.04-.32.17-.42.32s-.17.32-.23.49v.04c.31-.11.59-.33.78-.61Z"/>
      <path class="cls-2" d="M7.52,7.07c-.06-.05-.12-.1-.19-.11-.07-.02-.16,0-.2.07-.07.1,0,.23.09.32.18.19.39.35.62.46l.08.02c-.04-.29-.18-.57-.4-.77h0Z"/>
      <path class="cls-2" d="M9.29,7.95s0-.06-.02-.07c-.02-.02-.04-.02-.07-.02-.41-.02-.81.16-.96.55h.03c.24-.03.47-.09.69-.17.14-.05.29-.14.31-.28h.02Z"/>
      <path class="cls-2" d="M7.16,8.14c-.11-.09-.27-.16-.38-.07-.05.04-.07.09-.08.15-.03.21.12.39.29.52.17.13.43.25.64.31v-.06c-.05-.33-.22-.63-.48-.84h.01Z"/>
      <path class="cls-2" d="M9.35,8.77s-.05-.02-.08-.02c-.36,0-.73.15-.92.45l-.03.04c.31.04.72-.05.97-.25.07-.06.14-.18.06-.23h0Z"/>
    </g>
    <g>
      <path class="cls-4" d="M7.87,8.35c-.05-.05-.14-.07-.2-.03s-.08.12-.08.2c0,.29.09.59.27.82l.04-.05c.07-.2.09-.54.06-.75-.01-.07-.04-.14-.09-.19Z"/>
      <path class="cls-4" d="M8.61,8.34c-.19.09-.44.24-.58.4l.02.05c.27.08.69-.03.86-.25.02-.03.04-.06.04-.09,0-.06-.02-.26-.35-.11h.01Z"/>
      <path class="cls-4" d="M8.68,7.52c.02-.07.03-.14.02-.2s-.08-.12-.15-.11c-.04,0-.08.03-.11.06-.24.22-.37.56-.35.88.28-.11.5-.35.59-.63Z"/>
      <path class="cls-4" d="M7.83,6.15c-.08,0-.31.09-.19.47.06.18.41.48.51.64v-.1c.02-.3-.02-.55-.09-.77-.04-.11-.11-.23-.23-.24Z"/>
      <path class="cls-4" d="M8.41,5.37c-.13.18-.22.42-.17.64l.04.08c.16-.16.46-.36.49-.59.06-.38-.2-.36-.36-.14h0Z"/>
      <path class="cls-4" d="M8.36,4.54c-.07.15-.13.31-.12.47v.02c.1-.06.2-.13.29-.21s.26-.29.26-.41c0-.04-.13-.26-.33-.02-.04.05-.08.1-.1.16h0Z"/>
      <path class="cls-4" d="M8.2,4.41l-.03-.09c-.02-.13-.15-.47-.32-.63-.1-.09-.28-.2-.32-.04-.07.27.18.43.26.52.08.09.3.18.41.24Z"/>
      <path class="cls-4" d="M8.35,2.81c-.05.06-.13.3-.14.37-.02.15-.03.2-.06.43v.12c.12-.08.25-.26.36-.46.08-.14.11-.29.12-.35.02-.23-.19-.2-.27-.11h-.01Z"/>
      <path class="cls-4" d="M8.46,1.95c0-.08-.02-.18-.1-.18-.06,0-.1.06-.13.12-.08.19-.14.5-.17.75v.07c.15-.12.39-.56.4-.76Z"/>
      <path class="cls-4" d="M7.86,1.9c-.05-.13-.24-.35-.35-.44-.05-.04-.12-.07-.18-.04-.04.03-.05.09-.04.14.02.05.05.09.09.12.1.1.37.29.52.3l-.04-.09h0Z"/>
      <path class="cls-4" d="M7.8,1.51c.15-.2.2-.47.14-.71,0-.04-.02-.08-.05-.1-.05-.03-.12,0-.16.03-.04.05-.05.11-.05.17-.01.17.01.35.08.51,0,0,.04.1.04.1Z"/>
      <path class="cls-4" d="M8.19,5.27c-.07-.16-.18-.3-.32-.4-.06-.05-.15-.09-.22-.05-.06.03-.09.11-.08.17.01.07.06.12.1.17.14.14.33.22.52.23v-.13h0Z"/>
    </g>
  </g>
  <path class="cls-1" d="M9.78,24.16c-.51-.41-.8-1.07-.76-1.73.16.1.25.29.34.46.27.54.48.84.56,1.32"/>
  <path class="cls-1" d="M8.86,25.5c-.3-.38-.49-.86-.53-1.35.09,0,.16.07.21.14.25.35.38.78.35,1.21"/>
  <g>
    <path class="cls-1" d="M14.71,21.41c.05-4.85,1.41-9.6,3.94-13.74.05-.08-.08-.16-.13-.08-2.54,4.16-3.91,8.94-3.96,13.81,0,.1.15.1.15,0h0Z"/>
    <path class="cls-1" d="M14.93,21.63c.11-.5.48-.94.95-1.15.03.07-.02.14-.07.2-.25.32-.52.63-.8.94"/>
    <path class="cls-1" d="M14.97,20.09c.16-.37.39-.72.69-.99.24-.22.92-.38.94-.36.05.05-.59.63-.85.85-.12.1-.25.21-.38.29-.13.08-.32.27-.46.32"/>
    <path class="cls-1" d="M14.48,20.15c-.55-.52-1.06-1.7-.97-1.74.07-.03.92.72.97,1.75"/>
    <path class="cls-1" d="M15.74,16c.48-.68,1.14-.75,1.64-.86.04,0-1.15.99-1.74.99"/>
    <path class="cls-1" d="M14.94,16.02c-.6-.41-1.27-1.99-1.2-1.97.14.04.73.72,1.2,1.92"/>
    <path class="cls-1" d="M14.54,17.75c-.52-.44-1.01-1.83-.97-1.88.03-.03.95.52.96,1.83"/>
    <path class="cls-1" d="M15.33,17.75c.42-.27,1.42-.42,1.96-.41.08,0-.77.41-1.06.44-.32.03-.65.04-.98.02"/>
    <path class="cls-1" d="M15.99,14.83c.57-.04,1.48-.84,1.47-.86-.02-.05-.76.07-1.3.66"/>
    <path class="cls-1" d="M15.31,14.17c-.12-.16-.35-.42-.44-.69-.14-.45-.09-.92-.07-.93.02-.02.61,1.17.51,1.54"/>
    <g>
      <path class="cls-2" d="M16.38,11.49c.16-.43.16-.91-.01-1.34-.03-.07-.08-.15-.15-.13-.06.02-.08.09-.08.15-.05.44.02.89.2,1.29l.05.03h-.01Z"/>
      <path class="cls-2" d="M17.52,12.96c-.05-.09-.16-.13-.26-.16-.34-.08-.71-.07-1.05.02l-.07.05c.39.25.89.32,1.33.19.03,0,.06-.02.07-.05,0-.02,0-.04-.01-.06h-.01Z"/>
      <path class="cls-2" d="M15.53,11.72c-.07-.04-.16-.04-.21.02-.07.07-.05.18-.02.27.13.36.34.69.62.94h.07c0-.38-.11-.75-.31-1.07-.04-.06-.09-.13-.15-.17h0Z"/>
      <path class="cls-2" d="M17.91,11.32c-.46.03-1.03.28-1.31.65-.02.05,1.16-.1,1.47-.45.02-.02.04-.05.04-.08,0-.09-.11-.12-.2-.12Z"/>
      <path class="cls-2" d="M17.02,9.46c.03-.16.05-.33,0-.48-.02-.06-.06-.11-.12-.12-.09-.01-.14.09-.17.17-.13.43-.12.9.03,1.32.12-.25.2-.61.26-.89Z"/>
      <path class="cls-2" d="M18.34,10.11c-.14-.05-.3-.02-.44.04-.29.12-.69.26-.87.53h.18c.25-.01.5-.06.73-.13.18-.05.36-.14.44-.31.01-.03.02-.06,0-.09-.01-.02-.03-.03-.06-.04h.02Z"/>
      <path class="cls-2" d="M17.37,9.24c.13-.24.23-.5.29-.77.04-.19.13-.53-.1-.53s-.25.82-.18,1.24l-.02.06h.01Z"/>
      <path class="cls-2" d="M18.64,9.11c-.36.06-.92.35-1.18.61.38.07.93-.14,1.26-.35.08-.05.16-.14.11-.22-.04-.06-.12-.06-.19-.05h0Z"/>
      <path class="cls-2" d="M19.07,8.27c-.38.09-.88.4-1.16.67.4.03.95-.23,1.27-.48.04-.03.09-.09.07-.14-.02-.07-.12-.07-.18-.05Z"/>
      <path class="cls-2" d="M18.29,7.47c.07-.21.2-.64-.03-.63s-.33.96-.24,1.37c.13-.18.21-.53.28-.74h-.01Z"/>
      <path class="cls-2" d="M19.61,7.21c-.36.08-.68.31-.87.62l.08-.03c.36-.02.7-.19.93-.47.01-.01.02-.03.03-.05,0-.07-.09-.08-.16-.07h-.01Z"/>
      <path class="cls-2" d="M19.24,6.49c.01-.06.01-.15-.05-.17-.05-.02-.11.03-.14.07-.2.26-.31.59-.3.91h.03c.23-.21.4-.5.46-.82h0Z"/>
      <path class="cls-2" d="M20.01,6.28c-.28.11-.51.32-.66.58l.04.03c.31-.03.61-.22.77-.49.02-.03.03-.07.02-.1-.02-.06-.11-.05-.17-.03h0Z"/>
      <path class="cls-2" d="M16.24,12.08c-.2-.27-.67-.93-.52-1.13s.57.77.55,1.06"/>
      <path class="cls-2" d="M16.34,12.46c.33-.18.71-.28,1.09-.27.03,0,.06,0,.08.02.04.03.05.08.03.13s-.06.08-.1.1c-.13.08-.28.11-.42.13s-.28.03-.42.03c-.08,0-.16,0-.22-.05"/>
    </g>
    <g>
      <path class="cls-4" d="M16.42,11.92c-.12-.03-.22.1-.26.21-.12.29-.17.6-.15.91l.04.02c.22-.22.39-.5.47-.8.02-.06.03-.13.02-.2s-.05-.13-.12-.15h0Z"/>
      <path class="cls-4" d="M17.02,11.01c-.16.12-.28.28-.39.45v.04s.03.05.06.04c.36-.09,1.23-.48,1.11-.69s-.62.05-.78.17h0Z"/>
      <path class="cls-4" d="M16.92,10.74c.08-.18.12-.38.13-.59,0-.18.08-.55-.17-.51s-.17.83.02,1.2l.02-.11h0Z"/>
      <path class="cls-4" d="M17.66,9.61c-.14.09-.26.22-.35.37v.03s-.05.01-.06.04c.35,0,1.12-.24,1.03-.45s-.5-.07-.62.01Z"/>
      <path class="cls-4" d="M17.72,9.12c.09-.17.16-.34.21-.52.05-.15.08-.34-.04-.45-.01-.01-.03-.02-.05-.02-.04,0-.06.04-.07.08-.12.34-.16.7-.12,1.06,0,0,.07-.15.07-.15Z"/>
      <path class="cls-4" d="M18.19,8.35l.05.05c.29.02,1.05-.22.93-.41-.12-.19-.76.17-.98.35h0Z"/>
      <path class="cls-4" d="M18.79,6.95c-.25-.04-.3.55-.3.87l.07-.1c.23-.16.48-.73.23-.77Z"/>
      <path class="cls-4" d="M19.78,6.76h-.12c-.21.06-.6.4-.71.59.24-.03.68-.26.85-.43.02-.02.05-.05.05-.08,0-.04-.03-.08-.07-.09h0Z"/>
    </g>
  </g>
  <g>
    <path class="cls-1" d="M18.95,17.62c-1.17,2.48-1.92,5.14-2.22,7.87-.01.1.14.1.15,0,.3-2.7,1.04-5.33,2.2-7.79.04-.09-.09-.16-.13-.08h0Z"/>
    <g>
      <path class="cls-2" d="M15.94,24.28c-.09-.02-.21.02-.23.11,0,.04,0,.08.02.11.17.39.51.71.94.88h.05c-.08-.31-.37-.7-.57-.95-.05-.07-.12-.13-.2-.16h-.01Z"/>
      <path class="cls-2" d="M18.19,24.66c-.25.03-.48.16-.69.3-.15.1-.4.25-.51.39.02.04.81-.09,1.1-.26.08-.05.16-.1.22-.18.05-.06.08-.16.03-.21-.04-.04-.1-.04-.16-.03h.01Z"/>
      <path class="cls-2" d="M15.99,23.36c0,.43.63.83.85,1.18v-.04c-.1-.41-.28-.91-.54-1.24-.06-.07-.3-.12-.3.11h-.01Z"/>
      <path class="cls-2" d="M18.52,23.69c-.34-.13-1.17.35-1.4.73v.07c.48.11,1.77-.66,1.4-.8Z"/>
      <path class="cls-2" d="M17.01,23.46c.08-.33-.02-.77-.1-1.09-.03-.1-.1-.23-.2-.2-.09.02-.11.13-.12.22,0,.35.2.88.4,1.17l.02-.09h0Z"/>
      <path class="cls-2" d="M18.45,22.84c-.36.03-.91.28-1.13.57l-.08.06c0,.06,1.05-.08,1.31-.37.05-.06.11-.15.06-.21-.03-.04-.1-.04-.15-.04h-.01Z"/>
      <path class="cls-2" d="M17.3,22.25c.05-.24.05-.97-.07-1.25-.07-.16-.29-.13-.29.09-.01.39.17.84.31,1.21l.05-.05Z"/>
      <path class="cls-2" d="M18.68,21.91c-.38.04-.9.37-1.1.69l.03.02c.39.06.95-.2,1.16-.53.03-.05.06-.12.02-.16-.03-.03-.07-.03-.11-.02Z"/>
      <path class="cls-2" d="M17.56,20.99l.02-.15c.07-.37.12-1,.02-1.31s-.4-.15-.37.24c.02.29.25.95.34,1.21h-.01Z"/>
      <path class="cls-2" d="M18.92,21.11c-.33.01-1.05.23-1.22.51l.09.03c.35.13,1-.13,1.23-.42.01-.02.02-.03.03-.05,0-.06-.07-.08-.13-.07Z"/>
      <path class="cls-2" d="M17.98,19.94c.03-.2.18-.97.02-1.27-.09-.17-.25-.09-.27.12-.03.33.09.9.21,1.21,0,0,.04-.06.04-.06Z"/>
      <path class="cls-2" d="M19.01,19.99c-.31.07-.77.55-.95.81l-.03.05c.11.03,1.04-.39,1.15-.62.11-.22.01-.28-.17-.24Z"/>
      <path class="cls-2" d="M19.12,19.02c-.34.11-.61.45-.75.82l-.04.07c.3-.08.82-.45.93-.74.02-.04.03-.09,0-.13-.03-.04-.1-.03-.15-.02h.01Z"/>
      <path class="cls-2" d="M18.42,18.79c.08-.3.07-.69.06-.97,0-.22-.21-.35-.28-.04-.07.28.12.83.19,1.11l.03-.09h0Z"/>
      <path class="cls-2" d="M19.71,17.96c-.31.1-.74.48-.9.79,0,0,.74-.21.97-.39.11-.09.18-.48-.08-.4h.01Z"/>
      <path class="cls-2" d="M18.81,17.82c.06-.26.14-.78.14-.94,0-.06-.02-.14-.08-.15s-.11.04-.13.09c-.12.24-.04.86.01,1.13,0,0,.03-.01.06-.12h0Z"/>
      <path class="cls-2" d="M19.88,17.3c-.23.05-.57.22-.72.41,0,0,.02.04.21.04.32,0,.87-.26.85-.38-.02-.12-.22-.1-.34-.07Z"/>
      <path class="cls-2" d="M19.93,16.6s.05-.09.03-.14c-.02-.05-.07-.07-.12-.06s-.09.03-.13.07c-.23.19-.42.57-.53.85l.07-.03c.26-.14.53-.44.68-.69Z"/>
    </g>
    <g>
      <path class="cls-4" d="M17.51,24.53h-.06c-.17.03-.31.14-.42.27-.1.14-.17.29-.23.45l.04.02c.28-.11.52-.33.67-.59.03-.05.05-.13,0-.16h0Z"/>
      <path class="cls-4" d="M16.91,24.52c.1-.28.11-.59.02-.87-.01-.05-.03-.09-.07-.13-.04-.03-.09-.05-.13-.02-.05.03-.05.09-.05.15,0,.32.08.64.24.93v-.06h-.01Z"/>
      <path class="cls-4" d="M17.81,22.93c-.33.1-.61.38-.7.72l.07.03c.16-.06.32-.14.46-.23.15-.1.3-.23.34-.4v-.08s-.1-.05-.16-.03h0Z"/>
      <path class="cls-4" d="M17.28,22.98v-.03h.01s.01,0,.01-.02c.07-.29.14-.58.13-.88,0-.1-.02-.2-.06-.28-.02-.04-.07-.08-.11-.07-.02,0-.03.02-.04.03-.05.07-.06.17-.06.26,0,.32,0,.64.08.94,0,.02.02.04.04.04h0Z"/>
      <path class="cls-4" d="M18.44,20.79c-.1-.02-.21.02-.3.07-.23.12-.42.32-.52.57h-.02s.11.04.16.02c.3-.08.57-.25.76-.49.01-.02.03-.04.03-.06,0-.06-.05-.09-.11-.1h0Z"/>
      <path class="cls-4" d="M17.81,20.73l.02-.07c.24-.31.3-.75.15-1.11-.01-.02-.02-.05-.05-.06-.05-.01-.08.04-.1.08-.09.25-.08.53-.06.79.01.12.02.24.04.36h0Z"/>
      <path class="cls-4" d="M18.92,19.08s-.08-.01-.12,0c-.25.08-.46.28-.55.53l-.08.06c.28,0,.56-.14.73-.37.03-.03.05-.07.06-.11,0-.04,0-.09-.04-.11Z"/>
      <path class="cls-4" d="M18.44,18.98s.05,0,.06-.02c.15-.26.3-.53.31-.83,0-.06-.01-.13-.06-.15-.04-.01-.08,0-.1.03-.04.04-.07.09-.09.14-.12.29-.17.61-.12.92,0,0,0-.09,0-.09Z"/>
      <path class="cls-4" d="M19.74,17.56s-.05-.01-.07-.01c-.27.03-.52.15-.71.34h-.05c.27.08.58.01.79-.16.03-.02.05-.04.06-.08.01-.03,0-.07-.02-.09Z"/>
      <path class="cls-4" d="M19.32,16.86c-.01-.06-.05-.14-.11-.13-.02,0-.04.02-.06.03-.09.08-.12.22-.14.34-.02.18-.04.36-.04.54l.06.03c.22-.2.33-.51.28-.81h.01Z"/>
    </g>
  </g>
  <g>
    <path class="cls-1" d="M3.55,25.67c-.02-3.94-.75-7.84-2.17-11.51-.03-.09-.18-.05-.14.04,1.41,3.66,2.15,7.55,2.16,11.47,0,.1.15.1.15,0h0Z"/>
    <path class="cls-1" d="M3.01,25.09c-.46-.37-.83-.85-1.05-1.4.5.3.87.8,1,1.37"/>
    <path class="cls-1" d="M3.59,24.13c0-.71.39-1.43.89-1.94-.13.71-.44,1.38-.89,1.94"/>
    <path class="cls-1" d="M2.67,21.57c-.52-.35-.92-.88-1.13-1.47.56.29.98.82,1.13,1.43"/>
    <path class="cls-1" d="M3.51,20.53c-.12-.65,0-1.35.34-1.92.1.67,0,1.37-.3,1.98"/>
    <path class="cls-1" d="M2.15,18.55c-.19-.45-.55-.83-1-1.04.12.5.47.94.94,1.16"/>
    <path class="cls-1" d="M2.6,17.22c.02-.27.03-.53.12-.79s.25-.49.49-.6c-.07.52-.29,1.02-.63,1.42"/>
    <g>
      <path class="cls-2" d="M2.77,15.02c-.08-.04-.17.02-.23.08-.24.25-.37.55-.38.93v.1c.27-.16.62-.57.68-.86.02-.09.02-.21-.07-.25Z"/>
      <path class="cls-2" d="M.79,15.88c-.13.02-.31.14-.14.3.04.04.08.07.13.09.34.16.83.3,1.21.31l-.04-.09c-.16-.25-.8-.66-1.15-.61h-.01Z"/>
      <path class="cls-2" d="M1.91,15.17v.1c.06,0,.48-.83.53-1.11,0-.08.02-.16,0-.23-.03-.07-.11-.13-.19-.1-.05.02-.08.06-.11.1-.22.34-.29.86-.23,1.24Z"/>
      <path class="cls-2" d="M1.65,15.62s-.52-.56-.77-.65c-.35-.13-.63.06-.44.33.22.31,1.06.32,1.21.31h0Z"/>
      <path class="cls-2" d="M1.63,14.35h.06c.26-.26.4-.74.42-1.1,0-.07,0-.16-.07-.18-.06-.02-.11.03-.15.07-.23.27-.35.86-.26,1.21Z"/>
      <path class="cls-2" d="M1.28,14.66c-.14-.24-.63-.69-.9-.72-.11-.01-.24.02-.25.13,0,.09.04.18.11.24.29.24,1.04.42,1.08.45l-.03-.1h-.01Z"/>
      <path class="cls-2" d="M1.45,13.69c.17-.28.43-.68.31-1.08-.02-.08-.16-.04-.22.03-.18.18-.23.87-.14,1.1l.05-.05Z"/>
      <path class="cls-2" d="M.28,13.09c-.06-.02-.12-.04-.18-.02-.1.04-.12.18-.07.28.12.26.81.54,1.08.62-.02-.02-.56-.79-.82-.88h-.01Z"/>
      <path class="cls-2" d="M1.06,13.34c.1-.34,0-.87-.18-1.17-.03-.05-.08-.1-.13-.08-.04.01-.05.06-.06.1-.05.35.06.72.28.99l.09.16Z"/>
    </g>
    <g>
      <path class="cls-4" d="M1.84,15.88c-.06-.1-.13-.19-.23-.25-.05-.03-.1-.05-.16-.04-.02,0-.04.01-.05.03v.06c.04.16.14.3.26.41.12.11.25.21.39.3v-.04c-.05-.17-.12-.32-.21-.47Z"/>
      <path class="cls-4" d="M2.22,14.75s-.05-.08-.09-.08c-.05,0-.09.03-.12.07-.16.21-.17.49-.16.75v.21c.12-.06.23-.31.27-.43.04-.13.08-.25.1-.39v-.12h0Z"/>
      <path class="cls-4" d="M1.62,15s.04-.06.04-.07c.09-.24.19-.67.16-.93,0-.03,0-.06-.04-.07-.04-.02-.08.03-.1.07-.11.25-.15.67-.1.94l.03.07h.01Z"/>
      <path class="cls-4" d="M1.57,15.08c-.07-.13-.15-.26-.25-.37s-.23-.2-.38-.23c-.05-.01-.1-.01-.15,0-.05.02-.09.06-.09.11,0,.06.04.1.08.15.18.27.78.48.89.49.02,0-.09-.15-.09-.15h0Z"/>
      <path class="cls-4" d="M1.37,14.16l.02.08c.05-.15.09-.3.12-.46.02-.08.03-.15.03-.23s-.02-.17-.07-.24c0-.01-.02-.03-.03-.04-.04-.02-.07.02-.09.06-.05.12-.05.26-.04.39,0,.15.03.29.05.44h0Z"/>
      <path class="cls-4" d="M1.03,13.96c.06.04.12.08.19.11l-.06-.19c-.06-.25-.24-.47-.48-.58-.02,0-.04-.02-.05-.01-.05,0-.06.08-.05.12.05.24.25.41.45.54h0Z"/>
      <path class="cls-4" d="M1.2,13.47v-.03c.04-.27.06-.55-.03-.8,0-.03-.04-.07-.09-.06-.03,0-.04.03-.05.05-.05.08-.05.17-.04.25.03.21.1.41.22.59h-.01Z"/>
    </g>
  </g>
  <g>
    <path class="cls-1" d="M14.85,10.68c.15-1.48.34-2.97.75-4.41s1.02-2.79,1.62-4.15c.04-.09-.09-.16-.13-.08-.6,1.37-1.22,2.74-1.63,4.18s-.6,2.95-.75,4.45c0,.1.14.1.15,0h-.01Z"/>
    <path class="cls-1" d="M14.92,9.56c.55-.23,1.03-.6,1.39-1.07-.56.15-1.05.54-1.33,1.05"/>
    <path class="cls-1" d="M14.58,9.27c.03-.71-.34-1.44-.81-1.97.11.71.39,1.39.81,1.97"/>
    <path class="cls-1" d="M15.49,7.93c.53-.33.95-.84,1.18-1.43-.57.27-1.01.79-1.18,1.39"/>
    <path class="cls-1" d="M15.1,6.5c.14-.65.05-1.35-.26-1.93-.12.67-.04,1.37.23,1.99"/>
    <path class="cls-1" d="M16.09,5.82c.21-.44.59-.81,1.04-1-.14.5-.51.92-.98,1.12"/>
    <path class="cls-1" d="M15.74,5.08c0-.27-.01-.54-.09-.79s-.23-.5-.46-.62c.05.52.25,1.03.57,1.44"/>
    <g>
      <path class="cls-2" d="M15.65,2.93c.08-.04.16.03.21.09.22.27.33.58.33.96v.1c-.25-.17-.57-.61-.62-.91-.02-.09,0-.21.07-.25h.01Z"/>
      <path class="cls-2" d="M17.5,3.9c.12.02.29.15.12.32-.04.04-.08.07-.12.09-.32.15-.8.27-1.16.27l.05-.09c.16-.25.79-.64,1.11-.58h0Z"/>
      <path class="cls-2" d="M16.46,3.13v.1c-.06,0-.43-.87-.47-1.15,0-.08-.01-.16.02-.23.03-.07.11-.13.18-.1.05.02.07.06.1.11.19.36.24.89.17,1.27Z"/>
      <path class="cls-2" d="M16.69,3.59s.52-.55.76-.63c.34-.12.6.09.4.36-.22.31-1.02.28-1.16.27Z"/>
      <path class="cls-2" d="M16.75,2.29l-.05-.02c-.24-.26-.35-.76-.36-1.13,0-.07.01-.16.07-.18.05-.02.1.03.14.08.21.29.3.89.2,1.24h0Z"/>
      <path class="cls-2" d="M17.08,2.62c.14-.24.62-.68.88-.7.1,0,.23.03.24.14,0,.09-.05.19-.11.24-.28.24-1.01.39-1.04.42,0,0,.03-.1.03-.1Z"/>
      <path class="cls-2" d="M16.95,1.63c-.15-.29-.38-.71-.26-1.12.03-.09.16-.03.21.04.16.19.19.89.09,1.13l-.05-.05h.01Z"/>
      <path class="cls-2" d="M18.08,1.07c.06-.02.12-.03.17,0,.1.04.11.19.06.29-.12.26-.79.52-1.05.59.02-.02.57-.78.82-.87Z"/>
      <path class="cls-2" d="M17.33,1.29c-.08-.35.03-.89.22-1.19.03-.05.08-.09.12-.07.04.02.05.07.05.11.03.36-.08.73-.3,1l-.09.16h0Z"/>
    </g>
    <g>
      <path class="cls-4" d="M16.55,3.78c.06-.1.14-.19.24-.24.05-.03.1-.04.16-.03.02,0,.04,0,.05.03v.06c-.05.16-.15.29-.27.4s-.26.2-.4.28v-.04c.06-.16.13-.32.23-.46h0Z"/>
      <path class="cls-4" d="M16.22,2.63s.05-.07.09-.07c.05,0,.09.04.12.08.15.21.15.49.13.75v.21c-.13-.06-.22-.32-.26-.44-.04-.13-.07-.26-.09-.39v-.14Z"/>
      <path class="cls-4" d="M16.81,2.91s-.03-.07-.04-.07c-.09-.25-.16-.68-.13-.94,0-.03.01-.06.04-.07.04-.02.08.03.09.07.1.25.12.68.06.94l-.03.07h.01Z"/>
      <path class="cls-4" d="M16.86,2.98c.08-.13.16-.25.27-.36.11-.11.24-.19.39-.21h.15s.09.06.09.11c0,.06-.05.1-.08.14-.19.26-.8.45-.9.45-.02,0,.1-.15.1-.15l-.02.02Z"/>
      <path class="cls-4" d="M17.09,2.07l-.02.08c-.04-.15-.08-.3-.11-.46-.01-.08-.02-.16-.02-.23,0-.08.03-.17.07-.24,0,0,.02-.03.03-.03.04,0,.07.03.08.06.05.12.04.26.03.39-.01.15-.04.29-.07.44h.01Z"/>
      <path class="cls-4" d="M17.43,1.88c-.06.04-.13.07-.19.1l.07-.18c.07-.25.26-.46.5-.56.02,0,.04,0,.05,0,.05,0,.05.08.04.13-.06.23-.26.4-.47.53h0Z"/>
      <path class="cls-4" d="M17.28,1.39v-.03c-.02-.28-.03-.56.07-.8.01-.03.05-.07.1-.05.03,0,.04.03.05.05.05.08.04.17.03.25-.04.21-.12.41-.24.58h-.01Z"/>
    </g>
  </g>
  <path class="cls-1" d="M18.87,25.27c.12-.57.54-1.06,1.08-1.27-.29.49-.59,1.01-1.08,1.31"/>
  <path class="cls-1" d="M15.26,24.28c-.25-.29-.88-1.67-.75-2.03.39.58.65,1.25.74,1.94"/>
  <path class="cls-1" d="M14.85,25.52c-.53-.36-.91-.99-1.01-1.67.44.39.79.77.98,1.47"/>
  <path class="cls-1" d="M10.7,2.78c-.1-.31-.09-1.57.19-1.78.11.58.05,1.17-.16,1.71"/>
  <path class="cls-1" d="M10.91,5.35c-.53-.36-.91-.99-1.01-1.67.44.39.79.77.98,1.47"/>
  <g>
    <path class="cls-1" d="M13.51,14.08c-.07-2.8-.59-5.56-1.56-8.19-.03-.09-.18-.05-.14.04.96,2.61,1.48,5.36,1.55,8.15,0,.1.15.1.15,0h0Z"/>
    <g>
      <path class="cls-2" d="M13.68,8.77s.02-.1-.02-.13c-.04-.02-.09,0-.12.04-.29.25-.44.49-.52.86v.04c.31-.15.59-.49.67-.82h0Z"/>
      <path class="cls-2" d="M12.83,10.03c-.27-.26-.64-.48-.86-.55-.31-.1-.4.08-.15.24.3.19.65.29,1,.32h0Z"/>
      <path class="cls-2" d="M12.89,8.59l.02-.03c.25-.18.45-.44.54-.74.02-.06.02-.16-.05-.16-.02,0-.04,0-.05.02-.32.18-.51.55-.46.91Z"/>
      <path class="cls-2" d="M11.92,8.58s-.08-.02-.12,0c-.06.04-.02.15.03.2.22.22.6.34.9.28-.18-.22-.52-.41-.82-.49h.01Z"/>
      <path class="cls-2" d="M12.59,7.63v.04c.28-.17.54-.55.6-.86v-.06c-.02-.05-.09-.04-.14-.02-.31.14-.44.53-.46.91h0Z"/>
      <path class="cls-2" d="M12.45,7.94l-.02-.07c-.16-.26-.5-.43-.85-.42-.05,0-.1.01-.12.05,0,.03,0,.05.02.07.2.27.6.42.97.37Z"/>
      <path class="cls-2" d="M12.6,6.02c-.2.24-.33.51-.31.82h.03c.23-.2.41-.43.54-.7.03-.06.06-.14.02-.2-.07-.09-.21-.02-.28.07h0Z"/>
      <path class="cls-2" d="M12.12,6.87l-.03-.07c-.06-.13-.19-.22-.33-.26s-.29-.04-.43-.03c-.03,0-.06,0-.08.02-.03.04,0,.1.04.13.22.19.54.27.82.21h.01Z"/>
      <path class="cls-2" d="M12.61,5.11c-.06-.04-.14.02-.18.08-.17.25-.33.6-.32.91l.02.04c.23-.25.4-.54.5-.86.02-.06.03-.14-.02-.17Z"/>
      <path class="cls-2" d="M11.82,6.2l-.04-.1c-.1-.26-.32-.47-.58-.56-.05-.02-.11-.03-.15,0s-.04.09-.03.14c.04.16.17.29.31.37.15.08.31.11.48.15h0Z"/>
      <path class="cls-2" d="M11.83,5.65c.08-.35,0-.74-.19-1.04-.02-.04-.07-.08-.1-.06-.03.01-.03.05-.04.07-.05.38.07.78.32,1.08v-.05h.01Z"/>
      <path class="cls-2" d="M14.06,9.94c-.05-.07-.16-.02-.23.03-.25.2-.45.47-.58.76,0,0,.13-.04.19-.07.26-.13.48-.3.61-.56.03-.05.05-.12.01-.17h0Z"/>
      <path class="cls-2" d="M11.91,10.63s0,.04.02.06c.06.1.18.16.29.2.23.09.48.12.72.11l.02-.03c-.23-.25-.56-.41-.89-.43-.07,0-.16.02-.16.09Z"/>
    </g>
    <g>
      <path class="cls-4" d="M12.57,10.22c-.06-.01-.14,0-.15.06v.05c.05.14.16.25.29.34s.26.12.37.21l.05.02c-.04-.15-.1-.3-.19-.43s-.23-.23-.38-.26h0Z"/>
      <path class="cls-4" d="M13.61,9.39s-.08-.02-.12,0c-.15.05-.41.59-.42.75h0c.22-.1.4-.36.53-.57.04-.06.06-.14.01-.18Z"/>
      <path class="cls-4" d="M12.91,9.62l.05.02c.03-.24-.11-.55-.25-.75-.07-.1-.18-.19-.29-.15-.01,0-.02,0-.03.02-.01.02-.01.04,0,.06.05.32.25.62.52.8Z"/>
      <path class="cls-4" d="M13.1,7.89c.03-.08.05-.16.02-.24-.01-.05-.05-.1-.1-.1-.03,0-.06.02-.09.04-.21.19-.29.47-.31.75v.06c.21-.1.39-.29.47-.51h.01Z"/>
      <path class="cls-4" d="M12.45,7.7c-.04-.16-.09-.32-.17-.46s-.21-.27-.36-.32c-.04-.01-.08-.02-.11,0-.02.02-.01.06,0,.09.04.16.13.29.25.4s.25.2.39.28h0Z"/>
      <path class="cls-4" d="M12.18,6.67s.16-.33.2-.48c.03-.11.05-.24-.02-.33,0-.01-.02-.02-.03-.03h-.03c-.06.04-.1.1-.12.17-.02.07-.02.14-.01.21,0,.12.01.32.02.45h-.01Z"/>
      <path class="cls-4" d="M11.95,6.11v-.03c0-.24-.07-.48-.21-.68-.02-.03-.05-.07-.08-.08-.04-.02-.09-.01-.11.02-.02.02-.01.06,0,.09.05.27.19.52.41.69h-.01Z"/>
    </g>
    <path class="cls-1" d="M13.55,13.42c.11-.37.52-.76.88-.93-.14.38-.51.75-.88.93"/>
    <path class="cls-1" d="M13.43,13.97c-.56-.19-.9-.71-1.2-1.2.27.07.5.24.68.45s.31.45.45.68"/>
    <path class="cls-1" d="M13.55,12.41c.04-.45.39-1.08.77-1.32-.15.38-.48,1.02-.77,1.32"/>
    <path class="cls-1" d="M13.29,12.41c-.18-.37-.57-.83-.91-1.06.11.4.39.74.75.94"/>
  </g>
  <g>
    <path class="cls-1" d="M10.56,11.03c-1.33,2.16-2.39,4.51-3.42,6.82-1.03,2.31-2.15,4.56-2.62,6.96-.02.09.13.13.14.04.48-2.45,1.66-4.84,2.68-7.09s2.06-4.55,3.35-6.66c.05-.08-.08-.16-.13-.08h0Z"/>
    <g>
      <path class="cls-2" d="M7.05,15.31c-.16.08-.15.31-.08.47.11.29.7.66.71.63.01-.28-.04-.56-.16-.82-.08-.19-.28-.38-.46-.29h-.01Z"/>
      <path class="cls-2" d="M8.99,15.95c-.09,0-.18.04-.26.09-.21.12-.59.54-.59.54.33.1.71.01.96-.23.07-.07.13-.16.11-.25s-.12-.14-.21-.14h0Z"/>
      <path class="cls-2" d="M8.12,14.66c-.05-.11-.17-.19-.29-.16-.19.04-.23.29-.19.48.05.25.35.68.35.68.09-.21.15-.43.17-.65.01-.12,0-.24-.04-.35Z"/>
      <path class="cls-2" d="M9.34,14.92c-.34.08-.63.33-.76.64,0,0,.11.05.19.03.29-.07.57-.22.77-.44.03-.03.06-.07.06-.11,0-.11-.16-.15-.27-.12h.01Z"/>
      <path class="cls-2" d="M8.45,14.75s.1-.21.14-.32c.05-.15.11-.31.1-.48s-.1-.33-.25-.39c-.07-.03-.16-.02-.22.03-.07.06-.07.17-.06.26.04.31.14.62.29.89h0Z"/>
      <path class="cls-2" d="M9.81,13.88c-.07-.04-.16-.02-.23.01-.24.09-.67.57-.67.68.25-.02.5-.09.73-.2.09-.05.19-.11.24-.2s.03-.23-.07-.28h0Z"/>
      <path class="cls-2" d="M8.89,13.62c.22-.19.33-.49.28-.77-.01-.09-.04-.18-.11-.24-.06-.06-.17-.09-.24-.04-.08.05-.1.16-.1.26,0,.23.04.47.13.68,0,0,.04.11.04.11Z"/>
      <path class="cls-2" d="M10.22,12.81c-.08,0-.16.04-.23.08-.21.13-.61.61-.61.61,0,.07.09.1.16.1.34-.02.66-.22.81-.52.02-.04.04-.08.03-.13,0-.08-.09-.14-.17-.14h0Z"/>
      <path class="cls-2" d="M9.64,12.06c-.02-.13-.12-.28-.24-.23-.08.03-.1.13-.1.21-.01.24.17.78.17.78.15-.22.22-.49.18-.76h-.01Z"/>
      <path class="cls-2" d="M10.48,11.83c-.25.18-.56.58-.56.61.41.07.99-.49.94-.61s-.24-.1-.38,0Z"/>
      <path class="cls-2" d="M9.8,11.9c.21-.16.34-.41.34-.66,0-.04,0-.09-.02-.12-.06-.1-.23-.08-.3.02-.07.1-.06.23-.05.34s.02.42.02.42h.01Z"/>
      <path class="cls-2" d="M11.29,11.08c-.06-.03-.13-.02-.19,0-.25.06-.54.18-.56.43.27,0,.53-.12.72-.31,0,0,.09-.08.03-.12Z"/>
      <path class="cls-2" d="M10.41,11.06c.19-.15.3-.39.29-.63,0-.08-.05-.18-.13-.17-.03,0-.05.02-.07.04-.2.17-.2.48-.19.75,0,.09.1.02.1.02h0Z"/>
      <path class="cls-2" d="M11.4,10.17c-.05-.02-.11.01-.15.05-.18.14-.31.33-.37.54.25.02.5-.17.54-.42,0,0,.03-.15-.02-.17Z"/>
    </g>
    <g>
      <path class="cls-4" d="M8.06,15.29c-.08-.02-.16.03-.2.1-.05.07-.06.16-.08.25-.04.3.02.88.03.91,0,.03.04,0,.05-.01.23-.22.35-.57.35-.91,0-.13-.03-.3-.15-.33h0Z"/>
      <path class="cls-4" d="M9.21,14.64s-.09-.02-.14,0c-.29.07-.5.33-.65.59,0,0-.05.08.21.05.13-.02.27-.04.38-.12s.21-.18.24-.31c.02-.07.02-.17-.05-.21h.01Z"/>
      <path class="cls-4" d="M8.9,14.27c.1-.15.22-.46.22-.62,0-.1-.04-.23-.14-.24-.06-.01-.13.03-.16.09-.04.06-.05.12-.06.19-.03.22-.05.45.03.65,0,0,.07.01.12-.06h0Z"/>
      <path class="cls-4" d="M9.85,12.72c-.11,0-.2.08-.28.16-.07.08-.19.35-.2.39v.04s.04.01.06,0c.12-.05.24-.1.34-.17.1-.08.18-.19.19-.32v-.06s-.07-.05-.11-.05h0Z"/>
      <path class="cls-4" d="M9.96,11.7s-.06-.04-.09-.03-.08.06-.09.08c-.07.16-.07.43-.06.6,0,.07.07.15.07.15.17-.17.23-.47.19-.71,0-.03-.01-.06-.03-.09h.01Z"/>
      <path class="cls-4" d="M10.57,11.33c-.17.09-.3.41-.32.46-.03.06.04,0,.06,0,.14-.06.27-.15.38-.26.03-.03.05-.06.06-.1,0-.04,0-.08-.03-.11-.04-.03-.1-.01-.15.01Z"/>
      <path class="cls-4" d="M10.68,11.1c.14-.16.22-.38.18-.59,0-.03-.03-.08-.06-.07-.02,0-.03.03-.04.04-.14.25-.12.38-.13.58,0,0-.02.11.05.03h0Z"/>
    </g>
    <path class="cls-1" d="M6.7,19.95c.37-.63,1.08-1.03,1.8-1.03-.59.52-1.14.71-1.74,1.04"/>
    <path class="cls-1" d="M6.06,18.49c-.11-.79-.06-1.6.15-2.38.08-.03.2,1.29-.13,2.33"/>
    <path class="cls-1" d="M4.86,22.26c-.31-.63-.46-1.34-.43-2.04.33.62.47,1.34.41,2.04"/>
    <path class="cls-1" d="M5.5,24.63c.42-.74,1.01-1.39,1.71-1.87-.41.75-1.01,1.39-1.72,1.87"/>
    <path class="cls-1" d="M5.81,22.2c.31-.41,1.2-.74,1.86-.77-.36.43-1.04.73-1.75.77"/>
    <path class="cls-1" d="M5.56,20.28c-.26-.52-.49-1.71-.4-2.29.26.53.39,1.12.4,1.7"/>
    <path class="cls-1" d="M7.38,18.15c.37-.43,1.39-.77,1.96-.85-.44.32-1.32.71-1.85.85"/>
  </g>
  <path class="cls-1" d="M6.39,13.94c-.08-.59.4-1.47.92-1.77-.14.61-.43,1.18-.82,1.66"/>
  <path class="cls-1" d="M5.98,14.74c-.31-.5-1.1-.96-1.69-1.03.19.24.42.4.67.59s.71.47,1.02.44"/>
  <path class="cls-1" d="M46.1,14.74c-.31-.5-1.1-.96-1.69-1.03.19.24.42.4.67.59s.71.47,1.02.44"/>
  <g>
    <path class="cls-1" d="M2.01,4.28c2.05,2.61,2.72,5.95,3.32,9.14.02.09.16.05.14-.04-.61-3.22-1.29-6.56-3.36-9.2-.06-.08-.17.03-.11.11h0Z"/>
    <path class="cls-1" d="M5.51,12.74c-.19-.58-.05-1.25.36-1.7.08.19.03.41-.03.61-.11.38-.21.76-.32,1.14"/>
    <path class="cls-1" d="M5.08,12.62c-.57-.31-1.22-.62-1.84-.46.15.08.3.16.45.24.21.11,1.17.33,1.37.2"/>
    <path class="cls-1" d="M5.03,10.67c.04-.56.35-1.09.82-1.38-.22.51-.53,1.26-.89,1.68"/>
    <path class="cls-1" d="M4.75,11.52c-.2-.65-.87-1.19-1.5-1.43.37.55.82,1.01,1.39,1.36"/>
    <path class="cls-1" d="M4.72,9.34c-.12-.58,0-1.52.32-1.97.04.6.01,1.53-.32,1.97"/>
    <path class="cls-1" d="M4.39,9.2c-.41-.52-1.08-.82-1.74-.79.49.42,1.16.73,1.71.78"/>
    <g>
      <path class="cls-2" d="M2.38,7.3c-.07.05-.12.16-.06.22.02.02.05.03.08.03.46.1.96,0,1.34-.28l.05-.05c-.23-.07-.47-.13-.72-.13s-.5.05-.68.21h0Z"/>
      <path class="cls-2" d="M4.91,6.38s-.07-.03-.11-.02c-.29.11-.49.38-.67.62-.09.12-.16.28-.18.42l.06-.02c.41-.17.75-.53.9-.95,0-.02.01-.04,0-.06h0Z"/>
      <path class="cls-2" d="M4.48,5.48s-.04-.09-.09-.1c-.03,0-.07.01-.1.03-.15.1-.25.27-.33.43-.13.25-.18.51-.23.8,0,0,.58-.63.72-1.02.02-.04.03-.09.03-.14Z"/>
      <path class="cls-2" d="M3.31,6.41c-.39-.1-.81-.2-1.21-.11-.07.02-.15.05-.17.12,0,.05.03.11.07.13.05.03.1.03.16.04.28.03,1.14-.19,1.14-.19h0Z"/>
      <path class="cls-2" d="M3.99,4.91c.03-.07.03-.19-.05-.2-.03,0-.05.01-.08.03-.11.08-.19.2-.26.32-.14.27-.24.56-.29.86,0,0,.54-.63.67-1.01h0Z"/>
      <path class="cls-2" d="M2.96,5.57l-.08-.02c-.35-.13-.76-.13-1.11,0-.05.02-.12.07-.1.12,0,.04.07.06.11.07.34.06,1.1-.14,1.18-.18h0Z"/>
      <path class="cls-2" d="M3.57,4.19c0-.06,0-.14-.07-.16-.03,0-.05,0-.07.02-.12.07-.19.21-.25.35-.11.26-.18.54-.18.83l.02.04c.31-.27.51-.67.55-1.08Z"/>
      <path class="cls-2" d="M2.94,3.37c-.12.03-.18.16-.21.27-.11.33-.14.67-.16,1.02v.05c.31-.36.45-.87.38-1.34h0Z"/>
      <path class="cls-2" d="M2.35,4.83c-.36-.14-.77-.14-1.12,0-.02,0-.05.02-.06.04-.02.03,0,.08.03.1s.07.03.11.03c.3.02.6,0,.9-.06.04,0,.17-.06.21-.08"/>
      <path class="cls-2" d="M2.14,4.19c.24-.33.36-.75.32-1.15,0-.04,0-.07-.04-.09-.06-.04-.13.03-.16.09-.16.3-.22.77-.13,1.1v.06h0Z"/>
      <path class="cls-2" d="M1.86,4.08c-.33-.17-.79-.22-1.13-.07-.05.02-.11.08-.09.13.01.03.05.04.09.05.32.07.66.05.97-.07.04-.02.1-.05.16-.05h0Z"/>
      <path class="cls-2" d="M1.86,3.78c.11-.31.14-.69.11-1.02,0-.05-.02-.12-.08-.13-.04,0-.07.03-.09.06-.19.29-.11.78.06,1.08h0Z"/>
      <path class="cls-2" d="M1.61,3.66l-.03-.06c-.08-.21-.18-.42-.33-.59-.15-.17-.36-.3-.58-.32h-.08c-.08.04-.05.16,0,.23.22.36.62.61,1.02.73h0Z"/>
    </g>
    <g>
      <path class="cls-4" d="M4.02,6.54v-.25s0-.04-.02-.06c-.04-.03-.09.02-.11.06-.19.32-.21.76-.07,1.1l.03-.02s.07-.11.09-.17c.06-.22.09-.44.1-.67h-.02Z"/>
      <path class="cls-4" d="M3.17,6.22c-.11-.09-.24-.16-.39-.18-.02,0-.06,0-.06.02v.04c.13.27.41.49.73.58h.06c0-.07-.03-.12-.07-.16-.08-.1-.17-.21-.28-.3h0Z"/>
      <path class="cls-4" d="M3.32,6.06c.05-.08.07-.17.1-.26.07-.25.13-.51.09-.77,0-.04-.03-.09-.07-.09-.03,0-.05.02-.06.04-.03.04-.05.09-.06.14-.1.31-.1.64,0,.95h.02-.02Z"/>
      <path class="cls-4" d="M2.99,5.65c-.06-.16-.19-.29-.32-.42-.07-.06-.13-.13-.22-.18-.08-.05-.19-.08-.29-.07-.03,0-.06.01-.08.03-.02.03-.02.06,0,.09.05.13.16.23.3.31s.29.13.45.18c.07.02.13.04.2.06l-.03-.02v.02Z"/>
      <path class="cls-4" d="M2.71,5.02c.08-.13.14-.27.2-.41.08-.2.14-.42.09-.63,0-.02,0-.05-.04-.06-.03-.02-.07,0-.09.03-.06.06-.1.15-.13.23-.09.26-.11.55-.05.82h.02v.02Z"/>
      <path class="cls-4" d="M1.71,4.21c-.08-.01-.17-.02-.25-.02s-.17.03-.23.08c-.02.02-.04.04-.04.07,0,.06.06.12.14.14.06.02.13.03.2.04.22.01.43-.02.65-.05l.07-.03c-.11-.14-.33-.2-.53-.23h0Z"/>
      <path class="cls-4" d="M2.07,4.24c.08-.12-.1-.75-.18-.92-.02-.04-.03-.07-.06-.1-.03-.02-.08-.03-.11,0-.03.02-.03.07-.03.1,0,.33.12.66.35.9l.04.02h-.01Z"/>
    </g>
  </g>
  <g>
    <path class="cls-2" d="M11.54,15.39c.03-.33.08-.74.23-1.05.02-.04.04-.09.08-.11.07-.05.14,0,.17.07s0,.17-.02.26c-.08.29-.22.57-.41.79"/>
    <path class="cls-2" d="M11.7,15.49c.11-.12.22-.24.35-.33s.29-.16.45-.17c.06,0,.12,0,.15.05.02.04,0,.1-.03.14-.09.13-.23.22-.38.27s-.48.1-.63.12"/>
    <path class="cls-2" d="M11.46,15.71c-.06-.4-.16-.71-.44-1.01-.07-.07-.19-.14-.26-.07-.03.03-.04.07-.04.11-.01.25.55.8.69.94"/>
    <path class="cls-4" d="M11.34,14.86c-.06-.08-.28-.51-.3-.64-.02-.24.16-.29.27-.11.09.15.12.48.07.82"/>
    <path class="cls-4" d="M12.03,14.91c.05-.11.14-.2.22-.29.13-.14.27-.27.45-.33.05-.02.1-.02.14-.02.01,0,.03,0,.04.02v.03s-.02.07-.04.1c-.05.07-.12.13-.19.18-.12.09-.5.27-.56.28"/>
  </g>
  <g>
    <path class="cls-2" d="M13.01,2.05c.03-.33.08-.74.23-1.05.02-.04.04-.09.08-.11.07-.05.14,0,.17.07s0,.17-.02.26c-.08.29-.22.57-.41.79"/>
    <path class="cls-2" d="M13.17,2.16c.11-.12.22-.24.35-.33s.29-.16.45-.17c.06,0,.12,0,.15.05.02.04,0,.1-.03.14-.09.13-.23.22-.38.27-.15.05-.48.1-.63.12"/>
    <path class="cls-2" d="M12.93,2.37c-.06-.4-.16-.71-.44-1.01-.07-.07-.19-.14-.26-.07-.03.03-.04.07-.04.11-.01.25.55.8.69.94"/>
    <path class="cls-4" d="M12.81,1.52c-.06-.08-.28-.51-.3-.64-.02-.24.16-.29.27-.11.09.15.12.48.07.82"/>
    <path class="cls-4" d="M13.5,1.57c.05-.11.14-.2.22-.29.13-.14.27-.27.45-.33.05-.02.1-.02.14-.02.01,0,.03,0,.04.02v.03s-.02.07-.04.1c-.05.07-.12.13-.19.18-.12.09-.5.27-.56.28"/>
  </g>
  <g>
    <path class="cls-2" d="M6.14,6.13c.03-.33.08-.74.23-1.05.02-.04.04-.09.08-.11.07-.05.14,0,.17.07s0,.17-.02.26c-.08.29-.22.57-.41.79"/>
    <path class="cls-2" d="M3.88,1.92c-.08-.14-.16-.28-.21-.44s-.06-.32-.03-.48c0-.05.04-.12.09-.13.05,0,.09.03.12.07.1.12.14.28.15.44s-.05.49-.07.64"/>
    <path class="cls-2" d="M6.05,6.44c-.06-.4-.16-.71-.44-1.01-.07-.07-.19-.14-.26-.07-.03.03-.04.07-.04.11-.01.25.55.8.69.94"/>
    <path class="cls-4" d="M5.93,5.59c-.06-.08-.28-.51-.3-.64-.02-.24.16-.29.27-.11.09.15.12.48.07.82"/>
    <path class="cls-4" d="M3.42,1.44c-.09-.08-.15-.19-.21-.3-.09-.17-.18-.34-.18-.53,0-.05,0-.1.03-.14,0,0,.02-.03.03-.03h.03s.06.04.08.07c.05.07.08.15.11.23.05.14.11.56.1.62"/>
  </g>
  <g>
    <path class="cls-2" d="M18.66,14.8c.17-.28.41-.63.68-.83.04-.03.08-.06.12-.07.08-.01.13.06.12.14s-.07.15-.13.22c-.2.22-.46.41-.72.52"/>
    <path class="cls-2" d="M2.04,11.34c-.05-.15-.1-.31-.11-.47s0-.33.07-.47c.02-.05.06-.11.12-.1.05,0,.08.05.1.09.07.14.07.31.05.46s-.15.46-.21.61"/>
    <path class="cls-2" d="M18.44,15.04c.13-.39.18-.71.07-1.1-.03-.1-.11-.22-.2-.18-.04.01-.06.04-.08.08-.13.22.13.96.19,1.15"/>
    <path class="cls-4" d="M18.72,14.23c-.02-.1-.02-.58.03-.71.08-.22.27-.19.29.02.02.17-.11.48-.31.76"/>
    <path class="cls-2" d="M4.75,17.37c-.17-.28-.41-.63-.68-.83-.04-.03-.08-.06-.12-.07-.08-.01-.13.06-.12.14s.07.15.13.22c.2.22.46.41.72.52"/>
    <path class="cls-2" d="M4.97,17.62c-.13-.39-.18-.71-.07-1.1.03-.1.11-.22.2-.18.04.01.06.04.08.08.13.22-.13.96-.19,1.15"/>
    <path class="cls-4" d="M4.69,16.8c.02-.1.02-.58-.03-.71-.08-.22-.27-.19-.29.02-.02.17.11.48.31.76"/>
    <path class="cls-2" d="M45.68,17.37c-.17-.28-.41-.63-.68-.83-.04-.03-.08-.06-.12-.07-.08-.01-.13.06-.12.14s.07.15.13.22c.2.22.46.41.72.52"/>
    <path class="cls-2" d="M45.9,17.62c-.13-.39-.18-.71-.07-1.1.03-.1.11-.22.2-.18.04.01.06.04.08.08.13.22-.13.96-.19,1.15"/>
    <path class="cls-4" d="M45.62,16.8c.02-.1.02-.58-.03-.71-.08-.22-.27-.19-.29.02-.02.17.11.48.31.76"/>
    <path class="cls-2" d="M13,22.37c.17-.28.41-.63.68-.83.04-.03.08-.06.12-.07.08-.01.13.06.12.14s-.07.15-.13.22c-.2.22-.46.41-.72.52"/>
    <path class="cls-4" d="M13.06,21.8c-.02-.1-.02-.58.03-.71.08-.22.27-.19.29.02.02.17-.11.48-.31.76"/>
    <path class="cls-2" d="M7.85,11.97c.17-.28.41-.63.68-.83.04-.03.08-.06.12-.07.08-.01.13.06.12.14s-.07.15-.13.22c-.2.22-.46.41-.72.52"/>
    <path class="cls-4" d="M7.91,11.4c-.02-.1-.02-.58.03-.71.08-.22.27-.19.29.02.02.17-.11.48-.31.76"/>
    <path class="cls-4" d="M1.69,10.77c-.07-.1-.11-.22-.14-.34-.05-.18-.1-.37-.06-.56,0-.05.03-.1.05-.13,0-.01.02-.02.04-.02h.03s.05.05.07.09c.03.08.05.16.06.25.02.15-.02.57-.03.63"/>
  </g>
  <g>
    <path class="cls-2" d="M6.58,25.21c.03-.33.08-.74.23-1.05.02-.04.04-.09.08-.11.07-.05.14,0,.17.07s0,.17-.02.26c-.08.29-.22.57-.41.79"/>
    <path class="cls-2" d="M6.74,25.13c.11-.12.22-.24.35-.33s.29-.16.45-.17c.06,0,.12,0,.15.05.02.04,0,.1-.03.14-.09.13-.23.22-.38.27s-.48.1-.63.12"/>
    <path class="cls-2" d="M1.35,23.31c-.06-.4-.16-.71-.44-1.01-.07-.07-.19-.14-.26-.07-.03.03-.04.07-.04.11,0,.25.55.8.69.94"/>
    <path class="cls-4" d="M1.35,22.66c-.06-.08-.28-.51-.3-.64-.02-.24.16-.29.27-.11.09.15.12.48.07.82"/>
    <path class="cls-4" d="M7.06,24.61c.05-.11.14-.2.22-.29.13-.14.27-.27.45-.33.05-.02.1-.02.14-.02.01,0,.03,0,.04.02v.03s-.02.07-.04.1c-.05.07-.12.13-.19.18-.12.09-.5.27-.56.28"/>
  </g>
  <path class="cls-1" d="M5.29,3.76c-.35-.71-.48-1.54-.34-2.33.39.73.53,1.6.39,2.42"/>
  <path class="cls-1" d="M18.57,4.53c.16-.61.52-1.13,1.01-1.45-.14.65-.51,1.19-1.03,1.52"/>
  <path class="cls-1" d="M3.58,2.37c-.6-.4-1.11-.93-1.5-1.54.66.33,1.2.88,1.52,1.54"/>
  <g>
    <path class="cls-1" d="M30.58,17.58c.84,2.64,1.13,5.42.86,8.17,0,.1.14.1.15,0,.27-2.77-.02-5.56-.86-8.21-.03-.09-.17-.05-.14.04h-.01Z"/>
    <g>
      <path class="cls-2" d="M30.78,16.49c0-.08-.04-.18-.11-.18-.09,0-.14.11-.14.21-.01.22,0,.45.06.66.13-.18.21-.47.2-.69h-.01Z"/>
      <path class="cls-2" d="M31.01,18.04c.2-.28.34-.92.19-.99s-.22.2-.23.35c-.02.21-.01.42.01.63l.03.02h0Z"/>
      <path class="cls-2" d="M30.46,17.35v-.03c-.07-.18-.24-.33-.44-.38-.09-.02-.21,0-.22.09,0,.03.01.07.03.09.13.19.39.29.62.23h0Z"/>
      <path class="cls-2" d="M30.25,18.54c.19.14.42.22.65.22h.02c-.11-.28-.32-.5-.58-.63-.04-.02-.08-.03-.12-.03-.1,0-.16.12-.14.22s.09.17.17.23h0Z"/>
      <path class="cls-2" d="M31.94,18.26h-.09c-.15.08-.25.23-.3.39s-.08.38-.08.55c.27-.2.46-.52.5-.86,0-.03,0-.07-.02-.09h-.01Z"/>
      <path class="cls-2" d="M31.1,19.81l-.03-.1c-.15-.24-.38-.43-.65-.53-.09-.04-.23-.05-.27.04-.03.06,0,.13.03.18.18.31.57.49.92.4h0Z"/>
      <path class="cls-2" d="M32.21,19.72c.02-.07,0-.17-.07-.19-.02,0-.05,0-.07.01-.16.07-.28.22-.35.39-.06.17-.09.39-.1.57l.04-.02c.24-.21.49-.44.56-.76h-.01Z"/>
      <path class="cls-2" d="M30.8,20.45c-.07-.04-.17-.08-.24-.03-.09.06-.08.19-.03.29.14.25.44.36.72.44l.07.04c-.06-.27-.27-.6-.51-.74h0Z"/>
      <path class="cls-2" d="M32.32,21.35c.04-.07.08-.15.08-.23s-.07-.16-.15-.16c-.05,0-.09.03-.13.06-.22.18-.4.53-.42.82.26-.09.49-.26.63-.49h-.01Z"/>
      <path class="cls-2" d="M31.03,21.88c-.12-.05-.28-.03-.36.07-.08.11-.04.27.05.37s.22.16.34.21c.1.04.33.11.43.15v-.05c-.03-.17-.09-.34-.18-.49-.07-.11-.15-.22-.27-.27h0Z"/>
      <path class="cls-2" d="M32.5,22.79c.04-.07.07-.16,0-.21-.04-.04-.11-.03-.16-.01-.17.06-.3.2-.39.36s-.13.34-.18.51v.04c.3-.14.56-.39.72-.69h.01Z"/>
      <path class="cls-2" d="M30.95,23.27c-.06-.04-.13-.08-.2-.09-.07,0-.16.02-.19.09-.06.11.03.23.12.31.19.17.42.31.66.4l.08.02c-.06-.29-.24-.55-.47-.72h0Z"/>
      <path class="cls-2" d="M32.8,23.98s0-.06-.02-.07c-.02-.02-.05-.02-.07-.02-.41.02-.79.24-.9.64l.03-.02c.23-.04.46-.12.68-.22.13-.06.28-.16.28-.31Z"/>
      <path class="cls-2" d="M30.69,24.37c-.12-.08-.28-.13-.38-.03-.04.04-.06.1-.06.16-.01.21.16.38.34.49s.46.2.67.24l-.02-.06c-.07-.32-.27-.61-.55-.79h0Z"/>
      <path class="cls-2" d="M32.93,24.79s-.05-.01-.08,0c-.36.03-.71.22-.87.54l-.03.04c.32.01.71-.12.94-.34.07-.06.12-.19.04-.23h0Z"/>
    </g>
    <g>
      <path class="cls-4" d="M31.41,24.51c-.06-.04-.14-.06-.2-.01-.06.05-.07.13-.06.21.02.29.14.58.35.79l.04-.05c.05-.21.04-.55-.01-.75-.02-.07-.06-.14-.11-.18h-.01Z"/>
      <path class="cls-4" d="M32.16,24.43c-.18.11-.41.28-.54.45l.03.05c.28.05.68-.09.84-.33.02-.03.04-.06.03-.09,0-.06-.05-.26-.36-.07h0Z"/>
      <path class="cls-4" d="M32.14,23.61c.01-.07.02-.14,0-.2s-.09-.11-.16-.1c-.04,0-.08.04-.11.08-.22.24-.32.59-.26.91.27-.14.47-.39.53-.69Z"/>
      <path class="cls-4" d="M31.17,22.33c-.08,0-.3.12-.14.49.07.18.45.44.57.59v-.11c-.02-.3-.08-.55-.17-.75-.05-.11-.13-.22-.25-.22h-.01Z"/>
      <path class="cls-4" d="M31.67,21.5c-.12.19-.18.44-.11.66l.05.08c.15-.18.42-.4.43-.63.03-.39-.23-.34-.37-.11Z"/>
      <path class="cls-4" d="M31.54,20.67c-.05.16-.1.32-.07.48v.02c.09-.07.19-.15.27-.24s.23-.31.22-.43c0-.04-.15-.25-.33.01-.04.05-.07.11-.09.17h0Z"/>
      <path class="cls-4" d="M31.37,20.56l-.03-.09c-.03-.13-.19-.46-.38-.59-.11-.08-.29-.17-.32,0-.05.28.22.41.31.49s.32.15.43.2h-.01Z"/>
      <path class="cls-4" d="M31.37,18.96c-.05.06-.1.31-.11.38,0,.15,0,.21-.02.44v.12c.12-.09.23-.28.32-.49.06-.14.08-.3.08-.36,0-.23-.2-.18-.28-.08h.01Z"/>
      <path class="cls-4" d="M31.39,18.09c0-.08-.04-.18-.12-.17-.06,0-.1.07-.12.13-.06.2-.09.51-.1.77v.07c.15-.13.34-.6.33-.79h.01Z"/>
      <path class="cls-4" d="M30.79,18.09c-.06-.13-.27-.33-.39-.4-.05-.03-.13-.06-.18-.02-.04.03-.05.09-.02.14.02.05.06.08.1.12.11.09.4.25.54.25l-.05-.08h0Z"/>
      <path class="cls-4" d="M30.69,17.72c.13-.21.16-.48.07-.72-.01-.04-.03-.07-.06-.09-.05-.03-.12,0-.15.05-.03.05-.04.11-.04.17,0,.17.05.34.13.5l.05.1h0Z"/>
      <path class="cls-4" d="M31.44,21.42c-.08-.15-.21-.28-.35-.37-.07-.04-.15-.07-.22-.03-.06.03-.08.12-.06.18.02.07.07.12.12.16.15.12.34.19.54.18l-.02-.12h-.01Z"/>
    </g>
  </g>
  <g>
    <path class="cls-1" d="M27.93,1.37c.58,2.7.6,5.49.07,8.2-.02.09.13.13.14.04.54-2.74.51-5.55-.07-8.28-.02-.09-.16-.05-.14.04h0Z"/>
    <g>
      <path class="cls-2" d="M28.22.3c0-.08-.02-.18-.1-.19-.09-.02-.15.1-.16.19-.03.22-.04.44,0,.67.14-.16.25-.45.27-.66h-.01Z"/>
      <path class="cls-2" d="M28.3,1.86c.23-.26.43-.88.28-.97s-.24.18-.26.33c-.04.21-.05.42-.05.62,0,0,.03.02.03.02Z"/>
      <path class="cls-2" d="M27.82,1.12v-.03c-.05-.19-.2-.35-.39-.42-.08-.03-.21-.02-.22.07,0,.03,0,.07.02.1.11.21.36.33.59.28Z"/>
      <path class="cls-2" d="M27.5,2.29c.17.16.39.26.63.28h.02c-.09-.29-.28-.53-.52-.68-.04-.02-.07-.04-.12-.04-.1,0-.17.11-.16.2.01.09.08.18.15.24Z"/>
      <path class="cls-2" d="M29.21,2.17s-.06,0-.09,0c-.16.06-.27.21-.34.36s-.11.37-.13.54c.29-.17.51-.47.58-.8,0-.03.01-.07-.01-.1h-.01Z"/>
      <path class="cls-2" d="M28.23,3.64l-.02-.1c-.13-.25-.34-.46-.59-.59-.09-.05-.22-.07-.28.02-.03.05-.02.12.01.18.14.33.52.54.88.49Z"/>
      <path class="cls-2" d="M29.34,3.65c.02-.07.02-.17-.05-.19h-.07c-.17.05-.3.19-.38.35-.08.16-.13.38-.16.55l.04-.02c.26-.19.53-.4.63-.7h-.01Z"/>
      <path class="cls-2" d="M27.87,4.24c-.07-.05-.16-.09-.24-.05-.09.05-.1.19-.06.28.11.27.4.4.67.5l.06.05c-.04-.27-.21-.62-.44-.78h.01Z"/>
      <path class="cls-2" d="M29.29,5.29c.05-.06.1-.14.1-.22s-.06-.17-.14-.18c-.05,0-.1.02-.14.05-.24.16-.45.49-.5.78.27-.06.51-.22.68-.43Z"/>
      <path class="cls-2" d="M27.96,5.69c-.11-.06-.28-.06-.36.04-.09.1-.07.27,0,.38.08.11.2.18.32.25.09.05.32.14.41.19v-.05c-.01-.18-.06-.35-.13-.51-.06-.12-.13-.23-.25-.3h.01Z"/>
      <path class="cls-2" d="M29.34,6.74c.04-.06.08-.16.03-.21-.04-.04-.1-.04-.16-.03-.18.04-.32.17-.42.32s-.17.32-.23.49v.04c.31-.11.59-.33.78-.61Z"/>
      <path class="cls-2" d="M27.74,7.07c-.06-.05-.12-.1-.19-.11-.07-.02-.16,0-.2.07-.07.1,0,.23.09.32.18.19.39.35.62.46l.08.02c-.04-.29-.18-.57-.4-.77h0Z"/>
      <path class="cls-2" d="M29.52,7.95s0-.06-.02-.07c-.02-.02-.04-.02-.07-.02-.41-.02-.81.16-.96.55h.03c.24-.03.47-.09.69-.17.14-.05.29-.14.31-.28h.02Z"/>
      <path class="cls-2" d="M27.38,8.14c-.11-.09-.27-.16-.38-.07-.05.04-.07.09-.08.15-.03.21.12.39.29.52.17.13.43.25.64.31v-.06c-.05-.33-.22-.63-.48-.84h0Z"/>
      <path class="cls-2" d="M29.57,8.77s-.05-.02-.08-.02c-.36,0-.73.15-.92.45l-.03.04c.31.04.72-.05.97-.25.07-.06.14-.18.06-.23h0Z"/>
    </g>
    <g>
      <path class="cls-4" d="M28.09,8.35c-.05-.05-.14-.07-.2-.03-.06.04-.08.12-.08.2,0,.29.09.59.27.82l.04-.05c.07-.2.09-.54.06-.75-.01-.07-.04-.14-.09-.19Z"/>
      <path class="cls-4" d="M28.83,8.34c-.19.09-.44.24-.58.4l.02.05c.27.08.69-.03.86-.25.02-.03.04-.06.04-.09,0-.06-.02-.26-.35-.11h0Z"/>
      <path class="cls-4" d="M28.9,7.52c.02-.07.03-.14.02-.2s-.08-.12-.15-.11c-.04,0-.08.03-.11.06-.24.22-.37.56-.35.88.28-.11.5-.35.59-.63Z"/>
      <path class="cls-4" d="M28.05,6.15c-.08,0-.31.09-.19.47.06.18.41.48.51.64v-.1c.02-.3-.02-.55-.09-.77-.04-.11-.11-.23-.23-.24Z"/>
      <path class="cls-4" d="M28.63,5.37c-.13.18-.22.42-.17.64l.04.08c.16-.16.46-.36.49-.59.06-.38-.2-.36-.36-.14h0Z"/>
      <path class="cls-4" d="M28.58,4.54c-.07.15-.13.31-.12.47v.02c.1-.06.2-.13.29-.21s.26-.29.26-.41c0-.04-.13-.26-.33-.02-.04.05-.08.1-.1.16h0Z"/>
      <path class="cls-4" d="M28.42,4.41l-.03-.09c-.02-.13-.15-.47-.32-.63-.1-.09-.28-.2-.32-.04-.07.27.18.43.26.52.08.09.3.18.41.24Z"/>
      <path class="cls-4" d="M28.57,2.81c-.05.06-.13.3-.14.37-.02.15-.03.2-.06.43v.12c.12-.08.25-.26.36-.46.08-.14.11-.29.12-.35.02-.23-.19-.2-.27-.11h-.01Z"/>
      <path class="cls-4" d="M28.68,1.95c0-.08-.02-.18-.1-.18-.06,0-.1.06-.13.12-.08.19-.14.5-.17.75v.07c.15-.12.39-.56.4-.76Z"/>
      <path class="cls-4" d="M28.08,1.9c-.05-.13-.24-.35-.35-.44-.05-.04-.12-.07-.18-.04-.04.03-.05.09-.04.14.02.05.05.09.09.12.1.1.37.29.52.3l-.04-.09h0Z"/>
      <path class="cls-4" d="M28.02,1.51c.15-.2.2-.47.14-.71,0-.04-.02-.08-.05-.1-.05-.03-.12,0-.16.03-.04.05-.05.11-.05.17-.01.17.01.35.08.51,0,0,.04.1.04.1Z"/>
      <path class="cls-4" d="M28.42,5.27c-.07-.16-.18-.3-.32-.4-.06-.05-.15-.09-.22-.05-.06.03-.09.11-.08.17.01.07.06.12.1.17.14.14.33.22.52.23v-.13h0Z"/>
    </g>
  </g>
  <path class="cls-1" d="M30,24.16c-.51-.41-.8-1.07-.76-1.73.16.1.25.29.34.46.27.54.48.84.56,1.32"/>
  <path class="cls-1" d="M29.08,25.5c-.3-.38-.49-.86-.53-1.35.09,0,.16.07.21.14.25.35.38.78.35,1.21"/>
  <g>
    <path class="cls-1" d="M34.94,21.41c.05-4.85,1.41-9.6,3.94-13.74.05-.08-.08-.16-.13-.08-2.54,4.16-3.91,8.94-3.96,13.81,0,.1.15.1.15,0h0Z"/>
    <path class="cls-1" d="M35.15,21.63c.11-.5.48-.94.95-1.15.03.07-.02.14-.07.2-.25.32-.52.63-.8.94"/>
    <path class="cls-1" d="M35.19,20.09c.16-.37.39-.72.69-.99.24-.22.92-.38.94-.36.05.05-.59.63-.85.85-.12.1-.25.21-.38.29-.13.08-.32.27-.46.32"/>
    <path class="cls-1" d="M34.7,20.15c-.55-.52-1.06-1.7-.97-1.74.07-.03.92.72.97,1.75"/>
    <path class="cls-1" d="M35.96,16c.48-.68,1.14-.75,1.64-.86.04,0-1.15.99-1.74.99"/>
    <path class="cls-1" d="M35.16,16.02c-.6-.41-1.27-1.99-1.2-1.97.14.04.73.72,1.2,1.92"/>
    <path class="cls-1" d="M34.77,17.75c-.52-.44-1.01-1.83-.97-1.88.03-.03.95.52.96,1.83"/>
    <path class="cls-1" d="M35.55,17.75c.42-.27,1.42-.42,1.96-.41.08,0-.77.41-1.06.44-.32.03-.65.04-.98.02"/>
    <path class="cls-1" d="M36.21,14.83c.57-.04,1.48-.84,1.47-.86-.02-.05-.76.07-1.3.66"/>
    <path class="cls-1" d="M35.53,14.17c-.12-.16-.35-.42-.44-.69-.14-.45-.09-.92-.07-.93.02-.02.61,1.17.51,1.54"/>
    <g>
      <path class="cls-2" d="M36.6,11.49c.16-.43.16-.91,0-1.34-.03-.07-.08-.15-.15-.13-.06.02-.08.09-.08.15-.05.44.02.89.2,1.29l.05.03h0Z"/>
      <path class="cls-2" d="M37.74,12.96c-.05-.09-.16-.13-.26-.16-.34-.08-.71-.07-1.05.02l-.07.05c.39.25.89.32,1.33.19.03,0,.06-.02.07-.05,0-.02,0-.04,0-.06h-.01Z"/>
      <path class="cls-2" d="M35.75,11.72c-.07-.04-.16-.04-.21.02-.07.07-.05.18-.02.27.13.36.34.69.62.94h.07c0-.38-.11-.75-.31-1.07-.04-.06-.09-.13-.15-.17h0Z"/>
      <path class="cls-2" d="M38.13,11.32c-.46.03-1.03.28-1.31.65-.02.05,1.16-.1,1.47-.45.02-.02.04-.05.04-.08,0-.09-.11-.12-.2-.12Z"/>
      <path class="cls-2" d="M37.24,9.46c.03-.16.05-.33,0-.48-.02-.06-.06-.11-.12-.12-.09-.01-.14.09-.17.17-.13.43-.12.9.03,1.32.12-.25.2-.61.26-.89Z"/>
      <path class="cls-2" d="M38.56,10.11c-.14-.05-.3-.02-.44.04-.29.12-.69.26-.87.53h.18c.25-.01.5-.06.73-.13.18-.05.36-.14.44-.31,0-.03.02-.06,0-.09,0-.02-.03-.03-.06-.04h.02Z"/>
      <path class="cls-2" d="M37.6,9.24c.13-.24.23-.5.29-.77.04-.19.13-.53-.1-.53s-.25.82-.18,1.24l-.02.06h0Z"/>
      <path class="cls-2" d="M38.86,9.11c-.36.06-.92.35-1.18.61.38.07.93-.14,1.26-.35.08-.05.16-.14.11-.22-.04-.06-.12-.06-.19-.05h0Z"/>
      <path class="cls-2" d="M39.29,8.27c-.38.09-.88.4-1.16.67.4.03.95-.23,1.27-.48.04-.03.09-.09.07-.14-.02-.07-.12-.07-.18-.05Z"/>
      <path class="cls-2" d="M38.51,7.47c.07-.21.2-.64-.03-.63s-.33.96-.24,1.37c.13-.18.21-.53.28-.74h0Z"/>
      <path class="cls-2" d="M39.83,7.21c-.36.08-.68.31-.87.62l.08-.03c.36-.02.7-.19.93-.47,0-.01.02-.03.03-.05,0-.07-.09-.08-.16-.07h-.01Z"/>
      <path class="cls-2" d="M39.46,6.49c0-.06,0-.15-.05-.17-.05-.02-.11.03-.14.07-.2.26-.31.59-.3.91h.03c.23-.21.4-.5.46-.82h0Z"/>
      <path class="cls-2" d="M40.23,6.28c-.28.11-.51.32-.66.58l.04.03c.31-.03.61-.22.77-.49.02-.03.03-.07.02-.1-.02-.06-.11-.05-.17-.03h0Z"/>
      <path class="cls-2" d="M36.46,12.08c-.2-.27-.67-.93-.52-1.13s.57.77.55,1.06"/>
      <path class="cls-2" d="M36.56,12.46c.33-.18.71-.28,1.09-.27.03,0,.06,0,.08.02.04.03.05.08.03.13s-.06.08-.1.1c-.13.08-.28.11-.42.13s-.28.03-.42.03c-.08,0-.16,0-.22-.05"/>
    </g>
    <g>
      <path class="cls-4" d="M36.64,11.92c-.12-.03-.22.1-.26.21-.12.29-.17.6-.15.91l.04.02c.22-.22.39-.5.47-.8.02-.06.03-.13.02-.2s-.05-.13-.12-.15h0Z"/>
      <path class="cls-4" d="M37.24,11.01c-.16.12-.28.28-.39.45v.04s.03.05.06.04c.36-.09,1.23-.48,1.11-.69s-.62.05-.78.17h0Z"/>
      <path class="cls-4" d="M37.14,10.74c.08-.18.12-.38.13-.59,0-.18.08-.55-.17-.51s-.17.83.02,1.2l.02-.11h0Z"/>
      <path class="cls-4" d="M37.88,9.61c-.14.09-.26.22-.35.37v.03s-.05.01-.06.04c.35,0,1.12-.24,1.03-.45s-.5-.07-.62.01Z"/>
      <path class="cls-4" d="M37.94,9.12c.09-.17.16-.34.21-.52.05-.15.08-.34-.04-.45,0-.01-.03-.02-.05-.02-.04,0-.06.04-.07.08-.12.34-.16.7-.12,1.06,0,0,.07-.15.07-.15Z"/>
      <path class="cls-4" d="M38.41,8.35l.05.05c.29.02,1.05-.22.93-.41-.12-.19-.76.17-.98.35h0Z"/>
      <path class="cls-4" d="M39.01,6.95c-.25-.04-.3.55-.3.87l.07-.1c.23-.16.48-.73.23-.77Z"/>
      <path class="cls-4" d="M40.01,6.76h-.12c-.21.06-.6.4-.71.59.24-.03.68-.26.85-.43.02-.02.05-.05.05-.08,0-.04-.03-.08-.07-.09h0Z"/>
    </g>
  </g>
  <g>
    <path class="cls-1" d="M39.17,17.62c-1.17,2.48-1.92,5.14-2.22,7.87,0,.1.14.1.15,0,.3-2.7,1.04-5.33,2.2-7.79.04-.09-.09-.16-.13-.08h0Z"/>
    <g>
      <path class="cls-2" d="M36.16,24.28c-.09-.02-.21.02-.23.11,0,.04,0,.08.02.11.17.39.51.71.94.88h.05c-.08-.31-.37-.7-.57-.95-.05-.07-.12-.13-.2-.16h0Z"/>
      <path class="cls-2" d="M38.41,24.66c-.25.03-.48.16-.69.3-.15.1-.4.25-.51.39.02.04.81-.09,1.1-.26.08-.05.16-.1.22-.18.05-.06.08-.16.03-.21-.04-.04-.1-.04-.16-.03h0Z"/>
      <path class="cls-2" d="M36.21,23.36c0,.43.63.83.85,1.18v-.04c-.1-.41-.28-.91-.54-1.24-.06-.07-.3-.12-.3.11h0Z"/>
      <path class="cls-2" d="M38.75,23.69c-.34-.13-1.17.35-1.4.73v.07c.48.11,1.77-.66,1.4-.8Z"/>
      <path class="cls-2" d="M37.24,23.46c.08-.33-.02-.77-.1-1.09-.03-.1-.1-.23-.2-.2-.09.02-.11.13-.12.22,0,.35.2.88.4,1.17l.02-.09h0Z"/>
      <path class="cls-2" d="M38.67,22.84c-.36.03-.91.28-1.13.57l-.08.06c0,.06,1.05-.08,1.31-.37.05-.06.11-.15.06-.21-.03-.04-.1-.04-.15-.04h0Z"/>
      <path class="cls-2" d="M37.52,22.25c.05-.24.05-.97-.07-1.25-.07-.16-.29-.13-.29.09,0,.39.17.84.31,1.21,0,0,.05-.05.05-.05Z"/>
      <path class="cls-2" d="M38.9,21.91c-.38.04-.9.37-1.1.69l.03.02c.39.06.95-.2,1.16-.53.03-.05.06-.12.02-.16-.03-.03-.07-.03-.11-.02Z"/>
      <path class="cls-2" d="M37.78,20.99l.02-.15c.07-.37.12-1,.02-1.31s-.4-.15-.37.24c.02.29.25.95.34,1.21h-.01Z"/>
      <path class="cls-2" d="M39.15,21.11c-.33.01-1.05.23-1.22.51l.09.03c.35.13,1-.13,1.23-.42,0-.02.02-.03.03-.05,0-.06-.07-.08-.13-.07Z"/>
      <path class="cls-2" d="M38.2,19.94c.03-.2.18-.97.02-1.27-.09-.17-.25-.09-.27.12-.03.33.09.9.21,1.21,0,0,.04-.06.04-.06Z"/>
      <path class="cls-2" d="M39.23,19.99c-.31.07-.77.55-.95.81l-.03.05c.11.03,1.04-.39,1.15-.62.11-.22,0-.28-.17-.24Z"/>
      <path class="cls-2" d="M39.35,19.02c-.34.11-.61.45-.75.82l-.04.07c.3-.08.82-.45.93-.74.02-.04.03-.09,0-.13-.03-.04-.1-.03-.15-.02h.01Z"/>
      <path class="cls-2" d="M38.64,18.79c.08-.3.07-.69.06-.97,0-.22-.21-.35-.28-.04-.07.28.12.83.19,1.11l.03-.09h0Z"/>
      <path class="cls-2" d="M39.93,17.96c-.31.1-.74.48-.9.79,0,0,.74-.21.97-.39.11-.09.18-.48-.08-.4h.01Z"/>
      <path class="cls-2" d="M39.03,17.82c.06-.26.14-.78.14-.94,0-.06-.02-.14-.08-.15s-.11.04-.13.09c-.12.24-.04.86,0,1.13,0,0,.03-.01.06-.12h0Z"/>
      <path class="cls-2" d="M40.1,17.3c-.23.05-.57.22-.72.41,0,0,.02.04.21.04.32,0,.87-.26.85-.38-.02-.12-.22-.1-.34-.07Z"/>
      <path class="cls-2" d="M40.16,16.6s.05-.09.03-.14-.07-.07-.12-.06-.09.03-.13.07c-.23.19-.42.57-.53.85l.07-.03c.26-.14.53-.44.68-.69Z"/>
    </g>
    <g>
      <path class="cls-4" d="M37.73,24.53h-.06c-.17.03-.31.14-.42.27-.1.14-.17.29-.23.45l.04.02c.28-.11.52-.33.67-.59.03-.05.05-.13,0-.16h0Z"/>
      <path class="cls-4" d="M37.13,24.52c.1-.28.11-.59.02-.87,0-.05-.03-.09-.07-.13-.04-.03-.09-.05-.13-.02-.05.03-.05.09-.05.15,0,.32.08.64.24.93v-.06h-.01Z"/>
      <path class="cls-4" d="M38.03,22.93c-.33.1-.61.38-.7.72l.07.03c.16-.06.32-.14.46-.23.15-.1.3-.23.34-.4v-.08s-.1-.05-.16-.03h0Z"/>
      <path class="cls-4" d="M37.5,22.98v-.03h0s0,0,0-.02c.07-.29.14-.58.13-.88,0-.1-.02-.2-.06-.28-.02-.04-.07-.08-.11-.07-.02,0-.03.02-.04.03-.05.07-.06.17-.06.26,0,.32,0,.64.08.94,0,.02.02.04.04.04h0Z"/>
      <path class="cls-4" d="M38.66,20.79c-.1-.02-.21.02-.3.07-.23.12-.42.32-.52.57h-.02s.11.04.16.02c.3-.08.57-.25.76-.49,0-.02.03-.04.03-.06,0-.06-.05-.09-.11-.1h0Z"/>
      <path class="cls-4" d="M38.03,20.73l.02-.07c.24-.31.3-.75.15-1.11,0-.02-.02-.05-.05-.06-.05-.01-.08.04-.1.08-.09.25-.08.53-.06.79,0,.12.02.24.04.36h0Z"/>
      <path class="cls-4" d="M39.14,19.08s-.08-.01-.12,0c-.25.08-.46.28-.55.53l-.08.06c.28,0,.56-.14.73-.37.03-.03.05-.07.06-.11,0-.04,0-.09-.04-.11Z"/>
      <path class="cls-4" d="M38.66,18.98s.05,0,.06-.02c.15-.26.3-.53.31-.83,0-.06,0-.13-.06-.15-.04-.01-.08,0-.1.03-.04.04-.07.09-.09.14-.12.29-.17.61-.12.92,0,0,0-.09,0-.09Z"/>
      <path class="cls-4" d="M39.96,17.56s-.05-.01-.07-.01c-.27.03-.52.15-.71.34h-.05c.27.08.58.01.79-.16.03-.02.05-.04.06-.08,0-.03,0-.07-.02-.09Z"/>
      <path class="cls-4" d="M39.54,16.86c0-.06-.05-.14-.11-.13-.02,0-.04.02-.06.03-.09.08-.12.22-.14.34-.02.18-.04.36-.04.54l.06.03c.22-.2.33-.51.28-.81h.01Z"/>
    </g>
  </g>
  <g>
    <path class="cls-1" d="M23.77,25.67c-.02-3.94-.75-7.84-2.17-11.51-.03-.09-.18-.05-.14.04,1.41,3.66,2.15,7.55,2.16,11.47,0,.1.15.1.15,0h0Z"/>
    <path class="cls-1" d="M23.23,25.09c-.46-.37-.83-.85-1.05-1.4.5.3.87.8,1,1.37"/>
    <path class="cls-1" d="M23.82,24.13c0-.71.39-1.43.89-1.94-.13.71-.44,1.38-.89,1.94"/>
    <path class="cls-1" d="M22.89,21.57c-.52-.35-.92-.88-1.13-1.47.56.29.98.82,1.13,1.43"/>
    <path class="cls-1" d="M23.73,20.53c-.12-.65,0-1.35.34-1.92.1.67-.01,1.37-.3,1.98"/>
    <path class="cls-1" d="M22.37,18.55c-.19-.45-.55-.83-1-1.04.12.5.47.94.94,1.16"/>
    <path class="cls-1" d="M22.82,17.22c.02-.27.03-.53.12-.79s.25-.49.49-.6c-.07.52-.29,1.02-.63,1.42"/>
    <g>
      <path class="cls-2" d="M22.99,15.02c-.08-.04-.17.02-.23.08-.24.25-.37.55-.38.93v.1c.27-.16.62-.57.68-.86.02-.09.02-.21-.07-.25Z"/>
      <path class="cls-2" d="M21.01,15.88c-.13.02-.31.14-.14.3.04.04.08.07.13.09.34.16.83.3,1.21.31l-.04-.09c-.16-.25-.8-.66-1.15-.61h-.01Z"/>
      <path class="cls-2" d="M22.13,15.17v.1c.06,0,.48-.83.53-1.11.01-.08.02-.16,0-.23-.03-.07-.11-.13-.19-.1-.05.02-.08.06-.11.1-.22.34-.29.86-.23,1.24Z"/>
      <path class="cls-2" d="M21.88,15.62s-.52-.56-.77-.65c-.35-.13-.63.06-.44.33.22.31,1.06.32,1.21.31h0Z"/>
      <path class="cls-2" d="M21.86,14.35h.06c.26-.26.4-.74.42-1.1,0-.07,0-.16-.07-.18-.06-.02-.11.03-.15.07-.23.27-.35.86-.26,1.21Z"/>
      <path class="cls-2" d="M21.5,14.66c-.14-.24-.63-.69-.9-.72-.11-.01-.24.02-.25.13,0,.09.04.18.11.24.29.24,1.04.42,1.08.45l-.03-.1h-.01Z"/>
      <path class="cls-2" d="M21.67,13.69c.17-.28.43-.68.31-1.08-.02-.08-.16-.04-.22.03-.18.18-.23.87-.14,1.1l.05-.05Z"/>
      <path class="cls-2" d="M20.51,13.09c-.06-.02-.12-.04-.18-.02-.1.04-.12.18-.07.28.12.26.81.54,1.08.62-.02-.02-.56-.79-.82-.88h-.01Z"/>
      <path class="cls-2" d="M21.28,13.34c.1-.34,0-.87-.18-1.17-.03-.05-.08-.1-.13-.08-.04.01-.05.06-.06.1-.05.35.06.72.28.99,0,0,.09.16.09.16Z"/>
    </g>
    <g>
      <path class="cls-4" d="M22.06,15.88c-.06-.1-.13-.19-.23-.25-.05-.03-.1-.05-.16-.04-.02,0-.04.01-.05.03v.06c.04.16.14.3.26.41.12.11.25.21.39.3v-.04c-.05-.17-.12-.32-.21-.47Z"/>
      <path class="cls-4" d="M22.44,14.75s-.05-.08-.09-.08c-.05,0-.09.03-.12.07-.16.21-.17.49-.16.75v.21c.12-.06.23-.31.27-.43.04-.13.08-.25.1-.39v-.12h0Z"/>
      <path class="cls-4" d="M21.84,15s.04-.06.04-.07c.09-.24.19-.67.16-.93,0-.03-.01-.06-.04-.07-.04-.02-.08.03-.1.07-.11.25-.15.67-.1.94l.03.07h.01Z"/>
      <path class="cls-4" d="M21.79,15.08c-.07-.13-.15-.26-.25-.37s-.23-.2-.38-.23c-.05-.01-.1-.01-.15,0-.05.02-.09.06-.09.11,0,.06.04.1.08.15.18.27.78.48.89.49.02,0-.09-.15-.09-.15h-.01Z"/>
      <path class="cls-4" d="M21.59,14.16l.02.08c.05-.15.09-.3.12-.46.02-.08.03-.15.03-.23s-.02-.17-.07-.24c0-.01-.02-.03-.03-.04-.04-.02-.07.02-.09.06-.05.12-.05.26-.04.39,0,.15.03.29.05.44h.01Z"/>
      <path class="cls-4" d="M21.26,13.96c.06.04.12.08.19.11l-.06-.19c-.06-.25-.24-.47-.48-.58-.02,0-.04-.02-.05-.01-.05,0-.06.08-.05.12.05.24.25.41.45.54h0Z"/>
      <path class="cls-4" d="M21.42,13.47v-.03c.04-.27.06-.55-.03-.8-.01-.03-.04-.07-.09-.06-.03,0-.04.03-.05.05-.05.08-.05.17-.04.25.03.21.1.41.22.59h0Z"/>
    </g>
  </g>
  <g>
    <path class="cls-1" d="M44.44,25.67c-.02-3.94-.75-7.84-2.17-11.51-.03-.09-.18-.05-.14.04,1.41,3.66,2.15,7.55,2.16,11.47,0,.1.15.1.15,0h0Z"/>
    <path class="cls-1" d="M43.9,25.09c-.46-.37-.83-.85-1.05-1.4.5.3.87.8,1,1.37"/>
    <path class="cls-1" d="M44.48,24.13c0-.71.39-1.43.89-1.94-.13.71-.44,1.38-.89,1.94"/>
    <path class="cls-1" d="M43.56,21.57c-.52-.35-.92-.88-1.13-1.47.56.29.98.82,1.13,1.43"/>
    <path class="cls-1" d="M44.4,20.53c-.12-.65,0-1.35.34-1.92.1.67,0,1.37-.3,1.98"/>
    <path class="cls-1" d="M43.04,18.55c-.19-.45-.55-.83-1-1.04.12.5.47.94.94,1.16"/>
    <path class="cls-1" d="M43.49,17.22c.02-.27.03-.53.12-.79s.25-.49.49-.6c-.07.52-.29,1.02-.63,1.42"/>
    <g>
      <path class="cls-2" d="M43.66,15.02c-.08-.04-.17.02-.23.08-.24.25-.37.55-.38.93v.1c.27-.16.62-.57.68-.86.02-.09.02-.21-.07-.25Z"/>
      <path class="cls-2" d="M41.68,15.88c-.13.02-.31.14-.14.3.04.04.08.07.13.09.34.16.83.3,1.21.31l-.04-.09c-.16-.25-.8-.66-1.15-.61h0Z"/>
      <path class="cls-2" d="M42.8,15.17v.1c.06,0,.48-.83.53-1.11,0-.08.02-.16,0-.23-.03-.07-.11-.13-.19-.1-.05.02-.08.06-.11.1-.22.34-.29.86-.23,1.24Z"/>
      <path class="cls-2" d="M42.54,15.62s-.52-.56-.77-.65c-.35-.13-.63.06-.44.33.22.31,1.06.32,1.21.31h0Z"/>
      <path class="cls-2" d="M42.52,14.35h.06c.26-.26.4-.74.42-1.1,0-.07,0-.16-.07-.18-.06-.02-.11.03-.15.07-.23.27-.35.86-.26,1.21Z"/>
      <path class="cls-2" d="M42.17,14.66c-.14-.24-.63-.69-.9-.72-.11-.01-.24.02-.25.13,0,.09.04.18.11.24.29.24,1.04.42,1.08.45l-.03-.1h-.01Z"/>
      <path class="cls-2" d="M42.34,13.69c.17-.28.43-.68.31-1.08-.02-.08-.16-.04-.22.03-.18.18-.23.87-.14,1.1l.05-.05Z"/>
      <path class="cls-2" d="M41.17,13.09c-.06-.02-.12-.04-.18-.02-.1.04-.12.18-.07.28.12.26.81.54,1.08.62-.02-.02-.56-.79-.82-.88h-.01Z"/>
      <path class="cls-2" d="M41.95,13.34c.1-.34,0-.87-.18-1.17-.03-.05-.08-.1-.13-.08-.04.01-.05.06-.06.1-.05.35.06.72.28.99,0,0,.09.16.09.16Z"/>
    </g>
    <g>
      <path class="cls-4" d="M42.73,15.88c-.06-.1-.13-.19-.23-.25-.05-.03-.1-.05-.16-.04-.02,0-.04.01-.05.03v.06c.04.16.14.3.26.41.12.11.25.21.39.3v-.04c-.05-.17-.12-.32-.21-.47Z"/>
      <path class="cls-4" d="M43.11,14.75s-.05-.08-.09-.08c-.05,0-.09.03-.12.07-.16.21-.17.49-.16.75v.21c.12-.06.23-.31.27-.43.04-.13.08-.25.1-.39v-.12h0Z"/>
      <path class="cls-4" d="M42.51,15s.04-.06.04-.07c.09-.24.19-.67.16-.93,0-.03,0-.06-.04-.07-.04-.02-.08.03-.1.07-.11.25-.15.67-.1.94l.03.07h0Z"/>
      <path class="cls-4" d="M42.45,15.08c-.07-.13-.15-.26-.25-.37s-.23-.2-.38-.23c-.05-.01-.1-.01-.15,0-.05.02-.09.06-.09.11,0,.06.04.1.08.15.18.27.78.48.89.49.02,0-.09-.15-.09-.15h0Z"/>
      <path class="cls-4" d="M42.26,14.16l.02.08c.05-.15.09-.3.12-.46.02-.08.03-.15.03-.23s-.02-.17-.07-.24c0-.01-.02-.03-.03-.04-.04-.02-.07.02-.09.06-.05.12-.05.26-.04.39,0,.15.03.29.05.44h.01Z"/>
      <path class="cls-4" d="M41.92,13.96c.06.04.12.08.19.11l-.06-.19c-.06-.25-.24-.47-.48-.58-.02,0-.04-.02-.05-.01-.05,0-.06.08-.05.12.05.24.25.41.45.54h0Z"/>
      <path class="cls-4" d="M42.09,13.47v-.03c.04-.27.06-.55-.03-.8,0-.03-.04-.07-.09-.06-.03,0-.04.03-.05.05-.05.08-.05.17-.04.25.03.21.1.41.22.59h-.01Z"/>
    </g>
  </g>
  <g>
    <path class="cls-1" d="M35.07,10.68c.15-1.48.34-2.97.75-4.41s1.02-2.79,1.62-4.15c.04-.09-.09-.16-.13-.08-.6,1.37-1.22,2.74-1.63,4.18s-.6,2.95-.75,4.45c0,.1.14.1.15,0h0Z"/>
    <path class="cls-1" d="M35.14,9.56c.55-.23,1.03-.6,1.39-1.07-.56.15-1.05.54-1.33,1.05"/>
    <path class="cls-1" d="M34.8,9.27c.03-.71-.34-1.44-.81-1.97.11.71.39,1.39.81,1.97"/>
    <path class="cls-1" d="M35.71,7.93c.53-.33.95-.84,1.18-1.43-.57.27-1.01.79-1.18,1.39"/>
    <path class="cls-1" d="M35.32,6.5c.14-.65.05-1.35-.26-1.93-.12.67-.04,1.37.23,1.99"/>
    <path class="cls-1" d="M36.31,5.82c.21-.44.59-.81,1.04-1-.14.5-.51.92-.98,1.12"/>
    <path class="cls-1" d="M35.96,5.08c0-.27,0-.54-.09-.79s-.23-.5-.46-.62c.05.52.25,1.03.57,1.44"/>
    <g>
      <path class="cls-2" d="M35.87,2.93c.08-.04.16.03.21.09.22.27.33.58.33.96v.1c-.25-.17-.57-.61-.62-.91-.02-.09,0-.21.07-.25h0Z"/>
      <path class="cls-2" d="M37.72,3.9c.12.02.29.15.12.32-.04.04-.08.07-.12.09-.32.15-.8.27-1.16.27l.05-.09c.16-.25.79-.64,1.11-.58h0Z"/>
      <path class="cls-2" d="M36.68,3.13v.1c-.06,0-.43-.87-.47-1.15,0-.08,0-.16.02-.23s.11-.13.18-.1c.05.02.07.06.1.11.19.36.24.89.17,1.27Z"/>
      <path class="cls-2" d="M36.91,3.59s.52-.55.76-.63c.34-.12.6.09.4.36-.22.31-1.02.28-1.16.27Z"/>
      <path class="cls-2" d="M36.97,2.29l-.05-.02c-.24-.26-.35-.76-.36-1.13,0-.07,0-.16.07-.18.05-.02.1.03.14.08.21.29.3.89.2,1.24h0Z"/>
      <path class="cls-2" d="M37.3,2.62c.14-.24.62-.68.88-.7.1,0,.23.03.24.14,0,.09-.05.19-.11.24-.28.24-1.01.39-1.04.42l.03-.1Z"/>
      <path class="cls-2" d="M37.17,1.63c-.15-.29-.38-.71-.26-1.12.03-.09.16-.03.21.04.16.19.19.89.09,1.13l-.05-.05h0Z"/>
      <path class="cls-2" d="M38.3,1.07c.06-.02.12-.03.17,0,.1.04.11.19.06.29-.12.26-.79.52-1.05.59.02-.02.57-.78.82-.87Z"/>
      <path class="cls-2" d="M37.55,1.29c-.08-.35.03-.89.22-1.19.03-.05.08-.09.12-.07.04.02.05.07.05.11.03.36-.08.73-.3,1l-.09.16h0Z"/>
    </g>
    <g>
      <path class="cls-4" d="M36.77,3.78c.06-.1.14-.19.24-.24.05-.03.1-.04.16-.03.02,0,.04,0,.05.03v.06c-.05.16-.15.29-.27.4s-.26.2-.4.28v-.04c.06-.16.13-.32.23-.46h0Z"/>
      <path class="cls-4" d="M36.44,2.63s.05-.07.09-.07c.05,0,.09.04.12.08.15.21.15.49.13.75v.21c-.13-.06-.22-.32-.26-.44-.04-.13-.07-.26-.09-.39v-.14Z"/>
      <path class="cls-4" d="M37.03,2.91s-.03-.07-.04-.07c-.09-.25-.16-.68-.13-.94,0-.03,0-.06.04-.07.04-.02.08.03.09.07.1.25.12.68.06.94l-.03.07h0Z"/>
      <path class="cls-4" d="M37.08,2.98c.08-.13.16-.25.27-.36.11-.11.24-.19.39-.21h.15s.09.06.09.11c0,.06-.05.1-.08.14-.19.26-.8.45-.9.45-.02,0,.1-.15.1-.15l-.02.02Z"/>
      <path class="cls-4" d="M37.31,2.07l-.02.08c-.04-.15-.08-.3-.11-.46,0-.08-.02-.16-.02-.23,0-.08.03-.17.07-.24,0,0,.02-.03.03-.03.04,0,.07.03.08.06.05.12.04.26.03.39,0,.15-.04.29-.07.44h.01Z"/>
      <path class="cls-4" d="M37.65,1.88c-.06.04-.13.07-.19.1l.07-.18c.07-.25.26-.46.5-.56.02,0,.04,0,.05,0,.05,0,.05.08.04.13-.06.23-.26.4-.47.53h0Z"/>
      <path class="cls-4" d="M37.5,1.39v-.03c-.02-.28-.03-.56.07-.8,0-.03.05-.07.1-.05.03,0,.04.03.05.05.05.08.04.17.03.25-.04.21-.12.41-.24.58h0Z"/>
    </g>
  </g>
  <path class="cls-1" d="M39.1,25.27c.12-.57.54-1.06,1.08-1.27-.29.49-.59,1.01-1.08,1.31"/>
  <path class="cls-1" d="M35.48,24.28c-.25-.29-.88-1.67-.75-2.03.39.58.65,1.25.74,1.94"/>
  <path class="cls-1" d="M35.07,25.52c-.53-.36-.91-.99-1.01-1.67.44.39.79.77.98,1.47"/>
  <path class="cls-1" d="M30.92,2.78c-.1-.31-.09-1.57.19-1.78.11.58.05,1.17-.16,1.71"/>
  <path class="cls-1" d="M31.13,5.35c-.53-.36-.91-.99-1.01-1.67.44.39.79.77.98,1.47"/>
  <g>
    <path class="cls-1" d="M33.73,14.08c-.07-2.8-.59-5.56-1.56-8.19-.03-.09-.18-.05-.14.04.96,2.61,1.48,5.36,1.55,8.15,0,.1.15.1.15,0h0Z"/>
    <g>
      <path class="cls-2" d="M33.91,8.77s.02-.1-.02-.13c-.04-.02-.09,0-.12.04-.29.25-.44.49-.52.86v.04c.31-.15.59-.49.67-.82h0Z"/>
      <path class="cls-2" d="M33.05,10.03c-.27-.26-.64-.48-.86-.55-.31-.1-.4.08-.15.24.3.19.65.29,1,.32h0Z"/>
      <path class="cls-2" d="M33.12,8.59l.02-.03c.25-.18.45-.44.54-.74.02-.06.02-.16-.05-.16-.02,0-.04,0-.05.02-.32.18-.51.55-.46.91Z"/>
      <path class="cls-2" d="M32.14,8.58s-.08-.02-.12,0c-.06.04-.02.15.03.2.22.22.6.34.9.28-.18-.22-.52-.41-.82-.49h.01Z"/>
      <path class="cls-2" d="M32.82,7.63v.04c.28-.17.54-.55.6-.86v-.06c-.02-.05-.09-.04-.14-.02-.31.14-.44.53-.46.91h0Z"/>
      <path class="cls-2" d="M32.67,7.94l-.02-.07c-.16-.26-.5-.43-.85-.42-.05,0-.1.01-.12.05,0,.03,0,.05.02.07.2.27.6.42.97.37Z"/>
      <path class="cls-2" d="M32.83,6.02c-.2.24-.33.51-.31.82h.03c.23-.2.41-.43.54-.7.03-.06.06-.14.02-.2-.07-.09-.21-.02-.28.07h0Z"/>
      <path class="cls-2" d="M32.35,6.87l-.03-.07c-.06-.13-.19-.22-.33-.26s-.29-.04-.43-.03c-.03,0-.06,0-.08.02-.03.04,0,.1.04.13.22.19.54.27.82.21h.01Z"/>
      <path class="cls-2" d="M32.83,5.11c-.06-.04-.14.02-.18.08-.17.25-.33.6-.32.91l.02.04c.23-.25.4-.54.5-.86.02-.06.03-.14-.02-.17Z"/>
      <path class="cls-2" d="M32.05,6.2l-.04-.1c-.1-.26-.32-.47-.58-.56-.05-.02-.11-.03-.15,0-.04.03-.04.09-.03.14.04.16.17.29.31.37.15.08.31.11.48.15h.01Z"/>
      <path class="cls-2" d="M32.05,5.65c.08-.35,0-.74-.19-1.04-.02-.04-.07-.08-.1-.06-.03.01-.03.05-.04.07-.05.38.07.78.32,1.08v-.05h.01Z"/>
      <path class="cls-2" d="M34.28,9.94c-.05-.07-.16-.02-.23.03-.25.2-.45.47-.58.76,0,0,.13-.04.19-.07.26-.13.48-.3.61-.56.03-.05.05-.12,0-.17h0Z"/>
      <path class="cls-2" d="M32.13,10.63s0,.04.02.06c.06.1.18.16.29.2.23.09.48.12.72.11l.02-.03c-.23-.25-.56-.41-.89-.43-.07,0-.16.02-.16.09Z"/>
    </g>
    <g>
      <path class="cls-4" d="M32.79,10.22c-.06-.01-.14,0-.15.06v.05c.05.14.16.25.29.34s.26.12.37.21l.05.02c-.04-.15-.1-.3-.19-.43s-.23-.23-.38-.26h.01Z"/>
      <path class="cls-4" d="M33.83,9.39s-.08-.02-.12,0c-.15.05-.41.59-.42.75h0c.22-.1.4-.36.53-.57.04-.06.06-.14,0-.18Z"/>
      <path class="cls-4" d="M33.13,9.62l.05.02c.03-.24-.11-.55-.25-.75-.07-.1-.18-.19-.29-.15,0,0-.02,0-.03.02s0,.04,0,.06c.05.32.25.62.52.8Z"/>
      <path class="cls-4" d="M33.32,7.89c.03-.08.05-.16.02-.24,0-.05-.05-.1-.1-.1-.03,0-.06.02-.09.04-.21.19-.29.47-.31.75v.06c.21-.1.39-.29.47-.51h0Z"/>
      <path class="cls-4" d="M32.67,7.7c-.04-.16-.09-.32-.17-.46-.08-.14-.21-.27-.36-.32-.04-.01-.08-.02-.11,0-.02.02-.01.06,0,.09.04.16.13.29.25.4s.25.2.39.28h0Z"/>
      <path class="cls-4" d="M32.41,6.67s.16-.33.2-.48c.03-.11.05-.24-.02-.33,0-.01-.02-.02-.03-.03h-.03c-.06.04-.1.1-.12.17s-.02.14-.01.21c0,.12.01.32.02.45h-.01Z"/>
      <path class="cls-4" d="M32.17,6.11v-.03c0-.24-.07-.48-.21-.68-.02-.03-.05-.07-.08-.08-.04-.02-.09-.01-.11.02-.02.02-.01.06,0,.09.05.27.19.52.41.69h-.01Z"/>
    </g>
    <path class="cls-1" d="M33.77,13.42c.11-.37.52-.76.88-.93-.14.38-.51.75-.88.93"/>
    <path class="cls-1" d="M33.65,13.97c-.56-.19-.9-.71-1.2-1.2.27.07.5.24.68.45s.31.45.45.68"/>
    <path class="cls-1" d="M33.77,12.41c.04-.45.39-1.08.77-1.32-.15.38-.48,1.02-.77,1.32"/>
    <path class="cls-1" d="M33.52,12.41c-.18-.37-.57-.83-.91-1.06.11.4.39.74.75.94"/>
  </g>
  <g>
    <path class="cls-1" d="M30.78,11.03c-1.33,2.16-2.39,4.51-3.42,6.82-1.03,2.31-2.15,4.56-2.62,6.96-.02.09.13.13.14.04.48-2.45,1.66-4.84,2.68-7.09s2.06-4.55,3.35-6.66c.05-.08-.08-.16-.13-.08h0Z"/>
    <g>
      <path class="cls-2" d="M27.27,15.31c-.16.08-.15.31-.08.47.11.29.7.66.71.63.01-.28-.04-.56-.16-.82-.08-.19-.28-.38-.46-.29h-.01Z"/>
      <path class="cls-2" d="M29.21,15.95c-.09,0-.18.04-.26.09-.21.12-.59.54-.59.54.33.1.71.01.96-.23.07-.07.13-.16.11-.25-.02-.09-.12-.14-.21-.14h-.01Z"/>
      <path class="cls-2" d="M28.34,14.66c-.05-.11-.17-.19-.29-.16-.19.04-.23.29-.19.48.05.25.35.68.35.68.09-.21.15-.43.17-.65.01-.12,0-.24-.04-.35Z"/>
      <path class="cls-2" d="M29.56,14.92c-.34.08-.63.33-.76.64,0,0,.11.05.19.03.29-.07.57-.22.77-.44.03-.03.06-.07.06-.11,0-.11-.16-.15-.27-.12h.01Z"/>
      <path class="cls-2" d="M28.67,14.75s.1-.21.14-.32c.05-.15.11-.31.1-.48s-.1-.33-.25-.39c-.07-.03-.16-.02-.22.03-.07.06-.07.17-.06.26.04.31.14.62.29.89h0Z"/>
      <path class="cls-2" d="M30.03,13.88c-.07-.04-.16-.02-.23.01-.24.09-.67.57-.67.68.25-.02.5-.09.73-.2.09-.05.19-.11.24-.2s.03-.23-.07-.28h0Z"/>
      <path class="cls-2" d="M29.11,13.62c.22-.19.33-.49.28-.77-.01-.09-.04-.18-.11-.24-.06-.06-.17-.09-.24-.04-.08.05-.1.16-.1.26,0,.23.04.47.13.68,0,0,.04.11.04.11Z"/>
      <path class="cls-2" d="M30.44,12.81c-.08,0-.16.04-.23.08-.21.13-.61.61-.61.61,0,.07.09.1.16.1.34-.02.66-.22.81-.52.02-.04.04-.08.03-.13,0-.08-.09-.14-.17-.14h.01Z"/>
      <path class="cls-2" d="M29.86,12.06c-.02-.13-.12-.28-.24-.23-.08.03-.1.13-.1.21-.01.24.17.78.17.78.15-.22.22-.49.18-.76h-.01Z"/>
      <path class="cls-2" d="M30.7,11.83c-.25.18-.56.58-.56.61.41.07.99-.49.94-.61s-.24-.1-.38,0Z"/>
      <path class="cls-2" d="M30.02,11.9c.21-.16.34-.41.34-.66,0-.04,0-.09-.02-.12-.06-.1-.23-.08-.3.02s-.06.23-.05.34.02.42.02.42h0Z"/>
      <path class="cls-2" d="M31.51,11.08c-.06-.03-.13-.02-.19,0-.25.06-.54.18-.56.43.27,0,.53-.12.72-.31,0,0,.09-.08.03-.12Z"/>
      <path class="cls-2" d="M30.64,11.06c.19-.15.3-.39.29-.63,0-.08-.05-.18-.13-.17-.03,0-.05.02-.07.04-.2.17-.2.48-.19.75,0,.09.1.02.1.02h0Z"/>
      <path class="cls-2" d="M31.62,10.17s-.11.01-.15.05c-.18.14-.31.33-.37.54.25.02.5-.17.54-.42,0,0,.03-.15-.02-.17Z"/>
    </g>
    <g>
      <path class="cls-4" d="M28.28,15.29c-.08-.02-.16.03-.2.1-.05.07-.06.16-.08.25-.04.3.02.88.03.91,0,.03.04,0,.05-.01.23-.22.35-.57.35-.91,0-.13-.03-.3-.15-.33h0Z"/>
      <path class="cls-4" d="M29.43,14.64s-.09-.02-.14,0c-.29.07-.5.33-.65.59,0,0-.05.08.21.05.13-.02.27-.04.38-.12s.21-.18.24-.31c.02-.07.02-.17-.05-.21h.01Z"/>
      <path class="cls-4" d="M29.12,14.27c.1-.15.22-.46.22-.62,0-.1-.04-.23-.14-.24-.06-.01-.13.03-.16.09-.04.06-.05.12-.06.19-.03.22-.05.45.03.65,0,0,.07.01.12-.06h-.01Z"/>
      <path class="cls-4" d="M30.07,12.72c-.11,0-.2.08-.28.16-.07.08-.19.35-.2.39v.04s.04.01.06,0c.12-.05.24-.1.34-.17.1-.08.18-.19.19-.32v-.06s-.07-.05-.11-.05h0Z"/>
      <path class="cls-4" d="M30.18,11.7s-.06-.04-.09-.03-.08.06-.09.08c-.07.16-.07.43-.06.6,0,.07.07.15.07.15.17-.17.23-.47.19-.71,0-.03-.01-.06-.03-.09h.01Z"/>
      <path class="cls-4" d="M30.79,11.33c-.17.09-.3.41-.32.46-.03.06.04,0,.06,0,.14-.06.27-.15.38-.26.03-.03.05-.06.06-.1,0-.04,0-.08-.03-.11-.04-.03-.1-.01-.15.01Z"/>
      <path class="cls-4" d="M30.9,11.1c.14-.16.22-.38.18-.59,0-.03-.03-.08-.06-.07-.02,0-.03.03-.04.04-.14.25-.12.38-.13.58,0,0-.02.11.05.03h0Z"/>
    </g>
    <path class="cls-1" d="M26.92,19.95c.37-.63,1.08-1.03,1.8-1.03-.59.52-1.14.71-1.74,1.04"/>
    <path class="cls-1" d="M26.28,18.49c-.11-.79-.06-1.6.15-2.38.08-.03.2,1.29-.13,2.33"/>
    <path class="cls-1" d="M25.08,22.26c-.31-.63-.46-1.34-.43-2.04.33.62.47,1.34.41,2.04"/>
    <path class="cls-1" d="M25.72,24.63c.42-.74,1.01-1.39,1.71-1.87-.41.75-1.01,1.39-1.72,1.87"/>
    <path class="cls-1" d="M26.03,22.2c.31-.41,1.2-.74,1.86-.77-.36.43-1.04.73-1.75.77"/>
    <path class="cls-1" d="M25.78,20.28c-.26-.52-.49-1.71-.4-2.29.26.53.39,1.12.4,1.7"/>
    <path class="cls-1" d="M27.6,18.15c.37-.43,1.39-.77,1.96-.85-.44.32-1.32.71-1.85.85"/>
  </g>
  <path class="cls-1" d="M26.15,13.94c-.08-.59.4-1.47.92-1.77-.14.61-.43,1.18-.82,1.66"/>
  <path class="cls-1" d="M26.2,14.74c-.31-.5-1.1-.96-1.69-1.03.19.24.42.4.67.59s.71.47,1.02.44"/>
  <g>
    <path class="cls-1" d="M21.84,4.28c2.05,2.61,2.72,5.95,3.32,9.14.02.09.16.05.14-.04-.61-3.22-1.29-6.56-3.36-9.2-.06-.08-.17.03-.11.11h.01Z"/>
    <path class="cls-1" d="M25.34,12.74c-.19-.58-.05-1.25.36-1.7.08.19.03.41-.03.61-.11.38-.21.76-.32,1.14"/>
    <path class="cls-1" d="M24.91,12.62c-.57-.31-1.22-.62-1.84-.46.15.08.3.16.45.24.21.11,1.17.33,1.37.2"/>
    <path class="cls-1" d="M24.86,10.67c.04-.56.35-1.09.82-1.38-.22.51-.53,1.26-.89,1.68"/>
    <path class="cls-1" d="M24.59,11.52c-.2-.65-.87-1.19-1.5-1.43.37.55.82,1.01,1.39,1.36"/>
    <path class="cls-1" d="M24.55,9.34c-.12-.58,0-1.52.32-1.97.04.6.01,1.53-.32,1.97"/>
    <path class="cls-1" d="M24.22,9.2c-.41-.52-1.08-.82-1.74-.79.49.42,1.16.73,1.71.78"/>
    <g>
      <path class="cls-2" d="M22.21,7.3c-.07.05-.12.16-.06.22.02.02.05.03.08.03.46.1.96,0,1.34-.28l.05-.05c-.23-.07-.47-.13-.72-.13s-.5.05-.68.21h-.01Z"/>
      <path class="cls-2" d="M24.75,6.38s-.07-.03-.11-.02c-.29.11-.49.38-.67.62-.09.12-.16.28-.18.42l.06-.02c.41-.17.75-.53.9-.95,0-.02.01-.04,0-.06h0Z"/>
      <path class="cls-2" d="M24.32,5.48s-.04-.09-.09-.1c-.03,0-.07.01-.1.03-.15.1-.25.27-.33.43-.13.25-.18.51-.23.8,0,0,.58-.63.72-1.02.02-.04.03-.09.03-.14Z"/>
      <path class="cls-2" d="M23.14,6.41c-.39-.1-.81-.2-1.21-.11-.07.02-.15.05-.17.12,0,.05.03.11.07.13.05.03.1.03.16.04.28.03,1.14-.19,1.14-.19h.01Z"/>
      <path class="cls-2" d="M23.82,4.91c.03-.07.03-.19-.05-.2-.03,0-.05.01-.08.03-.11.08-.19.2-.26.32-.14.27-.24.56-.29.86,0,0,.54-.63.67-1.01h.01Z"/>
      <path class="cls-2" d="M22.79,5.57l-.08-.02c-.35-.13-.76-.13-1.11,0-.05.02-.12.07-.1.12.01.04.07.06.11.07.34.06,1.1-.14,1.18-.18h0Z"/>
      <path class="cls-2" d="M23.4,4.19c0-.06,0-.14-.07-.16-.03,0-.05,0-.07.02-.12.07-.19.21-.25.35-.11.26-.18.54-.18.83l.02.04c.31-.27.51-.67.55-1.08Z"/>
      <path class="cls-2" d="M22.77,3.37c-.12.03-.18.16-.21.27-.11.33-.14.67-.16,1.02v.05c.31-.36.45-.87.38-1.34h-.01Z"/>
      <path class="cls-2" d="M22.18,4.83c-.36-.14-.77-.14-1.12,0-.02,0-.05.02-.06.04-.02.03,0,.08.03.1s.07.03.11.03c.3.02.6,0,.9-.06.04,0,.17-.06.21-.08"/>
      <path class="cls-2" d="M21.98,4.19c.24-.33.36-.75.32-1.15,0-.04-.01-.07-.04-.09-.06-.04-.13.03-.16.09-.16.3-.22.77-.13,1.1v.06h.01Z"/>
      <path class="cls-2" d="M21.69,4.08c-.33-.17-.79-.22-1.13-.07-.05.02-.11.08-.09.13.01.03.05.04.09.05.32.07.66.05.97-.07.04-.02.1-.05.16-.05h0Z"/>
      <path class="cls-2" d="M21.69,3.78c.11-.31.14-.69.11-1.02,0-.05-.02-.12-.08-.13-.04,0-.07.03-.09.06-.19.29-.11.78.06,1.08h0Z"/>
      <path class="cls-2" d="M21.44,3.66l-.03-.06c-.08-.21-.18-.42-.33-.59-.15-.17-.36-.3-.58-.32h-.08c-.08.04-.05.16,0,.23.22.36.62.61,1.02.73h0Z"/>
    </g>
    <g>
      <path class="cls-4" d="M23.86,6.54v-.25s-.01-.04-.02-.06c-.04-.03-.09.02-.11.06-.19.32-.21.76-.07,1.1l.03-.02s.07-.11.09-.17c.06-.22.09-.44.1-.67h-.02Z"/>
      <path class="cls-4" d="M23.01,6.22c-.11-.09-.24-.16-.39-.18-.02,0-.06,0-.06.02v.04c.13.27.41.49.73.58h.06c0-.07-.03-.12-.07-.16-.08-.1-.17-.21-.28-.3h.01Z"/>
      <path class="cls-4" d="M23.15,6.06c.05-.08.07-.17.1-.26.07-.25.13-.51.09-.77,0-.04-.03-.09-.07-.09-.03,0-.05.02-.06.04-.03.04-.05.09-.06.14-.1.31-.1.64,0,.95h.02-.02Z"/>
      <path class="cls-4" d="M22.82,5.65c-.06-.16-.19-.29-.32-.42-.07-.06-.13-.13-.22-.18-.08-.05-.19-.08-.29-.07-.03,0-.06.01-.08.03-.02.03-.02.06,0,.09.05.13.16.23.3.31s.29.13.45.18c.07.02.13.04.2.06l-.03-.02v.02Z"/>
      <path class="cls-4" d="M22.54,5.02c.08-.13.14-.27.2-.41.08-.2.14-.42.09-.63,0-.02-.01-.05-.04-.06-.03-.02-.07,0-.09.03-.06.06-.1.15-.13.23-.09.26-.11.55-.05.82h.02v.02Z"/>
      <path class="cls-4" d="M21.55,4.21c-.08-.01-.17-.02-.25-.02s-.17.03-.23.08c-.02.02-.04.04-.04.07,0,.06.06.12.14.14.06.02.13.03.2.04.22.01.43-.02.65-.05l.07-.03c-.11-.14-.33-.2-.53-.23h0Z"/>
      <path class="cls-4" d="M21.91,4.24c.08-.12-.1-.75-.18-.92-.02-.04-.03-.07-.06-.1-.03-.02-.08-.03-.11,0-.03.02-.03.07-.03.1,0,.33.12.66.35.9l.04.02h-.01Z"/>
    </g>
  </g>
  <g>
    <path class="cls-2" d="M31.76,15.39c.03-.33.08-.74.23-1.05.02-.04.04-.09.08-.11.07-.05.14,0,.17.07s0,.17-.02.26c-.08.29-.22.57-.41.79"/>
    <path class="cls-2" d="M31.92,15.49c.11-.12.22-.24.35-.33s.29-.16.45-.17c.06,0,.12,0,.15.05.02.04,0,.1-.03.14-.09.13-.23.22-.38.27s-.48.1-.63.12"/>
    <path class="cls-2" d="M31.68,15.71c-.06-.4-.16-.71-.44-1.01-.07-.07-.19-.14-.26-.07-.03.03-.04.07-.04.11-.01.25.55.8.69.94"/>
    <path class="cls-4" d="M31.56,14.86c-.06-.08-.28-.51-.3-.64-.02-.24.16-.29.27-.11.09.15.12.48.07.82"/>
    <path class="cls-4" d="M32.25,14.91c.05-.11.14-.2.22-.29.13-.14.27-.27.45-.33.05-.02.1-.02.14-.02,0,0,.03,0,.04.02v.03s-.02.07-.04.1c-.05.07-.12.13-.19.18-.12.09-.5.27-.56.28"/>
  </g>
  <g>
    <path class="cls-2" d="M33.23,2.05c.03-.33.08-.74.23-1.05.02-.04.04-.09.08-.11.07-.05.14,0,.17.07s0,.17-.02.26c-.08.29-.22.57-.41.79"/>
    <path class="cls-2" d="M33.4,2.16c.11-.12.22-.24.35-.33s.29-.16.45-.17c.06,0,.12,0,.15.05.02.04,0,.1-.03.14-.09.13-.23.22-.38.27-.15.05-.48.1-.63.12"/>
    <path class="cls-2" d="M33.15,2.37c-.06-.4-.16-.71-.44-1.01-.07-.07-.19-.14-.26-.07-.03.03-.04.07-.04.11-.01.25.55.8.69.94"/>
    <path class="cls-4" d="M33.03,1.52c-.06-.08-.28-.51-.3-.64-.02-.24.16-.29.27-.11.09.15.12.48.07.82"/>
    <path class="cls-4" d="M33.72,1.57c.05-.11.14-.2.22-.29.13-.14.27-.27.45-.33.05-.02.1-.02.14-.02,0,0,.03,0,.04.02v.03s-.02.07-.04.1c-.05.07-.12.13-.19.18-.12.09-.5.27-.56.28"/>
  </g>
  <g>
    <path class="cls-2" d="M26.36,6.13c.03-.33.08-.74.23-1.05.02-.04.04-.09.08-.11.07-.05.14,0,.17.07s0,.17-.02.26c-.08.29-.22.57-.41.79"/>
    <path class="cls-2" d="M24.1,1.92c-.08-.14-.16-.28-.21-.44s-.06-.32-.03-.48c.01-.05.04-.12.09-.13.05,0,.09.03.12.07.1.12.14.28.15.44s-.05.49-.07.64"/>
    <path class="cls-2" d="M26.27,6.44c-.06-.4-.16-.71-.44-1.01-.07-.07-.19-.14-.26-.07-.03.03-.04.07-.04.11-.01.25.55.8.69.94"/>
    <path class="cls-4" d="M26.15,5.59c-.06-.08-.28-.51-.3-.64-.02-.24.16-.29.27-.11.09.15.12.48.07.82"/>
    <path class="cls-4" d="M23.64,1.44c-.09-.08-.15-.19-.21-.3-.09-.17-.18-.34-.18-.53,0-.05,0-.1.03-.14,0,0,.02-.03.03-.03h.03s.06.04.08.07c.05.07.08.15.11.23.05.14.11.56.1.62"/>
  </g>
  <g>
    <path class="cls-2" d="M38.88,14.8c.17-.28.41-.63.68-.83.04-.03.08-.06.12-.07.08-.01.13.06.12.14s-.07.15-.13.22c-.2.22-.46.41-.72.52"/>
    <path class="cls-2" d="M22.26,11.34c-.05-.15-.1-.31-.11-.47s0-.33.07-.47c.02-.05.06-.11.12-.1.05,0,.08.05.1.09.07.14.07.31.05.46s-.15.46-.21.61"/>
    <path class="cls-2" d="M38.67,15.04c.13-.39.18-.71.07-1.1-.03-.1-.11-.22-.2-.18-.04.01-.06.04-.08.08-.13.22.13.96.19,1.15"/>
    <path class="cls-4" d="M38.94,14.23c-.02-.1-.02-.58.03-.71.08-.22.27-.19.29.02.02.17-.11.48-.31.76"/>
    <path class="cls-2" d="M24.97,17.37c-.17-.28-.41-.63-.68-.83-.04-.03-.08-.06-.12-.07-.08-.01-.13.06-.12.14s.07.15.13.22c.2.22.46.41.72.52"/>
    <path class="cls-2" d="M25.19,17.62c-.13-.39-.18-.71-.07-1.1.03-.1.11-.22.2-.18.04.01.06.04.08.08.13.22-.13.96-.19,1.15"/>
    <path class="cls-4" d="M24.91,16.8c.02-.1.02-.58-.03-.71-.08-.22-.27-.19-.29.02-.02.17.11.48.31.76"/>
    <path class="cls-2" d="M33.22,22.37c.17-.28.41-.63.68-.83.04-.03.08-.06.12-.07.08-.01.13.06.12.14s-.07.15-.13.22c-.2.22-.46.41-.72.52"/>
    <path class="cls-4" d="M33.28,21.8c-.02-.1-.02-.58.03-.71.08-.22.27-.19.29.02.02.17-.11.48-.31.76"/>
    <path class="cls-2" d="M27.82,11.97c.17-.28.41-.63.68-.83.04-.03.08-.06.12-.07.08-.01.13.06.12.14s-.07.15-.13.22c-.2.22-.46.41-.72.52"/>
    <path class="cls-4" d="M27.87,11.4c-.02-.1-.02-.58.03-.71.08-.22.27-.19.29.02.02.17-.11.48-.31.76"/>
    <path class="cls-4" d="M21.92,10.77c-.07-.1-.11-.22-.14-.34-.05-.18-.1-.37-.06-.56,0-.05.03-.1.05-.13,0-.01.02-.02.04-.02h.03s.05.05.07.09c.03.08.05.16.06.25.02.15-.02.57-.03.63"/>
    <path class="cls-2" d="M41.5,11.34c-.05-.15-.1-.31-.11-.47s0-.33.07-.47c.02-.05.06-.11.12-.1.05,0,.08.05.1.09.07.14.07.31.05.46s-.15.46-.21.61"/>
    <path class="cls-4" d="M41.15,10.77c-.07-.1-.11-.22-.14-.34-.05-.18-.1-.37-.06-.56,0-.05.03-.1.05-.13,0-.01.02-.02.04-.02h.03s.05.05.07.09c.03.08.05.16.06.25.02.15-.02.57-.03.63"/>
  </g>
  <g>
    <path class="cls-2" d="M26.8,25.21c.03-.33.08-.74.23-1.05.02-.04.04-.09.08-.11.07-.05.14,0,.17.07s0,.17-.02.26c-.08.29-.22.57-.41.79"/>
    <path class="cls-2" d="M26.97,25.13c.11-.12.22-.24.35-.33s.29-.16.45-.17c.06,0,.12,0,.15.05.02.04,0,.1-.03.14-.09.13-.23.22-.38.27s-.48.1-.63.12"/>
    <path class="cls-2" d="M21.57,23.31c-.06-.4-.16-.71-.44-1.01-.07-.07-.19-.14-.26-.07-.03.03-.04.07-.04.11-.01.25.55.8.69.94"/>
    <path class="cls-4" d="M21.57,22.66c-.06-.08-.28-.51-.3-.64-.02-.24.16-.29.27-.11.09.15.12.48.07.82"/>
    <path class="cls-2" d="M41.9,23.31c-.06-.4-.16-.71-.44-1.01-.07-.07-.19-.14-.26-.07-.03.03-.04.07-.04.11,0,.25.55.8.69.94"/>
    <path class="cls-4" d="M41.9,22.66c-.06-.08-.28-.51-.3-.64-.02-.24.16-.29.27-.11.09.15.12.48.07.82"/>
    <path class="cls-4" d="M27.28,24.61c.05-.11.14-.2.22-.29.13-.14.27-.27.45-.33.05-.02.1-.02.14-.02.01,0,.03,0,.04.02v.03s-.02.07-.04.1c-.05.07-.12.13-.19.18-.12.09-.5.27-.56.28"/>
  </g>
  <path class="cls-1" d="M25.51,3.76c-.35-.71-.48-1.54-.34-2.33.39.73.53,1.6.39,2.42"/>
  <path class="cls-1" d="M38.79,4.53c.16-.61.52-1.13,1.01-1.45-.14.65-.51,1.19-1.03,1.52"/>
  <path class="cls-1" d="M23.8,2.37c-.6-.4-1.11-.93-1.5-1.54.66.33,1.2.88,1.52,1.54"/>
  <g>
    <path class="cls-1" d="M41.68,4.28c2.05,2.61,2.72,5.95,3.32,9.14.02.09.16.05.14-.04-.61-3.22-1.29-6.56-3.36-9.2-.06-.08-.17.03-.11.11h.01Z"/>
    <path class="cls-1" d="M45.18,12.74c-.19-.58-.05-1.25.36-1.7.08.19.03.41-.03.61-.11.38-.21.76-.32,1.14"/>
    <path class="cls-1" d="M44.75,12.62c-.57-.31-1.22-.62-1.84-.46.15.08.3.16.45.24.21.11,1.17.33,1.37.2"/>
    <path class="cls-1" d="M44.7,10.67c.04-.56.35-1.09.82-1.38-.22.51-.53,1.26-.89,1.68"/>
    <path class="cls-1" d="M44.43,11.52c-.2-.65-.87-1.19-1.5-1.43.37.55.82,1.01,1.39,1.36"/>
    <path class="cls-1" d="M44.4,9.34c-.12-.58,0-1.52.32-1.97.04.6,0,1.53-.32,1.97"/>
    <path class="cls-1" d="M44.06,9.2c-.41-.52-1.08-.82-1.74-.79.49.42,1.16.73,1.71.78"/>
    <g>
      <path class="cls-2" d="M42.05,7.3c-.07.05-.12.16-.06.22.02.02.05.03.08.03.46.1.96,0,1.34-.28l.05-.05c-.23-.07-.47-.13-.72-.13s-.5.05-.68.21h0Z"/>
      <path class="cls-2" d="M44.59,6.38s-.07-.03-.11-.02c-.29.11-.49.38-.67.62-.09.12-.16.28-.18.42l.06-.02c.41-.17.75-.53.9-.95,0-.02,0-.04,0-.06h0Z"/>
      <path class="cls-2" d="M44.16,5.48s-.04-.09-.09-.1c-.03,0-.07.01-.1.03-.15.1-.25.27-.33.43-.13.25-.18.51-.23.8,0,0,.58-.63.72-1.02.02-.04.03-.09.03-.14Z"/>
      <path class="cls-2" d="M42.98,6.41c-.39-.1-.81-.2-1.21-.11-.07.02-.15.05-.17.12,0,.05.03.11.07.13.05.03.1.03.16.04.28.03,1.14-.19,1.14-.19h0Z"/>
      <path class="cls-2" d="M43.66,4.91c.03-.07.03-.19-.05-.2-.03,0-.05.01-.08.03-.11.08-.19.2-.26.32-.14.27-.24.56-.29.86,0,0,.54-.63.67-1.01h.01Z"/>
      <path class="cls-2" d="M42.63,5.57l-.08-.02c-.35-.13-.76-.13-1.11,0-.05.02-.12.07-.1.12,0,.04.07.06.11.07.34.06,1.1-.14,1.18-.18h0Z"/>
      <path class="cls-2" d="M43.24,4.19c0-.06,0-.14-.07-.16-.03,0-.05,0-.07.02-.12.07-.19.21-.25.35-.11.26-.18.54-.18.83l.02.04c.31-.27.51-.67.55-1.08Z"/>
      <path class="cls-2" d="M42.61,3.37c-.12.03-.18.16-.21.27-.11.33-.14.67-.16,1.02v.05c.31-.36.45-.87.38-1.34h-.01Z"/>
      <path class="cls-2" d="M42.02,4.83c-.36-.14-.77-.14-1.12,0-.02,0-.05.02-.06.04-.02.03,0,.08.03.1s.07.03.11.03c.3.02.6,0,.9-.06.04,0,.17-.06.21-.08"/>
      <path class="cls-2" d="M41.82,4.19c.24-.33.36-.75.32-1.15,0-.04,0-.07-.04-.09-.06-.04-.13.03-.16.09-.16.3-.22.77-.13,1.1v.06h.01Z"/>
      <path class="cls-2" d="M41.53,4.08c-.33-.17-.79-.22-1.13-.07-.05.02-.11.08-.09.13,0,.03.05.04.09.05.32.07.66.05.97-.07.04-.02.1-.05.16-.05h0Z"/>
      <path class="cls-2" d="M41.53,3.78c.11-.31.14-.69.11-1.02,0-.05-.02-.12-.08-.13-.04,0-.07.03-.09.06-.19.29-.11.78.06,1.08h0Z"/>
      <path class="cls-2" d="M41.28,3.66l-.03-.06c-.08-.21-.18-.42-.33-.59-.15-.17-.36-.3-.58-.32h-.08c-.08.04-.05.16,0,.23.22.36.62.61,1.02.73h0Z"/>
    </g>
    <g>
      <path class="cls-4" d="M43.7,6.54v-.25s0-.04-.02-.06c-.04-.03-.09.02-.11.06-.19.32-.21.76-.07,1.1l.03-.02s.07-.11.09-.17c.06-.22.09-.44.1-.67h-.02Z"/>
      <path class="cls-4" d="M42.85,6.22c-.11-.09-.24-.16-.39-.18-.02,0-.06,0-.06.02v.04c.13.27.41.49.73.58h.06c0-.07-.03-.12-.07-.16-.08-.1-.17-.21-.28-.3h0Z"/>
      <path class="cls-4" d="M42.99,6.06c.05-.08.07-.17.1-.26.07-.25.13-.51.09-.77,0-.04-.03-.09-.07-.09-.03,0-.05.02-.06.04-.03.04-.05.09-.06.14-.1.31-.1.64,0,.95h.02-.02Z"/>
      <path class="cls-4" d="M42.66,5.65c-.06-.16-.19-.29-.32-.42-.07-.06-.13-.13-.22-.18-.08-.05-.19-.08-.29-.07-.03,0-.06.01-.08.03-.02.03-.02.06,0,.09.05.13.16.23.3.31s.29.13.45.18c.07.02.13.04.2.06l-.03-.02v.02Z"/>
      <path class="cls-4" d="M42.38,5.02c.08-.13.14-.27.2-.41.08-.2.14-.42.09-.63,0-.02,0-.05-.04-.06-.03-.02-.07,0-.09.03-.06.06-.1.15-.13.23-.09.26-.11.55-.05.82h.02v.02Z"/>
      <path class="cls-4" d="M41.39,4.21c-.08-.01-.17-.02-.25-.02s-.17.03-.23.08c-.02.02-.04.04-.04.07,0,.06.06.12.14.14.06.02.13.03.2.04.22.01.43-.02.65-.05l.07-.03c-.11-.14-.33-.2-.53-.23h-.01Z"/>
      <path class="cls-4" d="M41.75,4.24c.08-.12-.1-.75-.18-.92-.02-.04-.03-.07-.06-.1-.03-.02-.08-.03-.11,0-.03.02-.03.07-.03.1,0,.33.12.66.35.9l.04.02h0Z"/>
    </g>
  </g>
  <g>
    <path class="cls-2" d="M45.81,6.13c.03-.33.08-.74.23-1.05.02-.04.04-.09.08-.11.07-.05.14,0,.17.07s0,.17-.02.26c-.08.29-.22.57-.41.79"/>
    <path class="cls-2" d="M43.55,1.92c-.08-.14-.16-.28-.21-.44s-.06-.32-.03-.48c0-.05.04-.12.09-.13.05,0,.09.03.12.07.1.12.14.28.15.44s-.05.49-.07.64"/>
    <path class="cls-2" d="M45.73,6.44c-.06-.4-.16-.71-.44-1.01-.07-.07-.19-.14-.26-.07-.03.03-.04.07-.04.11,0,.25.55.8.69.94"/>
    <path class="cls-4" d="M45.6,5.59c-.06-.08-.28-.51-.3-.64-.02-.24.16-.29.27-.11.09.15.12.48.07.82"/>
    <path class="cls-4" d="M43.1,1.44c-.09-.08-.15-.19-.21-.3-.09-.17-.18-.34-.18-.53,0-.05,0-.1.03-.14,0,0,.02-.03.03-.03h.03s.06.04.08.07c.05.07.08.15.11.23.05.14.11.56.1.62"/>
  </g>
  <path class="cls-1" d="M44.96,3.76c-.35-.71-.48-1.54-.34-2.33.39.73.53,1.6.39,2.42"/>
  <path class="cls-1" d="M43.25,2.37c-.6-.4-1.11-.93-1.5-1.54.66.33,1.2.88,1.52,1.54"/>
</svg>