<?xml version="1.0" encoding="UTF-8"?>
<svg width="222px" height="222px" viewBox="0 0 222 222" version="1.1" xmlns="http://www.w3.org/2000/svg" xmlns:xlink="http://www.w3.org/1999/xlink">
    <title>画板备份 8</title>
    <defs>
        <linearGradient x1="62.8907571%" y1="37.426022%" x2="44.1281719%" y2="61.5257349%" id="linearGradient-1">
            <stop stop-color="#E4BE7B" offset="0%"></stop>
            <stop stop-color="#E2C071" offset="62.3875566%"></stop>
            <stop stop-color="#CEA35E" offset="100%"></stop>
        </linearGradient>
        <linearGradient x1="74.2698571%" y1="3.5005222%" x2="45.6732456%" y2="95.5930568%" id="linearGradient-2">
            <stop stop-color="#F2E3AB" offset="0%"></stop>
            <stop stop-color="#E8D76F" offset="30.3575699%"></stop>
            <stop stop-color="#E0BF15" offset="100%"></stop>
        </linearGradient>
        <linearGradient x1="45.7018762%" y1="19.8136345%" x2="60.3717655%" y2="32.6094374%" id="linearGradient-3">
            <stop stop-color="#F7DBA3" offset="0%"></stop>
            <stop stop-color="#EDD93E" offset="21.2888158%"></stop>
            <stop stop-color="#EED740" offset="40.0495855%"></stop>
            <stop stop-color="#EFD641" offset="57.315169%"></stop>
            <stop stop-color="#DBB12B" offset="100%"></stop>
        </linearGradient>
        <linearGradient x1="92.7526482%" y1="50.9800653%" x2="15.4839879%" y2="50%" id="linearGradient-4">
            <stop stop-color="#D8AA58" offset="0%"></stop>
            <stop stop-color="#A37529" offset="40.7570124%"></stop>
            <stop stop-color="#E6CC98" offset="100%"></stop>
        </linearGradient>
        <linearGradient x1="20.5348824%" y1="22.4124751%" x2="70.8739633%" y2="90.6454018%" id="linearGradient-5">
            <stop stop-color="#F2D4A4" offset="0%"></stop>
            <stop stop-color="#EED49E" offset="46.5796442%"></stop>
            <stop stop-color="#EBC595" offset="100%"></stop>
        </linearGradient>
        <linearGradient x1="50%" y1="31.8011065%" x2="51.5185162%" y2="62.0010363%" id="linearGradient-6">
            <stop stop-color="#E3CD91" offset="0%"></stop>
            <stop stop-color="#A47E1F" offset="23.4734969%"></stop>
            <stop stop-color="#B08F54" offset="50.6589449%"></stop>
            <stop stop-color="#DAB56F" offset="77.1098797%"></stop>
            <stop stop-color="#A98047" offset="100%"></stop>
        </linearGradient>
    </defs>
    <g id="画板备份-8" stroke="none" stroke-width="1" fill="none" fill-rule="evenodd">
        <g id="gaslight备份-2" transform="translate(81.000000, 18.000000)">
            <polygon id="路径-131" fill="url(#linearGradient-1)" points="51.9819826 19 11 57 81 57 65.2480753 26.8262434"></polygon>
            <path d="M20.1385948,60.9206959 L60.4028901,58.3170093 L78,57 L67.4763543,134.958038 C55.1718019,139.652679 47.0366996,142 43.0710475,142 C39.1053953,142 35.7763479,140.623 33.0839053,137.869 L23.4263599,107.525933 L10,61.4266656 L20.1385948,60.9206959 Z" id="路径-133" fill="url(#linearGradient-2)"></path>
            <polygon id="路径-134" fill="url(#linearGradient-3)" points="76.6145004 57 68 139.243877 87.3156252 146 110 89.4016904 110 68.3904242"></polygon>
            <path d="M8,65.5557849 L14.2609397,75.9375607 C22.5471576,116.366994 27.3117101,137.474214 28.5545973,139.259222 C30.4189281,141.936733 36.0083067,145.035603 38.5450917,146.345201 C40.2362817,147.218266 48.1031823,147.218266 62.1457936,146.345201 L68.7129322,145.8858 C73.8199241,145.319002 76.882041,145.472136 77.8992828,146.345201 C79.4251456,147.654799 90.2895284,146.345201 92.3443594,146.345201 C94.3991904,146.345201 115,88.5764764 115,82.8930668 C115,77.2096572 114.080097,72.6307801 113.345536,70.8018758 C112.610975,68.9729715 108.97848,68.6938223 107.388562,70.8018758 C105.798644,72.9099293 109.222843,85.4427433 107.388562,90.3105141 C106.165708,93.5556946 99.5332709,110.585369 87.491251,141.399538 L72.389755,136.581711 C80.9064555,90.6140133 84.6769608,66.9387048 83.7012709,65.5557849 C82.237736,63.481405 77.8992828,63.481405 75.8740387,65.5557849 C74.523876,66.9387048 71.4785616,86.5172356 66.7380957,124.291377 L65.2901328,133.948526 C51.0621831,137.48899 42.9927644,139.259222 41.0818767,139.259222 C39.170989,139.259222 36.5735979,136.764618 33.2897036,131.77541 L21.7128757,74.2725997 L14.2609397,65.5557849 L8,65.5557849 Z" id="路径-132" fill="url(#linearGradient-4)"></path>
            <polygon id="路径-135" fill="url(#linearGradient-5)" points="66.2101989 1 74.8831477 10.9241084 77.3006539 22.702114 112 65 82.8881827 58.813944 68.7955557 31.5085745 58 10.9241084"></polygon>
            <path d="M50.1502122,15.5144038 C15.4706505,46.1536144 -1.22286573,62.3106403 0.0696636855,63.9854816 C2.00845781,66.4977435 73.2965295,60.1965383 76.5664427,60.1965383 C79.8363559,60.1965383 118.934636,75.6545228 120.931689,72.6004881 C122.928742,69.5464534 80.5056655,20.4790703 76.5664427,20.4790703 C72.62722,20.4790703 74.1977594,23.3181241 74.1977594,25.4608912 C74.1977594,26.8894026 84.4816635,38.9441494 105.049472,61.6251317 L84.286845,55.6987928 L69.6234045,29.3370745 L65.3260521,29.3370745 L76.5664427,55.6987928 L14.8106394,57.8439257 L54.5203562,20.4790703 L62.9784773,25.4608912 C72.0371209,17.9824874 76.5664427,13.5799259 76.5664427,12.2532067 C76.5664427,10.2631279 74.1977594,5.40339916 71.7481135,5.40339916 C70.1150163,5.40339916 67.1918042,9.73030285 62.9784773,18.3841102 L58.7172033,15.5144038 C63.1231025,7.94869665 65.3260521,3.47153589 65.3260521,2.08292153 C65.3260521,0.694307177 63.8615341,0 60.9324981,0 L50.1502122,15.5144038 Z" id="路径-130" fill="url(#linearGradient-6)"></path>
        </g>
    </g>
</svg>