<?xml version="1.0" encoding="UTF-8"?>
<svg width="222px" height="222px" viewBox="0 0 222 222" version="1.1" xmlns="http://www.w3.org/2000/svg" xmlns:xlink="http://www.w3.org/1999/xlink">
    <title>画板</title>
    <defs>
        <radialGradient cx="50%" cy="50%" fx="50%" fy="50%" r="70.7820959%" gradientTransform="translate(0.500000,0.500000),scale(1.000000,0.706785),rotate(88.092025),translate(-0.500000,-0.500000)" id="radialGradient-1">
            <stop stop-color="#B0C5B8" offset="0%"></stop>
            <stop stop-color="#B2C7B5" offset="30.8904021%"></stop>
            <stop stop-color="#81A288" offset="52.2110261%"></stop>
            <stop stop-color="#B0C5B8" offset="100%"></stop>
            <stop stop-color="#9BB5B5" offset="100%"></stop>
        </radialGradient>
        <linearGradient x1="0%" y1="50%" x2="100%" y2="50%" id="linearGradient-2">
            <stop stop-color="#E5E793" offset="0%"></stop>
            <stop stop-color="#B6BC88" offset="100%"></stop>
        </linearGradient>
        <radialGradient cx="54.9509341%" cy="50%" fx="54.9509341%" fy="50%" r="38.3152275%" gradientTransform="translate(0.549509,0.500000),scale(0.956112,1.000000),rotate(90.000000),scale(1.000000,0.974676),translate(-0.549509,-0.500000)" id="radialGradient-3">
            <stop stop-color="#C6D5A8" offset="0%"></stop>
            <stop stop-color="#7E9219" offset="100%"></stop>
        </radialGradient>
        <radialGradient cx="50%" cy="50%" fx="50%" fy="50%" r="82.1562027%" gradientTransform="translate(0.500000,0.500000),scale(1.000000,0.608847),rotate(88.356253),translate(-0.500000,-0.500000)" id="radialGradient-4">
            <stop stop-color="#B0C5B8" offset="0%"></stop>
            <stop stop-color="#B2C7B5" offset="30.8904021%"></stop>
            <stop stop-color="#81A288" offset="52.2110261%"></stop>
            <stop stop-color="#B0C5B8" offset="100%"></stop>
            <stop stop-color="#9BB5B5" offset="100%"></stop>
        </radialGradient>
        <linearGradient x1="0%" y1="50%" x2="100%" y2="50%" id="linearGradient-5">
            <stop stop-color="#E5E793" offset="0%"></stop>
            <stop stop-color="#B6BC88" offset="100%"></stop>
        </linearGradient>
        <radialGradient cx="54.9509341%" cy="50%" fx="54.9509341%" fy="50%" r="43.6249611%" gradientTransform="translate(0.549509,0.500000),scale(1.000000,0.878287),rotate(90.000000),scale(1.000000,0.974676),translate(-0.549509,-0.500000)" id="radialGradient-6">
            <stop stop-color="#C6D5A8" offset="0%"></stop>
            <stop stop-color="#7E9219" offset="100%"></stop>
        </radialGradient>
    </defs>
    <g id="画板" stroke="none" stroke-width="1" fill="none" fill-rule="evenodd">
        <g id="编组-2备份-2" transform="translate(102.000000, 15.000000)">
            <g id="编组" transform="translate(0.000000, 41.000000)">
                <path d="M47.8590342,8.67130291 C46.7199324,8.67130291 45.6739835,25.8548039 44.7211873,60.2218059 C33.8250236,49.7109277 27.9497154,44.8934599 27.0952627,45.7694023 C26.24081,46.6453447 28.0521268,52.1010865 32.5292131,62.1366278 C13.024334,68.9249602 3.27189447,72.9736076 3.27189447,74.28257 C3.27189447,75.5915324 12.5644067,80.1491391 31.1494312,87.9553903 C26.6905366,101.463853 24.9404762,108.602466 25.8992499,109.37123 C26.8580236,110.139994 33.6337281,104.29699 46.2263633,91.8422168 C49.883716,126.457222 52.0783767,143.764724 52.8103451,143.764724 C53.5423136,143.764724 56.4411862,128.908931 61.5069629,99.1973458 C71.7419969,102.9518 77.239604,103.890413 77.9997844,102.013186 C78.7599648,100.135959 76.3719001,93.4280313 70.8355903,81.8894022 C89.4478111,77.8702202 98.7539214,75.3346095 98.7539214,74.28257 C98.7539214,73.2305305 89.4478111,69.1818831 70.8355903,62.1366278 C72.4535727,45.2524218 72.8923663,36.33707 72.1519711,35.3905723 C71.4115758,34.4440745 65.7672101,43.8747201 55.218874,63.6825089 C51.4514159,27.0083716 48.998136,8.67130291 47.8590342,8.67130291 Z" id="路径-126" fill="url(#radialGradient-1)" opacity="0.541411627"></path>
                <path d="M46.2263633,1.58329113 C44.7793636,4.50304097 44.7211873,56.3727355 42.7966029,56.3727355 C40.8720186,56.3727355 25.3067004,38.7267302 24.3770172,40.9132767 C23.447334,43.0998232 29.8726292,56.3727355 28.5211461,60.2218059 C27.169663,64.0708763 0,70.9267636 0,74.28257 C0,77.6383764 28.5211461,87.1494752 28.5211461,90.2994997 C28.5211461,93.4495243 22.9817385,111.348069 24.3770172,112.658929 C25.7722959,113.969789 43.6017187,95.4440401 44.7211873,96.2899633 C45.840656,97.1358865 50.158086,152 52.1547711,152 C53.4858944,152 57.1214612,135.337729 63.0614715,102.013186 C74.8004732,104.34992 81.0648407,105.214927 81.8545742,104.608207 C83.0391743,103.698126 73.5687967,84.4134351 74.2034642,83.1674787 C74.8381316,81.9215223 103,75.8941848 103,74.28257 C103,72.6709552 74.2034642,61.2875055 73.52337,60.2218059 C72.8432759,59.1561062 75.2340917,29.0095045 73.52337,29.0095045 C71.8126483,29.0095045 57.110565,60.2218059 56.0893404,60.2218059 C55.408524,60.2218059 53.2586325,40.6756343 49.6396659,1.58329113 L48.2140185,7.03964376 C50.5848895,44.1523063 52.9198413,63.0332614 55.218874,63.6825089 C58.6674231,64.6563803 71.5431482,35.3905723 72.1519711,35.3905723 C72.7607939,35.3905723 69.5192096,61.1533325 70.8355903,62.1366278 C72.1519711,63.1199231 96.4879929,72.6979285 96.4879929,73.744928 C96.4879929,74.7919275 70.8355903,80.3270234 70.8355903,81.8894022 C70.8355903,83.451781 78.7040828,100.734839 77.9997844,102.013186 C77.2954861,103.291533 63.0614715,97.9247981 61.5069629,99.1973458 C59.9524544,100.469894 53.5410095,142.104728 52.6975941,142.104728 C51.8541787,142.104728 48.3974135,92.7473705 46.2263633,91.8422168 C44.7789965,91.238781 38.4019629,96.3910374 27.0952627,107.298986 C30.7178963,99.1676677 32.5292131,93.5011723 32.5292131,90.2994997 C32.5292131,85.4969909 4.45285196,76.8651223 4.45285196,74.28257 C4.45285196,71.7000177 32.5292131,64.0514497 32.5292131,62.1366278 C32.5292131,60.8600798 30.7178963,55.404338 27.0952627,45.7694023 C36.9850216,56.2996853 42.8603298,61.1171532 44.7211873,60.2218059 C46.5820448,59.3264585 47.7463218,41.5990711 48.2140185,7.03964376 C49.3012516,4.14731461 49.7764674,2.3285304 49.6396659,1.58329113 C49.4344636,0.465432215 47.6733629,-1.33645872 46.2263633,1.58329113 Z" id="路径-125" fill="url(#linearGradient-2)"></path>
                <path d="M48.5694949,35.6188317 C49.1606127,57.1193915 49.1606127,68.2761565 48.5694949,69.0891268 C47.9783771,69.902097 43.6387917,66.3140935 35.5507389,58.3251163 C42.9347302,66.9721122 46.280375,71.7045611 45.5876734,72.5224629 C44.5486208,73.7493156 8.45606833,73.5223908 8.2219925,74.4321523 C7.98791666,75.3419139 43.5966653,74.9568509 44.6368318,76.2180135 C45.3302762,77.0587886 41.2521601,84.8151096 32.4024835,99.4869766 C42.1066843,87.1048719 47.4956881,81.2341272 48.5694949,81.8747426 C49.6433016,82.515358 51.4622389,92.9722681 54.0263068,113.245473 C53.137436,92.9823085 53.137436,82.5253984 54.0263068,81.8747426 C54.9151776,81.2240869 59.8572523,86.3522136 68.8525309,97.2591229 C62.0125427,85.3466588 58.8639416,79.0359598 59.4067277,78.327026 C59.9495138,77.6180923 69.9508567,76.319801 89.4107566,74.4321523 L59.4067277,72.5224629 L68.8525309,53.1414481 C60.3348367,63.7732339 55.392762,69.0891268 54.0263068,69.0891268 C52.6598517,69.0891268 50.8409143,57.9323617 48.5694949,35.6188317 Z" id="路径-127" fill="url(#radialGradient-3)" opacity="0.918413435"></path>
            </g>
            <g id="编组备份" transform="translate(19.000000, 31.500000) scale(-1, -1) translate(-19.000000, -31.500000) translate(1.000000, 0.000000)">
                <path d="M16.8808295,4.2 C16.4766126,4.2 16.1054516,11.2785226 15.7673463,25.4355677 C11.9007792,21.1057464 9.81589189,19.1212524 9.51268439,19.4820856 C9.20947689,19.8429188 9.85223319,22.0903416 11.4409533,26.224354 C4.51953345,29.0207203 1.05882353,30.6885086 1.05882353,31.2277189 C1.05882353,31.7669291 4.35632558,33.6443767 10.9513297,36.8600616 C9.36906498,42.4246993 8.74804585,45.3653594 9.08827228,45.6820418 C9.42849872,45.9987243 11.8328969,43.5917736 16.3014668,38.4611899 C17.5992997,52.7203966 18.3780878,59.85 18.637831,59.85 C18.8975743,59.85 19.9262561,53.7303469 21.7238765,41.4910408 C25.3558378,43.0376398 27.3066957,43.4242896 27.5764502,42.6509901 C27.8462046,41.8776906 26.998786,39.1144458 25.0341942,34.3612557 C31.6388491,32.7056053 34.9411765,31.661093 34.9411765,31.2277189 C34.9411765,30.7943447 31.6388491,29.1265564 25.0341942,26.224354 C25.6083447,19.2691222 25.7640531,15.5965575 25.5013196,15.2066599 C25.238586,14.8167623 23.23565,18.7015956 19.4925115,26.8611599 C18.1556071,11.75372 17.2850464,4.2 16.8808295,4.2 Z" id="路径-126" fill="url(#radialGradient-4)" opacity="0.918457031"></path>
                <path d="M16.1567872,0.656232506 C15.6510397,1.86639198 15.6307062,23.3650154 14.958036,23.3650154 C14.2853657,23.3650154 8.84506035,16.0512106 8.52012252,16.9574765 C8.19518469,17.8637425 10.440919,23.3650154 9.96855593,24.9603537 C9.4961929,26.5556921 0,29.397277 0,30.7881705 C0,32.1790639 9.96855593,36.121164 9.96855593,37.4267663 C9.96855593,38.7323686 8.03245229,46.1508444 8.52012252,46.6941614 C9.00779275,47.2374784 15.2394357,39.559043 15.6307062,39.9096558 C16.0219768,40.2602687 17.5309815,63 18.228852,63 C18.694099,63 19.9647826,56.093927 22.0409027,42.2817811 C26.1438547,43.2502957 28.3333424,43.6088183 28.6093657,43.3573488 C29.0234007,42.9801445 25.7133659,34.9871475 25.9351914,34.4707313 C26.1570169,33.9543152 36,31.4561424 36,30.7881705 C36,30.1201985 25.9351914,25.4020582 25.6974886,24.9603537 C25.4597857,24.5186493 26.2954107,12.0236762 25.6974886,12.0236762 C25.0995664,12.0236762 19.9609742,24.9603537 19.6040413,24.9603537 C19.366086,24.9603537 18.6146677,16.85898 17.3497861,0.656232506 L16.8515016,2.91774709 C17.6801555,18.2999691 18.4962552,26.1256281 19.2998006,26.3947241 C20.5051187,26.7983681 25.0053722,14.6684609 25.2181646,14.6684609 C25.4309571,14.6684609 24.2979762,25.346447 24.7580704,25.753997 C25.2181646,26.1615471 33.7239587,30.1313782 33.7239587,30.565332 C33.7239587,30.9992857 24.7580704,33.2934373 24.7580704,33.9410022 C24.7580704,34.5885671 27.5082231,41.7519398 27.2620606,42.2817811 C27.015898,42.8116223 22.0409027,40.5872518 21.4975793,41.1146894 C20.9542559,41.6421269 18.7133626,58.8986701 18.4185766,58.8986701 C18.1237906,58.8986701 16.9156008,38.4413444 16.1567872,38.066182 C15.6509114,37.8160737 13.4220453,39.9515484 9.47018891,44.472606 C10.7363521,41.1023886 11.3694337,38.7537754 11.3694337,37.4267663 C11.3694337,35.4362528 1.55633661,31.8585704 1.55633661,30.7881705 C1.55633661,29.7177705 11.3694337,26.5476403 11.3694337,25.753997 C11.3694337,25.2249015 10.7363521,22.9636401 9.47018891,18.9702128 C12.9268037,23.334738 14.9803095,25.3314517 15.6307062,24.9603537 C16.281103,24.5892558 16.6880348,17.2417203 16.8515016,2.91774709 C17.2315054,1.71895277 17.3976002,0.965114573 17.3497861,0.656232506 C17.2780649,0.192909405 16.6625346,-0.553926971 16.1567872,0.656232506 Z" id="路径-125" fill="url(#linearGradient-5)"></path>
                <path d="M16.3250368,14.7 C16.5331786,23.7155031 16.5331786,28.3936998 16.3250368,28.7345903 C16.116895,29.0754807 14.5888593,27.5709777 11.7409297,24.2210813 C14.3409482,27.8468947 15.519002,29.8312806 15.2750909,30.174239 C14.9092243,30.6886765 2.20047338,30.5935235 2.11805162,30.975 C2.03562987,31.3564765 14.5740259,31.1950139 14.9402848,31.723838 C15.1844574,32.0763875 13.748489,35.3287277 10.6323798,41.4808588 C14.0493804,36.2888589 15.9469327,33.8271688 16.3250368,34.0957883 C16.7031409,34.3644078 17.3436171,38.7491451 18.2464654,47.25 C17.9334802,38.7533551 17.9334802,34.3686179 18.2464654,34.0957883 C18.5594507,33.8229587 20.2996323,35.9732582 23.4670103,40.5466867 C21.0585437,35.5516141 19.9498721,32.9054446 20.1409956,32.6081782 C20.332119,32.3109118 23.853748,31.766519 30.7058824,30.975 L20.1409956,30.174239 L23.4670103,22.0474925 C20.4677972,26.5055577 18.7276156,28.7345903 18.2464654,28.7345903 C17.7653153,28.7345903 17.124839,24.0563935 16.3250368,14.7 Z" id="路径-127" fill="url(#radialGradient-6)" opacity="0.918413435"></path>
            </g>
        </g>
    </g>
</svg>