<?xml version="1.0" encoding="UTF-8"?>
<svg width="222px" height="222px" viewBox="0 0 222 222" version="1.1" xmlns="http://www.w3.org/2000/svg" xmlns:xlink="http://www.w3.org/1999/xlink">
    <title>画板备份 11</title>
    <defs>
        <linearGradient x1="54.2142047%" y1="-6.57270817%" x2="47.9412831%" y2="91.1987689%" id="linearGradient-1">
            <stop stop-color="#E8D661" offset="0%"></stop>
            <stop stop-color="#EBD64B" offset="10.5800977%"></stop>
            <stop stop-color="#F4DF59" offset="21.1897913%"></stop>
            <stop stop-color="#E3D25F" offset="31.3469141%"></stop>
            <stop stop-color="#E8D359" offset="41.3722429%"></stop>
            <stop stop-color="#ECD877" offset="52.6604717%"></stop>
            <stop stop-color="#E8CC21" offset="64.5150348%"></stop>
            <stop stop-color="#DED235" offset="77.2387648%"></stop>
            <stop stop-color="#E4CE3E" offset="87.8122556%"></stop>
            <stop stop-color="#EAC839" offset="100%"></stop>
        </linearGradient>
        <linearGradient x1="50%" y1="100%" x2="50%" y2="27.7815861%" id="linearGradient-2">
            <stop stop-color="#BCAD06" offset="0%"></stop>
            <stop stop-color="#ADA712" offset="13.266783%"></stop>
            <stop stop-color="#E3D02D" offset="39.4792354%"></stop>
            <stop stop-color="#DBC12D" offset="58.916429%"></stop>
            <stop stop-color="#D8C83F" offset="76.8005917%"></stop>
            <stop stop-color="#D5CA50" offset="100%"></stop>
        </linearGradient>
        <linearGradient x1="50%" y1="0%" x2="50%" y2="100%" id="linearGradient-3">
            <stop stop-color="#CFCF51" offset="0%"></stop>
            <stop stop-color="#BBB92A" offset="51.1974747%"></stop>
            <stop stop-color="#A1A228" offset="100%"></stop>
        </linearGradient>
        <linearGradient x1="50%" y1="0%" x2="50%" y2="100%" id="linearGradient-4">
            <stop stop-color="#CFCF51" offset="0%"></stop>
            <stop stop-color="#BBB92A" offset="51.1974747%"></stop>
            <stop stop-color="#A1A228" offset="100%"></stop>
        </linearGradient>
        <linearGradient x1="50%" y1="0%" x2="50%" y2="100%" id="linearGradient-5">
            <stop stop-color="#CFCF51" offset="0%"></stop>
            <stop stop-color="#BBB92A" offset="51.1974747%"></stop>
            <stop stop-color="#A1A228" offset="100%"></stop>
        </linearGradient>
        <linearGradient x1="50%" y1="0%" x2="50%" y2="100%" id="linearGradient-6">
            <stop stop-color="#CFCF51" offset="0%"></stop>
            <stop stop-color="#BBB92A" offset="51.1974747%"></stop>
            <stop stop-color="#A1A228" offset="100%"></stop>
        </linearGradient>
        <linearGradient x1="50%" y1="0%" x2="50%" y2="100%" id="linearGradient-7">
            <stop stop-color="#CFCF51" offset="0%"></stop>
            <stop stop-color="#BBB92A" offset="51.1974747%"></stop>
            <stop stop-color="#A1A228" offset="100%"></stop>
        </linearGradient>
        <linearGradient x1="50%" y1="0%" x2="50%" y2="100%" id="linearGradient-8">
            <stop stop-color="#CFBD0F" offset="0%"></stop>
            <stop stop-color="#C9BE2B" offset="19.5455058%"></stop>
            <stop stop-color="#D9C238" offset="36.8047114%"></stop>
            <stop stop-color="#E9D869" offset="55.7874806%"></stop>
            <stop stop-color="#D3C537" offset="72.0263074%"></stop>
            <stop stop-color="#C3B300" offset="86.3648955%"></stop>
            <stop stop-color="#E9D64C" offset="100%"></stop>
        </linearGradient>
        <linearGradient x1="67.8787296%" y1="50%" x2="10.6796698%" y2="63.0314296%" id="linearGradient-9">
            <stop stop-color="#B0AD31" offset="0%"></stop>
            <stop stop-color="#949A1E" offset="100%"></stop>
        </linearGradient>
        <linearGradient x1="94.5214524%" y1="35.4201121%" x2="10.6796698%" y2="62.1172349%" id="linearGradient-10">
            <stop stop-color="#B0AD31" offset="0%"></stop>
            <stop stop-color="#D7BB16" offset="27.1904483%"></stop>
            <stop stop-color="#BEB93C" offset="58.7798893%"></stop>
            <stop stop-color="#A0A129" offset="81.2980243%"></stop>
            <stop stop-color="#A8A331" offset="100%"></stop>
        </linearGradient>
        <linearGradient x1="94.5214524%" y1="41.1800678%" x2="10.6796698%" y2="57.3301792%" id="linearGradient-11">
            <stop stop-color="#B0AD31" offset="0%"></stop>
            <stop stop-color="#D7BB16" offset="27.1904483%"></stop>
            <stop stop-color="#BEB93C" offset="58.7798893%"></stop>
            <stop stop-color="#C9BB2A" offset="100%"></stop>
        </linearGradient>
        <linearGradient x1="94.5214524%" y1="38.8372733%" x2="6.12161779%" y2="62.7525592%" id="linearGradient-12">
            <stop stop-color="#C2B72F" offset="0%"></stop>
            <stop stop-color="#D7BB16" offset="27.1904483%"></stop>
            <stop stop-color="#BEB93C" offset="58.7798893%"></stop>
            <stop stop-color="#A0A129" offset="81.2980243%"></stop>
            <stop stop-color="#A8A331" offset="100%"></stop>
        </linearGradient>
        <linearGradient x1="86.4589628%" y1="91.297217%" x2="26.3985107%" y2="14.4225211%" id="linearGradient-13">
            <stop stop-color="#C2B72F" offset="0%"></stop>
            <stop stop-color="#DBAD0C" offset="50.7100438%"></stop>
            <stop stop-color="#E5BB13" offset="100%"></stop>
        </linearGradient>
        <linearGradient x1="87.9354387%" y1="14.7202713%" x2="19.6468016%" y2="90.2953337%" id="linearGradient-14">
            <stop stop-color="#A0990D" offset="0%"></stop>
            <stop stop-color="#D7BB16" offset="27.1904483%"></stop>
            <stop stop-color="#BEB93C" offset="58.7798893%"></stop>
            <stop stop-color="#A0A129" offset="79.7989738%"></stop>
            <stop stop-color="#A8A331" offset="100%"></stop>
        </linearGradient>
        <linearGradient x1="89.0544945%" y1="39.17214%" x2="32.9919826%" y2="69.8671126%" id="linearGradient-15">
            <stop stop-color="#D6B615" offset="0%"></stop>
            <stop stop-color="#CFBA15" offset="40.6542593%"></stop>
            <stop stop-color="#BDAE18" offset="100%"></stop>
        </linearGradient>
        <linearGradient x1="71.9599927%" y1="40.4351905%" x2="30.0220797%" y2="61.4347945%" id="linearGradient-16">
            <stop stop-color="#CEC02F" offset="0%"></stop>
            <stop stop-color="#DECB4E" offset="40.6542593%"></stop>
            <stop stop-color="#C1B73E" offset="100%"></stop>
        </linearGradient>
        <linearGradient x1="86.5137682%" y1="42.4856372%" x2="13.8199316%" y2="60.6148217%" id="linearGradient-17">
            <stop stop-color="#D3B708" offset="0%"></stop>
            <stop stop-color="#B3AC0A" offset="53.2658679%"></stop>
            <stop stop-color="#D1C926" offset="100%"></stop>
        </linearGradient>
        <linearGradient x1="89.0544945%" y1="37.1139517%" x2="32.9919826%" y2="73.6435059%" id="linearGradient-18">
            <stop stop-color="#D6B615" offset="0%"></stop>
            <stop stop-color="#D0BB0A" offset="37.0985312%"></stop>
            <stop stop-color="#C8B001" offset="70.7371383%"></stop>
            <stop stop-color="#C2B04E" offset="100%"></stop>
        </linearGradient>
        <linearGradient x1="89.0544945%" y1="30.2662251%" x2="32.9919826%" y2="86.2078127%" id="linearGradient-19">
            <stop stop-color="#D6B615" offset="0%"></stop>
            <stop stop-color="#D0BB0A" offset="37.0985312%"></stop>
            <stop stop-color="#C8B001" offset="70.7371383%"></stop>
            <stop stop-color="#C2B04E" offset="100%"></stop>
        </linearGradient>
        <linearGradient x1="89.0544945%" y1="41.2294334%" x2="32.9919826%" y2="66.0923612%" id="linearGradient-20">
            <stop stop-color="#D6B615" offset="0%"></stop>
            <stop stop-color="#D0BB0A" offset="37.0985312%"></stop>
            <stop stop-color="#C8B001" offset="70.7371383%"></stop>
            <stop stop-color="#C2B04E" offset="100%"></stop>
        </linearGradient>
        <linearGradient x1="21.7566792%" y1="88.0751311%" x2="73.3065416%" y2="9.4066344%" id="linearGradient-21">
            <stop stop-color="#BFAB18" offset="0%"></stop>
            <stop stop-color="#D0BB0A" offset="37.0985312%"></stop>
            <stop stop-color="#C5B23B" offset="70.7371383%"></stop>
            <stop stop-color="#C2B04E" offset="100%"></stop>
        </linearGradient>
        <linearGradient x1="13.7673799%" y1="59.7411762%" x2="92.7065013%" y2="45.4083882%" id="linearGradient-22">
            <stop stop-color="#C5B722" offset="0%"></stop>
            <stop stop-color="#B4A804" offset="41.667677%"></stop>
            <stop stop-color="#C5B01B" offset="100%"></stop>
        </linearGradient>
        <linearGradient x1="13.7673799%" y1="58.1852939%" x2="89.2815156%" y2="42.327901%" id="linearGradient-23">
            <stop stop-color="#C5B722" offset="0%"></stop>
            <stop stop-color="#C5B722" offset="0%"></stop>
            <stop stop-color="#B4A804" offset="57.4842582%"></stop>
            <stop stop-color="#C5B01B" offset="100%"></stop>
        </linearGradient>
        <linearGradient x1="33.045784%" y1="61.7619596%" x2="68.123316%" y2="48.1049408%" id="linearGradient-24">
            <stop stop-color="#B9A80B" offset="0%"></stop>
            <stop stop-color="#DDBE1B" offset="45.7679365%"></stop>
            <stop stop-color="#C5B01B" offset="100%"></stop>
        </linearGradient>
        <linearGradient x1="67.8787296%" y1="50%" x2="10.6796698%" y2="58.723519%" id="linearGradient-25">
            <stop stop-color="#B0AD31" offset="0%"></stop>
            <stop stop-color="#949A1E" offset="100%"></stop>
        </linearGradient>
        <radialGradient cx="50%" cy="55.5355988%" fx="50%" fy="55.5355988%" r="41.7444133%" id="radialGradient-26">
            <stop stop-color="#B6AC03" offset="0%"></stop>
            <stop stop-color="#B4AB10" offset="45.2464177%"></stop>
            <stop stop-color="#C4BA0F" offset="100%"></stop>
        </radialGradient>
        <linearGradient x1="7.32060058%" y1="50%" x2="93.2986254%" y2="46.0284138%" id="linearGradient-27">
            <stop stop-color="#BDAC01" offset="0%"></stop>
            <stop stop-color="#ADA40A" offset="24.3112444%"></stop>
            <stop stop-color="#CFB80B" offset="41.7821684%"></stop>
            <stop stop-color="#C2AF00" offset="67.2553738%"></stop>
            <stop stop-color="#CCC206" offset="85.9987637%"></stop>
            <stop stop-color="#949A1E" offset="100%"></stop>
            <stop stop-color="#949A1E" offset="100%"></stop>
        </linearGradient>
        <linearGradient x1="76.7672735%" y1="59.0682664%" x2="3.16095782%" y2="47.2436523%" id="linearGradient-28">
            <stop stop-color="#B0AD31" offset="0%"></stop>
            <stop stop-color="#D0D041" offset="32.350004%"></stop>
            <stop stop-color="#B5B831" offset="60.5240935%"></stop>
            <stop stop-color="#949A1E" offset="100%"></stop>
        </linearGradient>
    </defs>
    <g id="画板备份-11" stroke="none" stroke-width="1" fill="none" fill-rule="evenodd">
        <g id="编组-3备份-2" transform="translate(116.000000, 17.000000)">
            <path d="M49.6014767,0 C47.7368696,0 46.5276375,3.01269221 45.6010507,5.09527971 C44.6744639,7.17786721 43.5434349,8.2125615 43.5434349,10.3893636 C43.5434349,12.5661656 38.3794277,12.8315266 36.525076,17.7947555 C34.6707242,22.7579845 37.2388121,23.7843173 35.5157526,27.0231824 C33.792693,30.2620474 32.1058043,31.7502213 31.164162,33.909722 C30.6341606,35.1251924 26.6589401,31.8772401 26.7186023,33.909722 C26.7649408,35.4883078 29.6418503,39.6630558 29.4852027,41.2875059 C29.2463115,43.7648286 28.7875951,44.615221 28.1090533,43.8386831 C24.3845578,44.5741612 22.4361142,45.7996606 22.2637224,47.5151811 C22.0051347,50.0884619 26.9715938,50.7984373 26.7186023,53.4041378 C26.4656109,56.0098383 23.0408025,54.3115062 21.297076,55.8902172 C20.6247504,56.4989181 25.4577268,60.2092061 24.8208855,61.3259592 C24.3565965,62.1401279 19.8623366,59.8260204 19.1308089,61.3259592 C18.3992811,62.825898 23.184314,66.754087 22.2637224,68.5512473 C21.3431308,70.3484077 15.8406825,66.1434044 15.2518641,67.745671 C14.6630457,69.3479375 18.5231501,76.4310362 17.9687491,81.0482223 C17.4143482,85.6654084 13.4444842,85.9569614 13.4444842,89.8476601 C13.4444842,93.7383588 18.123945,93.7399352 17.9687491,95.9484014 C17.8135532,98.1568676 13.4843933,96.8005339 12.8128115,99.8424604 C12.3650904,101.870411 12.0480965,104.895391 11.8618301,108.9174 C14.1218528,113.439271 14.9037255,116.878111 14.2074484,119.233921 C13.8141329,120.564678 9.38292135,118.207788 9.13728116,120.525767 C8.94807023,122.311252 11.8618301,124.042687 11.8618301,126.966851 C11.8618301,129.891015 8.61500222,128.732942 5.96243873,132.613916 C4.75148888,134.385661 7.18667622,139.999908 7.18667622,143.221471 C7.18667622,145.062086 2.22462597,143.962178 3.04654736,146.760948 C3.86846876,149.559718 9.03595509,148.099992 7.8506589,152.320612 C7.53313604,153.451252 1.16799793,150.592401 0.206213899,152.320612 C-0.75557013,154.048823 1.95910391,155.211597 1.95910391,158.367025 C1.95910391,161.522452 -0.202955458,162.205984 0.206213899,164.473495 C0.615383255,166.741005 3.04654736,168.083354 9.13728116,168.65617 C15.228015,169.228987 20.304601,167.773239 25.66928,168.65617 C31.033959,169.539102 37.1972867,172 44.8453758,172 C52.4934649,172 53.1012794,170.612475 63.5166743,168.65617 C73.9320692,166.699866 84.4300644,166.522194 83.3893383,164.473495 C83.0299157,163.765961 84.9279804,161.073666 83.3893383,160.247383 C80.4727649,158.681122 80.982748,157.510199 80.6157737,155.448059 C80.0552015,152.298034 82.4702409,152.487544 82.4702409,149.904985 C82.4702409,147.322426 79.2288655,145.199667 77.9114927,143.221471 C76.59412,141.243275 73.5212018,141.174225 74.0428373,137.553686 C74.5644728,133.933146 78.6269076,134.620566 77.9114927,130.942097 C77.1960779,127.263629 74.0428373,123.699516 74.0428373,120.525767 C74.0428373,117.352018 76.0779511,115.607324 75.0603942,111.250857 C74.0428373,106.89439 71.993462,105.099268 71.993462,101.519304 C71.993462,97.9393411 74.0428373,92.3627957 74.0428373,89.8476601 C74.0428373,87.3325245 68.6117553,87.1509894 68.6117553,83.9944254 C68.6117553,80.8378614 70.9189667,78.5599703 70.3819563,76.0782019 C69.844946,73.5964335 68.2520525,71.8912361 67.0910761,69.8429902 C65.9300997,67.7947444 66.8732574,63.7005924 67.0910761,61.3259592 C67.3088948,58.951326 65.2177461,57.7283411 64.6278873,55.8902172 C64.0380286,54.0520934 61.300772,53.3823695 62.1580799,47.5151811 C63.0153879,41.6479927 64.5181204,41.0244517 64.0173974,38.291259 C63.5166743,35.5580662 62.3957118,36.7828655 60.6914614,33.909722 C58.987211,31.0365785 56.383629,25.5773429 55.4441435,22.3788751 C54.5046579,19.1804073 59.2838332,22.7093051 58.6748392,19.7947129 C58.0658453,16.8801206 57.2966479,17.5125253 56.8915186,15.2634673 C56.4863893,13.0144094 54.2530557,13.7554136 53.4875487,10.3893636 C52.7220416,7.02331355 53.5551718,6.08316099 52.7733261,3.01269221 C51.9914803,-0.0577765784 51.4660839,0 49.6014767,0 Z" id="路径-4备份" fill="#F8EBC9" opacity="0.757584345"></path>
            <path d="M49.7572268,3 C47.9136526,3 46.9503285,6.57321528 46.0341936,8.61192315 C45.1180588,10.650631 43.9997878,11.6635245 43.9997878,13.7944619 C43.9997878,15.9253993 40.0979016,15.9253993 38.264467,20.7840541 C36.4310325,25.642709 37.7662817,26.9071871 36.0626583,30.07781 C34.359035,33.248433 32.6911746,32.5341558 31.760154,34.6481562 C31.236131,35.838017 27.3057513,34.8295939 27.3647406,36.8192518 C27.4105563,38.3645772 30.2550141,42.4513642 30.1001335,44.0415876 C29.863937,46.4667136 29.4103949,47.2991885 28.7395071,46.5390121 C25.0570243,47.2589939 23.1305592,48.4586722 22.960112,50.1380471 C22.7044412,52.6571095 27.6148782,53.3521259 27.3647406,55.9029249 C27.1146029,58.4537239 23.7284266,56.7911752 22.0043694,58.3366232 C21.3396277,58.9324989 26.1180878,62.564612 25.4884301,63.6578354 C25.0293783,64.4548497 20.585814,62.1895 19.862538,63.6578354 C19.1392619,65.1261709 23.8703193,68.9715937 22.960112,70.7308883 C22.0499048,72.490183 16.6095245,68.3737781 16.027348,69.9422853 C15.4451715,71.5107925 19.2617336,78.4446519 18.7135863,82.964555 C18.1654391,87.4844581 14.2403555,87.7698681 14.2403555,91.5785907 C14.2403555,95.3873133 18.8670316,95.3888565 18.7135863,97.5507908 C18.5601411,99.7127251 14.2798143,98.384969 13.6158081,101.362803 C13.1731372,103.348025 13.6327723,105.866796 14.9947133,108.919115 C15.6831364,114.230658 15.6831364,118.039516 14.9947133,120.34569 C14.6058345,121.648409 10.2246073,119.341177 9.98173796,121.610317 C9.79466134,123.358182 14.2403555,128.944626 14.2403555,131.807178 C14.2403555,134.66973 10.0050261,131.726483 7.38238368,135.525686 C6.18509343,137.2601 8.05313598,140.674143 8.05313598,143.827828 C8.05313598,145.629662 3.14705801,144.552928 3.95970808,147.292729 C4.77235814,150.032529 9.88155485,148.60356 8.70962889,152.735252 C8.39568771,153.84207 1.68452794,149.294913 0.733592904,150.986711 C-0.217342132,152.678509 5.92143514,154.090209 5.92143514,157.179153 C5.92143514,160.268096 -0.385892782,161.106791 0.018661115,163.326525 C0.423215012,165.54626 3.95970808,167.133067 9.98173796,167.693814 C16.0037678,168.254561 26.455989,167.373816 31.760154,168.238144 C37.064319,169.102472 37.7252246,172 45.2870427,172 C52.8488609,172 53.4498192,170.641709 63.7477277,168.726624 C74.0456362,166.811539 84.4252132,166.63761 83.3962266,164.632077 C83.0408583,163.939451 84.9175127,161.303881 83.3962266,160.495007 C80.5125524,158.961747 74.5179897,159.197844 74.1551548,157.179153 C73.6009059,154.095498 82.4874967,152.898667 82.4874967,150.370522 C82.4874967,147.842377 76.4637463,146.8057 75.1612336,144.869184 C73.8587209,142.932669 71.6131452,142.288171 72.1288966,138.743915 C72.644648,135.199659 78.6875164,135.408142 77.9801715,131.807178 C77.2728266,128.206214 72.1288966,124.717196 72.1288966,121.610317 C72.1288966,118.503438 76.1673124,116.795504 75.1612336,112.530827 C74.1551548,108.26615 70.5355688,107.181241 70.5355688,103.676707 C70.5355688,100.172172 72.6847778,93.3866182 72.6847778,90.9244759 C72.6847778,88.4623336 68.7853358,88.9387382 68.7853358,85.8486823 C68.7853358,82.7586264 71.0665217,80.5287299 70.5355688,78.0992518 C70.004616,75.6697736 65.9942866,74.2795474 64.8464062,72.2744576 C63.6985257,70.2693678 67.0664483,65.9824356 67.28181,63.6578354 C67.4971717,61.3332352 64.3309328,60.1360182 63.7477277,58.3366232 C63.1645226,56.5372282 61.5568209,55.8816153 62.4044584,50.1380471 C63.2520958,44.394479 64.7378774,43.7840759 64.2428026,41.1084709 C63.7477277,38.4328659 62.6394097,39.6318589 60.9543834,36.8192518 C59.269357,34.0066448 58.1261923,31.9464453 57.1973042,28.8153684 C56.2684161,25.6842915 54.4338557,27.0929183 53.8317313,24.2397359 C53.2296069,21.3865534 56.3496158,20.9022669 55.9490564,18.700596 C55.5484969,16.4989252 53.8824372,18.3181841 53.1255652,15.023056 C52.3686931,11.7279278 53.8985917,9.57899 53.1255652,6.57321528 C52.3525387,3.56744055 51.600801,3 49.7572268,3 Z" id="路径-4" fill="#EBDB7C" opacity="0.735496884"></path>
            <path d="M22.7781956,76.6034218 C22.2907097,78.5652453 26.7000094,80.4257981 26.8691189,82.7305345 C27.0382284,85.0352709 25.6102378,83.9247128 23.5098002,85.7165476 C21.4093627,87.5083824 19,87.6447418 19,90.4302842 C19,93.2158266 21.4261452,93.70307 23.5098002,95.7635041 C25.5934553,97.8239383 33.0723747,102.929322 37.9937881,103.885082 C42.9152016,104.840842 42.96955,99.5308612 46.5290358,99.1848511 C50.0885216,98.8388409 49.4134896,101.249957 54.3151694,101.249957 C59.2168491,101.249957 70,99.2317185 70,94.7997526 C70,90.3677866 63.9827382,93.7471916 64.6703771,88.7418008 C65.358016,83.73641 67.4758909,82.6070841 67.1381347,79.8440875 C66.8003784,77.0810908 62.3353957,78.1650799 61.1562647,76.6034218 C59.9771337,75.0417638 64.2164849,72.4610921 62.6400932,69.0375969 C61.0637015,65.6141018 57.8708751,67.4608414 57.2909691,64.9865752 C56.7110631,62.512309 60.4696673,61.0306777 60.6601462,57 C60.8506251,52.9693223 57.7471455,53.8139554 58.0207498,49.5438639 C58.294354,45.2737725 61.4438745,44.9749647 61.1562647,41.3150138 C60.9645249,38.8750465 59.676093,36.9798891 57.2909691,35.6295417 C55.9844731,34.7109885 54.7646102,32.2249886 53.6313806,28.171542 C51.9315362,22.0913721 52.6943571,16.0232314 51.931251,13.7615605 C51.1681449,11.4998896 50.6214088,8.18262731 48.1727259,11.2202211 C45.7240431,14.257815 42.3273427,19.5296282 40.473845,23.3448708 C38.6203473,27.1601135 40.2869703,28.2852008 37.9937881,31.6185694 C36.465,33.8408151 34.6839972,35.5693459 32.6507797,36.8041618 C32.2495799,38.6976657 32.2495799,41.1252864 32.6507797,44.0870241 C33.2525795,48.5296306 34.8948473,50.8328349 34.2300354,52.8815193 C33.5652235,54.9302037 31.1410928,54.2833993 29.7557611,56.4794666 C28.3704294,58.6755338 31.7493667,60.6822635 30.3318288,63.4420542 C28.9142909,66.2018448 26.8580966,66.544919 26.0589087,67.7414556 C25.2597208,68.9379923 28.1676603,70.9428559 26.8691189,73.344401 C25.5705775,75.7459461 23.2656815,74.6415983 22.7781956,76.6034218 Z" id="路径-9" fill="url(#linearGradient-1)"></path>
            <path d="M31.7364501,166.832905 C20.8939051,166.564577 13.8130432,166.736458 9.77388085,165.867493 C5.73471848,164.998528 2.01118052,162.677013 5.20409443,159.98586 C7.33270371,158.191758 10.999979,157.173438 16.2059202,156.9309 C21.8916966,157.52755 24.5711876,157.078441 24.2443934,155.583574 C23.7542021,153.341274 18.1455424,153.670309 14.6779401,151.674717 C11.2103378,149.679124 7.2200795,148.755933 8.19308299,146.898837 C8.84175199,145.660773 12.2934656,144.79043 18.5482239,144.287808 C15.2134436,141.674691 13.1114779,139.944922 12.2423267,139.098501 C10.9386,137.828869 5.67190394,136.844176 8.19308299,134.279157 C9.87386903,132.569144 13.8127799,131.541407 20.0098156,131.195946 L28.74799,137.133278 C34.6187909,142.372262 38.2845852,145.179357 39.7453729,145.554564 C41.9365545,146.117374 43.9801235,145.120762 46.1772819,144.287808 C48.3744403,143.454854 45.1956948,143.454854 52.2326986,139.098501 C59.2697025,134.742147 58.3935639,136.933986 60.4401382,135.742931 C62.4867126,134.551877 71.5753763,127.80749 70.5658834,132.845714 C69.5563905,137.883938 60.8300692,144.428249 60.4401382,145.554564 C60.0502073,146.680879 58.6458147,148.878444 66.0038127,148.433747 C73.3618107,147.989049 78.6890406,143.72506 80.0171637,145.554564 C81.3452869,147.384067 70.8913432,151.266289 70.5658834,154.718047 C70.2404236,158.169804 81.1991503,157.821615 81.7905049,159.98586 C82.3818596,162.150105 82.2888312,164.14098 73.6123397,165.867493 C64.9358482,167.594006 59.8748111,166.832905 50.256703,166.832905 C40.6385948,166.832905 42.578995,167.101232 31.7364501,166.832905 Z" id="路径-5" fill="url(#linearGradient-2)"></path>
            <path d="M42,150.612614 C42,152.503924 43.8240843,157 46.945205,157 C50.0663256,157 54,151.542327 54,150.612614 C54,149.6829 49.3505189,151.812987 46.945205,151.812987 C44.539891,151.812987 42,148.721304 42,150.612614 Z" id="路径-6" fill="url(#linearGradient-3)"></path>
            <path d="M51,143.806437 C51,145.824752 54.3365509,144.672572 57.2948728,144.672572 C60.2531948,144.672572 62,139.180431 62,138.188285 C62,137.19614 58.6290618,140.448062 56.3492099,140.448062 C54.0693579,140.448062 51,141.788123 51,143.806437 Z" id="路径-6备份-4" fill="url(#linearGradient-4)"></path>
            <path d="M19.0387854,138.460354 C18.513073,139.757119 23.4566106,143.83063 26.2923621,144.922171 C29.1281136,146.013712 37,149.879157 37,148.817249 C37,147.755342 30.9424852,142.037022 28.1067338,140.446695 C25.2709823,138.856369 19.5644978,137.163589 19.0387854,138.460354 Z" id="路径-6备份-3" fill="url(#linearGradient-5)"></path>
            <path d="M52.2386429,161.499341 C53.8832777,162.625824 57.4960145,161.499341 60.5977166,161.499341 C63.6994187,161.499341 70.4589779,157.468203 68.717758,156.451755 C66.9765381,155.435307 62.6842871,156.451755 60.2939383,156.451755 C57.9035894,156.451755 50.5940082,160.372858 52.2386429,161.499341 Z" id="路径-6备份-2" fill="url(#linearGradient-6)"></path>
            <path d="M21.1209539,149.784809 C20.6192616,150.716537 21.6538498,149.613043 24.6820638,153.152147 C25.681583,154.320295 26.2935769,155.141023 27.8282495,156.5 C30.4589516,158.829528 30.5991679,164 31.751738,164 C35.6137569,164 36.6023565,159.275215 35.6768055,158.331643 C34.7512545,157.38807 34.0664098,153.152147 31.751738,153.152147 C30.9841517,153.152147 30.1738764,150.070104 27.8282495,150.070104 C24.3982575,150.070104 22.1543465,147.865622 21.1209539,149.784809 Z" id="路径-6备份" fill="url(#linearGradient-7)"></path>
            <path d="M42.4035865,146.443263 C45.7121204,144.345787 56.9084263,135.926696 58.7612258,134.823741 C60.6140253,133.720786 68.736615,132.476783 68.736615,127.429462 C68.736615,122.38214 65.2101481,124.740551 64.2476601,119.744695 C63.2851721,114.74884 70.4402155,110.898225 68.736615,108.571388 C67.0330146,106.244551 63.0242934,109.749597 62.2475371,105.885831 C61.4707808,102.022064 66.0316114,99.7536378 62.2475371,98.3852039 C58.4634628,97.01677 55.3601362,103.227626 52.0447318,103.227626 C48.7293273,103.227626 50.9687273,99.5119919 46.0687056,99.5119919 C41.168684,99.5119919 41.9387529,103.61108 37.0481556,103.227626 C33.7877574,102.97199 31.8551717,101.357849 31.2503983,98.3852039 L22.531464,95 C19.55933,95.2729264 18.073263,96.4013277 18.073263,98.3852039 C18.073263,101.361018 22.531464,103.516884 22.531464,105.885831 C22.531464,108.254777 19.4289792,107.517784 18.073263,110.308277 C16.7175468,113.098771 23.5632728,116.107984 22.531464,117.845419 C21.4996552,119.582854 19.4333148,115.83538 16.9812486,117.845419 C14.5291824,119.855458 14.5080681,124.110508 16.0705579,127.429462 C17.1122178,129.642097 19.6638893,131.700902 23.7255724,133.605876 L31.2503983,142.736085 C36.4801678,146.605855 40.1978972,147.841581 42.4035865,146.443263 Z" id="路径-7" fill="url(#linearGradient-8)"></path>
            <path d="M54.0628168,120.031968 C53.38596,118.678819 58.3644344,115 60.0843609,115 C61.8042873,115 63.8854531,118.805244 62.6013946,120.031968 C61.3173362,121.258691 54.7396736,121.385117 54.0628168,120.031968 Z" id="路径-8" fill="url(#linearGradient-9)"></path>
            <path d="M53.2200385,107.435174 C52.5898411,106.425054 53.2958887,104.986409 55.5635973,104.328358 C55.9162872,104.226014 58.6536336,102 58.9026886,102 C60.6721448,102 58.3876245,103.89649 58.9026886,105 C59.4177527,106.10351 62.0594231,106.657943 61.9989791,106.704241 C60.6174989,107.762408 53.9482485,108.602394 53.2200385,107.435174 Z" id="路径-8备份-2" fill="url(#linearGradient-9)"></path>
            <path d="M42.1879311,70.0406033 C41.5760321,68.886805 42.4722267,67.7703316 44.6740904,67.018681 C45.0165396,66.9017791 48.5285482,64.3192813 48.7703717,64.3192813 C49.6771223,64.3192813 49.2402596,65.0487067 50.8276459,64.3192813 C52.247982,63.6666178 55.7383495,61.5074298 55.9745158,62.1026623 C56.4746245,63.3631347 49.4489884,67.6044567 49.3902995,67.6573401 C48.7119506,68.2685865 47.4744088,70.1454784 45.9000075,70.7635802 C44.3611867,71.3677133 42.5374236,70.6996071 42.1879311,70.0406033 Z" id="路径-8备份-10" fill="url(#linearGradient-10)"></path>
            <path d="M46.2068109,81.5497215 C45.6059808,80.4534332 46.30129,79.9820232 48.4633232,79.267838 C48.7995776,79.1567629 51.8333517,78.1072775 53.3920231,77.4142097 C54.786666,76.7940776 59.7434236,74.5241179 59.9753177,75.0896816 C60.4663798,76.2873269 53.467977,80.3322199 53.4103497,80.3824674 C52.7442717,80.9632468 51.0964183,80.9624284 49.550497,81.5497215 C48.0395127,82.1237422 46.5499812,82.1758778 46.2068109,81.5497215 Z" id="路径-8备份-21" fill="url(#linearGradient-11)"></path>
            <path d="M41.1184734,91.1185604 C40.3286446,90.0589858 43.6696078,86.0748891 45.7569785,85.3615939 C46.0816209,85.2506573 55.8840901,82.0355243 56.9046878,83.2899662 C57.8194225,84.4142892 51.8501328,87.3365476 51.7944956,87.3867324 C51.1514197,87.9667881 47.30052,90.5319992 45.8079849,91.1185604 C44.3491801,91.6918657 42.3542899,92.7764384 41.1184734,91.1185604 Z" id="路径-8备份-16" fill="url(#linearGradient-12)"></path>
            <path d="M30.5,89.5837221 C29.2550224,87.8784573 26,88.4151916 26,86.3649885 C26,84.3147855 28.2186984,82.215586 30.6929224,83.2916483 C33.1671463,84.3677107 35,89.1204568 35,91.1256053 C35,93.1307537 31.7449776,91.288987 30.5,89.5837221 Z" id="路径-8备份-17" fill="url(#linearGradient-13)"></path>
            <path d="M36.6647818,84.6224919 C36.0778588,83.5189148 34.1961462,80.6547984 35.3875229,80.092067 C35.7024484,79.9433159 37.0644314,80.8502854 38.6983512,80.5615992 C39.787631,80.3691418 40.9756678,79.3211463 42.2624616,77.4176128 C44.6878354,74.2609278 46.1418931,72.7959925 46.6246348,73.0228069 C47.7502297,73.5516635 46.1665012,76.3487435 44.229734,79.5 C42.2929667,82.6512565 42.2530705,85.2529506 40.7429318,85.8441484 C39.2669213,86.4219855 37,85.2528113 36.6647818,84.6224919 Z" id="路径-8备份-11" fill="url(#linearGradient-14)"></path>
            <path d="M27.8816952,68.3088523 C28.3787151,67.387284 34.3548275,68.6613236 35.8759675,70.3717767 C36.5176988,71.0933745 34.4968381,73.4269772 33.7552824,73.8916259 C33.0137268,74.3562747 27.6619964,73.265663 27.0197315,71.7870741 C26.7432966,71.1506798 29.4489904,72.109777 30.2821809,71.3100948 C31.3153207,70.3185046 27.3846753,69.2304207 27.8816952,68.3088523 Z" id="路径-8备份-12" fill="url(#linearGradient-15)"></path>
            <path d="M35.0889119,58.2720386 C35.5746006,57.2490023 39.7093363,59.3061961 41.1957971,61.2049761 C41.8228981,62.0060243 42.6382715,66.2397982 41.1957971,66.8925611 C39.7533228,67.5453241 36.8932977,65.0773911 36.2656753,63.4360044 C35.9955425,62.7295408 36.2656753,62.5254221 36.2656753,61.2049761 C36.2656753,60.1803727 34.6032232,59.2950748 35.0889119,58.2720386 Z" id="路径-8备份-18" fill="url(#linearGradient-16)"></path>
            <path d="M39.8595671,92.3638085 C40.1020902,91.8123135 40.8355267,95.2558845 42.7168754,95.5939177 C44.5639809,95.9257982 45.6816849,90.5848213 47.6336071,92.3638085 C49.5855292,94.1427958 43.1706567,100.989422 41.7432007,101.686796 C41.1929421,101.955621 38.2367605,102.231047 36.7731828,101.686796 C34.4400136,100.819176 33.3950392,98.722271 33.0133696,97.6446757 C32.7460493,96.8899313 36.5760676,97.004605 36.5760676,95.5939177 C36.5760676,94.4992912 39.3789351,93.4567607 39.8595671,92.3638085 Z" id="路径-8备份-19" fill="url(#linearGradient-17)"></path>
            <path d="M38.9511103,45.9840551 C40.2744436,46.3627051 42.1253873,46.4721672 43.6433473,48.3096587 C44.283737,49.0848508 44.1425226,51.2719441 42.5523051,52.4693808 C40.9620876,53.6668176 36.6534955,52.6508311 35.4911617,51.2719441 C34.9431759,50.6218636 32.3305372,45.976569 33.1619858,45.1174929 C33.6230975,44.6410594 34.8552307,45.7522785 35.8740803,45.9840551 C37.1332332,46.270498 38.2196453,45.7747585 38.9511103,45.9840551 Z" id="路径-8备份-13" fill="url(#linearGradient-18)"></path>
            <path d="M51.5773058,22.0139077 C52.9458364,22.4114141 50.6941318,25.986991 49.0496018,27.2440589 C47.4050718,28.5011268 45.6431891,31.5326201 43.7746631,30.9189303 C42.8505122,30.6154066 41.4029041,23.8285692 42.2627502,22.9267121 C42.7396107,22.4265526 44.3029698,24.2505814 45.4924144,24.2505814 C46.8361918,24.2505814 50.8208583,21.7941884 51.5773058,22.0139077 Z" id="路径-8备份-14" fill="url(#linearGradient-19)"></path>
            <path d="M52.9727441,32.919961 C53.4645759,33.7537658 47.157596,39.0583839 45.5607683,40.3047345 C43.9639405,41.5510851 40.7938863,41.0571134 38.636395,39.3391478 C38.0226574,38.8504412 37.5813118,32.8709273 38.636395,32.0996014 C39.8446615,31.2162899 38.8691985,36.4987399 42.7055447,36.4987399 C47.158679,36.4987399 52.0350522,31.3302874 52.9727441,32.919961 Z" id="路径-8备份-20" fill="url(#linearGradient-20)"></path>
            <path d="M52.5244096,54.6115342 C50.9915221,55.8432565 48.3254391,61.5571318 46.5837621,60.9558155 C45.7223491,60.6584115 44.5606567,57.0151468 45.1696127,55.9005951 C45.5353976,55.2311113 47.505972,54.5429663 48.2218851,53.4989511 C49.1984916,52.0747671 49.0233972,50.2445674 50.1635239,49.2586129 C53.1347494,46.6891676 56.0926954,46 56.7585732,46 C58.0111253,46 54.057297,53.3798119 52.5244096,54.6115342 Z" id="路径-8备份-15" fill="url(#linearGradient-21)"></path>
            <path d="M41.1171667,108.221572 C40.5280787,107.028954 42.2453173,107.836227 44.3650977,107.059287 C44.6947807,106.938452 47.8515089,105.745166 48.0843174,105.745166 C49.7383475,105.745166 50.3952766,103.151454 51.6873492,104.288065 C52.9794218,105.424676 49.9691174,109.04133 48.0843174,109.746843 C46.1995174,110.452356 41.7978737,109.599674 41.1171667,108.221572 Z" id="路径-8备份-5" fill="url(#linearGradient-22)"></path>
            <path d="M25.1430159,105.441814 C24.5203959,104.240899 25.9452181,103.419608 29.1337445,104.510032 C32.322271,105.600455 35.7734201,108.495164 34.8469102,108.947345 C33.9204002,109.399525 25.8624701,106.829504 25.1430159,105.441814 Z" id="路径-8备份-7" fill="url(#linearGradient-23)"></path>
            <path d="M22.0354336,111.45476 C22.4120453,110.808822 23.2256344,110.728675 26.4050493,112.028333 C29.5844643,113.32799 30.4940864,114.793869 31.773659,115.779901 C33.0532315,116.765934 35.1197659,118.203251 33.2532003,118.815298 C33.2298568,118.822952 30.0290873,119.616142 27.1872841,117.855234 C24.3454809,116.094325 21.658822,112.100698 22.0354336,111.45476 Z" id="路径-8备份-6" fill="url(#linearGradient-24)"></path>
            <path d="M47.1020849,129.476455 C46.6923559,128.821403 47.515996,127.919186 49.573005,126.769805 C53.0308649,124.923268 54.8407576,124 55.0026831,124 C56.7283269,124 54.3342562,126.295445 54.8365671,127.368867 C55.3388781,128.442289 58.3359487,127.863152 57.9689455,128.771024 C57.6019423,129.678897 47.8122642,130.611851 47.1020849,129.476455 Z" id="路径-8备份-3" fill="url(#linearGradient-25)"></path>
            <path d="M41.9922316,140.910853 C40.0226219,140.393856 37.721581,138.580825 38.0275592,136.521695 C38.3335375,134.462565 42.0331717,133 42.2738295,133 C43.983626,133 43.9561375,134.732276 44.4538355,135.880352 C44.9515335,137.028428 46.3022874,137.627244 45.9386545,138.598256 C45.5750217,139.569269 43.9618413,141.42785 41.9922316,140.910853 Z" id="路径-8备份-9" fill="url(#radialGradient-26)"></path>
            <path d="M27.3307276,127.552133 C26.1107672,126.572963 28.557384,123.178646 29.9412218,123.043247 C31.3250595,122.907848 32.5044744,126.975076 33.228505,126.975076 C33.9525357,126.975076 33.8388794,122.919672 34.8489507,123.043247 C36.2024959,123.208844 37.2037605,125.796132 37.4861829,126.463466 C37.7001842,126.969129 45.653604,122.517473 46.8817029,123.043247 C48.1098017,123.569022 39.3792497,129.724063 39.0189196,130.709665 C38.6585895,131.695268 30.4485734,130.054593 27.3307276,127.552133 Z" id="路径-8备份-4" fill-opacity="0.7" fill="url(#linearGradient-27)"></path>
            <path d="M39.5076795,117.119607 C38.3585739,115.9933 36.2902574,111.853788 40.656785,109.187478 C43.216429,108.166978 41.6826423,111.564647 43.216429,113.304065 C43.8746953,114.050583 49.1149731,109.414892 49.8998173,109.914585 C50.3921128,110.228019 48.3704895,112.355964 48.6407662,113.304065 C48.8908108,114.181193 52.4819063,113.873028 52.6642134,114.372238 C53.0435789,115.411052 53.3955241,117.46085 51.967522,117.887113 C50.1728071,118.422841 47.5802988,116.90737 44.2957971,116.363489 C41.6394962,115.923631 40.656785,118.245913 39.5076795,117.119607 Z" id="路径-8备份" fill="url(#linearGradient-28)"></path>
        </g>
    </g>
</svg>