<?xml version="1.0" encoding="UTF-8"?>
<svg width="160px" height="160px" viewBox="0 0 160 160" version="1.1" xmlns="http://www.w3.org/2000/svg" xmlns:xlink="http://www.w3.org/1999/xlink">
    <title>logo备份</title>
    <g id="logo备份" stroke="none" stroke-width="1" fill="none" fill-rule="evenodd">
        <circle id="椭圆形" stroke="#FFEE70" stroke-width="3" cx="80" cy="80" r="78.5"></circle>
        <path d="M27.9427141,44.6850471 C29.4943943,31.7918695 55.8646903,19.3812536 55.8646903,48.2244217 C55.8646903,66.1082649 60.8681319,64.2584403 68.5431142,64.2584403 C77.1206819,64.2584403 78.6445195,55.5876912 78.6445195,50.417156 C78.6445195,36.1154135 101.684101,28.5391657 101.684101,53.6296948 C101.684101,78.7202239 104.605187,98.4571377 100.826107,119.329799 C97.0470267,140.202461 81.1264016,134.83018 77.4305623,125.467417 C73.7347231,116.104654 78.1886316,102.107491 77.4305623,89.9677109 C76.6724931,77.8279305 62.820013,76.2620231 57.6380945,86.2385963 C52.456176,96.2151696 57.6380945,112.100854 53.2771929,125.467417 C48.9162914,138.83398 34.3394214,134.058226 30.6522083,126.961303 C26.9649953,119.86438 26.391034,57.5782246 27.9427141,44.6850471 Z" id="路径-246" fill="#FFEE70"></path>
        <circle id="椭圆形" fill="#FFEE70" cx="123.5" cy="35.5" r="9.5"></circle>
    </g>
</svg>