<?xml version="1.0" encoding="UTF-8"?>
<svg width="129px" height="129px" viewBox="0 0 129 129" version="1.1" xmlns="http://www.w3.org/2000/svg" xmlns:xlink="http://www.w3.org/1999/xlink">
    <title>logo备份 3</title>
    <g id="logo备份-3" stroke="none" stroke-width="1" fill="none" fill-rule="evenodd">
        <g id="编组" transform="translate(12.000000, 11.000000)" fill="#FFEE70">
            <path d="M0.806743419,18.6850471 C2.35842359,5.79186952 28.7287195,-6.61874642 28.7287195,22.2244217 C28.7287195,40.1082649 33.7321612,38.2584403 41.4071435,38.2584403 C49.9847112,38.2584403 51.5085488,29.5876912 51.5085488,24.417156 C51.5085488,10.1154135 74.5481299,2.53916568 74.5481299,27.6296948 C74.5481299,52.7202239 77.469216,72.4571377 73.690136,93.3297995 C69.9110559,114.202461 53.9904309,108.83018 50.2945916,99.467417 C46.5987524,90.1046536 51.0526609,76.1074913 50.2945916,63.9677109 C49.5365223,51.8279305 35.6840423,50.2620231 30.5021238,60.2385963 C25.3202052,70.2151696 30.5021238,86.1008541 26.1412222,99.467417 C21.7803206,112.83398 7.2034507,108.058226 3.51623761,100.961303 C-0.170975477,93.8643801 -0.744936754,31.5782246 0.806743419,18.6850471 Z" id="路径-246"></path>
            <circle id="椭圆形" cx="96.3640293" cy="9.5" r="9.5"></circle>
        </g>
    </g>
</svg>