<?xml version="1.0" encoding="UTF-8"?>
<svg width="222px" height="222px" viewBox="0 0 222 222" version="1.1" xmlns="http://www.w3.org/2000/svg" xmlns:xlink="http://www.w3.org/1999/xlink">
    <title>画板备份 10</title>
    <defs>
        <radialGradient cx="50%" cy="50%" fx="50%" fy="50%" r="19.5642794%" gradientTransform="translate(0.500000,0.500000),scale(1.000000,0.954545),rotate(90.000000),translate(-0.500000,-0.500000)" id="radialGradient-1">
            <stop stop-color="#FDF8F1" offset="0%"></stop>
            <stop stop-color="#EBDABE" offset="100%"></stop>
        </radialGradient>
        <radialGradient cx="50%" cy="50%" fx="50%" fy="50%" r="23.7681742%" gradientTransform="translate(0.500000,0.500000),scale(1.000000,0.785714),rotate(90.000000),translate(-0.500000,-0.500000)" id="radialGradient-2">
            <stop stop-color="#FDF8F1" offset="0%"></stop>
            <stop stop-color="#EBDABE" offset="100%"></stop>
        </radialGradient>
        <radialGradient cx="50%" cy="50%" fx="50%" fy="50%" r="33.9545346%" gradientTransform="translate(0.500000,0.500000),scale(1.000000,0.550000),rotate(90.000000),translate(-0.500000,-0.500000)" id="radialGradient-3">
            <stop stop-color="#FDF8F1" offset="0%"></stop>
            <stop stop-color="#EBDABE" offset="100%"></stop>
        </radialGradient>
        <radialGradient cx="50%" cy="50%" fx="50%" fy="50%" r="31.12499%" gradientTransform="translate(0.500000,0.500000),scale(1.000000,0.600000),rotate(90.000000),translate(-0.500000,-0.500000)" id="radialGradient-4">
            <stop stop-color="#FDF8F1" offset="0%"></stop>
            <stop stop-color="#EBDABE" offset="100%"></stop>
        </radialGradient>
        <radialGradient cx="50%" cy="50%" fx="50%" fy="50%" r="32.6812395%" gradientTransform="translate(0.500000,0.500000),scale(1.000000,0.571429),rotate(90.000000),translate(-0.500000,-0.500000)" id="radialGradient-5">
            <stop stop-color="#FDF8F1" offset="0%"></stop>
            <stop stop-color="#EBDABE" offset="100%"></stop>
        </radialGradient>
        <radialGradient cx="50%" cy="50%" fx="50%" fy="50%" r="32.6812395%" gradientTransform="translate(0.500000,0.500000),scale(1.000000,0.571429),rotate(90.000000),translate(-0.500000,-0.500000)" id="radialGradient-6">
            <stop stop-color="#FDF8F1" offset="0%"></stop>
            <stop stop-color="#EBDABE" offset="100%"></stop>
        </radialGradient>
        <radialGradient cx="50%" cy="50%" fx="50%" fy="50%" r="27.1636277%" gradientTransform="translate(0.500000,0.500000),scale(1.000000,0.687500),rotate(90.000000),translate(-0.500000,-0.500000)" id="radialGradient-7">
            <stop stop-color="#FDF8F1" offset="0%"></stop>
            <stop stop-color="#EBDABE" offset="100%"></stop>
        </radialGradient>
        <radialGradient cx="50%" cy="50%" fx="50%" fy="50%" r="37.349988%" gradientTransform="translate(0.500000,0.500000),scale(1.000000,0.500000),rotate(90.000000),translate(-0.500000,-0.500000)" id="radialGradient-8">
            <stop stop-color="#FDF8F1" offset="0%"></stop>
            <stop stop-color="#EBDABE" offset="100%"></stop>
        </radialGradient>
        <radialGradient cx="50%" cy="50%" fx="50%" fy="50%" r="34.237489%" gradientTransform="translate(0.500000,0.500000),scale(1.000000,0.545455),rotate(90.000000),translate(-0.500000,-0.500000)" id="radialGradient-9">
            <stop stop-color="#FDF8F1" offset="0%"></stop>
            <stop stop-color="#EBDABE" offset="100%"></stop>
        </radialGradient>
    </defs>
    <g id="画板备份-10" stroke="none" stroke-width="1" fill="none" fill-rule="evenodd">
        <g id="编组-2备份-2" transform="translate(7.000000, 7.000000)">
            <path d="M63.5139852,37.3099055 C63.5139852,38.6997957 68.0412695,40.0901832 64.9037799,46.2358602 C61.7662902,52.3815371 52.175929,53.1524074 49.6362378,55.1607765 C47.0965467,57.1691457 39.1461274,63.0809186 37.9947655,70.3121288 C37.3466027,74.3829617 39.4285379,78.8032552 41.8837902,81.3452533 C43.7899171,83.318725 46.4703882,83.7582911 44.7629575,84.5909647 C43.4496262,85.2314455 39.7653181,83.9385259 37.9947655,82.454385 C34.4984841,79.5236763 32.8433938,74.7847959 32.287121,75.2760152 C31.4491459,76.0159931 32.1881026,82.0128733 37.9947655,86.4539181 C40.2408158,88.1717396 45.2830821,88.7914207 51.0793117,91.0094511 C56.8755414,93.2274815 57.7636334,92.6560688 61.0726171,92.6560688 C64.3816009,92.6560688 74.7148266,101.197794 73.7718031,107.368725 C72.8287797,113.539656 64.9037799,118.78385 61.5947961,124.246304 C59.9505388,126.960636 58.8548323,132.271756 56.6482547,135.896419 C54.4142078,139.566204 51.5454821,138.977006 51.0793117,142.023073 C50.6131414,145.069139 61.603499,146.120165 63.5139852,144.744571 C65.4244714,143.368977 63.7892981,136.62644 68.1443186,131.172696 C72.4993392,125.718952 78.1327872,123.320169 80.8585547,124.246304 C83.5843221,125.172439 87.6361892,129.585381 88.2731085,135.449321 C88.9100278,141.31326 81.5658103,149.374624 82.3204971,151.636759 C82.6864861,152.733792 84.1044018,152.004845 86.1228424,152.271695 C88.2665227,152.555102 91.0747653,153.758271 93.5671499,152.271695 C98.4063073,149.385392 96.3115656,140.159282 96.3115656,136.332303 C96.3115656,132.505325 96.3371158,122.52422 98.4063073,121.168809 C99.3481889,120.551835 105.891615,123.722501 116.450283,123.577602 C121.355628,123.510284 131.415954,118.96496 135.242292,120.708639 C137.793184,121.871092 139.083854,126.351286 139.114304,134.149219 C136.209422,142.793284 134.756981,147.419707 134.756981,148.028488 C134.756981,148.941661 146.644207,152.234477 148.413655,150.002489 C150.183103,147.770502 146.68751,145.545918 147.174326,137.473049 C147.332187,134.855238 147.979797,130.281842 149.275407,130.281842 C149.917657,130.281842 152.442688,132.721583 154.513705,135.896419 C156.620549,139.126177 155.923026,142.085092 158.354829,142.604009 C163.177084,143.63302 169.134303,137.959827 167.813348,134.566261 C166.492394,131.172696 157.352892,127.243227 155.771598,121.168809 C154.190304,115.09439 156.616741,100.699172 158.99706,100.699172 C160.185058,100.699172 160.352356,108.79016 160.788652,115.657336 C161.226536,122.549495 161.933445,128.217933 163.147076,128.217933 C164.198443,128.217933 163.976261,123.313095 163.147076,112.45656 C162.702363,106.633913 163.222475,91.6765607 160.788652,88.41668 C158.354829,85.1567992 155.928166,76.4308126 140.464125,73.5912721 C125.000085,70.7517316 116.761042,75.2760152 113.79436,75.2760152 C111.816572,75.2760152 109.922803,74.7144342 108.113055,73.5912721 C109.576371,71.9025133 110.080511,70.8094656 109.625475,70.3121288 C108.94292,69.5661237 95.3579741,63.8340634 92.364049,63.0658533 C89.370124,62.2976432 85.5163049,63.9176574 83.3840838,63.9176574 C81.2518627,63.9176574 83.0170309,58.4728567 72.8287797,61.5010059 C62.6405285,64.5291551 53.937178,76.4976715 49.6362378,76.4976715 C45.3352977,76.4976715 44.5334793,71.4218276 46.8541755,67.7202686 C49.1748717,64.0187096 55.1483227,58.8507176 61.5947961,56.3197925 C68.0412695,53.7888675 72.8287797,46.8567405 72.8287797,43.8599255 C72.8287797,40.8631105 68.5530244,34.3001008 67.5075038,35.0608951 C66.4260364,35.8478469 67.8983635,36.741846 66.7008691,37.3099055 C65.5033747,37.8779651 63.5139852,35.9200154 63.5139852,37.3099055 Z" id="路径-128" fill="#F4EAF9" opacity="0.695574806"></path>
            <path d="M45.6709854,0 C44.4691101,0 46.3886377,6.27968961 43.5447322,9.3519211 C40.7008267,12.4241526 35,10.2449423 35,11.5277168 C35,12.8104914 41.1157043,11.9418171 43.5447322,14.4290861 C45.9737601,16.916355 44.2642692,22 45.5,22 C46.7357308,22 45.9553706,16.8604004 48.3931199,14.4290861 C50.8308691,11.9977717 56,12.7803253 56,11.5277168 C56,10.2751083 51.2361543,12.5248952 48.3931199,9.3519211 C45.5500855,6.178947 46.8728607,0 45.6709854,0 Z" id="路径-129" fill="url(#radialGradient-1)"></path>
            <path d="M104.5,35 C103.870446,35 104.965477,39.3606332 103.475812,40.9054131 C101.986147,42.450193 99,41.3544422 99,41.9994471 C99,42.6444519 102.203464,42.207665 103.475812,43.458314 C104.74816,44.7089629 103.852712,49 104.5,49 C105.147288,49 104.738527,44.6808278 106.015444,43.458314 C107.29236,42.2358001 110,42.6292838 110,41.9994471 C110,41.3696103 107.504652,42.5008484 106.015444,40.9054131 C104.526235,39.3099778 105.129554,35 104.5,35 Z" id="路径-129备份" fill="url(#radialGradient-2)"></path>
            <path d="M16.5,87 C15.8704463,87 16.9654769,91.5138432 15.4758121,93.1128986 C13.9861473,94.711954 11,93.5777042 11,94.2453711 C11,94.9130381 14.2034642,94.4609048 15.4758121,95.755495 C16.74816,97.0500852 15.8527125,107 16.5,107 C17.1472875,107 16.7385275,97.0209616 18.0154437,95.755495 C19.29236,94.4900284 22,94.8973371 22,94.2453711 C22,93.5934052 19.5046523,94.7643891 18.0154437,93.1128986 C16.5262352,91.461408 17.1295537,87 16.5,87 Z" id="路径-129备份-7" fill="url(#radialGradient-3)"></path>
            <path d="M29,102 C28.656607,102 29.2538965,104.256922 28.441352,105.056449 C27.6288076,105.855977 26,105.288852 26,105.622686 C26,105.956519 27.7473441,105.730452 28.441352,106.377748 C29.13536,107.025043 28.6469341,112 29,112 C29.3530659,112 29.1301059,107.010481 29.8266057,106.377748 C30.5231055,105.745014 32,105.948669 32,105.622686 C32,105.296703 30.6389012,105.882195 29.8266057,105.056449 C29.0143101,104.230704 29.343393,102 29,102 Z" id="路径-129备份-9" fill="url(#radialGradient-4)"></path>
            <path d="M40,164 C39.5421427,164 40.3385286,167.15969 39.2551361,168.279029 C38.1717435,169.398368 36,168.604393 36,169.07176 C36,169.539127 38.3297921,169.222633 39.2551361,170.128847 C40.18048,171.03506 39.5292454,178 40,178 C40.4707546,178 40.1734745,171.014673 41.1021409,170.128847 C42.0308073,169.24302 44,169.528136 44,169.07176 C44,168.615384 42.1852016,169.435072 41.1021409,168.279029 C40.0190802,167.122986 40.4578573,164 40,164 Z" id="路径-129备份-10" fill="url(#radialGradient-5)"></path>
            <path d="M133,161 C132.656607,161 133.253896,163.256922 132.441352,164.056449 C131.628808,164.855977 130,164.288852 130,164.622686 C130,164.956519 131.747344,164.730452 132.441352,165.377748 C133.13536,166.025043 132.646934,171 133,171 C133.353066,171 133.130106,166.010481 133.826606,165.377748 C134.523105,164.745014 136,164.948669 136,164.622686 C136,164.296703 134.638901,164.882195 133.826606,164.056449 C133.01431,163.230704 133.343393,161 133,161 Z" id="路径-129备份-11" fill="url(#radialGradient-4)"></path>
            <path d="M141,166 C140.771071,166 141.169264,167.579845 140.627568,168.139514 C140.085872,168.699184 139,168.302196 139,168.53588 C139,168.769563 140.164896,168.611317 140.627568,169.064423 C141.09024,169.51753 140.764623,173 141,173 C141.235377,173 141.086737,169.507337 141.55107,169.064423 C142.015404,168.62151 143,168.764068 143,168.53588 C143,168.307692 142.092601,168.717536 141.55107,168.139514 C141.00954,167.561493 141.228929,166 141,166 Z" id="路径-129备份-12" fill="url(#radialGradient-6)"></path>
            <path d="M5.5,95 C4.87044625,95 5.96547688,97.364668 4.47581209,98.8681638 C2.9861473,100.37166 0,99.3051926 0,99.9329598 C0,100.560727 3.20346415,100.135613 4.47581209,101.352839 C5.74816003,102.570064 4.85271245,111 5.5,111 C6.14728755,111 5.73852746,102.542681 7.01544375,101.352839 C8.29236003,100.162996 11,100.545964 11,99.9329598 C11,99.3199553 8.50465225,100.420961 7.01544375,98.8681638 C5.52623524,97.3153663 6.12955375,95 5.5,95 Z" id="路径-129备份-8" fill="url(#radialGradient-7)"></path>
            <path d="M199.404147,81 C198.763622,81 199.877736,87.2476705 198.36211,88.8367248 C196.846484,90.4257791 194,89.2986233 194,89.9621145 C194,90.6256056 197.067588,90.1763001 198.36211,91.4627934 C199.656632,92.7492868 198.745579,97 199.404147,97 C200.062716,97 199.646832,92.7203453 200.946002,91.4627934 C202.245172,90.2052416 205,90.6100028 205,89.9621145 C205,89.3142261 202.461164,90.4778863 200.946002,88.8367248 C199.43084,87.1955633 200.044673,81 199.404147,81 Z" id="路径-129备份-2" fill="url(#radialGradient-7)"></path>
            <path d="M203.07636,93 C202.503398,93 203.5,99.3030442 202.144239,100.899944 C200.788485,102.496844 199,101.364123 199,102.03089 C199,102.697657 200.986266,102.246133 202.144239,103.538978 C203.302212,104.831824 202.487259,109 203.07636,109 C203.665461,109 203.293445,104.802739 204.455576,103.538978 C205.617706,102.275218 207,102.681977 207,102.03089 C207,101.379803 205.810915,102.549209 204.455576,100.899944 C203.100237,99.2506797 203.649321,93 203.07636,93 Z" id="路径-129备份-3" fill="url(#radialGradient-8)"></path>
            <path d="M199.05727,57 C198.627549,57 199.374995,60.0594737 198.358179,61.2024433 C197.341363,62.3454129 196,61.5346761 196,62.0119098 C196,62.4891435 197.4897,62.1659685 198.358179,63.0913131 C199.226659,64.0166577 198.615444,67 199.05727,67 C199.499095,67 199.220084,63.9958408 200.091682,63.0913131 C200.96328,62.1867854 202,62.4779207 202,62.0119098 C202,61.5458989 201.108186,62.3828924 200.091682,61.2024433 C199.075177,60.0219942 199.486991,57 199.05727,57 Z" id="路径-129备份-4" fill="url(#radialGradient-4)"></path>
            <path d="M178.05727,74 C177.627549,74 178.374995,77.365421 177.358179,78.6226876 C176.341363,79.8799542 175,78.9881437 175,79.5131008 C175,80.0380578 176.4897,79.6825654 177.358179,80.7004444 C178.226659,81.7183235 177.615444,85 178.05727,85 C178.499095,85 178.220084,81.6954249 179.091682,80.7004444 C179.96328,79.705464 181,80.0257128 181,79.5131008 C181,79.0004887 180.108186,79.9211817 179.091682,78.6226876 C178.075177,77.3241936 178.486991,74 178.05727,74 Z" id="路径-129备份-5" fill="url(#radialGradient-9)"></path>
            <path d="M166.05727,77 C165.627549,77 166.374995,80.0594737 165.358179,81.2024433 C164.341363,82.3454129 163,81.5346761 163,82.0119098 C163,82.4891435 164.4897,82.1659685 165.358179,83.0913131 C166.226659,84.0166577 165.615444,87 166.05727,87 C166.499095,87 166.220084,83.9958408 167.091682,83.0913131 C167.96328,82.1867854 169,82.4779207 169,82.0119098 C169,81.5458989 168.108186,82.3828924 167.091682,81.2024433 C166.075177,80.0219942 166.486991,77 166.05727,77 Z" id="路径-129备份-6" fill="url(#radialGradient-4)"></path>
        </g>
    </g>
</svg>