<?xml version="1.0" encoding="UTF-8"?>
<svg width="222px" height="222px" viewBox="0 0 222 222" version="1.1" xmlns="http://www.w3.org/2000/svg" xmlns:xlink="http://www.w3.org/1999/xlink">
    <title>画板备份 7</title>
    <defs>
        <linearGradient x1="5.07698976%" y1="51.8406285%" x2="93.51043%" y2="51.8406285%" id="linearGradient-1">
            <stop stop-color="#CE693F" offset="0%"></stop>
            <stop stop-color="#D78C3C" offset="16.8404026%"></stop>
            <stop stop-color="#E5AF58" offset="36.0152505%"></stop>
            <stop stop-color="#DA7D37" offset="52.313837%"></stop>
            <stop stop-color="#EBB466" offset="68.6051511%"></stop>
            <stop stop-color="#EDB672" offset="85.0986454%"></stop>
            <stop stop-color="#E2865F" offset="100%"></stop>
        </linearGradient>
        <linearGradient x1="50%" y1="0%" x2="50%" y2="100%" id="linearGradient-2">
            <stop stop-color="#D74D37" offset="0%"></stop>
            <stop stop-color="#D55A45" offset="62.1149023%"></stop>
            <stop stop-color="#CE8370" offset="100%"></stop>
        </linearGradient>
        <linearGradient x1="15.0247934%" y1="37.0541233%" x2="80.2898174%" y2="58.595121%" id="linearGradient-3">
            <stop stop-color="#E1B047" offset="0%"></stop>
            <stop stop-color="#F2DA5E" offset="16.8404026%"></stop>
            <stop stop-color="#E4B92A" offset="36.0152505%"></stop>
            <stop stop-color="#F5DA4F" offset="52.313837%"></stop>
            <stop stop-color="#ECD46C" offset="68.6051511%"></stop>
            <stop stop-color="#E5B950" offset="85.0986454%"></stop>
            <stop stop-color="#E6C577" offset="100%"></stop>
        </linearGradient>
        <linearGradient x1="50.9419454%" y1="50%" x2="49.0580546%" y2="50.0004129%" id="linearGradient-4">
            <stop stop-color="#DBAC5E" offset="0%"></stop>
            <stop stop-color="#DEA72B" offset="47.5968619%"></stop>
            <stop stop-color="#EBCD78" offset="100%"></stop>
        </linearGradient>
    </defs>
    <g id="画板备份-7" stroke="none" stroke-width="1" fill="none" fill-rule="evenodd">
        <g id="编组-2备份" transform="translate(87.000000, 22.000000)">
            <g id="编组-2备份-2" transform="translate(0.000000, 0.000000)">
                <g id="编组">
                    <path d="M26.1996581,65.7725997 C34.8492069,60.598731 40.8954927,55.4513021 44.3385155,50.330313 C49.5030497,42.6488293 55.7315671,23.2313544 53.419043,13.0791633 C51.1065188,2.92697228 34.3198459,1.49332795 27.9384632,1.49332795 C21.5570804,1.49332795 14.0278852,-3.22004601 5.33073097,4.10071609 C-3.36642326,11.4214782 0.777123864,23.2963472 2.5697765,33.2594108 C4.36242914,43.2224743 6.58630209,51.4211774 11.6308443,58.0117967 C14.9938724,62.4055428 19.3081658,64.9924772 24.5737243,65.7725997 L26.1996581,65.7725997 Z" id="路径" fill="url(#linearGradient-1)"></path>
                    <path d="M23.0127431,1.49332795 C24.6505044,14.0772127 25.4693851,24.143577 25.4693851,31.6924209 C25.4693851,43.0156867 23.0127431,62.7686397 23.0127431,64.6151313 C23.0127431,66.4616229 24.6276023,66.4616229 26.9578476,64.6151313 C29.2880928,62.7686397 30.6512337,39.4109874 30.6512337,33.373332 C30.6512337,27.3356766 29.5419562,2.9866559 27.9384632,1.49332795 C26.8694678,0.497775984 25.2275611,0.497775984 23.0127431,1.49332795 Z" id="路径-3" fill="#D87836"></path>
                    <path d="M48.0502055,6.63754934 C47.2943538,8.02427471 49.7347679,14.8287549 46.8442894,31.881281 C43.9538108,48.9338071 33.4629065,58.6404581 33.4629065,60.4869497 C33.4629065,62.3334413 39.3621334,54.9005321 41.6923786,53.0540405 C44.0226239,51.2075489 48.6994829,43.0656149 50.8837352,34.953968 C53.0679876,26.8423212 55.0064728,16.0420795 53.419043,13.0791633 C51.8316131,10.1162472 48.8060573,5.25082397 48.0502055,6.63754934 Z" id="路径-3备份" fill="#DB7A50"></path>
                </g>
                <path d="M24.4889839,65 C23.8123534,65 23.5613415,68.3275084 23.7359483,74.9825252 C23.1445756,75.3460631 22.6614753,76.5721738 22.2866476,78.660857 C21.7244059,81.7938819 22.0243535,109.276514 22.8801509,113.689935 C23.7359483,118.103355 26.2090648,118.103355 27.2793753,113.689935 C28.3496858,109.276514 28.2430336,84.8371028 26.8568379,79.5838552 C25.9327075,76.0816901 25.3713515,74.5479135 25.17277,74.9825252 C25.3935431,68.3275084 25.1656144,65 24.4889839,65 Z" id="路径-2" fill="url(#linearGradient-2)"></path>
            </g>
            <g id="编组-2备份-2" transform="translate(61.000000, 59.000000)">
                <path d="M36.8702918,43.7027206 C41.7841883,36.5898442 47.7288288,19.2854846 45.5285327,9.88479025 C43.3282367,0.484095911 32.0035285,0.48680543 25.9318378,0.48680543 C19.8601471,0.48680543 13.4522157,-2.10536306 5.17713922,4.6734935 C-3.09793729,11.4523501 0.6163547,21.0776868 2.32200891,30.3032534 C3.45911172,36.4536311 5.60847026,42.1177689 8.77008453,47.2956668 C10.4424326,51.8432617 14.360137,54.3830157 20.523198,54.9149288 C29.7677894,55.7127985 31.9563953,50.815597 36.8702918,43.7027206 Z" id="路径" fill="url(#linearGradient-3)"></path>
                <path d="M37.5522728,1 C38.2358429,11.5600664 37.0343813,22.7679369 33.9478882,34.6236117 C29.3181484,52.4071238 23,52.473925 23,54.1985127 C23,55.9231003 27.2452584,54.57923 29.4568951,52.8546423 C31.6685319,51.1300547 35.9685575,41.5390149 37.5522728,31.1636539 C39.1359882,20.7882929 42.0997831,4.42050995 40.5779071,3.02577037 C39.5633232,2.09594398 38.5547784,1.42068719 37.5522728,1 Z" id="路径-3" fill="#DDB82A"></path>
                <path d="M10.4429779,0.126569449 C8.61810451,0.814118759 12.9627453,15.4472311 13.8726742,21.8160546 C14.7826032,28.1848781 16.8987135,49.8774646 18.5697408,50.6822185 C20.2407681,51.4869724 21,51.0654941 21,45.8170968 C21,40.5686994 19.9911184,30.4066799 18.5697408,22.2770567 C17.1483632,14.1474336 14.5904324,3.11980161 13.7792241,2.4322523 C12.9680159,1.74470299 12.2678514,-0.560979861 10.4429779,0.126569449 Z" id="路径-3备份-2" fill="#DDB82A" transform="translate(15.500000, 25.500000) scale(-1, 1) translate(-15.500000, -25.500000) "></path>
                <path d="M20.4231629,55 C19.7760589,55 19.5360005,58.0532166 19.7029879,64.1596498 C19.1374213,64.4932208 18.6754024,65.6182612 18.3169311,67.534771 C18.0645861,68.8838939 17.5808276,73.1613676 17.2882537,80.8948248 C16.9573995,89.6401253 16.8538998,101.976277 17.2882537,104.125413 C18.1067061,108.175029 23.9778191,106 23.9778191,94.2876557 C23.9778191,82.5753113 24.2026341,73.5980965 23.2208066,68.9425257 C22.566255,65.8388119 21.8516895,64.2445199 21.0771103,64.1596498 C21.2882494,58.0532166 21.0702669,55 20.4231629,55 Z" id="路径-2" fill="url(#linearGradient-4)"></path>
            </g>
        </g>
    </g>
</svg>