<?xml version="1.0" encoding="UTF-8"?>
<svg width="222px" height="222px" viewBox="0 0 222 222" version="1.1" xmlns="http://www.w3.org/2000/svg" xmlns:xlink="http://www.w3.org/1999/xlink">
    <title>画板备份 9</title>
    <defs>
        <linearGradient x1="12.4240672%" y1="3.60303087%" x2="50%" y2="100%" id="linearGradient-1">
            <stop stop-color="#FFDF6A" offset="0%"></stop>
            <stop stop-color="#533B04" offset="100%"></stop>
        </linearGradient>
        <linearGradient x1="36.057288%" y1="2.91852469%" x2="50%" y2="100%" id="linearGradient-2">
            <stop stop-color="#FFF4AC" offset="0%"></stop>
            <stop stop-color="#FAD162" offset="48.1677511%"></stop>
            <stop stop-color="#D8AC26" offset="100%"></stop>
        </linearGradient>
        <linearGradient x1="33.6366782%" y1="14.6365808%" x2="72.3101585%" y2="72.5238854%" id="linearGradient-3">
            <stop stop-color="#FFF4AC" offset="0%"></stop>
            <stop stop-color="#FCDC7A" offset="34.965171%"></stop>
            <stop stop-color="#FAD162" offset="51.8066021%"></stop>
            <stop stop-color="#D8AC26" offset="100%"></stop>
        </linearGradient>
        <linearGradient x1="27.366071%" y1="18.1897867%" x2="61.2020826%" y2="61.5986702%" id="linearGradient-4">
            <stop stop-color="#FFF4AC" offset="0%"></stop>
            <stop stop-color="#FAD162" offset="51.8066021%"></stop>
            <stop stop-color="#D8AC26" offset="100%"></stop>
            <stop stop-color="#D8AC26" offset="100%"></stop>
        </linearGradient>
        <linearGradient x1="50%" y1="25.7113389%" x2="57.922839%" y2="79.8687634%" id="linearGradient-5">
            <stop stop-color="#E5A933" offset="0%"></stop>
            <stop stop-color="#9D660D" offset="100%"></stop>
        </linearGradient>
        <linearGradient x1="50%" y1="0%" x2="64.6980873%" y2="96.1073569%" id="linearGradient-6">
            <stop stop-color="#FFEA8C" offset="0%"></stop>
            <stop stop-color="#DAAA2D" offset="100%"></stop>
        </linearGradient>
        <linearGradient x1="50%" y1="0%" x2="64.6980873%" y2="96.1073569%" id="linearGradient-7">
            <stop stop-color="#DAAA2D" offset="0%"></stop>
            <stop stop-color="#FFEA8C" offset="100%"></stop>
        </linearGradient>
        <linearGradient x1="50%" y1="0%" x2="64.1684703%" y2="96.1073569%" id="linearGradient-8">
            <stop stop-color="#FFEA8C" offset="0%"></stop>
            <stop stop-color="#DAAA2D" offset="100%"></stop>
        </linearGradient>
        <radialGradient cx="39.6939162%" cy="39.2196522%" fx="39.6939162%" fy="39.2196522%" r="37.8156576%" gradientTransform="translate(0.396939,0.392197),scale(0.833333,1.000000),rotate(90.000000),translate(-0.396939,-0.392197)" id="radialGradient-9">
            <stop stop-color="#FCD13E" offset="0%"></stop>
            <stop stop-color="#A1720F" offset="100%"></stop>
        </radialGradient>
        <linearGradient x1="18.8051525%" y1="16.7612413%" x2="94.2705784%" y2="70.9841607%" id="linearGradient-10">
            <stop stop-color="#FFEE9D" offset="0%"></stop>
            <stop stop-color="#DCA434" offset="100%"></stop>
        </linearGradient>
        <linearGradient x1="57.5907931%" y1="6.00824947%" x2="39.8883005%" y2="75.5125014%" id="linearGradient-11">
            <stop stop-color="#805611" offset="0%"></stop>
            <stop stop-color="#895E10" offset="53.2863816%"></stop>
            <stop stop-color="#9E781F" offset="100%"></stop>
        </linearGradient>
        <linearGradient x1="86.4702253%" y1="48.1350765%" x2="19.0240981%" y2="57.218971%" id="linearGradient-12">
            <stop stop-color="#9E7521" offset="0%"></stop>
            <stop stop-color="#AC8C2F" offset="43.3131848%"></stop>
            <stop stop-color="#8D5E14" offset="100%"></stop>
        </linearGradient>
        <linearGradient x1="77.2431067%" y1="30.1090913%" x2="9.43761161%" y2="60.4080724%" id="linearGradient-13">
            <stop stop-color="#B4942E" offset="0%"></stop>
            <stop stop-color="#9E7220" offset="52.4285029%"></stop>
            <stop stop-color="#7B5309" offset="100%"></stop>
        </linearGradient>
        <linearGradient x1="74.9977818%" y1="23.3995823%" x2="31.0621844%" y2="73.3505448%" id="linearGradient-14">
            <stop stop-color="#6F4B03" offset="0%"></stop>
            <stop stop-color="#B59C4F" offset="47.4519019%"></stop>
            <stop stop-color="#8B6012" offset="100%"></stop>
        </linearGradient>
        <linearGradient x1="74.3009946%" y1="21.5285077%" x2="39.2645094%" y2="56.467539%" id="linearGradient-15">
            <stop stop-color="#8E6515" offset="0%"></stop>
            <stop stop-color="#B39B46" offset="100%"></stop>
        </linearGradient>
        <linearGradient x1="25.5948989%" y1="22.224686%" x2="50%" y2="88.7302336%" id="linearGradient-16">
            <stop stop-color="#FFE178" offset="0%"></stop>
            <stop stop-color="#FFC444" offset="100%"></stop>
        </linearGradient>
    </defs>
    <g id="画板备份-9" stroke="none" stroke-width="1" fill="none" fill-rule="evenodd">
        <g id="编组备份-3" transform="translate(111.000000, 107.500000) scale(-1, 1) translate(-111.000000, -107.500000) ">
            <path d="M77.0598252,38.9718302 C79.8044404,31.463675 72.8625879,18.4739679 56.2342675,0.00270866505 C77.4904248,-0.0150976018 89.6697202,0.133775693 92.7721538,0.449328548 C95.8745873,0.764881403 107.289529,14.5005802 127.01698,41.6564248 C132.161236,56.4961939 126.785758,67.4383281 110.890544,74.4828275 C87.047724,85.0495767 52.1335983,62.2221548 60.5390587,77.9063376 C68.9445191,93.5905203 124.52259,108.368385 148.022242,120.437274 C171.521893,132.506163 224.086045,168.441996 221.750505,173.827874 C221.022585,175.506496 227.058448,192.230813 205.362724,195.465561 C195.453698,196.942958 189.110518,216.301455 159.770007,214.930537 C153.623012,214.643322 132.618224,199.186814 121.150487,200.336671 C116.794968,200.773393 87.6091107,211.233519 78.7843721,208.752227 C70.4409172,206.406259 55.1964506,211.743372 48.1428296,203.013339 C41.0892085,194.283307 33.0538097,147.560338 28.8292773,141.617583 C-16.5700499,77.7532101 -1.61678158,44.435679 27.5867345,42.1943292 C56.7902506,39.9529794 72.9429023,50.234063 77.0598252,38.9718302 Z" id="路径-17" fill="#3B2702" opacity="0.381651379"></path>
            <path d="M60.9964507,1.14658 L85.4092143,1 C119.978033,34.3279988 130.314422,57.0985406 116.418384,69.3116254 C95.574326,87.6312527 53.2111231,58.4305614 47.7178684,72.0823062 C42.2246137,85.734051 127.196963,127.625617 146.632069,139.32994 C156.69712,145.391375 209.448358,175.667205 206.911476,180.82067 C205.163933,184.37066 200.648646,177.923643 180.709019,185.615988 C167.429489,190.738989 172.230191,198.106229 157.684994,201.139652 C153.741038,201.96217 144.846308,193.364711 119.82756,193.364711 C113.410967,193.364711 103.078463,194.993834 88.8300472,198.252078 C77.075098,205.915974 68.0888569,205.915974 61.8713238,198.252078 C47.7296439,180.82067 42.4888214,156.653155 35.6020858,145.710816 C25.6124024,129.8382 -7.24178085,81.6799438 11.8605371,58.4305614 C30.9628551,35.181179 68.5496629,57.212588 80.6747629,46.3316309 C88.7581629,39.0776595 82.1987255,24.0159759 60.9964507,1.14658 Z" id="路径-18" fill="url(#linearGradient-1)" opacity="0.29784139"></path>
            <path d="M66.6189757,147.027232 C66.3137388,147.339683 67.1907947,150.465419 67.1907947,150.993003 C67.1907947,151.520586 64,152.129507 64,152.798427 C64,153.467347 66.9591402,154.200503 67.1907947,154.568919 C67.4224493,154.937336 67.464311,159.725192 68.2514148,159.986829 C69.0385185,160.248467 71.3956519,156.52759 71.9625882,156.328759 C72.5295244,156.129929 75.7023727,157.222772 75.9777007,156.801313 C76.2530287,156.379855 73.8878441,154.335848 73.8878441,153.682507 C73.8878441,153.029166 76.4492573,149.693276 75.5234794,148.729299 C74.5977015,147.765323 72.0548362,149.194157 70.6420545,149.194157 C69.2292729,149.194157 66.9242125,146.714781 66.6189757,147.027232 Z" id="路径-4备份-4" fill="url(#linearGradient-2)" transform="translate(70.000000, 153.500000) scale(-1, 1) translate(-70.000000, -153.500000) "></path>
            <path d="M51.8389629,141.019949 C51.5234515,141.342099 50.0950821,145.332897 50.0950821,145.876857 C50.0950821,146.420817 46,147.190274 46,147.879956 C46,148.569639 49.8556298,149.183917 50.0950821,149.563769 C50.3345345,149.943622 48.6904165,153.711101 49.504015,153.980859 C50.3176135,154.250617 54.4414797,151.583236 55.0274997,151.378234 C55.6135196,151.173233 58.1632993,152.842493 58.4478952,152.407953 C58.7324911,151.973412 57.0175619,149.323463 57.0175619,148.649843 C57.0175619,147.976222 61.8310704,146.229913 60.8741297,145.236016 C59.9171891,144.242118 56.4878372,144.383939 55.0274997,144.383939 C53.5671621,144.383939 52.1544744,140.697799 51.8389629,141.019949 Z" id="路径-4备份-2" fill="url(#linearGradient-3)"></path>
            <path d="M82.1680633,165.011777 C81.9657477,165.182599 81.5179315,167.881095 81.5179315,168.169532 C81.5179315,168.457969 80,168.83335 80,169.599196 C80,170.365041 82.0145191,169.56072 82.1680633,169.762138 C82.3216075,169.963557 82.4615703,171.851349 82.9832746,171.99439 C83.504979,172.137431 83.7755767,169.498628 84.1513506,169.389925 C84.5271246,169.281222 86.5532211,169.836525 86.9494319,169.389925 C87.3456428,168.943324 85.2834783,168.155334 85.2834783,167.798144 C85.2834783,167.440953 86.1492711,166.635761 85.5356514,166.108742 C84.9220317,165.581723 84.6502475,166.584875 83.7138343,166.584875 C82.7774211,166.584875 82.3703789,164.840956 82.1680633,165.011777 Z" id="路径-4备份-3" fill="url(#linearGradient-4)"></path>
            <path d="M80.1090953,137.605176 C80.5712787,137.286155 81.4788044,138.37932 82.2460774,138.37932 C83.0133504,138.37932 83.6955262,136.80999 84.1848499,137.019202 C84.6741736,137.228415 83.8258559,138.548711 84.1848499,139.20825 C84.5438439,139.867789 86.1480663,139.92745 85.988936,140.333645 C85.8298057,140.739841 84.1759508,140.429875 83.6148329,141.060067 C83.0537149,141.690258 84.2333756,143 83.6148329,143 C82.9962902,143 82.7860867,141.487854 81.7735865,141.060067 C80.7610863,140.63228 79.2631197,141.406012 79.02334,141.060067 C78.7835603,140.714122 80.4703068,140.001839 80.4703068,139.605045 C80.4703068,139.20825 79.646912,137.924198 80.1090953,137.605176 Z" id="路径-10" fill="url(#linearGradient-5)"></path>
            <polygon id="路径-125" fill="#8A731B" points="82.9261584 122 82.2803275 125.245419 86 128.571466 81.5987004 129.177449 79.2890794 136 77.6511484 131.881711 71 130.505221 75.5182447 127.126749 75.5182447 122.480586 78.556629 122.932763"></polygon>
            <path d="M59.2931283,98.0267962 C58.4275997,97.7260463 58.6477938,100.042793 57.0556734,100.677299 C55.4635531,101.311806 53.5438748,99.3535456 53.0645012,100.238651 C52.5851275,101.123757 54.9305311,102.537789 55.0675807,104.033242 C55.2046302,105.528696 53.0700211,106.201358 53.8132835,107.056492 C54.5565459,107.911627 55.84729,106.297704 57.6953171,107.056492 C59.5433441,107.815281 60.1204596,110.18373 60.9432708,109.988622 C61.7660821,109.793513 60.6811295,107.410133 61.3464673,106.190714 C62.0118051,104.971296 64.1747534,105.424168 63.9886958,104.407024 C63.8026383,103.389881 61.3464673,103.389881 60.9432708,102.442106 C60.5400744,101.49433 60.1586569,98.3275461 59.2931283,98.0267962 Z" id="路径-11" fill="url(#linearGradient-6)"></path>
            <path d="M31.2931283,75.0267962 C30.4275997,74.7260463 30.6477938,77.042793 29.0556734,77.6772992 C27.4635531,78.3118055 25.5438748,76.3535456 25.0645012,77.2386511 C24.5851275,78.1237566 26.9305311,79.5377886 27.0675807,81.0332421 C27.2046302,82.5286956 25.0700211,83.2013577 25.8132835,84.0564922 C26.5565459,84.9116268 27.84729,83.2977038 29.6953171,84.0564922 C31.5433441,84.8152807 32.1204596,87.1837304 32.9432708,86.9886215 C33.7660821,86.7935127 32.6811295,84.4101329 33.3464673,83.1907144 C34.0118051,81.971296 36.1747534,82.4241677 35.9886958,81.4070244 C35.8026383,80.3898812 33.3464673,80.3898812 32.9432708,79.4421055 C32.5400744,78.4943299 32.1586569,75.3275461 31.2931283,75.0267962 Z" id="路径-11备份-3" fill="url(#linearGradient-7)" transform="translate(30.500000, 81.000000) scale(-1, 1) translate(-30.500000, -81.000000) "></path>
            <path d="M127.148923,46.0223302 C126.440763,45.7717053 126.620922,47.7023275 125.318278,48.2310827 C124.015634,48.7598379 122.444989,47.1279546 122.052774,47.8655426 C121.660559,48.6031305 123.579525,49.7814905 123.691657,51.0277018 C123.803788,52.273913 122.05729,52.8344647 122.665414,53.5470769 C123.273538,54.259689 124.329601,52.9147531 125.841623,53.5470769 C127.353645,54.1794006 127.825831,56.1531086 128.49904,55.9905179 C129.172249,55.8279272 128.284561,53.8417774 128.828928,52.8255954 C129.373295,51.8094133 131.14298,52.1868064 130.990751,51.339187 C130.838522,50.4915677 128.828928,50.4915677 128.49904,49.7017546 C128.169152,48.9119416 127.857083,46.272955 127.148923,46.0223302 Z" id="路径-11备份" fill="url(#linearGradient-8)"></path>
            <path d="M20.2363879,65.2360666 C19.6587392,66.0532002 20.4883474,67.4289092 20.2363879,68.4181153 C19.9844284,69.4073214 19,69.67123 19,70.0901894 C19,70.3694957 19.6547762,70.477879 20.9643286,70.4153394 C20.9633459,72.1384465 21.2311805,73 21.7678326,73 C22.5728106,73 22.3302764,71.5807034 23.4104831,70.8337351 C24.4906899,70.0867667 25.7545275,70.6314103 25.9757715,70.0901894 C26.1232675,69.7293755 25.5973292,69.1720175 24.3979568,68.4181153 C24.8011038,66.5374471 24.8011038,65.4767642 24.3979568,65.2360666 C23.9948098,64.9953691 23.2334556,65.3934365 22.1138942,66.4302689 C21.2473224,65.0893784 20.621487,64.6913109 20.2363879,65.2360666 Z" id="路径-12" fill="#FFD75E"></path>
            <path d="M40.059761,72.17705 C39.5646336,72.7899001 40.2757264,73.8216819 40.059761,74.5635865 C39.8437957,75.3054911 39,75.5034225 39,75.817642 C39,76.0271217 39.5612367,76.1084093 40.6837102,76.0615046 C40.6828679,77.3538349 40.9124405,78 41.3724279,78 C42.0624091,78 41.8545226,76.9355275 42.7804141,76.3753013 C43.7063056,75.815075 44.789595,76.2235577 44.9792327,75.817642 C45.1056578,75.5470316 44.6548536,75.1290131 43.6268201,74.5635865 C43.9723747,73.1530853 43.9723747,72.3575731 43.6268201,72.17705 C43.2812655,71.9965268 42.6286762,72.2950774 41.6690522,73.0727017 C40.9262764,72.0670338 40.389846,71.7684832 40.059761,72.17705 Z" id="路径-12备份-3" fill="#FFD75E" transform="translate(42.000000, 75.000000) scale(-1, 1) translate(-42.000000, -75.000000) "></path>
            <path d="M10.2363879,85.2360666 C9.65873922,86.0532002 10.4883474,87.4289092 10.2363879,88.4181153 C9.98442836,89.4073214 9,89.67123 9,90.0901894 C9,90.3694957 9.4121293,90.6173442 10.2363879,90.8337351 C10.720699,92.2779117 11.2311805,93 11.7678326,93 C12.5728106,93 12.3302764,91.5807034 13.4104831,90.8337351 C14.4906899,90.0867667 15.7545275,90.6314103 15.9757715,90.0901894 C16.1232675,89.7293755 15.5973292,89.1720175 14.3979568,88.4181153 C14.8011038,86.5374471 14.8011038,85.4767642 14.3979568,85.2360666 C13.9948098,84.9953691 13.2334556,85.3934365 12.1138942,86.4302689 C11.2473224,85.0893784 10.621487,84.6913109 10.2363879,85.2360666 Z" id="路径-12备份-2" fill="#FFD75E" transform="translate(12.500000, 89.000000) scale(-1, -1) translate(-12.500000, -89.000000) "></path>
            <path d="M90.059761,43.2065583 C89.5646336,43.9215502 90.2757264,45.1252955 90.059761,45.9908509 C89.8437957,46.8564063 89,47.0873262 89,47.4539157 C89,47.6983087 89.3532537,47.9151762 90.059761,48.1045182 C90.4748848,49.3681727 90.9124405,50 91.3724279,50 C92.0624091,50 91.8545226,48.7581155 92.7804141,48.1045182 C93.7063056,47.4509209 94.789595,47.927484 94.9792327,47.4539157 C95.1056578,47.1382036 94.6548536,46.6505153 93.6268201,45.9908509 C93.9723747,44.3452662 93.9723747,43.4171687 93.6268201,43.2065583 C93.2812655,42.9959479 92.6286762,43.3442569 91.6690522,44.2514853 C90.9262764,43.0782061 90.389846,42.7298971 90.059761,43.2065583 Z" id="路径-12备份" fill="#FFD75E" transform="translate(92.000000, 46.500000) scale(1, -1) translate(-92.000000, -46.500000) "></path>
            <path d="M28.5221704,96.0164906 C27.9985775,95.8886394 27.3751471,96.5042068 26.6518792,97.8631926 C25.4334,96.8888431 24.6830383,96.5810594 24.4007944,96.9398416 C24.1185504,97.2986238 24.3804711,98.2273027 25.1865564,99.7258782 C23.5069563,100.672139 22.794993,101.405776 23.0506664,101.926788 C23.3063398,102.447801 24.5067441,102.709511 26.6518792,102.71192 C27.2614397,105.022518 27.8848701,106.115339 28.5221704,105.990384 C29.1594707,105.865429 29.7220143,104.540074 30.209801,102.014321 C33.403267,101.005314 35,100.2425 35,99.7258782 C35,99.2092568 33.403267,98.8779535 30.209801,98.7319681 C29.6083069,97.049501 29.0457634,96.1443419 28.5221704,96.0164906 Z" id="路径-13" fill="url(#radialGradient-9)"></path>
            <path d="M114.484919,158.099432 C113.746329,158.477373 113.746329,159.955933 114.484919,162.535111 C112.828306,163.5932 112,164.395041 112,164.940635 C112,165.48623 112.828306,165.918349 114.484919,166.236994 C114.59106,168.745665 115.058863,170 115.888326,170 C116.71779,170 117.772515,168.745665 119.0525,166.236994 C122.495193,167.703041 124.443545,168.122503 124.897554,167.495382 C125.351564,166.868261 124.296549,165.214837 121.732509,162.535111 C122.972576,159.95034 123.379134,158.47178 122.952183,158.099432 C122.525232,157.727084 121.225338,158.426557 119.0525,160.197851 C116.746036,158.420964 115.223509,157.721491 114.484919,158.099432 Z" id="路径-14" fill="url(#linearGradient-10)"></path>
            <path d="M143.484919,156.099432 C142.746329,156.477373 142.746329,157.955933 143.484919,160.535111 C141.828306,161.5932 141,162.395041 141,162.940635 C141,163.48623 141.828306,163.918349 143.484919,164.236994 C143.59106,166.745665 144.058863,168 144.888326,168 C145.71779,168 146.772515,166.745665 148.0525,164.236994 C151.495193,165.703041 153.443545,166.122503 153.897554,165.495382 C154.351564,164.868261 153.296549,163.214837 150.732509,160.535111 C151.972576,157.95034 152.379134,156.47178 151.952183,156.099432 C151.525232,155.727084 150.225338,156.426557 148.0525,158.197851 C145.746036,156.420964 144.223509,155.721491 143.484919,156.099432 Z" id="路径-14备份" fill="url(#linearGradient-10)"></path>
            <polygon id="路径-15" fill="#FFD747" points="131.456514 119 129.692063 120.931178 127 120.931178 127.834366 123.89452 127.834366 126.288839 129.692063 125.521079 132.38108 127 132.38108 123.906358 135 122.398561 132.38108 120.931178"></polygon>
            <path d="M102.744605,100.025418 C102.480141,99.8774646 102.062242,100.375416 101.490907,101.519272 C100.071916,101.40277 99.2651006,101.40277 99.0704595,101.519272 C98.8758185,101.635775 99.1070707,101.980278 99.7642161,102.552783 C99.10004,103.278213 98.8687878,103.771425 99.0704595,104.032422 C99.2721313,104.293418 99.8844889,104.293418 100.907532,104.032422 C101.826082,106.094336 102.43844,107.081766 102.744605,106.99471 C103.050771,106.907654 103.050771,105.746106 102.744605,103.510064 C104.81858,103.658346 105.901548,103.658346 105.993508,103.510064 C106.085469,103.361783 105.200396,103.042689 103.338288,102.552783 C103.206964,101.015827 103.00907,100.173372 102.744605,100.025418 Z" id="路径-16" fill="#FCD151"></path>
            <path d="M75.1254209,78.021787 C74.8919324,77.8949696 74.5229797,78.3217851 74.0185629,79.3022335 C72.8287494,78.6014819 72.1479208,78.3010357 71.9760773,78.4008949 C71.8042338,78.5007541 71.9769123,79.0964891 72.4941127,80.1880999 C71.3438533,80.8098966 70.857749,81.2326504 71.0357997,81.4563615 C71.2138504,81.6800725 72.0364229,81.6800725 73.503517,81.4563615 C74.3144808,83.2237169 74.8551155,84.070085 75.1254209,83.9954657 C75.3957264,83.9208465 75.5289639,83.0744784 75.5251335,81.4563615 C77.0897166,81.2849699 77.9126031,81.1357248 77.9937928,81.0086263 C78.0749825,80.8815279 77.3597072,80.6080191 75.8479669,80.1880999 C75.5997582,78.8707086 75.3589095,78.1486043 75.1254209,78.021787 Z" id="路径-16备份-3" fill="#FCD151" transform="translate(74.500000, 81.000000) scale(1, -1) translate(-74.500000, -81.000000) "></path>
            <path d="M64.8479669,74.0189303 C64.6144783,73.8960011 64.004677,74.3717792 63.0185629,75.4462647 C61.8287494,74.7669978 61.1479208,74.4757631 60.9760773,74.5725607 C60.8042338,74.6693583 60.9769123,75.2468284 61.4941127,76.3049709 C60.3438533,76.9077036 59.857749,77.317496 60.0357997,77.5343482 C60.2138504,77.7512004 61.0364229,77.7512004 62.503517,77.5343482 C63.3144808,79.2475173 63.8551155,80.0679362 64.1254209,79.9956047 C64.3957264,79.9232733 64.5289639,79.1028544 64.5251335,77.5343482 C66.0897166,77.3682114 66.9126031,77.2235421 66.9937928,77.1003404 C67.0749825,76.9771387 66.3597072,76.7120155 64.8479669,76.3049709 C65.0814554,74.903873 65.0814554,74.1418594 64.8479669,74.0189303 Z" id="路径-16备份-4" fill="#FCD151" transform="translate(63.500000, 77.000000) scale(-1, -1) translate(-63.500000, -77.000000) "></path>
            <path d="M113.499335,182.518064 C113.101093,182.518064 112.62552,183.047748 112.072616,184.107115 C110.795405,183.827831 110.069813,183.827831 109.895839,184.107115 C109.721865,184.386399 110.08674,184.965467 110.990463,185.84432 C110.521105,187.357277 110.381118,188.247709 110.5705,188.515615 C110.759882,188.783522 111.351057,188.531352 112.344023,187.759108 C113.282506,188.862416 113.916809,189.309642 114.246931,189.100787 C114.577053,188.891932 114.577053,188.043407 114.246931,186.555213 C115.658687,186.134747 116.364565,185.721189 116.364565,185.314538 C116.364565,184.907886 115.66315,184.650787 114.260319,184.543239 C114.151238,183.193122 113.897577,182.518064 113.499335,182.518064 Z" id="路径-15备份" fill="#CF9A28" transform="translate(113.109139, 185.834358) rotate(-45.000000) translate(-113.109139, -185.834358) "></path>
            <path d="M152.992729,180.543394 C152.594487,180.543394 152.118914,181.073078 151.56601,182.132445 C150.288799,181.853161 149.563206,181.853161 149.389233,182.132445 C149.215259,182.411729 149.580133,182.990797 150.483857,183.86965 C150.014499,185.382608 149.874511,186.27304 150.063894,186.540946 C150.253276,186.808852 150.84445,186.556683 151.837417,185.784438 C152.7759,186.887746 153.410202,187.334973 153.740324,187.126118 C154.070446,186.917262 154.070446,186.068738 153.740324,184.580544 C155.15208,184.160078 155.857959,183.746519 155.857959,183.339868 C155.857959,182.933217 155.156543,182.676117 153.753712,182.568569 C153.644632,181.218453 153.390971,180.543394 152.992729,180.543394 Z" id="路径-15备份-2" fill="#EABE5F" transform="translate(152.602532, 183.859688) scale(-1, 1) rotate(-45.000000) translate(-152.602532, -183.859688) "></path>
            <path d="M90.4609826,31.0254181 C90.1734772,30.8774646 89.7191685,31.375416 89.0980566,32.5192724 C87.2816014,31.4068671 86.2675743,30.9089157 86.0559754,31.0254181 C85.8443764,31.1419205 86.2326946,31.9843756 87.2209299,33.5527833 C86.4988881,34.2782127 86.2474883,34.7714255 86.4667305,35.0324217 C86.6859727,35.293418 87.3516814,35.293418 88.4638566,35.0324217 C89.4624342,37.0943364 90.1281429,38.0817658 90.4609826,37.99471 C90.7938223,37.9076542 90.7938223,36.7461056 90.4609826,34.5100641 C92.71565,34.6583456 93.8929701,34.6583456 93.9929428,34.5100641 C94.0929154,34.3617825 93.1307309,34.0426889 91.1063893,33.5527833 C90.9636236,32.0158267 90.748488,31.1733717 90.4609826,31.0254181 Z" id="路径-16备份" fill="#FCD151" transform="translate(90.000000, 34.500000) scale(-1, -1) translate(-90.000000, -34.500000) "></path>
            <path d="M113.460983,37.0254181 C113.173477,36.8774646 112.719169,37.375416 112.098057,38.5192724 C110.281601,37.4068671 109.267574,36.9089157 109.055975,37.0254181 C108.844376,37.1419205 109.232695,37.9843756 110.22093,39.5527833 C109.498888,40.2782127 109.247488,40.7714255 109.466731,41.0324217 C109.685973,41.293418 110.351681,41.293418 111.463857,41.0324217 C112.462434,43.0943364 113.128143,44.0817658 113.460983,43.99471 C113.793822,43.9076542 113.793822,42.7461056 113.460983,40.5100641 C115.71565,40.6583456 116.89297,40.6583456 116.992943,40.5100641 C117.092915,40.3617825 116.130731,40.0426889 114.106389,39.5527833 C113.963624,38.0158267 113.748488,37.1733717 113.460983,37.0254181 Z" id="路径-16备份-2" fill="#FFDB6F" transform="translate(113.000000, 40.500000) scale(-1, 1) translate(-113.000000, -40.500000) "></path>
            <path d="M50.7848224,60 C51.1288332,60 51.550555,60.7809495 52.0499879,62.3428484 C53.1203896,62.0163225 53.7492079,62.0163225 53.9364429,62.3428484 C54.1236779,62.6693743 53.8727139,63.3283283 53.1835509,64.3197103 C53.8797145,65.2452359 54.1306785,65.8680866 53.9364429,66.1882623 C53.7422073,66.508438 53.113389,66.508438 52.0499879,66.1882623 C50.6062514,66.9292093 49.6812615,67.1629089 49.2750183,66.8893611 C48.8687751,66.6158134 48.8687751,65.7592631 49.2750183,64.3197103 C48.282263,64.1383862 47.8692424,63.8467097 48.0359564,63.4446806 C48.2026704,63.0426515 48.8889471,62.6753741 50.0947864,62.3428484 C50.2107997,60.7809495 50.4408117,60 50.7848224,60 Z" id="路径-19" fill="#FEDC40"></path>
            <path d="M77.0640692,49 C77.4425755,49 77.9065853,49.8235695 78.4560986,51.4707086 C79.9118606,51.1263626 80.7427466,51.1263626 80.9487564,51.4707086 C81.1547663,51.8150545 80.7396239,52.5099707 79.7033291,53.555457 C80.4693002,54.5314929 80.7454295,55.1883355 80.531717,55.5259846 C80.3180046,55.8636338 79.6261318,55.8636338 78.4560986,55.5259846 C77.4689054,56.7418179 76.7518192,57.2054962 76.3048401,56.9170197 C75.857861,56.6285432 75.5572044,55.7568372 75.4028702,54.3019017 C74.3105668,53.6130522 73.8561307,53.0566425 74.0395619,52.6326728 C74.2229931,52.2087031 74.9780859,51.8213817 76.3048401,51.4707086 C76.4324866,49.8235695 76.685563,49 77.0640692,49 Z" id="路径-19备份-2" fill="#FEDC40" transform="translate(77.500000, 53.000000) scale(-1, -1) translate(-77.500000, -53.000000) "></path>
            <path d="M91.3206854,60 C91.607361,60 91.9587958,60.557821 92.3749899,61.6734631 C93.2669913,61.4402303 93.7910066,61.4402303 93.9470357,61.6734631 C94.1030649,61.906696 93.8939282,62.3773773 93.3196257,63.0855073 C93.8997621,63.7465971 94.1088987,64.1914904 93.9470357,64.4201874 C93.7851728,64.6488843 93.2611575,64.6488843 92.3749899,64.4201874 C91.1718762,64.9494352 90.4010513,65.1163635 90.0625152,64.9209722 C89.7239792,64.725581 89.7239792,64.1137594 90.0625152,63.0855073 C89.2352192,62.9559902 88.8910353,62.7476498 89.0299637,62.4604861 C89.168892,62.1733225 89.7407893,61.9109815 90.7456553,61.6734631 C90.8423331,60.557821 91.0340098,60 91.3206854,60 Z" id="路径-19备份-3" fill="#FEDC40" transform="translate(91.500000, 62.500000) scale(-1, 1) translate(-91.500000, -62.500000) "></path>
            <path d="M83.7947233,14 C84.1399571,14 84.5631783,14.757826 85.0643869,16.2734779 C86.1385941,15.9566202 86.7696481,15.9566202 86.9575488,16.2734779 C87.1454494,16.5903356 86.7095758,17.2297782 85.6499279,18.1918059 C86.3895546,19.6877962 86.6619049,20.591139 86.4669787,20.9018345 C86.2720525,21.21253 85.452687,20.7857082 84.0088819,19.6213691 C83.0419366,20.4817968 82.3546202,20.7792865 81.9469326,20.5138384 C81.5392451,20.2483903 81.650118,19.4743795 82.2795514,18.1918059 C81.2832665,18.0158508 80.8687775,17.7328106 81.0360842,17.3426854 C81.203391,16.9525602 81.8921076,16.5961577 83.102234,16.2734779 C83.2186598,14.757826 83.4494895,14 83.7947233,14 Z" id="路径-19备份" fill="#FEDC40"></path>
            <path d="M76.0187712,173.048608 C75.5389437,173.304374 75.8318065,174.56643 76.8973596,176.834777 C75.4123416,177.6503 74.7990397,178.31725 75.0574538,178.835626 C75.3158679,179.354002 76.414161,179.659939 78.3523331,179.753438 C79.5656547,181.251146 80.4508081,182 81.0077935,182 C81.5647788,182 81.9515815,181.251146 82.1682017,179.753438 C84.5562893,180.286172 85.8282455,180.286172 85.9840703,179.753438 C86.1398951,179.220704 85.1525085,178.247817 83.0219106,176.834777 C83.6652418,175.484397 83.6652418,174.658821 83.0219106,174.358049 C82.3785793,174.057277 81.2909836,174.374378 79.7591236,175.309351 C77.7453828,173.546423 76.4985986,172.792842 76.0187712,173.048608 Z" id="路径-20" fill="#8F6A18"></path>
            <polygon id="路径-21" fill="#9B7415" points="44.9611829 99 43.8384263 100.850802 42 101.70603 43.8384263 102.783632 43.8384263 105 46.1685134 103.804263 49 103.804263 49 101.967057 49 99.9662293 46.8301567 100.850802"></polygon>
            <path d="M44.7584229,114.11865 C44.3552138,113.965574 43.6014596,114.313537 42.4971602,115.162537 C41.0615514,114.139915 40.2441005,113.791953 40.0448076,114.11865 C39.8455147,114.445347 40.3110251,115.370239 41.4413389,116.893325 C40.9803751,117.978297 40.8185614,118.652288 40.9558979,118.915297 C41.0932344,119.178306 41.6069885,119.178306 42.4971602,118.915297 C43.6318921,119.788633 44.3856464,120.134602 44.7584229,119.953203 C45.1311994,119.771805 45.1311994,119.059048 44.7584229,117.814933 C46.2528076,117.601691 47,117.342022 47,117.035927 C47,116.729831 46.2528076,116.391526 44.7584229,116.02101 C45.1616319,114.905846 45.1616319,114.271726 44.7584229,114.11865 Z" id="路径-22" fill="#AE9033"></path>
            <path d="M45.0786482,133.098875 C44.7330404,132.971312 44.0869654,133.26128 43.140423,133.968781 C41.9099012,133.116596 41.209229,132.826627 41.0384065,133.098875 C40.867584,133.371123 41.266593,134.141866 42.2354334,135.411104 C41.8403215,136.315248 41.7016241,136.876907 41.8193411,137.096081 C41.937058,137.315255 42.3774187,137.315255 43.140423,137.096081 C44.1130504,137.823861 44.7591255,138.112168 45.0786482,137.961003 C45.3981709,137.809837 45.3981709,137.215873 45.0786482,136.179111 C46.3595494,136.001409 47,135.785018 47,135.529939 C47,135.274859 46.3595494,134.992938 45.0786482,134.684175 C45.4242559,133.754871 45.4242559,133.226438 45.0786482,133.098875 Z" id="路径-22备份" fill="#DDB948" transform="translate(44.000000, 135.500000) scale(1, -1) translate(-44.000000, -135.500000) "></path>
            <polygon id="路径-23" fill="#A1771F" points="86.6007506 131 86.6007506 133.471311 85 136.120648 87.6627705 135.216167 89.0222963 137 90.1171807 135.216167 93 134.273774 90.1171807 133.471311 90.8443078 131 89 131.87741"></polygon>
            <polygon id="路径-24" fill="#855D12" points="154 165.762044 155.225421 169.040438 154 170.236346 156.303392 170.236346 158.14575 173 158.835341 169.381022 161 167.710887 158.835341 166.920483 158.14575 164 156.303392 165.762044"></polygon>
            <path d="M112.5,154.022798 C112.149792,153.896791 111.658569,154.293125 111.026333,155.211798 C109.803077,154.804213 109.132093,154.804213 109.013384,155.211798 C108.894674,155.619384 109.565657,156.358048 111.026333,157.427791 C110.013388,158.855669 109.6809,159.684402 110.028871,159.913992 C110.376842,160.143582 111.380313,159.757561 113.039283,158.755927 C113.565305,159.803381 113.947061,160.189403 114.18455,159.913992 C114.42204,159.638582 114.42204,158.809848 114.18455,157.427791 C115.39485,156.742118 116,156.304826 116,156.115918 C116,155.927009 115.013094,155.927009 113.039283,156.115918 C113.029969,154.846511 112.850208,154.148804 112.5,154.022798 Z" id="路径-25" fill="#987515"></path>
            <path d="M107.293128,147.026796 C106.4276,146.726046 106.647794,149.042793 105.055673,149.677299 C103.463553,150.311806 101.543875,148.353546 101.064501,149.238651 C100.585128,150.123757 102.930531,151.537789 103.067581,153.033242 C103.20463,154.528696 101.070021,155.201358 101.813283,156.056492 C102.556546,156.911627 103.84729,155.297704 105.695317,156.056492 C107.543344,156.815281 108.12046,159.18373 108.943271,158.988622 C109.766082,158.793513 108.68113,156.410133 109.346467,155.190714 C110.011805,153.971296 112.174753,154.424168 111.988696,153.407024 C111.802638,152.389881 109.346467,152.389881 108.943271,151.442106 C108.540074,150.49433 108.158657,147.327546 107.293128,147.026796 Z" id="路径-11备份-2" fill="url(#linearGradient-6)"></path>
            <polygon id="路径-26" fill="#B4923D" points="118.744363 132 116.793808 134.162239 115 134.162239 115.937302 135.473848 115 138 118.744363 137.313353 122 138 121.25418 136.344745 122 134.734279 119.482416 134.162239"></polygon>
            <polygon id="路径-26备份" fill="#B4923D" points="20.7443626 117 18.7938077 119.522612 17 119.522612 18.7938077 121.052823 18.061594 124 20.5 122.344929 24 124 22.4197613 121.052823 23.8431451 119.522612 21.4824163 119.522612"></polygon>
            <polygon id="路径-27" fill="#F0D46C" points="106.818001 123 106.818001 126.188452 103 127.564354 105.42535 129.345503 106.818001 133 108.824841 129.345503 113 129.707241 111.519591 127.339906 112.499211 124.769781 109.746856 125.36422"></polygon>
            <polygon id="路径-27备份" fill="#FFC94E" transform="translate(98.500000, 134.000000) scale(-1, 1) translate(-98.500000, -134.000000) " points="97.6020286 130 96.6529148 132.793096 95 134.047718 96.6529148 135.342799 97.6020286 138 98.969722 135.342799 102 135.603413 100.806237 133.884521 101.473864 132.015772 99.5980898 132.447991"></polygon>
            <polygon id="路径-28" fill="#A0781F" points="38.1003332 76 37.4322169 77.8257668 35 77.8257668 36.5501666 79.3437489 36.5501666 82 38.9106606 81.0474093 43 82 41.5856394 80.1307286 42.1944664 78.8628885 40.0640694 78.3414978"></polygon>
            <polygon id="路径-29" fill="#876116" points="69.9831372 155 68.4757752 156.587161 67.0017443 155.79358 67.0017443 157.588947 66 159.212521 68.4924408 159.38309 69.3695129 161 69.9831372 158.577178 71 158.127754 69.9831372 157.198965"></polygon>
            <polygon id="路径-29备份" fill="#876116" points="94.9831372 172 93.4757752 173.587161 92.0017443 172.79358 92.0017443 174.588947 91 176.212521 93.4924408 176.38309 94.3695129 178 94.9831372 175.577178 96 175.127754 94.9831372 174.198965"></polygon>
            <polygon id="路径-30" fill="#8B6216" points="111.619542 143 110.796846 144.864917 109 145.304739 110.191129 145.85502 109.524711 148 111.619542 147.228684 113.308424 148 113.308424 146.728988 115 145.5 112 144.864917"></polygon>
            <polygon id="路径-31" fill="#FFC93B" points="51.4159881 77 51.4159881 78.4082283 50 78.4082283 51.4159881 79.4648816 51.4159881 81 52.8787183 80.0709583 54 80.0709583 52.8787183 79 54 77 52.8787183 77.5469477"></polygon>
            <polygon id="路径-32" fill="#B18B29" points="89.4231496 18 88.5435585 20.1374505 87 21.6733565 88.5435585 22.5791474 90.2004597 25 90.2004597 22.5791474 93 21.5 91.1317741 20.1374505"></polygon>
            <polygon id="路径-33" fill="#9E771C" points="70.1254279 4 70.1254279 6.45372651 69 7.52682355 70.1254279 8.43752929 71.6235099 11 72.8604376 8.43752929 75 7.52682355 73.6520789 6.45372651 73.6520789 4 71.6235099 5.14279126"></polygon>
            <polygon id="路径-34" fill="#8D620C" points="59.7682814 4.2633911 59.7682814 6.55367608 58 8.0129779 60.7187727 8.02573313 62.5981776 10 62.5981776 8.0129779 65 6.8267174 62.7963088 5.89173172 62.5981776 3 61.2960592 5.08804004"></polygon>
            <polygon id="路径-35" fill="#9C7516" points="81.1691176 4 80.2664611 5.86684554 79 5.86684554 80.0845588 7.63931145 80.2664611 9 81.1691176 7.63931145 83.1099544 9 83.1099544 7.63931145 84 6.5 83.1099544 5.86684554"></polygon>
            <polygon id="路径-35备份" fill="#9C7516" points="92.0367647 11 90.7730455 12.8668455 89 12.8668455 90.5183824 14.6393114 90.7730455 16 92.0367647 14.6393114 94.7539361 16 94.7539361 14.6393114 96 13.5 94.7539361 12.8668455"></polygon>
            <polygon id="路径-35备份-2" fill="#9C7516" transform="translate(81.468869, 37.109288) rotate(-16.000000) translate(-81.468869, -37.109288) " points="81.0332797 34.4763946 79.8449807 36.4424764 78.1777525 36.4424764 79.6055161 38.3091615 79.8449807 39.7421804 81.0332797 38.3091615 83.5882873 39.7421804 83.5882873 38.3091615 84.7599847 37.1092875 83.5882873 36.4424764"></polygon>
            <polygon id="路径-36" fill="#9F7314" points="83.0405418 10 84.818396 11.1939727 85.8184439 10 85.8184439 11.1939727 88 12.5 85.8184439 12.5 85.5202709 15 84 12.9664386 82 12.9664386 83.0405418 11.1939727"></polygon>
            <polygon id="路径-37" fill="#9E7B2A" points="79.7731279 29.1056404 79 32 80.4443918 30.8011157 83 32 83 29.1056404 83 28 81.2974378 29.1056404"></polygon>
            <polygon id="路径-38" fill="#6D4201" points="74.905001 15 74.905001 16.5926081 73 17.161397 74.1896055 18.4875267 74.905001 20 76.200465 18.4875267 78 19.6411815 77.4596049 17.3205907 78 15 76.200465 16.0996529"></polygon>
            <polygon id="路径-39" fill="#9B761B" points="82.0926579 20 81.4628915 21.8902897 80 21.8902897 81.4628915 23.2756232 81.4628915 24 83.2820758 23.2756232 85 23.2756232 84.3080537 22.2070639 84.3080537 20.5569444 83.2820758 21.0635682"></polygon>
            <polygon id="路径-40" fill="#704E05" points="106.369418 26 105.591646 27.2848633 103 26 104.146816 28.3705073 104.146816 31 107.161249 29.4022816 109.761229 30.3839077 109.761229 28.5 110 26.6867536 108.155708 26.6867536"></polygon>
            <polygon id="路径-41" fill="#724901" points="87.4617728 38 89.1640515 39.0749257 91.0102759 38.0908761 91.0102759 39.9494391 93 40.3442784 91.0102759 41.577083 90.3821214 43 88.2453268 41.577083 87 41.577083 87.7642429 39.9494391"></polygon>
            <polygon id="路径-42" fill="#885E0D" points="92.7201968 31 92.2167182 32.5608636 91 32.5608636 91.8600984 33.9867351 91.4204762 35.3032718 93.4487932 34.9984407 96 36 95.2241032 33.9867351 96 32.5608636 94.1121817 32.5608636"></polygon>
            <polygon id="路径-42备份" fill="#CD8D12" points="104.720197 20 104.216718 21.5608636 103 21.5608636 103.860098 22.9867351 103.420476 24.3032718 105.448793 23.9984407 108 25 107.224103 22.9867351 108 21.5608636 106.112182 21.5608636"></polygon>
            <polygon id="路径-43" fill="#A1751B" points="20.3837691 52 19.6918846 53.027704 19 54.2801734 19.6918846 54.9077716 20.3837691 57 21.436994 55.2902379 23 55.2902379 22.0180905 54.5 22.0180905 53.027704 21 53.027704"></polygon>
            <polygon id="路径-43备份" fill="#EFC56F" points="19.333336 59 18.4622054 60.0973558 17 60.6995164 18.4622054 62.1048435 18.8808508 64 20.1092132 62.7319671 22 62.5132311 20.8759495 61.1685154 21.3910595 60.0973558 20.1092132 60.0973558"></polygon>
            <polygon id="路径-44" fill="#835B0A" points="99.1352929 20 98.3291055 21.2185695 96 20.6092848 96.4657476 22.7580794 97.0183757 25 99.1352929 23.9222267 100.618353 25 101.096517 23.4278736 103 21.8557472 100.618353 21.8557472"></polygon>
            <polygon id="路径-45" fill="#A78A35" points="106.434815 42 106 43.3973343 106.217407 45 107.090701 44.3264775 108 43.5 108 42.4252878"></polygon>
            <polygon id="路径-46" fill="#A9841B" points="78.7452316 41 79.9720543 41 79.9720543 42.4368615 82 42.5165673 79.9720543 43.1582136 79.2742283 44.1890275 78.7452316 45 78.7452316 43 78 42.4368615"></polygon>
            <polygon id="路径-47" fill="#A3781E" points="100.775359 35 102 35.6996766 100.775359 37 100 36"></polygon>
            <polygon id="路径-48" fill="#9B7216" points="90.4831106 55 90.4239301 56.4666126 89 57.1567607 90.4239301 58.0440922 90.4239301 60 91.8108445 58.6518857 94 58.0440922 92.1948555 56.4666126 92.1948555 55 91.5 55.5653758"></polygon>
            <polygon id="路径-49" fill="#AB852C" points="104.502009 49 104.502009 49.9727525 103 49.9727525 103.751004 51.2552904 103.751004 54 105.128731 52.7184527 107 52.7184527 106.40148 51.5 107 50.5222129 105.644552 49.9727525"></polygon>
            <polygon id="路径-50" fill="#B1922A" points="94.2452414 47.6602922 94.2452414 49.2615672 93 50.1769251 95.1012051 50.1769251 96.4174198 52 96.4174198 50.1769251 98 49.8301461 97.0577749 49.2615672 97.0577749 47 95.5 48.3770347"></polygon>
            <polygon id="路径-51" fill="#99721C" points="107.896134 61 107.225173 63.4030241 106 63.6563704 107.225173 64.9061782 107.896134 67 109.138127 64.9061782 113 65.8060483 110.913676 64 110.913676 62.4631657 109.138127 62.4631657"></polygon>
            <polygon id="路径-52" fill="#9E721B" points="47.6994366 51 47.1738245 52.7142254 46 52.7142254 46.8497183 54.3525296 46.6363712 55.2198999 48.511755 54.3525296 51 56 50.635449 53.7130473 50.635449 52.7142254 48.9670002 52.7142254"></polygon>
            <path d="M108.183317,36 L106.639397,36.6187599 L107.411357,38 L106,39.5025635 L108,39.5025635 L109.203193,40 L108.879799,38 L110,36.7926003 C109.495517,36.8983211 109.122117,36.8983211 108.879799,36.7926003 C108.637481,36.6868795 108.405321,36.4226794 108.183317,36 Z" id="路径-53" fill="#9B7319"></path>
            <polygon id="路径-54" fill="#AC8628" points="83.617326 54 83.617326 55.2555579 82 55.8268855 83 56.6948968 83 58 84.6675875 57.385472 87 57.385472 85.9923128 56 85.9923128 55.2555579 84.6675875 55.2555579"></polygon>
            <polygon id="路径-55" fill="#AB872B" points="102.953048 51 102.406278 53.036416 101 53.036416 102.406278 54.5198461 102.406278 58 103.812193 56.2030839 105.50484 57.4178526 104.906097 54.9664991 106 53.911108 104.127995 53.036416"></polygon>
            <polygon id="路径-56" fill="#A37824" points="95.0628858 40 96.2583967 40.976584 97.0314429 40.488292 97.3155971 41.5968872 99 42.4346542 97.0314429 42.4346542 96.2583967 44 95.6050812 42.4346542 94 42.4346542 95.0628858 41.5968872"></polygon>
            <polygon id="路径-57" fill="#9D7517" points="58.1511083 48 57.7640576 49.3679888 56 49.9207223 57.35926 50.859945 57.35926 52 58.8245832 50.859945 60.5157986 51.3354874 60.5157986 50 61 48.7202271 59.8292767 48.7202271"></polygon>
            <polygon id="路径-58" fill="#8D6512" points="112.023959 54.5772239 113.491112 55.1157266 115.184648 54 114.58027 56.11513 116 57.3522887 114.011979 57.7570738 112.673978 59 112.023959 57.7570738 111 57.3522887 112.023959 56.11513"></polygon>
            <polygon id="路径-59" fill="#BA8B1C" points="110.528534 45.9710761 111.238797 47.258461 110 50 111.898423 48.7298324 113.198848 50 113.198848 48.7298324 115 47.258461 114.039283 46.508073 114.039283 45 112.5 45.9710761"></polygon>
            <polygon id="路径-59备份" fill="#D09E24" points="93.7399477 27.3595066 94.7343164 29.1618453 93 33 95.6577919 31.2217654 97.4783869 33 97.4783869 31.2217654 100 29.1618453 98.6549959 28.1113022 98.6549959 26 96.5 27.3595066"></polygon>
            <polygon id="路径-60" fill="#8D6314" points="87.0783195 48 86.199338 49.2516254 84.6087036 49.2516254 85.1566389 50.6520483 84 53 86.199338 52.3755729 87.6164866 52.3755729 87.6164866 51.2242825 89 49.2516254 87.9236657 49.2516254"></polygon>
            <polygon id="路径-61" fill="#9D771D" points="61.7002241 56 61.0226944 57.0241389 60 57.9226193 61.0226944 58.588895 61.7002241 61 63.0368766 60.3067352 65 60.3067352 64.3053343 59.0042318 65 57.0241389 63.0368766 57.0241389"></polygon>
            <polygon id="路径-62" fill="#986F14" points="30 52.4385391 30.4401752 53.680364 30 56 31.5835712 55.3216675 33.8508625 56 33.8508625 54.2192695 35 52.4385391 33.1544852 52.4385391 32.5 51 31.5835712 52.4385391"></polygon>
            <polygon id="路径-62备份" fill="#FAD075" transform="translate(44.500000, 58.500000) scale(-1, 1) translate(-44.500000, -58.500000) " points="42 57.4385391 42.4401752 58.680364 42 61 43.5835712 60.3216675 45.8508625 61 45.8508625 59.2192695 47 57.4385391 45.1544852 57.4385391 44.5 56 43.5835712 57.4385391"></polygon>
            <polygon id="路径-63" fill="#9B7314" points="71.6200674 55 70.8535451 56.4491549 70 57.6589838 71.4905358 57.6589838 71.6200674 60 72.9765181 58.8680991 75 58.3811165 73.413766 57.5 73.413766 55 72.5 56.0699578"></polygon>
            <polygon id="路径-64" fill="#9F7519" points="83.4118884 67.9059307 84.3680887 66.8271789 86.0001432 68.7409669 87.1598062 68.7409669 86.7361774 67.3145389 88.133711 67.3145389 88.6847251 66 89.7352527 67.9059307 90.3094119 67.9059307 90.9633036 67.3145389 92.0279706 67.3145389 92.5818204 66 92.9553647 67.9059307 94 68.7409669 92.5818204 68.7409669 91.6000572 70.8898795 91.6000572 69.2965806 90.3094119 68.7409669 89.7352527 69.2965806 90.3094119 72 88.7059442 70.513014 87.7104513 70.513014 87.7104513 71.3415565 86.0001432 70.513014 84.9082209 70.513014 83.4118884 71.3415565 83.0301406 69.2965806 82 67.9059307"></polygon>
            <polygon id="路径-65" fill="url(#linearGradient-11)" points="35.1105331 56.7051183 33.8755872 56.7051183 33.8755872 58.4058405 33.4245088 59.6835621 32.2198814 60.68593 31 61.7084772 33.1848664 63.6123195 32.2198814 65.9699245 34.3529033 65.0206479 34.3529033 67 36.2626048 65.9699245 38 66.6281412 37.3930742 64.6832618 38 62.9879796 36.5492697 62.9879796 34.7853129 62.429788 36.2626048 60.68593 36.2626048 59.0999909 38 58.4058405 36.2626048 57.8676851 36.2626048 56"></polygon>
            <polygon id="路径-66" fill="#704901" points="87.8659363 28.152592 87.8659363 29.928937 87 30.9679537 88.3561791 31.5623294 88.3561791 33 89.6879309 31.5623294 92 30.9679537 90.7760769 29.928937 90.7760769 28 89.5 28.6569104"></polygon>
            <polygon id="路径-67" fill="#9D731B" points="98.5349415 64 99.3584646 65.360674 102 65.7596411 99.8886862 67.0990934 99.3584646 69 97.9696445 67.7786926 95 67.0990934 97.4710648 66.4433594"></polygon>
            <polygon id="路径-68" fill="#AC9647" points="70.5779783 49 71.9440809 49 73 50 71.5196426 50 70 51"></polygon>
            <polygon id="路径-69" fill="#9F721B" points="69.2013647 70 68.1680398 71.3413473 67 71.900814 68.1680398 72.7144281 68.6445068 75 69.5084631 73.5635084 71 73.5635084 70.2346897 72.5 71 70.7481922 69.5084631 71.3413473"></polygon>
            <polygon id="路径-70" fill="#997217" points="53.7192939 69.3638834 55.1663159 69.8610066 56.5803849 69 57.7008099 70.3037265 59 71.3033466 57.7008099 72.6710653 56.359647 76 54.6140714 74.0476356 52 74.4894011 53.7192939 71.3033466"></polygon>
            <polygon id="路径-71" fill="#A48420" points="30.6733442 110 29.9536214 111.963991 29 112.820656 29.9536214 112.820656 29.8366721 115 31.2293359 113.589674 32.9568521 113.589674 33.3192772 112.820656 35.3109495 113.589674 36.2234872 115 37.1085463 113.589674 38 112.820656 37.4744811 111.963991 38 110 36.2234872 110.936703 35.3109495 110 35.24036 111.963991 33.7264116 111.963991 33.3192772 110.936703 31.7298218 110.936703"></polygon>
            <polygon id="路径-72" fill="#B18F3A" points="70.5663426 87 71.0118827 88.6649596 69 89.280862 71.0118827 90.0765568 71.416264 94 73.2774281 91.1626869 76 91.1626869 75.4896176 90.0765568 75.4896176 88.0697683 73.2774281 88.6649596"></polygon>
            <polygon id="路径-73" fill="#9B741E" points="47.6881409 88 49.2066735 89.6904507 51 90.2400929 49.6906796 90.7002433 49.6906796 93 48.7633472 91.7059081 47.0110773 91.7059081 47.6881409 90.5 46 89.3020727 47.6881409 89.3020727"></polygon>
            <polygon id="路径-74" fill="#9D731B" points="88.8951315 98 88.8951315 98.8181289 87 98.8181289 88.4721868 101.116012 88.8951315 103 90.0527054 102.1323 92 103 90.9896467 101.635196 91.5943021 99.2100846 90.0527054 99.2100846"></polygon>
            <polygon id="路径-75" fill="#AC8A30" points="83.4637925 93 84.9801559 94.4189084 87.0658118 93.7052748 87.0658118 95.165743 89 96.456866 85.7681279 96.456866 84.0279493 98 84.0279493 96.456866 82 95.4958206 83.1930266 94.4189084"></polygon>
            <polygon id="路径-76" fill="url(#linearGradient-12)" points="86.8118052 103 85.8785394 105.62344 82.3925878 105.62344 83.9168536 108.071747 82.3925878 109.716447 79.6826473 107.285419 76 109.057352 79.6826473 109.716447 79.0923631 111.574358 81.4868124 110.893045 83.9168536 112 84.6152285 110.420696 86.8118052 112 87.5251837 109.057352 91 106.32986 87.5251837 106.182798"></polygon>
            <polygon id="路径-77" fill="#9E7514" points="97.0670471 98 97.0670471 99.5487561 95 99.9823203 96.4827714 100.706732 97.0670471 103 97.9395699 101.236688 100 101.236688 98.8781458 100.5 99.4748642 98.82152 97.9395699 98.82152"></polygon>
            <polygon id="路径-78" fill="#8B6214" points="73.8351078 98.4275185 70 97 71.4816054 100.5 70.5067116 102.249779 73.8351078 102.249779 77.1733077 104 77.1733077 101.895161 80 99.233407 77.0560037 99.233407 75.6419369 97"></polygon>
            <polygon id="路径-79" fill="#8D660E" points="56.164785 89 56.6806774 91.416011 55 93.3600112 57.2108685 94.0254454 58.3662177 96 59.6238008 94.0254454 63 94.0254454 61.7488528 92.1614415 61.7488528 89 59 90.0476877"></polygon>
            <polygon id="路径-80" fill="#9D731D" points="32.9115178 90 32.9115178 91.623589 31 92.1641854 32.9115178 93.054642 33.4140264 95 35.0504239 93.642557 37 93.054642 35.8978284 92.5 35.8978284 90.1264027 34.0091733 91.1321613"></polygon>
            <polygon id="路径-81" fill="#75510F" points="50.9136279 126 50.6980029 130.310507 48 133.345914 53.2511075 135.773404 53.2511075 141 56.8220174 136.636353 65 138.256865 60.1495723 133.345914 60.7981653 127.203279 55.6878068 128.757296"></polygon>
            <polygon id="路径-82" fill="#B49C4A" points="81.1623926 128 80.2458054 128.84969 79 129.553362 80.0811963 130.47681 80.0811963 132 81.2033275 130.47681 84 131.29387 82.8877923 130 82.8877923 128.84969 81.9438758 128.84969"></polygon>
            <polygon id="路径-83" fill="#A97F26" points="82.8729547 151 81.9154757 152.490468 78.5089431 151.15983 80.0110398 154.711463 77 157.204472 81.4092966 157.325023 82.8729547 158 83.4728193 155.528874 87 154.009671 83.4728193 154.009671"></polygon>
            <polygon id="路径-84" fill="#B59628" points="84.4642534 114 84.2747554 115.171375 82 115.310717 83.2321267 116.394167 83.4252268 118 84.2747554 117.28315 85.9486968 117.28315 85.9486968 116.394167 87 115.310717 85.9486968 115.171375"></polygon>
            <polygon id="路径-85" fill="#926915" points="93.0249822 118 90.9165134 120.18254 89 119.618188 90.6490218 121.939647 89.2748942 124.409809 91.8513223 123.568438 93.0249822 125 93.4119536 122.839281 96 121.939647 93.4119536 120.746891"></polygon>
            <polygon id="路径-85备份" fill="#926915" transform="translate(52.738399, 112.301232) rotate(-46.000000) translate(-52.738399, -112.301232) " points="53.2929635 108.219058 51.065686 110.764632 49.0411803 110.106409 50.7831217 112.814009 49.3315643 115.695046 52.0531699 114.713726 53.2929635 116.383407 53.7017401 113.863284 56.4356187 112.814009 53.7017401 111.422855"></polygon>
            <polygon id="路径-86" fill="#885E13" points="95.1235007 111 92.8239204 112.342941 91.2405578 111 91.2405578 113.236137 90 114.406002 92.0196785 114.913796 92.8239204 117 94.3870564 114.913796 96 114.406002 95.1235007 113.236137"></polygon>
            <path d="M61.3377564,112.926039 L64.7779171,111 L67.3265187,112.926039 L72.1523544,111 L70.6305704,115.165854 L74,117.625503 L70.1080514,117.625503 L71.3802383,119.331708 L67.3265187,121.052766 L64.7779171,125 L62.6159108,121.726074 L59,121.726074 L61.9916656,119.331708 C60.3766574,118.130837 59.6491742,117.273576 59.809216,116.759926 C59.9692578,116.246275 61.1294029,115.714918 63.2896513,115.165854 L61.3377564,112.926039 Z" id="路径-87" fill="#6F4B03"></path>
            <polygon id="路径-88" fill="#B5932E" points="70.7361788 128 69.9633931 129.175856 68 129.175856 68.8526684 130.537615 68 132 69.3680894 131.228598 70.7361788 132 70.7361788 131.228598 72 130.12637 70.7361788 130"></polygon>
            <polygon id="路径-89" fill="#D0A221" points="116.870706 113 115.839183 114.852813 114 114.852813 115.839183 115.642346 115.435353 116.774981 116.870706 116.774981 117.997223 118 117.997223 115.5 120 114.174399 117.997223 114.174399"></polygon>
            <path d="M101.203674,142.299377 C98.9451752,143.606855 97.8808093,144.720142 98.0105764,145.639237 C98.1403435,146.558333 99.7062342,146.839721 102.708248,146.483402 C103.533974,148.549861 104.434582,149.343693 105.410072,148.864899 C106.385563,148.386105 107.081953,146.808427 107.499243,144.131866 C110.916586,143.605483 112.740726,143.103026 112.971663,142.624494 C113.2026,142.145963 112.021999,141.314924 109.429859,140.13138 C110.57299,138.427987 110.844337,137.409718 110.243898,137.076573 C109.64346,136.743428 108.021588,137.497341 105.378282,139.338312 C103.535214,137.830486 102.363514,137.076573 101.863181,137.076573 C101.362847,137.076573 101.143012,138.817508 101.203674,142.299377 Z" id="路径-90" fill="url(#linearGradient-13)"></path>
            <polygon id="路径-92" fill="#B3A14C" points="90.5442421 130 90.5442421 131.152135 89 131.958465 90.5442421 132.753253 89.8212452 135 91.3654873 134.706833 92.9836979 135 92.9836979 132.753253 94 131.152135 91.5832328 131.152135"></polygon>
            <polygon id="路径-93" fill="#A68123" points="100.075053 160 100.075053 161.617381 98 161.617381 99.7873408 162.749859 100.933025 165 101.954129 163.326046 104 162.749859 102.895793 161.617381 103.450539 160.585107 101.954129 160.585107"></polygon>
            <polygon id="路径-93备份" fill="#A68123" points="102.075053 171 102.075053 172.617381 100 172.617381 101.787341 173.749859 102.933025 176 103.954129 174.326046 106 173.749859 104.895793 172.617381 105.450539 171.585107 103.954129 171.585107"></polygon>
            <path d="M131.866224,169 C131.625218,169 131.625218,169.640041 131.866224,170.920122 C130.622075,171.210187 130,171.487794 130,171.752942 C130,172.018091 130.622075,172.274132 131.866224,172.521065 C131.604328,173.973063 131.604328,174.786805 131.866224,174.962288 C132.12812,175.137772 132.690452,174.700822 133.553222,173.65144 C134.937268,173.901166 135.732978,173.901166 135.940353,173.65144 C136.147729,173.401713 135.814362,172.844948 134.940252,171.981144 C135.4212,171.002861 135.542732,170.422734 135.304849,170.240763 C135.066966,170.058792 134.48309,170.285245 133.553222,170.920122 C132.669562,169.640041 132.107229,169 131.866224,169 Z" id="路径-94" fill="#9D7319"></path>
            <path d="M177.866224,173 C177.625218,173 177.625218,173.640041 177.866224,174.920122 C176.622075,175.210187 176,175.487794 176,175.752942 C176,176.018091 176.622075,176.274132 177.866224,176.521065 C177.604328,177.973063 177.604328,178.786805 177.866224,178.962288 C178.12812,179.137772 178.690452,178.700822 179.553222,177.65144 C180.937268,177.901166 181.732978,177.901166 181.940353,177.65144 C182.147729,177.401713 181.814362,176.844948 180.940252,175.981144 C181.4212,175.002861 181.542732,174.422734 181.304849,174.240763 C181.066966,174.058792 180.48309,174.285245 179.553222,174.920122 C178.669562,173.640041 178.107229,173 177.866224,173 Z" id="路径-94备份-2" fill="#CEAE69"></path>
            <path d="M125.394019,168.001077 C125.043677,168.028174 124.71962,168.558432 124.421848,169.591852 C123.60647,169.314467 123.162291,169.268433 123.089311,169.45375 C123.016332,169.639067 123.315572,170.053145 123.98703,170.695984 C123.131073,171.532698 122.831833,172.05888 123.089311,172.274531 C123.346789,172.490182 124.115025,172.356808 125.394019,171.874408 C126.352517,172.791345 126.999309,173.148061 127.334396,172.944557 C127.669483,172.741053 127.52151,172.256657 126.890478,171.491371 C127.802979,170.460018 128.152631,169.826845 127.939433,169.591852 C127.726235,169.356858 127.148883,169.310824 126.207377,169.45375 C126.01548,168.458204 125.744361,167.97398 125.394019,168.001077 Z" id="路径-94备份" fill="#513501"></path>
            <path d="M208.394019,174.001077 C208.043677,174.028174 207.71962,174.558432 207.421848,175.591852 C206.60647,175.314467 206.162291,175.268433 206.089311,175.45375 C206.016332,175.639067 206.315572,176.053145 206.98703,176.695984 C206.131073,177.532698 205.831833,178.05888 206.089311,178.274531 C206.346789,178.490182 207.115025,178.356808 208.394019,177.874408 C209.352517,178.791345 209.999309,179.148061 210.334396,178.944557 C210.669483,178.741053 210.52151,178.256657 209.890478,177.491371 C210.802979,176.460018 211.152631,175.826845 210.939433,175.591852 C210.726235,175.356858 210.148883,175.310824 209.207377,175.45375 C209.01548,174.458204 208.744361,173.97398 208.394019,174.001077 Z" id="路径-94备份-3" fill="#513501" transform="translate(208.500000, 176.500000) scale(-1, 1) translate(-208.500000, -176.500000) "></path>
            <polygon id="路径-95" fill="#A1751C" points="159.709912 151 158.033434 152.617469 155.643202 152.617469 156.783679 154.629683 155 157.213776 158.946628 157.213776 160.827653 158 161.286968 156.045229 164 154.629683 161.768969 153.518892"></polygon>
            <polygon id="路径-96" fill="#966818" points="136.021411 161 136.021411 162.748045 134 163.492655 136.565905 164.044308 137.324245 166 138.729622 164.044308 141 164.044308 139.215428 162.748045 139.215428 161 137.5 161.597245"></polygon>
            <polygon id="路径-96备份" fill="#684602" points="93.8568934 173 93.8568934 174.346296 92 174.907051 94.019592 175.802701 94.8112135 178 96.2782692 175.802701 98 175.802701 96.2782692 174.346296 96.2782692 173 95.1327972 174.346296"></polygon>
            <polygon id="路径-97" fill="url(#linearGradient-14)" points="113 146.028725 113 147.48686 114.894057 149.008997 115.630901 151.007947 114.137707 151.873563 117.053245 153.028699 117.053245 156.19836 119.328658 153.703041 122.971817 153.703041 119.328658 155.082922 119.328658 156.680961 117.985909 158.397085 122.971817 158.397085 124.476367 160 128.245258 153.703041 136 151.371617 131.162081 147.48686 131.997107 141 125.950154 146.028725 120.764806 146.028725 120.764806 151.007947 115.630901 147.660313 114.894057 146.028725"></polygon>
            <path d="M103.145586,180 L101.731411,181.814434 L100.468742,180.907217 L100.544576,183.235445 L99,185.003042 L101.072793,185.003042 L102.627066,186 L103.145586,184.243104 L105,184.243104 C103.763724,184.249822 103.145586,183.69552 103.145586,182.580199 C103.145586,181.464878 103.145586,180.604811 103.145586,180 Z" id="路径-98" fill="#966B17"></path>
            <polygon id="路径-99" fill="url(#linearGradient-15)" points="146.196923 168 147.111286 171.245177 149 173.35935 145.33435 174.525651 144.17806 179 141.552446 174.525651 137 173.840771 142.346051 171.95232 141.552446 168.589116 144.17806 169.350761"></polygon>
            <polygon id="路径-100" fill="#8C6823" points="163.655646 144.447377 165.223609 144.600486 166.618388 144 166.618388 144.966097 169 147.073816 166.618388 147.741541 165.803433 149 165.223609 147.741541 163 147.741541 164.194207 146.5"></polygon>
            <polygon id="路径-100备份" stroke="#979797" fill="#946B1C" points="155.700535 139.447377 157.375847 139.600486 158.866119 139 158.866119 139.966097 160 141.5 158.866119 142.162647 157.995369 144 157.375847 142.741541 155 142.741541 155.754659 141.256595"></polygon>
            <polygon id="路径-100备份-2" fill="#89600F" points="135.593631 148.556723 137.013287 148.693968 137.623643 148 138.276139 149.021697 140 150.178484 138.683436 151.046105 138.276139 153 137.013287 151.509573 135 151.509573 135.639496 150.178484"></polygon>
            <polygon id="路径-101" fill="#99721E" points="156.492819 149.356765 158.14585 150.099323 159.242177 149 159.242177 150.099323 161 150.834802 158.74641 152.277587 158.14585 154 157.497913 152.277587 156 151.5 156.968796 150.834802"></polygon>
            <polygon id="路径-102" fill="#846326" points="153.887022 133.212745 153.887022 138.030688 149 142.172245 153.887022 143.50822 154.666693 148 158.455051 143.50822 166 143.50822 162.767207 138.030688 163.361532 132 157.5 134.583491"></polygon>
            <polygon id="路径-103" fill="#916719" points="160.256657 160 160.256657 162.5 159 163.853924 160.914009 163.853924 162.021099 165 163.120856 163.853924 165 163.853924 163.805952 162.5 163.805952 160.701412 162.021099 161.205165"></polygon>
            <polygon id="路径-104" fill="#7F590D" points="171.232144 161 171.232144 162.308256 170 163.141293 172.002078 163.141293 173.324735 165 174.672542 163.876256 177 163.141293 175.471257 163 175.471257 161.535913 172.747556 162.308256"></polygon>
            <polygon id="路径-105" fill="#886214" points="172 158.815339 172 161.310271 172.845549 160.481199 173.881967 162 174.942903 160.481199 176 158.815339 174.942903 158.815339 174 157 173.881967 158.815339"></polygon>
            <polygon id="路径-106" fill="#9E6F1C" points="165.527193 191 165.527193 193.09982 164 194.249802 166.621291 194.249802 167.958805 196 168.480325 194.249802 171 194.249802 169.152535 193.09982 169.152535 191.592141 167.5 191.592141"></polygon>
            <polygon id="路径-107" fill="#815605" points="81.5812985 191 81.55529 192.490762 80 193.607707 81.5812985 194.444152 83.5040673 196 83.5040673 194.444152 85 193.5 83.5040673 192.490762 83.5040673 191 82.5 191.810052"></polygon>
            <polygon id="路径-108" fill="#785005" points="108.143283 163 107.44313 163.954105 105 165.33545 105.956801 166.082943 105.956801 168 107.44313 167.126188 108.974081 167.126188 108.974081 166.082943 110 163.954105 108.974081 163.954105"></polygon>
            <polygon id="路径-109" fill="#A06907" points="67.4278949 132 66.9507424 134.066705 65 136.063454 66.6988397 136.65583 67.4278949 139 68.4678935 137.42169 70.82503 139 70.2369473 135.5 72 133.824349 69.2122899 133.824349"></polygon>
            <polygon id="路径-110" fill="#684302" points="131.678445 130 131.678445 130.871478 130 131.882054 131.678445 133.064312 131.678445 135 132.622886 133.064312 135 132.589314 133.972202 131.248527 133.972202 130 132.622886 130.755615"></polygon>
            <polygon id="路径-111" fill="#9C721B" points="102.375349 118 101.61184 119.16621 99 118.583105 101.61184 120.859645 101.61184 123 102.989487 121.581263 106 123 104.608309 121.451161 106 119.810468 103.599745 119.16621"></polygon>
            <polygon id="路径-112" fill="#AC8C28" points="78.8763561 114 78.2443325 114.864115 76.1791421 114.339841 77.5277491 116.308076 76 117.369501 77.6614088 117.369501 78.8763561 119 79.5283607 116.913963 81 116.308076 79.5283607 115.452191"></polygon>
            <polygon id="路径-113" fill="#714907" points="91.8490987 163 91.6313938 165.007233 90 166.315754 91.4138139 166.622352 91.8490987 168 92.8649848 166.622352 94.697041 167.015123 93.7526515 165.811017 95 164.631507 92.8649848 164.631507"></polygon>
            <polygon id="路径-114" fill="#865C0F" points="120.049469 151.655948 121.148323 152.331607 122.226869 151 123.148897 152.331607 125 153.182241 122.524735 154.131632 121.148323 156 120.049469 154.216158 118 154.131632 119.439488 153.182241"></polygon>
            <polygon id="路径-115" fill="#92650F" points="193.02513 164 193.02513 165.469434 191 166.938868 193.02513 167.743433 193.02513 169 194.302023 166.938868 196 165.469434 194.302023 165.469434"></polygon>
            <polygon id="路径-116" fill="#B59420" points="117 156.553268 118.552943 156 120 156.872877 120 159 117 159"></polygon>
            <polygon id="路径-116备份-8" fill="#A07A1D" points="130 155.956553 130.404704 155 132.179795 155 133 155.956553 130.404704 157"></polygon>
            <polygon id="路径-116备份-2" fill="#B49624" points="126 137.5 127.057255 136 128.250906 136.872877 129 139 126 139"></polygon>
            <polygon id="路径-116备份-7" fill="#A0782B" points="120 179.935833 121.665071 178 123 179.245904 123 181 120.698115 181"></polygon>
            <polygon id="路径-116备份-15" fill="#FDE043" points="58 196.935833 59.665071 195 61 196.245904 61 198 58.6981149 198"></polygon>
            <polygon id="路径-116备份-3" fill="#A1791D" points="131 138.21235 132.666667 137 134.519833 137.542885 136 140 132.09433 140"></polygon>
            <polygon id="路径-116备份-4" fill="#B5942B" points="119 130.5 119.508142 129 121.153454 129.542885 122 131.161026 119 132"></polygon>
            <polygon id="路径-116备份-5" fill="#F0CC40" points="110 111.506166 110.471932 110 112 110.545117 112 112.172134 110.471932 113"></polygon>
            <polygon id="路径-116备份-13" fill="#A7801E" points="78 67.506166 78.7078982 66 81 66.5451169 80.0213751 68.3842416 78.7078982 69"></polygon>
            <polygon id="路径-116备份-12" fill="#B5A24D" points="76 65.6362113 76.43571 64 77.8464942 64.5921833 78 65.6362113 76.8786369 67"></polygon>
            <polygon id="路径-116备份-17" fill="#DBBF45" points="64 66.6362113 64.43571 65 65.8464942 65.5921833 66 66.6362113 64.8786369 68"></polygon>
            <polygon id="路径-116备份-9" fill="#B47E17" points="123 116.004111 123.471932 115 125 115.363411 125 116.448089 123.471932 117"></polygon>
            <polygon id="路径-116备份-10" fill="#976401" points="4 68.7696505 4.99647454 67 7 67.5291441 7 69.9050043 4.61231266 70"></polygon>
            <polygon id="路径-116备份-14" fill="#BE8218" points="13 78.5822025 13.7596104 77 15.4348106 77.8131836 16 79.2286881 14.0056465 80"></polygon>
            <polygon id="路径-116备份-20" fill="#FFE178" points="13 68.5822025 13.7596104 67 15.4348106 67.8131836 16 69.2286881 14.0056465 70"></polygon>
            <polygon id="路径-116备份-18" fill="#F0D065" points="19 105.582203 19.7596104 104 21.4348106 104.813184 22 106.228688 20.0056465 107"></polygon>
            <polygon id="路径-116备份-19" fill="#F2C853" points="39 88.1096034 40.2660173 86 43.0580177 87.0842448 44 88.9715841 40.6760775 90"></polygon>
            <polygon id="路径-116备份-16" fill="#F8C56B" points="21 84.5822025 21.7596104 83 23.4348106 83.8131836 24 85.2286881 22.0056465 86"></polygon>
            <polygon id="路径-116备份-11" fill="#895D11" points="8 54.7981929 8.76066825 53 11 53.812838 10.1712679 57 8.76066825 57"></polygon>
            <polygon id="路径-116备份-6" fill="#DAA029" points="123 127.326365 123.508142 126 125.180188 126.726084 126 127.630647 124.5 128"></polygon>
            <polygon id="路径-116备份" fill="#9E721E" points="109 176.628362 110.37278 176 112.545798 177.326749 113 179 109 178.714608"></polygon>
            <polygon id="路径-117" fill="#9F721D" points="116.65782 167 115.903609 168.582073 115 168.582073 115.903609 170.078115 116.65782 172 117.360318 170.078115 119 168.582073 117.360318 168.582073"></polygon>
            <path d="M138.22433,178.044558 C137.943935,177.816754 137.116157,178.462446 135.740996,179.981634 C134.67533,179.182529 133.946093,178.932084 133.553284,179.230299 C133.160476,179.528514 133.160476,180.332586 133.553284,181.642516 C132.361792,182.171482 131.855776,182.538301 132.035238,182.742973 C132.214699,182.947646 133.04235,182.947646 134.518191,182.742973 C134.918397,184.247658 135.325998,185 135.740996,185 C136.155994,185 136.576043,184.247658 137.001144,182.742973 C138.900565,182.946014 139.897676,182.946014 139.992476,182.742973 C140.087276,182.539933 139.286218,182.120032 137.589302,181.483271 C138.293049,179.4186 138.504725,178.272362 138.22433,178.044558 Z" id="路径-118" fill="#5C3A01"></path>
            <path d="M74.8106364,127.956087 C73.7534685,127.048912 67.8942131,144.785879 80.1486081,149.306941 C92.4030031,153.828002 99.8392323,141.479055 98.853203,141.467898 C97.8671737,141.456742 87.8460861,142.750346 83.0307598,141.155363 C78.2154336,139.56038 75.8678043,128.863262 74.8106364,127.956087 Z" id="路径-3" fill="url(#linearGradient-16)" transform="translate(85.713206, 139.112303) rotate(-5.000000) translate(-85.713206, -139.112303) "></path>
            <path d="M88.6189757,147.027232 C88.3137388,147.339683 89.1907947,150.465419 89.1907947,150.993003 C89.1907947,151.520586 86,152.129507 86,152.798427 C86,153.467347 88.9591402,154.200503 89.1907947,154.568919 C89.4224493,154.937336 89.464311,159.725192 90.2514148,159.986829 C91.0385185,160.248467 93.3956519,156.52759 93.9625882,156.328759 C94.5295244,156.129929 97.7023727,157.222772 97.9777007,156.801313 C98.2530287,156.379855 95.8878441,154.335848 95.8878441,153.682507 C95.8878441,153.029166 98.4492573,149.693276 97.5234794,148.729299 C96.5977015,147.765323 94.0548362,149.194157 92.6420545,149.194157 C91.2292729,149.194157 88.9242125,146.714781 88.6189757,147.027232 Z" id="路径-4" fill="url(#linearGradient-2)"></path>
            <polygon id="路径-123" stroke="#979797" fill="#DDA220" points="87.8151569 4 86.2973633 4.9648798 84.32054 4.4824399 84.32054 6.33275579 83 7.63030664 85.4075784 7.63030664 88.8853871 9 87.8151569 6.92562991 91 6.5 88.8853871 5.46281495"></polygon>
            <polygon id="路径-91" fill="#B59826" points="63.5787648 167 62.7429315 168.034632 61 168.034632 62.0302897 169.247362 62.0302897 171 63.5787648 170.281797 64.5519696 171 64.5519696 169.247362 66 169 64.5519696 168.034632"></polygon>
            <polygon id="路径-91备份-4" fill="#B59826" transform="translate(89.000000, 185.500000) scale(-1, 1) translate(-89.000000, -185.500000) " points="89.0945177 183 88.0915178 184.29329 86 184.29329 87.2363477 185.809203 87.2363477 188 89.0945177 187.102246 90.2623635 188 90.2623635 185.809203 92 185.5 90.2623635 184.29329"></polygon>
            <polygon id="路径-91备份-3" fill="#F6E291" points="32.0945177 120 31.0915178 121.29329 29 121.29329 30.2363477 122.809203 30.2363477 125 32.0945177 124.102246 33.2623635 125 33.2623635 122.809203 35 122.5 33.2623635 121.29329"></polygon>
            <polygon id="路径-91备份" fill="#D6B73C" points="51.5787648 167 50.7429315 168.034632 49 168.034632 50.0302897 169.247362 50.0302897 171 51.5787648 170.281797 52.5519696 171 52.5519696 169.247362 54 169 52.5519696 168.034632"></polygon>
            <polygon id="路径-91备份-2" fill="#F4D96D" transform="translate(34.500000, 130.000000) scale(-1, 1) translate(-34.500000, -130.000000) " points="34.5787648 128 33.7429315 129.034632 32 129.034632 33.0302897 130.247362 33.0302897 132 34.5787648 131.281797 35.5519696 132 35.5519696 130.247362 37 130 35.5519696 129.034632"></polygon>
            <path d="M82.3604435,10 L83.6995758,10.7303666 L85.1667505,10 L85.1667505,11.6093601 L86,12.4475981 L84.4442156,13.4109529 L83.6995758,15 C83.6157069,14.3016937 83.3788315,13.7720113 82.9889497,13.4109529 C82.5990679,13.0498945 81.9360847,12.7462435 81,12.5 L82.3604435,11.6093601 L82.3604435,10 Z" id="路径-119" fill="#DDA220"></path>
            <polygon id="路径-120" fill="#E1B83B" points="70.101209 12 71.4673496 13.3905648 73.2728121 12.6952824 73.2728121 14.3916527 75 16.2316174 72.5506045 16.2316174 71.4673496 19 70.101209 15.5 68 14.3916527 70.101209 14.3916527"></polygon>
            <polygon id="路径-120备份" fill="#FBD358" transform="translate(114.500000, 31.500000) scale(-1, 1) translate(-114.500000, -31.500000) " points="113.101209 28 114.46735 29.3905648 116.272812 28.6952824 116.272812 30.3916527 118 32.2316174 115.550604 32.2316174 114.46735 35 113.101209 31.5 111 30.3916527 113.101209 30.3916527"></polygon>
            <polygon id="路径-121" fill="#FAD459" points="101.137388 58 102.922629 58.9000019 104.647786 58 104.017926 59.6294861 106 60.5851824 103.568694 60.5851824 102.922629 63 102.273842 60.5851824 100 60.5851824 101.137388 59.6294861"></polygon>
            <polygon id="路径-121备份" fill="#FAD459" points="171.137388 140 172.922629 140.900002 174.647786 140 174.017926 141.629486 176 142.585182 173.568694 142.585182 172.922629 145 172.273842 142.585182 170 142.585182 171.137388 141.629486"></polygon>
            <polygon id="路径-121备份-2" fill="#FBD96E" transform="translate(46.000000, 189.500000) scale(-1, 1) translate(-46.000000, -189.500000) " points="44.1373885 187 45.9226293 187.900002 47.6477864 187 47.0179257 188.629486 49 189.585182 46.5686942 189.585182 45.9226293 192 45.2738422 189.585182 43 189.585182 44.1373885 188.629486"></polygon>
            <polygon id="路径-122" fill="#E7B526" points="110.332725 67 111.922678 68.8496808 114 68.8496808 113.151199 71 114 73.5707081 111.922678 73.5707081 110.332725 75 110.332725 72.1239208 107 69.9786099 110.332725 68.8496808"></polygon>
            <path d="M69.5603527,176.09813 C68.8845227,176.468613 69.1216809,177.874382 70.2718272,180.315435 C68.7572757,181.090413 68,181.687439 68,182.106514 C68,182.525589 69.35604,182.931089 72.0681201,183.323013 C73.0500039,185.107671 73.7844009,186 74.2713109,186 C74.758221,186 74.9986573,185.107671 74.99262,183.323013 C77.4222554,183.183523 78.7467561,182.883995 78.9661221,182.424429 C79.1854881,181.964863 78.3395258,181.261865 76.4282354,180.315435 C76.9203168,178.3242 76.9458679,177.162035 76.5048885,176.828939 C76.0639091,176.495843 75.0756229,176.930803 73.5400298,178.133817 C71.5627418,176.40621 70.2361828,175.727647 69.5603527,176.09813 Z" id="路径-124" fill="#906B1D"></path>
        </g>
    </g>
</svg>