<?xml version="1.0" encoding="UTF-8"?>
<svg width="837px" height="126px" viewBox="0 0 837 126" version="1.1" xmlns="http://www.w3.org/2000/svg" xmlns:xlink="http://www.w3.org/1999/xlink">
    <title>logo_full_landscape</title>
    <g id="logo_full_landscape" stroke="none" stroke-width="1" fill="none" fill-rule="evenodd">
        <g id="心燈之屋" transform="translate(665.851684, 64.749624)" fill="#000000" fill-rule="nonzero">
            <path d="M3.2385906,32.1099338 C4.94090025,29.303832 5.19424457,28.0998233 5.81593689,24.964664 C6.74887922,20.9495719 7.16456307,18.6585765 7.05973255,17.1311701 C6.95490203,15.6037638 6.67715945,15.2368302 5.1482862,15.2368302 C4.70000578,15.2368302 4.06344058,15.6323666 3.2385906,16.4234393 C3.09385554,20.805574 2.83912934,20.4782717 2.04856206,24.063549 C1.10436859,27.0165204 1.4178803,26.8411949 -1.4033219e-13,29.800189 C0.084518536,30.5164681 0.452641398,31.0592817 1.10436859,31.4286297 C1.75609578,31.7979778 2.46750311,32.0250791 3.2385906,32.1099338 Z M26.3678694,11.673039 C22.3083446,7.51442237 19.9287898,5.22326768 14.8130062,1.40609906 L12.072219,3.848689 C14.4623663,5.90494159 16.2182798,7.29805903 17.9149224,8.70457103 C19.2746563,9.83178673 21.0988395,11.5392318 23.387472,13.8269062 L26.3678694,11.673039 Z M38.7646918,29.2877562 C37.0284274,22.6275989 35.6196794,19.7287161 32.8354058,13.9564923 L29.4666679,15.6488479 C30.7810339,19.0917277 31.5047557,20.2462355 32.4884194,23.3106284 C33.5502604,26.4681894 34.4608991,27.237336 35.272693,31.27947 L38.7646918,29.2877562 Z M14.0843009,12.309057 C13.1809146,11.9688031 12.5020639,11.7986762 12.0477488,11.7986762 C11.5934336,11.7986762 10.9208132,11.9688031 10.0298874,12.309057 C10.0298874,13.6646032 10.0298874,14.8010429 10.0298874,15.7183762 L10.0298874,34.3153762 C10.0298874,37.5722953 14.623023,38.2728726 19.5810144,38.2728726 C24.9489005,38.2728726 28.6041845,37.6931287 29.6709602,35.7000171 C30.433942,34.274499 30.886739,31.4802854 31.0293513,27.3173762 C29.913319,26.6089526 29.1244224,26.2547407 28.6626616,26.2547407 C28.2009008,26.2547407 27.7383728,26.6089526 27.2750775,27.3173762 C27.2750775,30.5040212 27.104063,32.5854758 26.7620339,33.56174 C25.8840036,34.3153762 24.2308874,34.3043762 20.0598874,34.3043762 C14.8138874,34.3043762 14.0843009,34.1259938 14.0843009,32.7499938 L14.0843009,12.309057 Z" id="形状"></path>
            <path d="M68.9798981,2.02237624 C67.7343672,2.02237624 66.6529351,2.02237624 65.7356017,2.02237624 L62.1666017,2.02237624 C61.1059351,2.02237624 60.0452684,2.02237624 58.9846017,2.02237624 L58.9262155,5.23022407 C59.8245229,5.23022407 60.67501,5.23022407 61.4776766,5.23022407 L64.8623317,5.23022407 C64.2603317,6.83555741 63.6277533,8.0310282 62.9645965,8.81663645 L59.7436232,6.2949016 C58.9556083,6.7016998 58.4444428,7.0539317 58.2101266,7.35159729 C58.0361513,7.5726082 57.9348797,7.99839104 57.9063116,8.62894583 C59.2249783,9.66094583 60.4154333,10.6439933 61.4776766,11.5780882 L56.1517057,16.7293311 C56.4851933,17.4224062 56.7882543,17.9147991 57.0608886,18.2065098 C57.333523,18.4982205 57.8153963,18.845684 58.5065085,19.2489004 L63.6543219,14.2371062 L64.2573778,15.2248381 C65.2033778,15.0958381 74.4731627,15.0958381 75.1611627,15.2248381 L75.1444816,11.8979397 C74.4564816,12.0269397 71.3949354,11.8979397 69.9329354,11.8979397 C67.142015,11.9355028 65.5869115,11.9355028 65.2676247,11.8979397 C65.7957803,11.0564054 67.0332047,8.83383358 68.9798981,5.23022407 L68.9798981,2.02237624 Z M69.8788593,2.05460426 C70.2464916,4.64700753 73.3487473,9.939335 74.890846,12.3912677 C75.9189119,14.0258895 77.7798503,15.8562897 80.4736614,17.8824685 C80.9114178,18.1302536 81.3381377,18.1302536 81.7538213,17.8824685 C82.1695048,17.6346833 82.6994413,17.0115155 83.3436308,16.0129652 L79.2190611,11.9002435 L82.9124122,8.93066051 C82.5658071,8.2276408 82.2855329,7.73820894 82.0715897,7.46236494 C81.8576465,7.18652093 81.3250038,6.85960287 80.4736614,6.48161078 L76.7233817,9.42735047 L75.6883809,7.74925827 L79.7880251,4.19853211 C79.4771817,3.31605197 79.1840392,2.75416916 78.9085975,2.51288367 C78.6331559,2.27159818 78.0600431,2.11883837 77.1892592,2.05460426 C76.4787513,2.6212928 75.5788307,3.46363707 74.4894973,4.58163707 C74.260164,3.89363707 73.8406143,2.82555013 73.2308482,1.37737624 C72.4872294,0.603376243 71.9494131,0.216376243 71.6173992,0.216376243 C71.294095,0.216376243 70.7145817,0.829118915 69.8788593,2.05460426 Z M50.2188972,0.603376243 C50.2188972,1.95070958 50.2188972,3.26937624 50.2188972,4.55937624 C50.2188972,13.140588 49.5244969,23.8831075 48.8565466,27.8950111 C47.8675466,31.3780111 45.8132747,34.4824857 44.1797782,36.5098935 C44.9537782,37.1548935 46.5521632,38.8039337 46.5521632,38.8039337 C49.4736915,35.1235621 51.3650964,31.5784402 52.2263779,28.168568 L55.7609659,33.0489236 C56.5220958,32.9466918 57.0501188,32.7605213 57.3450347,32.490412 C57.6399507,32.2203028 57.9699779,31.6205979 58.3351162,30.6912972 C55.9030317,27.7573995 54.1845269,25.820873 53.1796017,24.8817176 C53.1796017,23.4704238 53.1366017,19.1302521 53.1796017,18.2702521 C56.1036781,16.3043816 56.1036781,14.7541689 58.3351162,9.93735197 C57.8447121,9.03076052 57.4170754,8.46843527 57.0522061,8.25037624 C56.789798,8.09355178 56.2765187,8.09355178 55.5123679,8.25037624 C54.7014772,10.3659917 53.9238885,12.1599917 53.1796017,13.6323762 C53.2369351,11.4537096 53.2369351,7.11070958 53.1796017,0.603376243 L50.2188972,0.603376243 Z M56.6688285,34.1973553 L56.6688285,37.2461535 L82.7952386,37.2461535 L82.7952386,34.1973553 L74.8825652,34.1973553 C75.7990547,32.1600359 76.6156328,30.2383762 77.3322995,28.4323762 C77.2287942,27.722448 77.0695422,27.3160966 76.8545437,27.2133219 C76.4047763,26.998322 75.3876965,26.9280115 73.8033044,27.0023905 C72.2932522,30.652367 71.2372261,33.0506886 70.6352261,34.1973553 L56.6688285,34.1973553 Z M46.9475105,20.2073582 C47.4981914,18.7240615 47.8900897,17.2640597 48.1232052,15.8273531 C48.5102052,13.3333531 48.7775984,12.019686 48.7775984,9.28937624 L46.1022052,9.28937624 C46.1022052,13.5504139 45.4508273,15.3187496 44.3300464,19.0475554 L46.9475105,20.2073582 Z M60.6022439,27.1892278 L79.2934835,27.1892278 L79.2934835,16.8014892 L60.6022439,16.8014892 L60.6022439,27.1892278 Z M64.1293638,20.1717991 L75.1623645,20.1717991 L75.1623645,24.3173762 L64.1293638,24.3173762 L64.1293638,20.1717991 Z M61.8345749,28.4890868 L64.4538782,34.2996843 C65.5408419,34.3215972 66.2861331,34.2555676 66.6897518,34.1015957 C67.0933705,33.9476238 67.615549,33.58942 68.2562873,33.0269844 L65.3986411,26.991907 C64.5628943,27.0008574 63.9457284,27.0956798 63.5471434,27.2763742 C63.1485584,27.4570686 62.5777022,27.8613062 61.8345749,28.4890868 Z" id="形状"></path>
            <path d="M120.983215,8.25037624 L110.48389,8.25037624 L112.252247,7.12227459 C110.618247,4.32727459 109.28824,2.408 107.26724,0 L104.396386,1.80737624 C106.546386,4.55937624 106.981816,5.62737624 108.271816,8.25037624 L91.9681593,8.25037624 C91.5400538,9.13885132 91.328905,9.80708103 91.3347126,10.2550654 C91.3405202,10.7030497 91.5690278,11.37382 92.0202354,12.2673762 L117.151316,12.2673762 C115.035103,15.1446831 112.353338,17.459049 109.736442,19.8800041 C106.291554,23.0669547 102.677812,26.2511421 97.8149022,29.2812966 C95.1131845,29.4665226 92.383316,31.359529 91.093316,32.950529 C89.502316,34.928529 89.5156955,34.8433902 88.9136955,35.5313902 L92.254316,37.7434644 C93.6925042,36.3180723 94.7125983,35.2470429 95.3145983,34.5303762 C96.5615983,33.1543762 96.9676895,32.950529 97.3976895,32.950529 C97.7416895,32.950529 99.4851377,34.2293762 99.9151377,34.5303762 C100.818138,35.2183762 103.267481,36.7674834 104.600481,37.1974834 C105.016689,37.3135858 112.3823,37.3135858 126.697316,37.1974834 C127.135347,35.9030389 127.354362,34.9187822 127.354362,34.2447133 C127.354362,33.5706443 127.135347,33.28126 126.697316,33.3765602 C124.548719,33.2955989 122.963993,33.2955989 121.943136,33.3765602 C118.362819,33.660505 115.080637,34.2447133 113.11332,34.2447133 C110.818442,34.2447133 108.695794,34.1124951 106.628572,33.5440862 C104.900646,33.0689712 103.165942,32.2857243 101.834649,31.0523203 C106.112923,28.5768745 117.214935,19.0040846 122.417935,11.9090846 C123.062935,11.0490846 123.659276,10.1893908 123.960276,9.88839082 L120.983215,8.25037624 Z" id="路径"></path>
            <path d="M168.66403,18.0195435 C169.756477,17.4244415 170.3027,16.761206 170.3027,16.029837 C170.3027,15.2984681 169.756477,14.904941 168.66403,14.8492559 L141.039559,14.8492559 L141.039559,12.2432877 C158.309206,12.1859543 167.517364,12.1859543 168.66403,12.2432877 C168.57803,11.612621 168.57803,8.24983354 168.66403,2.1549253 L136.892787,2.1549253 C136.892787,3.77176053 136.892787,5.48317815 136.892787,7.28917815 C136.892787,17.4371781 136.892787,22.4903762 136.136604,27.1738365 C135.844465,28.9832167 134.707158,32.1506791 132.724686,36.6762238 C133.561423,37.4601779 134.286025,37.9305658 134.898492,38.0873876 C135.510959,38.2442094 136.175724,38.1295683 136.892787,37.7434644 C138.340767,34.5147932 139.351424,31.6104577 139.924757,29.0304577 C140.612757,25.6764577 140.781559,22.7495435 141.039559,18.0195435 L147.85203,18.0195435 C144.912003,20.8087557 143.802605,21.4227809 142.82103,22.5000607 L142.82103,24.0383762 C144.094978,25.1216282 144.968737,25.602244 145.44231,25.4802237 C146.376468,25.2395289 147.059894,24.8929784 147.492585,24.4405724 C151.102842,24.2268247 153.850849,24.0927593 155.736608,24.0383762 C157.622367,23.9839932 160.266151,23.9839932 163.66796,24.0383762 C164.554693,24.2833202 165.428059,24.9074589 166.288059,25.9107922 C167.674289,25.8046671 168.46628,25.6611442 168.66403,25.4802237 C168.915391,25.2502553 169.032502,24.5761217 169.015364,23.4578228 C165.839375,20.4868425 164.823404,19.7666691 161.383404,17.1436691 L158.145936,18.0195435 L160.304547,21.2570607 C155.170865,21.0850607 151.457356,21.0850607 149.164023,21.2570607 C151.271023,18.8920607 151.271023,19.6559554 152.849608,18.0195435 L168.66403,18.0195435 Z M141.175945,9.33765608 L141.175945,5.30195986 L164.793313,5.30195986 L164.793313,9.33765608 L141.175945,9.33765608 Z M156.968107,27.2953762 L156.968107,23.8983762 L153.142112,23.8983762 L153.142112,27.2953762 L142.730905,27.2953762 C142.326703,28.0602962 142.124602,28.6277895 142.124602,28.9978562 C142.124602,29.3679228 142.326703,29.7890594 142.730905,30.2612658 L153.142112,30.2612658 L153.07045,34.5361802 L140.140174,34.5361802 C139.550884,35.1217291 139.25624,35.6896652 139.25624,36.2399887 C139.25624,36.7903121 139.550884,37.134108 140.140174,37.2713762 L170.984298,37.2713762 C171.096362,36.4884882 171.115039,35.9259639 171.04033,35.5838032 C170.965621,35.2416425 170.576643,34.8924348 169.873397,34.5361802 L156.896445,34.5361802 L156.968107,30.2612658 L167.751174,30.2612658 C168.042396,29.794575 168.188007,29.3734385 168.188007,28.9978562 C168.188007,28.6222739 168.042396,28.0547806 167.751174,27.2953762 L156.968107,27.2953762 Z" id="形状"></path>
        </g>
        <g id="Hrdaya-Dipa备份" transform="translate(165.093276, 30.439453)" fill="#000000">
            <polygon id="路径" fill-rule="nonzero" points="46.3330078 69.5605469 38.1445312 69.5605469 38.1445313 39.5859375 8.14648438 39.5859375 8.14648437 69.5605469 0 69.5605469 0 6 8.14648437 6 8.14648438 32.2792969 38.1445313 32.2792969 38.1445312 6 46.3330078 6"></polygon>
            <path d="M87.1157645,30.2294922 C85.9959728,29.8935547 83.3862723,30.7255859 81.2866629,30.7255859 C77.2554129,30.7255859 73.7980562,32.8391927 70.9145926,37.0664063 L70.9145926,69.5605469 L62.9780692,69.5605469 L62.9780692,23.0068359 L70.9145926,23.0068359 L70.9145926,29.2216797 C74.2459728,24.4065755 78.1092541,21.9990234 82.5044364,21.9990234 C83.6242281,21.9990234 85.8280041,22.1110026 87.1157645,22.3349609 L87.1157645,30.2294922 Z" id="路径" fill-rule="nonzero"></path>
            <circle id="椭圆形" cx="66.5" cy="81.5" r="5.5"></circle>
            <path d="M122.75692,61.7529297 L122.75692,29.5888672 C121.094768,28.4413611 108.883741,27.0238137 104.034224,34.7483456 C99.1847071,42.4728776 100.871177,41.0487402 100.871177,47.640625 C100.871177,54.2325098 103.086401,56.1193337 105.004044,58.960805 C106.921687,61.8022764 111.672155,63.3860454 122.75692,61.7529297 Z M111.033287,70.6103516 C105.213839,70.2531431 100.703209,68.538737 97.5118025,64.3955078 C94.3203962,60.2522786 91.7246931,54.6673177 91.7246931,47.640625 C91.7246931,40.3619792 93.509361,34.6020508 97.078697,30.3608398 C100.648033,26.1196289 106.134198,20.9990234 111.537193,20.9990234 C116.352297,20.9990234 121.016679,20.5324906 122.75692,21.4501953 L122.75692,0 L131.651451,0 L131.651451,67.5605469 L124.510249,69.5605469 C121.683895,70.6384237 117.191575,70.9883586 111.033287,70.6103516 Z" id="形状" fill-rule="nonzero"></path>
            <path d="M169.50745,61.8447266 L169.50745,47.9765625 L165.685242,47.9765625 C157.053512,47.9765625 151.99617,48.2576452 151.99617,56.11059 C151.99617,58.3781658 152.713504,60.3510742 154.393192,61.5688477 C156.072879,62.7866211 159.344752,63.7705749 162.200221,63.7705749 C164.803737,63.7705749 168.10771,63.8603516 169.50745,61.8447266 Z M160.072839,70.7575707 C155.649662,70.7575707 151.865848,70.4135742 149.010379,68.0200195 C146.154911,65.6264648 142.727176,60.5400391 142.727176,56.7607422 C142.727176,46.3466797 149.896586,40.1396484 157.830989,40.1396484 C163.120591,40.1396484 167.012745,40.1396484 169.50745,40.1396484 C169.50745,36.9482422 170.50745,30.1874312 162.261356,29.3711095 C157.569681,28.9066573 152.603614,29.8402458 147.363155,32.171875 L147.363155,24.4003906 C150.750805,22.1328125 155.716872,20.9990234 162.261356,20.9990234 C166.156494,20.9990234 170.280036,22.7624336 174.631982,26.2892539 C177.145364,28.4862185 178.402055,33.1030167 178.402055,40.1396484 C178.402055,47.1762802 178.402055,55.9832464 178.402055,66.5605469 C173.799287,69.3585628 167.689549,70.7575707 160.072839,70.7575707 Z" id="形状" fill-rule="nonzero"></path>
            <path d="M261.50745,61.8447266 L261.50745,47.9765625 L257.685242,47.9765625 C249.053512,47.9765625 243.99617,48.2576452 243.99617,56.11059 C243.99617,58.3781658 244.713504,60.3510742 246.393192,61.5688477 C248.072879,62.7866211 251.344752,63.7705749 254.200221,63.7705749 C256.803737,63.7705749 260.10771,63.8603516 261.50745,61.8447266 Z M252.072839,70.7575707 C247.649662,70.7575707 243.865848,70.4135742 241.010379,68.0200195 C238.154911,65.6264648 234.727176,60.5400391 234.727176,56.7607422 C234.727176,46.3466797 241.896586,40.1396484 249.830989,40.1396484 C255.120591,40.1396484 259.012745,40.1396484 261.50745,40.1396484 C261.50745,36.9482422 262.50745,30.1874312 254.261356,29.3711095 C249.569681,28.9066573 244.603614,29.8402458 239.363155,32.171875 L239.363155,24.4003906 C242.750805,22.1328125 247.716872,20.9990234 254.261356,20.9990234 C258.156494,20.9990234 262.280036,22.7624336 266.631982,26.2892539 C269.145364,28.4862185 270.402055,33.1030167 270.402055,40.1396484 C270.402055,47.1762802 270.402055,55.9832464 270.402055,66.5605469 C265.799287,69.3585628 259.689549,70.7575707 252.072839,70.7575707 Z" id="形状备份" fill-rule="nonzero"></path>
            <path d="M471.50745,61.8447266 L471.50745,47.9765625 L467.685242,47.9765625 C459.053512,47.9765625 453.99617,48.2576452 453.99617,56.11059 C453.99617,58.3781658 454.713504,60.3510742 456.393192,61.5688477 C458.072879,62.7866211 461.344752,63.7705749 464.200221,63.7705749 C466.803737,63.7705749 470.10771,63.8603516 471.50745,61.8447266 Z M462.072839,70.7575707 C457.649662,70.7575707 453.865848,70.4135742 451.010379,68.0200195 C448.154911,65.6264648 444.727176,60.5400391 444.727176,56.7607422 C444.727176,46.3466797 451.896586,40.1396484 459.830989,40.1396484 C465.120591,40.1396484 469.012745,40.1396484 471.50745,40.1396484 C471.50745,36.9482422 472.50745,30.1874312 464.261356,29.3711095 C459.569681,28.9066573 454.603614,29.8402458 449.363155,32.171875 L449.363155,24.4003906 C452.750805,22.1328125 457.716872,20.9990234 464.261356,20.9990234 C468.156494,20.9990234 472.280036,22.7624336 476.631982,26.2892539 C479.145364,28.4862185 480.402055,33.1030167 480.402055,40.1396484 C480.402055,47.1762802 480.402055,55.9832464 480.402055,66.5605469 C475.799287,69.3585628 469.689549,70.7575707 462.072839,70.7575707 Z" id="形状备份-2" fill-rule="nonzero"></path>
            <path d="M204.174972,66.5605469 L187.336105,22.0068359 L196.902511,22.0068359 L208.702316,55.8603516 L220.502121,22.0068359 L231.068527,22.0068359 L214.22966,66.5605469 C212.605962,70.8157552 211.227218,74.0981445 210.093429,76.4077148 C208.95964,78.7172852 204.786704,90.960455 203.358969,90.5685279 L194.242004,90.5685279 C195.473775,90.960455 201.683436,73.7272135 204.174972,66.5605469 Z" id="路径" fill-rule="nonzero"></path>
            <path d="M311.526172,5 L331.052539,5 C350.210452,5.70050882 360.505016,16.2622114 360.505016,37.7802734 C360.505016,59.2983355 347.43814,69.5605469 331.052539,69.5605469 L311.526172,69.5605469 L311.526172,5 Z M319.672656,62.2539062 L330.88457,62.2539062 C336.555942,62.2539062 343.211261,58.8716357 345.917354,55.873869 C348.623446,52.8761024 352.134097,45.3388672 352.134097,37.7802734 C352.134097,30.4176432 350.972391,27.5918234 349.172168,23.3535156 C347.371945,19.1152079 339.842904,13.3066406 330.88457,13.3066406 L319.672656,13.3066406 L319.672656,62.2539062 Z" id="形状" fill-rule="nonzero"></path>
            <path d="M382.440765,69.5605469 L373.504241,69.5605469 L373.504241,22.0068359 L382.440765,22.0068359 L382.440765,69.5605469 Z M390.440765,12.5664062 L364.504241,12.5664062 L364.504241,5 L390.440765,5 L390.440765,12.5664062 Z" id="形状" fill-rule="nonzero"></path>
            <path d="M414.708896,21.2754407 C420.531813,21.2754407 428.838507,25.4495075 432.029913,29.5787393 C435.221319,33.707971 436.377867,40.7680832 436.377867,47.4172598 C436.377867,54.0664364 431.423081,60.6243139 427.853745,64.8655248 C424.284409,69.1067357 411.679117,71.1171875 404.972545,71.1171875 L404.972545,89.6933594 L397.036021,89.6933594 L397.036021,25.0068359 C405.514552,22.5192391 411.40551,21.2754407 414.708896,21.2754407 Z M404.972545,62.7123736 C410.44835,64.5569476 415.513193,63.9114004 420.167072,60.7757321 C427.147892,56.0722297 427.93723,50.4460211 427.93723,44.6510993 C427.93723,39.1641201 425.259324,32.9078973 420.673147,30.6057307 C413.489692,26.9997845 406.214182,29.8169817 404.972545,31.8144531 L404.972545,62.7123736 Z" id="形状" fill-rule="nonzero"></path>
        </g>
        <circle id="椭圆形" stroke="#000000" stroke-width="3" cx="63" cy="63" r="61.5"></circle>
        <circle id="椭圆形" fill="#000000" cx="97.5" cy="28.5" r="7.5"></circle>
        <path d="M22.7607235,35.6510119 C23.9623651,25.5415568 44.3838707,15.8104751 44.3838707,38.4262122 C44.3838707,52.4488152 48.258602,50.9983799 54.2022097,50.9983799 C60.8447915,50.9983799 62.0248714,44.199703 62.0248714,40.1455206 C62.0248714,28.931619 79.8670274,22.9911333 79.8670274,42.664451 C79.8670274,62.3377686 82.1291551,77.8133521 79.2025856,94.1794679 C76.2760161,110.545584 63.9468737,106.333214 61.0847669,98.9919332 C58.2226602,91.6506524 61.6718258,80.6755701 61.0847669,71.1568487 C60.4977081,61.6381273 49.7701645,60.4103097 45.7572183,68.2328747 C41.7442722,76.0554397 45.7572183,88.5112997 42.3800786,98.9919332 C39.0029388,109.472567 27.7144181,105.727929 24.8589916,100.163279 C22.0035651,94.598629 21.5590819,45.7604671 22.7607235,35.6510119 Z" id="路径-246" fill="#000000"></path>
    </g>
</svg>