<?xml version="1.0" encoding="UTF-8"?>
<svg id="_图层_1" data-name="图层_1" xmlns="http://www.w3.org/2000/svg" version="1.1" viewBox="0 0 45.35 25.51">
  <!-- Generator: Adobe Illustrator 29.0.1, SVG Export Plug-In . SVG Version: 2.1.0 Build 192)  -->
  <defs>
    <style>
      .st0 {
        fill: #7a58a1;
      }

      .st1 {
        fill: #b7aad2;
      }

      .st2 {
        fill: #005650;
      }

      .st3 {
        fill: #fff;
      }

      .st4 {
        fill: #eeece6;
      }

      .st5 {
        fill: #2b2522;
      }
    </style>
  </defs>
  <rect class="st4" x="0" y="-.08" width="45.34" height="25.55"/>
  <g>
    <path class="st0" d="M1.3,11.4c-.31-.19-.84.18-.82.45s.2.51.38.73c-.21-.04-.43-.09-.64-.03s-.39.26-.35.47c.05.28.19.47.47.5.31.03.82-.05,1.13-.02-.53.19-1.2.29-1.44.8-.05.1,0,.37.07.46.04.06.18.18.25.19.3.07.57-.1.8-.3,0,.19-.09.37-.08.56s.45.6.69-.01c.19-.49.29-.75.29-1.43-.04.58.02,1.16.19,1.72.03.1.07.22.16.28.16.11.39,0,.48-.16s.09-.37.08-.56c.09.17.24.27.43.25.23-.03.51-.14.51-.39,0-.7-.75-1.05-1.17-1.48.26.18.96.54,1.46.59.31.03.48-.11.55-.46.06-.31-.18-.62-.63-.61.19,0,.44-.16.46-.35.02-.26-.13-.5-.22-.59-.55-.54-1.19.47-1.79.93.46-.37.74-.66.98-1.19.08-.17.12-.45,0-.61-.09-.13-.28-.17-.43-.13s-.29.13-.42.23c.03-.22-.36-.39-.58-.34-.3.07-.3.3-.3.58,0,.46.06.85.16,1.3,0,0-.22-1.11-.68-1.39Z"/>
    <path class="st3" d="M1.83,13.13c.06.06.12.12.14.2s-.12.2-.1.2c0,0,.15-.06.29-.01.14.05.28.2.28.2,0,0-.06-.22-.02-.32s.23-.22.23-.22c0,0-.21,0-.28-.08s-.1-.18-.07-.28c0,0-.19.32-.48.3Z"/>
    <path class="st5" d="M2.23,13.22s.04.02.05.04c0,.02,0,.05,0,.07-.01.03-.05.03-.08.02s-.04-.04-.04-.07.03-.06.08-.06Z"/>
  </g>
  <g>
    <path class="st0" d="M6.26,14.99c-.18-.36-.36-1.05-.25-1.43.08-.27.67-.39.8-.13.05.1.03.35.03.35,0,0,.18-.28.31-.33.36-.16.81.35.67.65-.16.34-.49.79-.91.98.42-.24.96-.46,1.43-.38.09.01.19.07.22.19.02.07.04.32-.02.46s-.22.17-.22.17c0,0,.19.01.28.05.17.08.27.37.19.53-.02.03-.18.46-.41.51-.35.08-.86-.23-1.11-.49.12.28.51.27.49.94-.01.24-.32.51-.58.52-.23.01-.35-.13-.43-.33,0-.01-.02-.01-.03,0-.02.15-.02.17-.05.31-.03.16-.25.29-.41.27-.16-.02-.32-.16-.34-.32-.07-.41-.02-.59.1-.97,0-.01-.19.26-.46.42-.31.19-.74.12-.85-.02-.1-.13-.05-.36-.04-.41,0,0,0,0,0-.01-.02-.01-.07-.06-.17-.09-.14-.05-.27-.16-.27-.31,0-.46.56-.58.78-.62.33-.06.6.05.59.04,0,0-.6.03-.97-.17-.57-.31-.22-.74-.18-.81.1-.16.31-.23.49-.17,0,0,.02,0,.02-.01-.05-.25-.05-.57.27-.62.17-.02.33.04.44.17.25.29.45.7.61,1.05"/>
    <path class="st3" d="M6.4,15.81c.1.04.21.25.21.25,0,0,.01-.2.06-.3s.34-.2.34-.2c0,0-.27-.03-.34-.09-.04-.03-.07-.24-.07-.24,0,0-.09.1-.17.13-.07.03-.23-.05-.23-.05,0,0,.08.19.06.24-.03.08-.18.2-.18.2,0,0,.19,0,.32.05Z"/>
    <path class="st5" d="M6.43,15.63s.06.04.09.03.04-.06.02-.09-.06-.04-.09-.02c0,0-.05.02-.01.08Z"/>
  </g>
  <g>
    <path class="st0" d="M2.53,17.91c-.12-.15-.78-.69-.88-1.14-.06-.28.21-.68.66-.66.34.01.42.42.47.5.06-.39.17-.68.61-.67.2,0,.57.13.47.72-.07.45-.3.8-.39,1.05.19-.3.43-.56.71-.78.1-.08.21-.15.34-.17.19-.03.39.08.47.25s.03.4-.12.52c.24-.11.6.29.56.56s-.37.34-.63.4-.53.05-.8.06c.36-.03.72.07,1.02.26.16.1.31.26.3.44-.01.17-.16.42-.33.47s-.35-.09-.52-.12c.34.35.02.7-.11.76s-.29.02-.42-.05c-.37-.18-.48-.78-.61-1.17-.07.37-.12.79-.33,1.2-.1.19-.41.33-.62.34-.17,0-.32-.13-.39-.28s-.07-.33-.07-.5c0,.16-.8.16-.6-.42.15-.44.69-.64,1.07-.85-.25.16-1.05.26-1.46.23-.25-.02-.39-.42-.38-.52.01-.2.35-.26.47-.31-.13-.15-.21-.53-.05-.64s.37-.07.55,0c.3.11,1.01.51,1.01.51Z"/>
    <path class="st3" d="M3.46,17.89c-.02.1-.06.22-.02.31s.26.18.26.18c0,0-.21,0-.34.07s-.17.28-.17.28c0,0-.02-.19-.11-.31-.06-.07-.32-.11-.32-.11,0,0,.25-.13.27-.18.05-.11.01-.24.01-.24,0,0,.14.12.18.13.08.02.21-.07.23-.13Z"/>
    <path class="st5" d="M3.16,18.26s.01.07.05.08c.01,0,.03,0,.04,0,.03-.02.05-.06.03-.1,0-.02-.05-.04-.08-.03-.02,0-.04.05-.04.06Z"/>
  </g>
  <g>
    <path class="st0" d="M7.08,19.58c.24-.19.59-.06.78.25.13.23-.07.53-.13.58.08,0,.45-.19.66-.04s.37.99-.23,1.04c-.49.04-.64.07-1.13.07.53.1.9.09,1.24.5.12.15.06.45-.05.61-.15.22-.48.12-.72,0,.13.18.28.25.22.49-.02.09-.41.45-.74.22-.29-.2-.52-.96-.61-1.17.18.54.25.65.29,1.07.03.4-.32.53-.56.52-.22,0-.3-.3-.3-.53-.03.13-.19.34-.41.35-.24.01-.53-.22-.58-.37-.18-.49.47-.89.82-1.23-.34.26-.84.43-1.27.5-.51.08-.59-.43-.55-.63s.25-.36.46-.35c-.57-.13-.32-.81-.1-.84.47-.08,1.15.27,1.53.55-.31-.32-.94-.67-.99-1.1-.04-.32.23-.49.45-.56s.54.32.54.32c0,0-.17-.44.02-.6.14-.11.71-.25.79.28.11.67.06.85.06,1.36,0,0,.08-.96.51-1.3Z"/>
    <path class="st3" d="M5.86,21.37s.15.06.23.18.05.27.05.27c0,0,.05-.1.2-.12s.29.09.29.09c0,0-.04-.19-.05-.29s.13-.19.13-.19c0,0-.23-.02-.28-.07-.07-.06-.12-.23-.12-.23,0,0-.06.21-.16.3s-.27.05-.27.05Z"/>
    <path class="st5" d="M6.26,21.47s.03.06.06.07c0,0,.02,0,.02,0,0,0,.02,0,.03-.01.05-.04.07-.12.02-.15-.02-.01-.08-.02-.11,0-.02.02-.02.06-.02.08Z"/>
  </g>
  <g>
    <path class="st0" d="M8.22,9.69c.17-.26.54-.25.82,0,.2.17.11.53.06.6.08-.03.37-.32.61-.25s.66.82.11,1.06c-.45.2-.58.27-1.05.42.54-.08.88-.2,1.34.08.16.1.2.4.15.59-.07.25-.42.27-.68.23.18.13.34.15.37.4.01.09-.25.55-.63.45-.34-.09-.8-.74-.95-.91.34.46.44.53.61.92.16.37-.13.6-.37.67-.22.06-.38-.19-.45-.4.01.13-.07.38-.28.46-.23.09-.57-.04-.67-.17-.33-.41.16-1,.39-1.43-.25.35-.67.67-1.04.87-.46.24-.7-.21-.72-.42s.13-.43.33-.48c-.58.05-.56-.67-.37-.77.42-.22,1.17-.11,1.63.03-.39-.2-1.1-.33-1.29-.73-.14-.29.06-.54.25-.67s.61.13.61.13c0,0-.3-.37-.17-.58.1-.15.59-.46.84.02.32.6.32.79.49,1.27,0,0-.22-.94.07-1.39Z"/>
    <path class="st3" d="M7.64,11.78s.16,0,.27.1.13.24.13.24c0,0,.02-.11.15-.17s.31,0,.31,0c0,0-.1-.16-.14-.26s.06-.22.06-.22c0,0-.23.05-.29.03-.08-.04-.19-.18-.19-.18,0,0,0,.22-.06.34s-.24.13-.24.13Z"/>
    <path class="st5" d="M8.04,11.74s.05.05.08.05c0,0,.02,0,.02,0,0,0,.02-.01.02-.02.04-.05.03-.13-.03-.15-.02,0-.09.01-.1.04-.01.02,0,.07,0,.08Z"/>
  </g>
  <g>
    <path class="st0" d="M18.12,16.97c.17-.26.54-.25.82,0,.2.17.11.53.06.6.08-.03.37-.32.61-.25s.66.82.11,1.06c-.45.2-.58.27-1.05.42.54-.08.88-.2,1.34.08.16.1.2.4.15.59-.07.25-.42.27-.68.23.18.13.34.15.37.4.01.09-.25.55-.63.45-.34-.09-.8-.74-.95-.91.34.46.44.53.61.92.16.37-.13.6-.37.67-.22.06-.38-.19-.45-.4.01.13-.07.38-.28.46-.23.09-.57-.04-.67-.17-.33-.41.16-1,.39-1.43-.25.35-.67.67-1.04.87-.46.24-.7-.21-.72-.42s.13-.43.33-.48c-.58.05-.56-.67-.37-.77.42-.22,1.17-.11,1.63.03-.39-.2-1.1-.33-1.29-.73-.14-.29.06-.54.25-.67s.61.13.61.13c0,0-.3-.37-.17-.58.1-.15.59-.46.84.02.32.6.32.79.49,1.27,0,0-.22-.94.07-1.39Z"/>
    <path class="st3" d="M17.54,19.05s.16,0,.27.1.13.24.13.24c0,0,.02-.11.15-.17s.31,0,.31,0c0,0-.1-.16-.14-.26s.06-.22.06-.22c0,0-.23.05-.29.03-.08-.04-.19-.18-.19-.18,0,0,0,.22-.06.34s-.24.13-.24.13Z"/>
    <path class="st5" d="M17.95,19.02s.05.05.08.05c0,0,.02,0,.02,0,0,0,.02-.01.02-.02.04-.05.03-.13-.03-.15-.02,0-.09.01-.1.04-.01.02,0,.07,0,.08Z"/>
  </g>
  <g>
    <path class="st0" d="M8.56,17.61c-.23-.35-.59-1-.51-1.41s.59-.39.7-.28c.13.14.14.29.14.29,0,0,.07-.36.25-.46s.83.01.71.5c-.09.39-.45,1.02-.73,1.3.27-.35.63-.8,1.04-.97.61-.24,1.04.54.39.77.11,0,.33-.11.51.01.27.19.41.82.04.95-.18.06-.49.09-.8.07-.39-.03-.72-.15-.81-.18.4.18.64.21.94.53.19.2.16.33-.02.61-.06.1-.36.17-.43.08.11.17-.17.47-.36.42s-.33-.19-.4-.37c-.11-.28-.12-.49-.17-.78.06.4.09.51.02.79s-.16.42-.43.51c-.03.01-.42-.07-.52-.24-.08-.13.07-.36.07-.36,0,0-.13.19-.27.18s-.73-.31-.46-.76c.17-.29.58-.44.86-.64-.58.4-1.3.48-1.54.27s-.22-.65-.02-.8c.12-.09.26-.13.41-.12-.16-.14-.16-.37-.09-.57.06-.18.25-.32.45-.33.34-.02.53.27.58.33.18.2.46.67.46.67Z"/>
    <path class="st3" d="M8.3,17.79s.27.07.36.17c.1.11.05.35.05.35,0,0,.13-.17.26-.18.11,0,.28.11.28.11,0,0-.09-.19-.1-.29s.17-.23.17-.23c0,0-.2.07-.29.01-.09-.06-.09-.3-.09-.3,0,0-.09.18-.22.26-.15.09-.43.09-.43.09Z"/>
    <path class="st5" d="M8.89,17.84s-.03,0-.05,0-.02.03-.02.05c0,.01,0,.03,0,.04,0,.03.05.05.08.04s.05-.05.05-.08-.04-.06-.07-.07c0,0-.02,0-.03,0s-.02.01-.02.02"/>
  </g>
  <g>
    <path class="st0" d="M2.36,1.73c-.23-.35-.59-1-.51-1.41S2.45-.07,2.56.04c.13.14.14.29.14.29,0,0,.07-.36.25-.46s.83.01.71.5c-.09.39-.45,1.02-.73,1.3.27-.35.63-.8,1.04-.97.61-.24,1.04.54.39.77.11,0,.33-.11.51.01.27.19.41.82.04.95-.18.06-.49.09-.8.07-.39-.03-.72-.15-.81-.18.4.18.64.21.94.53.19.2.16.33-.02.61-.06.1-.36.17-.43.08.11.17-.17.47-.36.42s-.33-.19-.4-.37c-.11-.28-.12-.49-.17-.78.06.4.09.51.02.79s-.16.42-.43.51c-.03.01-.42-.07-.52-.24-.08-.13.07-.36.07-.36,0,0-.13.19-.27.18s-.73-.31-.46-.76c.17-.29.58-.44.86-.64-.58.4-1.3.48-1.54.27s-.22-.65-.02-.8c.12-.09.26-.13.41-.12-.16-.14-.16-.37-.09-.57.06-.18.25-.32.45-.33.34-.02.53.27.58.33.18.2.46.67.46.67Z"/>
    <path class="st3" d="M2.11,1.92s.27.07.36.17c.1.11.05.35.05.35,0,0,.13-.17.26-.18.11,0,.28.11.28.11,0,0-.09-.19-.1-.29s.17-.23.17-.23c0,0-.2.07-.29.01-.09-.06-.09-.3-.09-.3,0,0-.09.18-.22.26-.15.09-.43.09-.43.09Z"/>
    <path class="st5" d="M2.7,1.97s-.03,0-.05,0-.02.03-.02.05c0,.01,0,.03,0,.04,0,.03.05.05.08.04s.05-.05.05-.08-.04-.06-.07-.07c0,0-.02,0-.03,0s-.02.01-.02.02"/>
  </g>
  <path class="st0" d="M6.93,7.25c0-.07-.12-.24-.19-.26-.03,0-.18-.14-.26-.02-.1-.13-.28-.19-.44-.14-.28.09-.36.44-.35.73,0,.2.04.39.09.58h0s.1.42,0,.71-.17.57-.17.57c0,0,0,.09.11.05.03-.01.07-.09.11-.2.17-.2.47-.69.57-.8.08-.09.18-.3.25-.4.12-.2.29-.57.27-.8Z"/>
  <path class="st0" d="M5.04,7.07c0-.24.06-.37,0-.73-.07-.49-.17-.7-.45-.92-.03-.03-.08-.04-.12-.03-.15.04-.08.12-.2.16-.08.03-.15.01-.15.01,0,0-.1-.03-.17.09h0s-.44.15-.08.76c.33.55.67.64.84.83.01.02.03.03.04.05.01.02.02.03.03.04.18.26.28.61.3.64.06.08.17-.03.17-.03,0,0-.2-.52-.21-.88Z"/>
  <g>
    <path class="st1" d="M15.05,23.86s0-.22-.15-.21c.04-.16-.03-.34-.17-.43-.24-.16-.57,0-.79.19-.15.13-.28.28-.39.44h0s-.26.35-.54.45c-.28.1-.54.23-.54.23,0,0-.07.06.03.11.03.01.11,0,.23-.04.26,0,.83-.08.98-.07.12,0,.34-.05.47-.07.23-.04.62-.14.79-.3.05-.05.1-.25.08-.31Z"/>
    <path class="st1" d="M12.8,22.33c.18-.16.32-.19.57-.46.33-.37.43-.58.43-.94,0-.04-.02-.09-.06-.11-.12-.09-.14.02-.25-.05-.07-.04-.1-.11-.1-.11,0,0-.04-.09-.18-.07h0s-.4-.24-.64.42c-.22.6-.07.92-.11,1.18,0,.02,0,.04-.01.07,0,.02,0,.03-.01.04-.09.31-.29.6-.3.64-.02.1.13.11.13.11,0,0,.27-.48.54-.72Z"/>
  </g>
  <g>
    <path class="st1" d="M12.74,1.97c-.31-.19-.84.18-.82.45s.2.51.38.73c-.21-.04-.43-.09-.64-.03s-.39.26-.35.47c.05.28.19.47.47.5.31.03.82-.05,1.13-.02-.53.19-1.2.29-1.44.8-.05.1,0,.37.07.46.04.06.18.18.25.19.3.07.57-.1.8-.3,0,.19-.09.37-.08.56s.45.6.69-.01c.19-.49.29-.75.29-1.43-.04.58.02,1.16.19,1.72.03.1.07.22.16.28.16.11.39,0,.48-.16s.09-.37.08-.56c.09.17.24.27.43.25.23-.03.51-.14.51-.39,0-.7-.75-1.05-1.17-1.48.26.18.96.54,1.46.59.31.03.48-.11.55-.46.06-.31-.18-.62-.63-.61.19,0,.44-.16.46-.35.02-.26-.13-.5-.22-.59-.55-.54-1.19.47-1.79.93.46-.37.74-.66.98-1.19.08-.17.12-.45,0-.61-.09-.13-.28-.17-.43-.13s-.29.13-.42.23c.03-.22-.36-.39-.58-.34-.3.07-.3.3-.3.58,0,.46.06.85.16,1.3,0,0-.22-1.11-.68-1.39Z"/>
    <path class="st3" d="M13.27,3.71c.06.06.12.12.14.2s-.12.2-.1.2c0,0,.15-.06.29-.01.14.05.28.2.28.2,0,0-.06-.22-.02-.32s.23-.22.23-.22c0,0-.21,0-.28-.08s-.1-.18-.07-.28c0,0-.19.32-.48.3Z"/>
    <path class="st5" d="M13.67,3.79s.04.02.05.04c0,.02,0,.05,0,.07-.01.03-.05.03-.08.02s-.04-.04-.04-.07.03-.06.08-.06Z"/>
  </g>
  <g>
    <path class="st1" d="M18,5.49c-.18-.36-.36-1.05-.25-1.43.08-.27.67-.39.8-.13.05.1.03.35.03.35,0,0,.18-.28.31-.33.36-.16.81.35.67.65-.16.34-.49.79-.91.98.42-.24.96-.46,1.43-.38.09.01.19.07.22.19.02.07.04.32-.02.46s-.22.17-.22.17c0,0,.19.01.28.05.17.08.27.37.19.53-.02.03-.18.46-.41.51-.35.08-.86-.23-1.11-.49.12.28.51.27.49.94-.01.24-.32.51-.58.52-.23.01-.35-.13-.43-.33,0-.01-.02-.01-.03,0-.02.15-.02.17-.05.31-.03.16-.25.29-.41.27-.16-.02-.32-.16-.34-.32-.07-.41-.02-.59.1-.97,0-.01-.19.26-.46.42-.31.19-.74.12-.85-.02-.1-.13-.05-.36-.04-.41,0,0,0,0,0-.01-.02-.01-.07-.06-.17-.09-.14-.05-.27-.16-.27-.31,0-.46.56-.58.78-.62.33-.06.6.05.59.04,0,0-.6.03-.97-.17-.57-.31-.22-.74-.18-.81.1-.16.31-.23.49-.17,0,0,.02,0,.02-.01-.05-.25-.05-.57.27-.62.17-.02.33.04.44.17.25.29.45.7.61,1.05"/>
    <path class="st3" d="M18.15,6.31c.1.04.21.25.21.25,0,0,.01-.2.06-.3s.34-.2.34-.2c0,0-.27-.03-.34-.09-.04-.03-.07-.24-.07-.24,0,0-.09.1-.17.13-.07.03-.23-.05-.23-.05,0,0,.08.19.06.24-.03.08-.18.2-.18.2,0,0,.19,0,.32.05Z"/>
    <path class="st5" d="M18.17,6.13s.06.04.09.03.04-.06.02-.09-.06-.04-.09-.02c0,0-.05.02-.01.08Z"/>
  </g>
  <g>
    <path class="st1" d="M13.62,7.86c-.12-.15-.78-.69-.88-1.14-.06-.28.21-.68.66-.66.34.01.42.42.47.5.06-.39.17-.68.61-.67.2,0,.57.13.47.72-.07.45-.3.8-.39,1.05.19-.3.43-.56.71-.78.1-.08.21-.15.34-.17.19-.03.39.08.47.25s.03.4-.12.52c.24-.11.6.29.56.56s-.37.34-.63.4-.53.05-.8.06c.36-.03.72.07,1.02.26.16.1.31.26.3.44-.01.17-.16.42-.33.47s-.35-.09-.52-.12c.34.35.02.7-.11.76s-.29.02-.42-.05c-.37-.18-.48-.78-.61-1.17-.07.37-.12.79-.33,1.2-.1.19-.41.33-.62.34-.17,0-.32-.13-.39-.28s-.07-.33-.07-.5c0,.16-.8.16-.6-.42.15-.44.69-.64,1.07-.85-.25.16-1.05.26-1.46.23-.25-.02-.39-.42-.38-.52.01-.2.35-.26.47-.31-.13-.15-.21-.53-.05-.64s.37-.07.55,0c.3.11,1.01.51,1.01.51Z"/>
    <path class="st3" d="M14.55,7.84c-.02.1-.06.22-.02.31s.26.18.26.18c0,0-.21,0-.34.07s-.17.28-.17.28c0,0-.02-.19-.11-.31-.06-.07-.32-.11-.32-.11,0,0,.25-.13.27-.18.05-.11.01-.24.01-.24,0,0,.14.12.18.13.08.02.21-.07.23-.13Z"/>
    <path class="st5" d="M14.25,8.21s.01.07.05.08c.01,0,.03,0,.04,0,.03-.02.05-.06.03-.1,0-.02-.05-.04-.08-.03-.02,0-.04.05-.04.06Z"/>
  </g>
  <g>
    <path class="st1" d="M14.55,10.74c.24-.19.59-.06.78.25.13.23-.07.53-.13.58.08,0,.45-.19.66-.04s.37.99-.23,1.04c-.49.04-.64.07-1.13.07.53.1.9.09,1.24.5.12.15.06.45-.05.61-.15.22-.48.12-.72,0,.13.18.28.25.22.49-.02.09-.41.45-.74.22-.29-.2-.52-.96-.61-1.17.18.54.25.65.29,1.07.03.4-.32.53-.56.52-.22,0-.3-.3-.3-.53-.03.13-.19.34-.41.35-.24.01-.53-.22-.58-.37-.18-.49.47-.89.82-1.23-.34.26-.84.43-1.27.5-.51.08-.59-.43-.55-.63s.25-.36.46-.35c-.57-.13-.32-.81-.1-.84.47-.08,1.15.27,1.53.55-.31-.32-.94-.67-.99-1.1-.04-.32.23-.49.45-.56s.54.32.54.32c0,0-.17-.44.02-.6.14-.11.71-.25.79.28.11.67.06.85.06,1.36,0,0,.08-.96.51-1.3Z"/>
    <path class="st3" d="M13.33,12.53s.15.06.23.18.05.27.05.27c0,0,.05-.1.2-.12s.29.09.29.09c0,0-.04-.19-.05-.29s.13-.19.13-.19c0,0-.23-.02-.28-.07-.07-.06-.12-.23-.12-.23,0,0-.06.21-.16.3s-.27.05-.27.05Z"/>
    <path class="st5" d="M13.73,12.62s.03.06.06.07c0,0,.02,0,.02,0,0,0,.02,0,.03-.01.05-.04.07-.12.02-.15-.02-.01-.08-.02-.11,0-.02.02-.02.06-.02.08Z"/>
  </g>
  <g>
    <path class="st1" d="M10.53,5.09c.17-.26.54-.25.82,0,.2.17.11.53.06.6.08-.03.37-.32.61-.25s.66.82.11,1.06c-.45.2-.58.27-1.05.42.54-.08.88-.2,1.34.08.16.1.2.4.15.59-.07.25-.42.27-.68.23.18.13.34.15.37.4.01.09-.25.55-.63.45-.34-.09-.8-.74-.95-.91.34.46.44.53.61.92.16.37-.13.6-.37.67-.22.06-.38-.19-.45-.4.01.13-.07.38-.28.46-.23.09-.57-.04-.67-.17-.33-.41.16-1,.39-1.43-.25.35-.67.67-1.04.87-.46.24-.7-.21-.72-.42s.13-.43.33-.48c-.58.05-.56-.67-.37-.77.42-.22,1.17-.11,1.63.03-.39-.2-1.1-.33-1.29-.73-.14-.29.06-.54.25-.67s.61.13.61.13c0,0-.3-.37-.17-.58.1-.15.59-.46.84.02.32.6.32.79.49,1.27,0,0-.22-.94.07-1.39Z"/>
    <path class="st3" d="M9.94,7.17s.16,0,.27.1.13.24.13.24c0,0,.02-.11.15-.17s.31,0,.31,0c0,0-.1-.16-.14-.26s.06-.22.06-.22c0,0-.23.05-.29.03-.08-.04-.19-.18-.19-.18,0,0,0,.22-.06.34s-.24.13-.24.13Z"/>
    <path class="st5" d="M10.35,7.14s.05.05.08.05c0,0,.02,0,.02,0,0,0,.02-.01.02-.02.04-.05.03-.13-.03-.15-.02,0-.09.01-.1.04-.01.02,0,.07,0,.08Z"/>
  </g>
  <g>
    <path class="st1" d="M17.33,1.84c-.23-.35-.59-1-.51-1.41s.59-.39.7-.28c.13.14.14.29.14.29,0,0,.07-.36.25-.46s.83.01.71.5c-.09.39-.45,1.02-.73,1.3.27-.35.63-.8,1.04-.97.61-.24,1.04.54.39.77.11,0,.33-.11.51.01.27.19.41.82.04.95-.18.06-.49.09-.8.07-.39-.03-.72-.15-.81-.18.4.18.64.21.94.53.19.2.16.33-.02.61-.06.1-.36.17-.43.08.11.17-.17.47-.36.42s-.33-.19-.4-.37c-.11-.28-.12-.49-.17-.78.06.4.09.51.02.79s-.16.42-.43.51c-.03.01-.42-.07-.52-.24-.08-.13.07-.36.07-.36,0,0-.13.19-.27.18s-.73-.31-.46-.76c.17-.29.58-.44.86-.64-.58.4-1.3.48-1.54.27s-.22-.65-.02-.8c.12-.09.26-.13.41-.12-.16-.14-.16-.37-.09-.57.06-.18.25-.32.45-.33.34-.02.53.27.58.33.18.2.46.67.46.67Z"/>
    <path class="st3" d="M17.07,2.03s.27.07.36.17c.1.11.05.35.05.35,0,0,.13-.17.26-.18.11,0,.28.11.28.11,0,0-.09-.19-.1-.29s.17-.23.17-.23c0,0-.2.07-.29.01-.09-.06-.09-.3-.09-.3,0,0-.09.18-.22.26-.15.09-.43.09-.43.09Z"/>
    <path class="st5" d="M17.66,2.08s-.03,0-.05,0-.02.03-.02.05c0,.01,0,.03,0,.04,0,.03.05.05.08.04s.05-.05.05-.08-.04-.06-.07-.07c0,0-.02,0-.03,0s-.02.01-.02.02"/>
  </g>
  <path class="st2" d="M16.27,11.93c.56-.58,1.19-1.1,1.88-1.54.31-.2.64-.39.91-.65-.59.73-1.45,1.18-2.2,1.75-.16.12-.32.25-.41.43-.06.13-.06.15.04.2.16.09.41.11.59.16l1.11.31s-.22-.43-.22-.82c.62.18,1.32.03,1.81-.38-.33.12-.73.02-.96-.25.53.04,1.08-.22,1.38-.66-.18.02-.37-.03-.52-.13.46-.18.86-.5,1.15-.91-.2.09-.43.08-.63,0,.38-.42.66-.92.82-1.45-.43.35-.88.67-1.35.96.03-.19.05-.38.08-.57-.27.23-.53.47-.8.7-.08-.23-.12-.48-.13-.72-.24.37-.48.73-.72,1.1-.23-.13-.38-.37-.4-.63-.29.32-.48.72-.53,1.15-.21-.14-.39-.34-.51-.56-.08.36-.09.73-.03,1.1-.22-.01-.43-.11-.57-.28.02.44.21,1.69.21,1.69Z"/>
  <g>
    <path class="st1" d="M33.09,12.78c-.31-.19-.84.18-.82.45s.2.51.38.73c-.21-.04-.43-.09-.64-.03s-.39.26-.35.47c.05.28.19.47.47.5.31.03.82-.05,1.13-.02-.53.19-1.2.29-1.44.8-.05.1,0,.37.07.46.04.06.18.18.25.19.3.07.57-.1.8-.3,0,.19-.09.37-.08.56s.45.6.69-.01c.19-.49.29-.75.29-1.43-.04.58.02,1.16.19,1.72.03.1.07.22.16.28.16.11.39,0,.48-.16s.09-.37.08-.56c.09.17.24.27.43.25.23-.03.51-.14.51-.39,0-.7-.75-1.05-1.17-1.48.26.18.96.54,1.46.59.31.03.48-.11.55-.46.06-.31-.18-.62-.63-.61.19,0,.44-.16.46-.35.02-.26-.13-.5-.22-.59-.55-.54-1.19.47-1.79.93.46-.37.74-.66.98-1.19.08-.17.12-.45,0-.61-.09-.13-.28-.17-.43-.13s-.29.13-.42.23c.03-.22-.36-.39-.58-.34-.3.07-.3.3-.3.58,0,.46.06.85.16,1.3,0,0-.22-1.11-.68-1.39Z"/>
    <path class="st3" d="M33.62,14.52c.06.06.12.12.14.2s-.12.2-.1.2c0,0,.15-.06.29-.01.14.05.28.2.28.2,0,0-.06-.22-.02-.32s.23-.22.23-.22c0,0-.21,0-.28-.08s-.1-.18-.07-.28c0,0-.19.32-.48.3Z"/>
    <path class="st5" d="M34.02,14.6s.04.02.05.04c0,.02,0,.05,0,.07-.01.03-.05.03-.08.02s-.04-.04-.04-.07.03-.06.08-.06Z"/>
  </g>
  <g>
    <path class="st1" d="M37.06,16.35c-.18-.36-.36-1.05-.25-1.43.08-.27.67-.39.8-.13.05.1.03.35.03.35,0,0,.18-.28.31-.33.36-.16.81.35.67.65-.16.34-.49.79-.91.98.42-.24.96-.46,1.43-.38.09.01.19.07.22.19.02.07.04.32-.02.46s-.22.17-.22.17c0,0,.19.01.28.05.17.08.27.37.19.53-.02.03-.18.46-.41.51-.35.08-.86-.23-1.11-.49.12.28.51.27.49.94-.01.24-.32.51-.58.52-.23.01-.35-.13-.43-.33,0-.01-.02-.01-.03,0-.02.15-.02.17-.05.31-.03.16-.25.29-.41.27-.16-.02-.32-.16-.34-.32-.07-.41-.02-.59.1-.97,0-.01-.19.26-.46.42-.31.19-.74.12-.85-.02-.1-.13-.05-.36-.04-.41,0,0,0,0,0-.01-.02-.01-.07-.06-.17-.09-.14-.05-.27-.16-.27-.31,0-.46.56-.58.78-.62.33-.06.6.05.59.04,0,0-.6.03-.97-.17-.57-.31-.22-.74-.18-.81.1-.16.31-.23.49-.17,0,0,.02,0,.02-.01-.05-.25-.05-.57.27-.62.17-.02.33.04.44.17.25.29.45.7.61,1.05"/>
    <path class="st3" d="M37.2,17.17c.1.04.21.25.21.25,0,0,.01-.2.06-.3s.34-.2.34-.2c0,0-.27-.03-.34-.09-.04-.03-.07-.24-.07-.24,0,0-.09.1-.17.13-.07.03-.23-.05-.23-.05,0,0,.08.19.06.24-.03.08-.18.2-.18.2,0,0,.19,0,.32.05Z"/>
    <path class="st5" d="M37.22,16.99s.06.04.09.03.04-.06.02-.09-.06-.04-.09-.02c0,0-.05.02-.01.08Z"/>
  </g>
  <g>
    <path class="st1" d="M32.73,19.34c-.12-.15-.78-.69-.88-1.14-.06-.28.21-.68.66-.66.34.01.42.42.47.5.06-.39.17-.68.61-.67.2,0,.57.13.47.72-.07.45-.3.8-.39,1.05.19-.3.43-.56.71-.78.1-.08.21-.15.34-.17.19-.03.39.08.47.25s.03.4-.12.52c.24-.11.6.29.56.56s-.37.34-.63.4-.53.05-.8.06c.36-.03.72.07,1.02.26.16.1.31.26.3.44-.01.17-.16.42-.33.47s-.35-.09-.52-.12c.34.35.02.7-.11.76s-.29.02-.42-.05c-.37-.18-.48-.78-.61-1.17-.07.37-.12.79-.33,1.2-.1.19-.41.33-.62.34-.17,0-.32-.13-.39-.28s-.07-.33-.07-.5c0,.16-.8.16-.6-.42.15-.44.69-.64,1.07-.85-.25.16-1.05.26-1.46.23-.25-.02-.39-.42-.38-.52.01-.2.35-.26.47-.31-.13-.15-.21-.53-.05-.64s.37-.07.55,0c.3.11,1.01.51,1.01.51Z"/>
    <path class="st3" d="M33.66,19.32c-.02.1-.06.22-.02.31s.26.18.26.18c0,0-.21,0-.34.07s-.17.28-.17.28c0,0-.02-.19-.11-.31-.06-.07-.32-.11-.32-.11,0,0,.25-.13.27-.18.05-.11.01-.24.01-.24,0,0,.14.12.18.13.08.02.21-.07.23-.13Z"/>
    <path class="st5" d="M33.36,19.68s.01.07.05.08c.01,0,.03,0,.04,0,.03-.02.05-.06.03-.1,0-.02-.05-.04-.08-.03-.02,0-.04.05-.04.06Z"/>
  </g>
  <g>
    <path class="st1" d="M34.9,21.55c.24-.19.59-.06.78.25.13.23-.07.53-.13.58.08,0,.45-.19.66-.04s.37.99-.23,1.04c-.49.04-.64.07-1.13.07.53.1.9.09,1.24.5.12.15.06.45-.05.61-.15.22-.48.12-.72,0,.13.18.28.25.22.49-.02.09-.41.45-.74.22-.29-.2-.52-.96-.61-1.17.18.54.25.65.29,1.07.03.4-.32.53-.56.52-.22,0-.3-.3-.3-.53-.03.13-.19.34-.41.35-.24.01-.53-.22-.58-.37-.18-.49.47-.89.82-1.23-.34.26-.84.43-1.27.5-.51.08-.59-.43-.55-.63s.25-.36.46-.35c-.57-.13-.32-.81-.1-.84.47-.08,1.15.27,1.53.55-.31-.32-.94-.67-.99-1.1-.04-.32.23-.49.45-.56s.54.32.54.32c0,0-.17-.44.02-.6.14-.11.71-.25.79.28.11.67.06.85.06,1.36,0,0,.08-.96.51-1.3Z"/>
    <path class="st3" d="M33.68,23.33s.15.06.23.18.05.27.05.27c0,0,.05-.1.2-.12s.29.09.29.09c0,0-.04-.19-.05-.29s.13-.19.13-.19c0,0-.23-.02-.28-.07-.07-.06-.12-.23-.12-.23,0,0-.06.21-.16.3s-.27.05-.27.05Z"/>
    <path class="st5" d="M34.08,23.43s.03.06.06.07c0,0,.02,0,.02,0,0,0,.02,0,.03-.01.05-.04.07-.12.02-.15-.02-.01-.08-.02-.11,0-.02.02-.02.06-.02.08Z"/>
  </g>
  <g>
    <path class="st1" d="M30.88,15.9c.17-.26.54-.25.82,0,.2.17.11.53.06.6.08-.03.37-.32.61-.25s.66.82.11,1.06c-.45.2-.58.27-1.05.42.54-.08.88-.2,1.34.08.16.1.2.4.15.59-.07.25-.42.27-.68.23.18.13.34.15.37.4.01.09-.25.55-.63.45-.34-.09-.8-.74-.95-.91.34.46.44.53.61.92.16.37-.13.6-.37.67-.22.06-.38-.19-.45-.4.01.13-.07.38-.28.46-.23.09-.57-.04-.67-.17-.33-.41.16-1,.39-1.43-.25.35-.67.67-1.04.87-.46.24-.7-.21-.72-.42s.13-.43.33-.48c-.58.05-.56-.67-.37-.77.42-.22,1.17-.11,1.63.03-.39-.2-1.1-.33-1.29-.73-.14-.29.06-.54.25-.67s.61.13.61.13c0,0-.3-.37-.17-.58.1-.15.59-.46.84.02.32.6.32.79.49,1.27,0,0-.22-.94.07-1.39Z"/>
    <path class="st3" d="M30.29,17.98s.16,0,.27.1.13.24.13.24c0,0,.02-.11.15-.17s.31,0,.31,0c0,0-.1-.16-.14-.26s.06-.22.06-.22c0,0-.23.05-.29.03-.08-.04-.19-.18-.19-.18,0,0,0,.22-.06.34s-.24.13-.24.13Z"/>
    <path class="st5" d="M30.7,17.94s.05.05.08.05c0,0,.02,0,.02,0,0,0,.02-.01.02-.02.04-.05.03-.13-.03-.15-.02,0-.09.01-.1.04-.01.02,0,.07,0,.08Z"/>
  </g>
  <g>
    <path class="st1" d="M37.68,12.65c-.23-.35-.59-1-.51-1.41s.59-.39.7-.28c.13.14.14.29.14.29,0,0,.07-.36.25-.46s.83.01.71.5c-.09.39-.45,1.02-.73,1.3.27-.35.63-.8,1.04-.97.61-.24,1.04.54.39.77.11,0,.33-.11.51.01.27.19.41.82.04.95-.18.06-.49.09-.8.07-.39-.03-.72-.15-.81-.18.4.18.64.21.94.53.19.2.16.33-.02.61-.06.1-.36.17-.43.08.11.17-.17.47-.36.42s-.33-.19-.4-.37c-.11-.28-.12-.49-.17-.78.06.4.09.51.02.79s-.16.42-.43.51c-.03.01-.42-.07-.52-.24-.08-.13.07-.36.07-.36,0,0-.13.19-.27.18s-.73-.31-.46-.76c.17-.29.58-.44.86-.64-.58.4-1.3.48-1.54.27s-.22-.65-.02-.8c.12-.09.26-.13.41-.12-.16-.14-.16-.37-.09-.57.06-.18.25-.32.45-.33.34-.02.53.27.58.33.18.2.46.67.46.67Z"/>
    <path class="st3" d="M37.42,12.84s.27.07.36.17c.1.11.05.35.05.35,0,0,.13-.17.26-.18.11,0,.28.11.28.11,0,0-.09-.19-.1-.29s.17-.23.17-.23c0,0-.2.07-.29.01-.09-.06-.09-.3-.09-.3,0,0-.09.18-.22.26-.15.09-.43.09-.43.09Z"/>
    <path class="st5" d="M38.01,12.88s-.03,0-.05,0-.02.03-.02.05c0,.01,0,.03,0,.04,0,.03.05.05.08.04s.05-.05.05-.08-.04-.06-.07-.07c0,0-.02,0-.03,0s-.02.01-.02.02"/>
  </g>
  <path class="st2" d="M36.62,22.73c.56-.58,1.19-1.1,1.88-1.54.31-.2.64-.39.91-.65-.59.73-1.45,1.18-2.2,1.75-.16.12-.32.25-.41.43-.06.13-.06.15.04.2.16.09.41.11.59.16l1.11.31s-.22-.43-.22-.82c.62.18,1.32.03,1.81-.38-.33.12-.73.02-.96-.25.53.04,1.08-.22,1.38-.66-.18.02-.37-.03-.52-.13.46-.18.86-.5,1.15-.91-.2.09-.43.08-.63,0,.38-.42.66-.92.82-1.45-.43.35-.88.67-1.35.96.03-.19.05-.38.08-.57-.27.23-.53.47-.8.7-.08-.23-.12-.48-.13-.72-.24.37-.48.73-.72,1.1-.23-.13-.38-.37-.4-.63-.29.32-.48.72-.53,1.15-.21-.14-.39-.34-.51-.56-.08.36-.09.73-.03,1.1-.22-.01-.43-.11-.57-.28.02.44.21,1.69.21,1.69Z"/>
  <path class="st2" d="M44.45,3.08c-.56-.58-1.19-1.1-1.88-1.54-.31-.2-.64-.39-.91-.65.59.73,1.45,1.18,2.2,1.75.16.12.32.25.41.43.06.13.06.15-.04.2-.16.09-.41.11-.59.16l-1.11.31s.22-.43.22-.82c-.62.18-1.32.03-1.81-.38.33.12.73.02.96-.25-.53.04-1.08-.22-1.38-.66.18.02.37-.03.52-.13-.46-.18-.86-.5-1.15-.91.2.09.43.08.63,0-.38-.42-.66-.92-.82-1.45.43.35.88.67,1.35.96-.03-.19-.05-.38-.08-.57.27.23.53.47.8.7.08-.23.12-.48.13-.72.24.37.48.73.72,1.1.23-.13.38-.37.4-.63.29.32.48.72.53,1.15.21-.14.39-.34.51-.56.08.36.09.73.03,1.1.22-.01.43-.11.57-.28-.02.44-.21,1.69-.21,1.69Z"/>
  <path class="st2" d="M3.45,25.05c.34-.54.94-.88,1.25-1.44-.41.24-.51.19-.93.43.29-.5.15-.76.22-1.33-.21.36-.28.51-.66.67.17-.43.02-.76.05-1.22-.13.36-.22.56-.59.63.2-.53-.01-1.05-.16-1.6-.06.36-.18.73-.48.93.07-.47-.13-1.01-.38-1.42,0,.33-.09.66-.23.95-.38-.58-.83-1.1-1.35-1.55.28.64.51,1.03.83,1.85-.09.02-.58-.05-1.09-.22.46.36.83.93,1.04,1.48-.25-.15-.83-.22-.83-.22,0,0,.82.93,1.08,1.22-.43.24-.99.13-.99.13,0,0,.73.45,1.3.68-.46.22-.49.52-.82.92.62-.22.74-.39,1.4-.41.15,0,.3,0,.45-.02.03,0,.2-.01.22-.13.06-.24-.11-1.12-.25-1.44-.36-.82-.82-1.34-.82-1.36.01-.04.49.45.72.92.37.77.56,1.88.56,1.88,0,0,.31-.16.45-.37Z"/>
  <g>
    <path class="st0" d="M42.31,4.43c-.31-.19-.84.18-.82.45s.2.51.38.73c-.21-.04-.43-.09-.64-.03s-.39.26-.35.47c.05.28.19.47.47.5.31.03.82-.05,1.13-.02-.53.19-1.2.29-1.44.8-.05.1,0,.37.07.46.04.06.18.18.25.19.3.07.57-.1.8-.3,0,.19-.09.37-.08.56s.45.6.69-.01c.19-.49.29-.75.29-1.43-.04.58.02,1.16.19,1.72.03.1.07.22.16.28.16.11.39,0,.48-.16s.09-.37.08-.56c.09.17.24.27.43.25.23-.03.51-.14.51-.39,0-.7-.75-1.05-1.17-1.48.26.18.96.54,1.46.59.31.03.48-.11.55-.46.06-.31-.18-.62-.63-.61.19,0,.44-.16.46-.35.02-.26-.13-.5-.22-.59-.55-.54-1.19.47-1.79.93.46-.37.74-.66.98-1.19.08-.17.12-.45,0-.61-.09-.13-.28-.17-.43-.13s-.29.13-.42.23c.03-.22-.36-.39-.58-.34-.3.07-.3.3-.3.58,0,.46.06.85.16,1.3,0,0-.22-1.11-.68-1.39Z"/>
    <path class="st3" d="M42.83,6.17c.06.06.12.12.14.2s-.12.2-.1.2c0,0,.15-.06.29-.01.14.05.28.2.28.2,0,0-.06-.22-.02-.32s.23-.22.23-.22c0,0-.21,0-.28-.08s-.1-.18-.07-.28c0,0-.19.32-.48.3Z"/>
    <path class="st5" d="M43.24,6.26s.04.02.05.04c0,.02,0,.05,0,.07-.01.03-.05.03-.08.02s-.04-.04-.04-.07.03-.06.08-.06Z"/>
  </g>
  <g>
    <path class="st0" d="M26.26.02c-.31-.19-.84.18-.82.45s.2.51.38.73c-.21-.04-.43-.09-.64-.03s-.39.26-.35.47c.05.28.19.47.47.5.31.03.82-.05,1.13-.02-.53.19-1.2.29-1.44.8-.05.1,0,.37.07.46.04.06.18.18.25.19.3.07.57-.1.8-.3,0,.19-.09.37-.08.56s.45.6.69-.01c.19-.49.29-.75.29-1.43-.04.58.02,1.16.19,1.72.03.1.07.22.16.28.16.11.39,0,.48-.16s.09-.37.08-.56c.09.17.24.27.43.25.23-.03.51-.14.51-.39,0-.7-.75-1.05-1.17-1.48.26.18.96.54,1.46.59.31.03.48-.11.55-.46.06-.31-.18-.62-.63-.61.19,0,.44-.16.46-.35.02-.26-.13-.5-.22-.59-.55-.54-1.19.47-1.79.93.46-.37.74-.66.98-1.19.08-.17.12-.45,0-.61-.09-.13-.28-.17-.43-.13s-.29.13-.42.23c.03-.22-.36-.39-.58-.34-.3.07-.3.3-.3.58,0,.46.06.85.16,1.3,0,0-.22-1.11-.68-1.39Z"/>
    <path class="st3" d="M26.79,1.76c.06.06.12.12.14.2s-.12.2-.1.2c0,0,.15-.06.29-.01.14.05.28.2.28.2,0,0-.06-.22-.02-.32s.23-.22.23-.22c0,0-.21,0-.28-.08s-.1-.18-.07-.28c0,0-.19.32-.48.3Z"/>
    <path class="st5" d="M27.19,1.85s.04.02.05.04c0,.02,0,.05,0,.07-.01.03-.05.03-.08.02s-.04-.04-.04-.07.03-.06.08-.06Z"/>
  </g>
  <g>
    <path class="st0" d="M36.25,2c-.18-.36-.36-1.05-.25-1.43.08-.27.67-.39.8-.13.05.1.03.35.03.35,0,0,.18-.28.31-.33.36-.16.81.35.67.65-.16.34-.49.79-.91.98.42-.24.96-.46,1.43-.38.09.01.19.07.22.19.02.07.04.32-.02.46s-.22.17-.22.17c0,0,.19.01.28.05.17.08.27.37.19.53-.02.03-.18.46-.41.51-.35.08-.86-.23-1.11-.49.12.28.51.27.49.94-.01.24-.32.51-.58.52-.23.01-.35-.13-.43-.33,0-.01-.02-.01-.03,0-.02.15-.02.17-.05.31-.03.16-.25.29-.41.27-.16-.02-.32-.16-.34-.32-.07-.41-.02-.59.1-.97,0-.01-.19.26-.46.42-.31.19-.74.12-.85-.02-.1-.13-.05-.36-.04-.41,0,0,0,0,0-.01-.02-.01-.07-.06-.17-.09-.14-.05-.27-.16-.27-.31,0-.46.56-.58.78-.62.33-.06.6.05.59.04,0,0-.6.03-.97-.17-.57-.31-.22-.74-.18-.81.1-.16.31-.23.49-.17,0,0,.02,0,.02-.01-.05-.25-.05-.57.27-.62.17-.02.33.04.44.17.25.29.45.7.61,1.05"/>
    <path class="st3" d="M36.39,2.83c.1.04.21.25.21.25,0,0,.01-.2.06-.3s.34-.2.34-.2c0,0-.27-.03-.34-.09-.04-.03-.07-.24-.07-.24,0,0-.09.1-.17.13-.07.03-.23-.05-.23-.05,0,0,.08.19.06.24-.03.08-.18.2-.18.2,0,0,.19,0,.32.05Z"/>
    <path class="st5" d="M36.41,2.64s.06.04.09.03.04-.06.02-.09-.06-.04-.09-.02c0,0-.05.02-.01.08Z"/>
  </g>
  <g>
    <path class="st0" d="M32.52,4.92c-.12-.15-.78-.69-.88-1.14-.06-.28.21-.68.66-.66.34.01.42.42.47.5.06-.39.17-.68.61-.67.2,0,.57.13.47.72-.07.45-.3.8-.39,1.05.19-.3.43-.56.71-.78.1-.08.21-.15.34-.17.19-.03.39.08.47.25s.03.4-.12.52c.24-.11.6.29.56.56s-.37.34-.63.4-.53.05-.8.06c.36-.03.72.07,1.02.26.16.1.31.26.3.44-.01.17-.16.42-.33.47s-.35-.09-.52-.12c.34.35.02.7-.11.76s-.29.02-.42-.05c-.37-.18-.48-.78-.61-1.17-.07.37-.12.79-.33,1.2-.1.19-.41.33-.62.34-.17,0-.32-.13-.39-.28s-.07-.33-.07-.5c0,.16-.8.16-.6-.42.15-.44.69-.64,1.07-.85-.25.16-1.05.26-1.46.23-.25-.02-.39-.42-.38-.52.01-.2.35-.26.47-.31-.13-.15-.21-.53-.05-.64s.37-.07.55,0c.3.11,1.01.51,1.01.51Z"/>
    <path class="st3" d="M33.45,4.9c-.02.1-.06.22-.02.31s.26.18.26.18c0,0-.21,0-.34.07s-.17.28-.17.28c0,0-.02-.19-.11-.31-.06-.07-.32-.11-.32-.11,0,0,.25-.13.27-.18.05-.11.01-.24.01-.24,0,0,.14.12.18.13.08.02.21-.07.23-.13Z"/>
    <path class="st5" d="M33.15,5.27s.01.07.05.08c.01,0,.03,0,.04,0,.03-.02.05-.06.03-.1,0-.02-.05-.04-.08-.03-.02,0-.04.05-.04.06Z"/>
  </g>
  <g>
    <path class="st0" d="M23.17,7.98c-.12-.15-.78-.69-.88-1.14-.06-.28.21-.68.66-.66.34.01.42.42.47.5.06-.39.17-.68.61-.67.2,0,.57.13.47.72-.07.45-.3.8-.39,1.05.19-.3.43-.56.71-.78.1-.08.21-.15.34-.17.19-.03.39.08.47.25s.03.4-.12.52c.24-.11.6.29.56.56s-.37.34-.63.4-.53.05-.8.06c.36-.03.72.07,1.02.26.16.1.31.26.3.44-.01.17-.16.42-.33.47s-.35-.09-.52-.12c.34.35.02.7-.11.76s-.29.02-.42-.05c-.37-.18-.48-.78-.61-1.17-.07.37-.12.79-.33,1.2-.1.19-.41.33-.62.34-.17,0-.32-.13-.39-.28s-.07-.33-.07-.5c0,.16-.8.16-.6-.42.15-.44.69-.64,1.07-.85-.25.16-1.05.26-1.46.23-.25-.02-.39-.42-.38-.52.01-.2.35-.26.47-.31-.13-.15-.21-.53-.05-.64s.37-.07.55,0c.3.11,1.01.51,1.01.51Z"/>
    <path class="st3" d="M24.1,7.96c-.02.1-.06.22-.02.31s.26.18.26.18c0,0-.21,0-.34.07s-.17.28-.17.28c0,0-.02-.19-.11-.31-.06-.07-.32-.11-.32-.11,0,0,.25-.13.27-.18.05-.11.01-.24.01-.24,0,0,.14.12.18.13.08.02.21-.07.23-.13Z"/>
    <path class="st5" d="M23.8,8.33s.01.07.05.08c.01,0,.03,0,.04,0,.03-.02.05-.06.03-.1,0-.02-.05-.04-.08-.03-.02,0-.04.05-.04.06Z"/>
  </g>
  <g>
    <path class="st0" d="M24.36,18.73c-.12-.15-.78-.69-.88-1.14-.06-.28.21-.68.66-.66.34.01.42.42.47.5.06-.39.17-.68.61-.67.2,0,.57.13.47.72-.07.45-.3.8-.39,1.05.19-.3.43-.56.71-.78.1-.08.21-.15.34-.17.19-.03.39.08.47.25s.03.4-.12.52c.24-.11.6.29.56.56s-.37.34-.63.4-.53.05-.8.06c.36-.03.72.07,1.02.26.16.1.31.26.3.44-.01.17-.16.42-.33.47s-.35-.09-.52-.12c.34.35.02.7-.11.76s-.29.02-.42-.05c-.37-.18-.48-.78-.61-1.17-.07.37-.12.79-.33,1.2-.1.19-.41.33-.62.34-.17,0-.32-.13-.39-.28s-.07-.33-.07-.5c0,.16-.8.16-.6-.42.15-.44.69-.64,1.07-.85-.25.16-1.05.26-1.46.23-.25-.02-.39-.42-.38-.52.01-.2.35-.26.47-.31-.13-.15-.21-.53-.05-.64s.37-.07.55,0c.3.11,1.01.51,1.01.51Z"/>
    <path class="st3" d="M25.29,18.71c-.02.1-.06.22-.02.31s.26.18.26.18c0,0-.21,0-.34.07s-.17.28-.17.28c0,0-.02-.19-.11-.31-.06-.07-.32-.11-.32-.11,0,0,.25-.13.27-.18.05-.11.01-.24.01-.24,0,0,.14.12.18.13.08.02.21-.07.23-.13Z"/>
    <path class="st5" d="M24.99,19.08s.01.07.05.08c.01,0,.03,0,.04,0,.03-.02.05-.06.03-.1,0-.02-.05-.04-.08-.03-.02,0-.04.05-.04.06Z"/>
  </g>
  <g>
    <path class="st0" d="M37.06,6.6c.24-.19.59-.06.78.25.13.23-.07.53-.13.58.08,0,.45-.19.66-.04s.37.99-.23,1.04c-.49.04-.64.07-1.13.07.53.1.9.09,1.24.5.12.15.06.45-.05.61-.15.22-.48.12-.72,0,.13.18.28.25.22.49-.02.09-.41.45-.74.22-.29-.2-.52-.96-.61-1.17.18.54.25.65.29,1.07.03.4-.32.53-.56.52-.22,0-.3-.3-.3-.53-.03.13-.19.34-.41.35-.24.01-.53-.22-.58-.37-.18-.49.47-.89.82-1.23-.34.26-.84.43-1.27.5-.51.08-.59-.43-.55-.63s.25-.36.46-.35c-.57-.13-.32-.81-.1-.84.47-.08,1.15.27,1.53.55-.31-.32-.94-.67-.99-1.1-.04-.32.23-.49.45-.56s.54.32.54.32c0,0-.17-.44.02-.6.14-.11.71-.25.79.28.11.67.06.85.06,1.36,0,0,.08-.96.51-1.3Z"/>
    <path class="st3" d="M35.85,8.39s.15.06.23.18.05.27.05.27c0,0,.05-.1.2-.12s.29.09.29.09c0,0-.04-.19-.05-.29s.13-.19.13-.19c0,0-.23-.02-.28-.07-.07-.06-.12-.23-.12-.23,0,0-.06.21-.16.3s-.27.05-.27.05Z"/>
    <path class="st5" d="M36.24,8.48s.03.06.06.07c0,0,.02,0,.02,0,0,0,.02,0,.03-.01.05-.04.07-.12.02-.15-.02-.01-.08-.02-.11,0-.02.02-.02.06-.02.08Z"/>
  </g>
  <g>
    <path class="st0" d="M21.73,14.37c.17-.26.54-.25.82,0,.2.17.11.53.06.6.08-.03.37-.32.61-.25s.66.82.11,1.06c-.45.2-.58.27-1.05.42.54-.08.88-.2,1.34.08.16.1.2.4.15.59-.07.25-.42.27-.68.23.18.13.34.15.37.4.01.09-.25.55-.63.45-.34-.09-.8-.74-.95-.91.34.46.44.53.61.92.16.37-.13.6-.37.67-.22.06-.38-.19-.45-.4.01.13-.07.38-.28.46-.23.09-.57-.04-.67-.17-.33-.41.16-1,.39-1.43-.25.35-.67.67-1.04.87-.46.24-.7-.21-.72-.42s.13-.43.33-.48c-.58.05-.56-.67-.37-.77.42-.22,1.17-.11,1.63.03-.39-.2-1.1-.33-1.29-.73-.14-.29.06-.54.25-.67s.61.13.61.13c0,0-.3-.37-.17-.58.1-.15.59-.46.84.02.32.6.32.79.49,1.27,0,0-.22-.94.07-1.39Z"/>
    <path class="st3" d="M21.15,16.45s.16,0,.27.1.13.24.13.24c0,0,.02-.11.15-.17s.31,0,.31,0c0,0-.1-.16-.14-.26s.06-.22.06-.22c0,0-.23.05-.29.03-.08-.04-.19-.18-.19-.18,0,0,0,.22-.06.34s-.24.13-.24.13Z"/>
    <path class="st5" d="M21.56,16.42s.05.05.08.05c0,0,.02,0,.02,0,0,0,.02-.01.02-.02.04-.05.03-.13-.03-.15-.02,0-.09.01-.1.04-.01.02,0,.07,0,.08Z"/>
  </g>
  <path class="st0" d="M38.54,4.62c-.23-.35-.59-1-.51-1.41s.59-.39.7-.28c.13.14.14.29.14.29,0,0,.07-.36.25-.46s.83.01.71.5c-.09.39-.45,1.02-.73,1.3.27-.35.63-.8,1.04-.97.61-.24,1.04.54.39.77.11,0,.33-.11.51.01.27.19.41.82.04.95-.18.06-.49.09-.8.07-.39-.03-.72-.15-.81-.18.4.18.64.21.94.53.19.2.16.33-.02.61-.06.1-.36.17-.43.08.11.17-.17.47-.36.42s-.33-.19-.4-.37c-.11-.28-.12-.49-.17-.78.06.4.09.51.02.79s-.16.42-.43.51c-.03.01-.42-.07-.52-.24-.08-.13.07-.36.07-.36,0,0-.13.19-.27.18s-.73-.31-.46-.76c.17-.29.58-.44.86-.64-.58.4-1.3.48-1.54.27s-.22-.65-.02-.8c.12-.09.26-.13.41-.12-.16-.14-.16-.37-.09-.57.06-.18.25-.32.45-.33.34-.02.53.27.58.33.18.2.46.67.46.67Z"/>
  <path class="st3" d="M38.29,4.81s.27.07.36.17c.1.11.05.35.05.35,0,0,.13-.17.26-.18.11,0,.28.11.28.11,0,0-.09-.19-.1-.29s.17-.23.17-.23c0,0-.2.07-.29.01-.09-.06-.09-.3-.09-.3,0,0-.09.18-.22.26-.15.09-.43.09-.43.09Z"/>
  <path class="st0" d="M27.63,6.65c-.23-.35-.59-1-.51-1.41s.59-.39.7-.28c.13.14.14.29.14.29,0,0,.07-.36.25-.46s.83.01.71.5c-.09.39-.45,1.02-.73,1.3.27-.35.63-.8,1.04-.97.61-.24,1.04.54.39.77.11,0,.33-.11.51.01.27.19.41.82.04.95-.18.06-.49.09-.8.07-.39-.03-.72-.15-.81-.18.4.18.64.21.94.53.19.2.16.33-.02.61-.06.1-.36.17-.43.08.11.17-.17.47-.36.42s-.33-.19-.4-.37c-.11-.28-.12-.49-.17-.78.06.4.09.51.02.79s-.16.42-.43.51c-.03.01-.42-.07-.52-.24-.08-.13.07-.36.07-.36,0,0-.13.19-.27.18s-.73-.31-.46-.76c.17-.29.58-.44.86-.64-.58.4-1.3.48-1.54.27s-.22-.65-.02-.8c.12-.09.26-.13.41-.12-.16-.14-.16-.37-.09-.57.06-.18.25-.32.45-.33.34-.02.53.27.58.33.18.2.46.67.46.67Z"/>
  <path class="st3" d="M27.38,6.83s.27.07.36.17c.1.11.05.35.05.35,0,0,.13-.17.26-.18.11,0,.28.11.28.11,0,0-.09-.19-.1-.29s.17-.23.17-.23c0,0-.2.07-.29.01-.09-.06-.09-.3-.09-.3,0,0-.09.18-.22.26-.15.09-.43.09-.43.09Z"/>
  <path class="st2" d="M33.77,9.89c-.2-.61-.09-1.28-.32-1.88-.07.47-.18.52-.25.99-.21-.54-.49-.6-.88-1.01.14.39.21.54.1.94-.23-.41-.57-.49-.91-.81.2.33.3.52.12.86-.29-.49-.82-.66-1.34-.89.24.28.45.6.41.96-.32-.35-.86-.53-1.34-.6.25.21.46.48.59.78-.68-.07-1.38-.05-2.06.06.67.18,1.12.26,1.96.53-.05.08-.41.42-.86.71.57-.13,1.25-.05,1.8.13-.27.09-.69.51-.69.51,0,0,1.24-.05,1.63-.07-.08.49-.52.85-.52.85,0,0,.81-.28,1.35-.58-.12.5.09.72.2,1.22.23-.62.17-.82.57-1.35.09-.12.19-.23.27-.36.01-.03.11-.16.04-.26-.15-.2-.94-.63-1.27-.72-.86-.24-1.56-.21-1.57-.23-.03-.03.66-.09,1.17.03.83.2,1.81.76,1.81.76,0,0,.08-.34,0-.58Z"/>
  <path class="st2" d="M42.69,13.3c-.29-.57-.85-.97-1.1-1.55.39.28.49.24.88.53-.23-.52-.08-.77-.09-1.34.18.38.23.53.59.74-.13-.45.06-.75.07-1.22.09.37.16.58.52.69-.15-.55.12-1.04.32-1.58.02.37.1.74.39.97-.02-.48.23-.99.52-1.37-.03.33.02.66.14.97.43-.54.94-1.01,1.5-1.41-.35.61-.61.97-1.01,1.76.09.02.58,0,1.11-.11-.49.31-.92.84-1.18,1.36.26-.13.85-.13.85-.13,0,0-.91.85-1.2,1.11.4.29.97.23.97.23,0,0-.77.37-1.36.55.44.27.44.57.72,1-.6-.28-.7-.46-1.35-.55-.15-.02-.3-.03-.45-.07-.03,0-.19-.03-.21-.16-.03-.25.22-1.11.39-1.41.44-.78.95-1.25.95-1.27,0-.04-.53.4-.81.85-.45.73-.74,1.81-.74,1.81,0,0-.29-.19-.41-.41Z"/>
  <path class="st2" d="M8.38,25.44c-.54-.47-.8-1.46-.82-1.74.08.14.25.47.39.57-.07-.41.14-.71.21-1.11.07.26.21.46.21.46,0,0,.04-.19.17-.53.07-.18.19-.54.19-.54l.18.46s.09-.29.2-.53.31-.41.31-.41l.05.2s.41-.76.79-1.03c-.02.15.08.45.02.7.51-.54.8-.61,1.25-1.4.07.79-.31,1.74-.53,1.99.16-.05.57-.32.78-.53-.09.31-.56.98-.82,1.23.17.03.65-.23.84-.21-.21.43-1.15,1.09-1.15,1.09,0,0,.61-.2.75-.2-.14.35-.85.81-1.22.86.21.06.43.05.59.1-.32.29-1,.49-1,.49,0,0,.36.13.6.16-.4.27-1.3.37-1.72.13-.15-.09-.4-.28-.16-.7.36-.63,1.08-1.15,1.55-1.7.19-.21.48-.75.55-.9-.22.21-.38.58-.64.88-.8.89-1.73,1.71-1.62,2.14"/>
  <path class="st2" d="M8.91,3.44c-.51-.44-.75-1.36-.76-1.62.07.13.23.44.37.53-.07-.38.13-.66.2-1.04.07.24.19.43.19.43,0,0,.03-.17.16-.49.06-.16.17-.5.17-.5l.17.43s.08-.27.19-.49.28-.38.28-.38l.05.18s.39-.71.74-.96c-.02.14.08.42.02.65.48-.5.75-.56,1.16-1.31.06.74-.29,1.62-.49,1.85.15-.04.53-.3.73-.49-.08.29-.52.91-.76,1.15.16.03.61-.21.78-.2-.2.4-1.07,1.01-1.07,1.01,0,0,.57-.19.7-.18-.13.33-.79.75-1.14.8.2.05.4.04.55.09-.3.27-.93.45-.93.45,0,0,.34.12.56.15-.38.25-1.21.34-1.6.12-.14-.08-.38-.26-.15-.66.33-.59,1-1.07,1.44-1.58.17-.2.44-.7.51-.84-.21.19-.35.54-.6.82-.74.83-1.61,1.59-1.51,1.99"/>
  <path class="st2" d="M14.4,19.36c-.07.05-.14.09-.21.11-.5.15-1.1.25-1.62.09.17-.09.34-.18.51-.27-.47-.09-.9-.76-1.34-.99.44-.06.21.05.57,0-.71-.53-.83-.64-1.22-1.35.5.24.22.02.72.26-.33-.26-.2-.35-.43-.59-.29-.32-.54-.43-.54-.43,0,0,.47-.04.81.04-.48-.66-.7-1.5-.59-2.31.42.69.88,1.04,1.3,1.73.07-.34.02-.35-.08-.68.39.3.71.55.78,1.04.14-.22.15-.28.12-.54.32.42.55.5.55,1.02.18-.26.24-.12.26-.43.28.52.55.63.31,1.17.34-.26.41-.35.69-.65-.09.43.02,1.04-.18,1.44.19-.09.55-.38.65-.56-.13.6-.38,1.23-.8,1.68-.05.06-.18.22-.26.22-.11,0-.59-.46-.78-.76-.29-.46-.5-1.06-.75-1.55s-.56-.66-.67-.82c.43.57.72,1.32,1.07,1.89.32.51.57.94,1.05,1.3"/>
  <path class="st2" d="M3.65,9.4c-.83-.14-1.01-.6-1.33-1.12-.22-.36-.42-.88-.48-1.1-.02-.08.32.82.81,1.45.34.44.84.68,1,.67.22-.01.38-.33.46-.46.25-.41.33-.9.4-1.21-.1.19-.27.21-.47.3.08-.5-.03-.96-.03-.96,0,0-.32.17-.67.44-.18-.65-.07-1.08-.07-1.08,0,0-.42.25-.49.34-.28-.41-.31-1.01-.31-1.01,0,0-.22.31-.36.53-.04-.27-.34-.57-.28-.91.02-.14-.38.4-.41.56-.44-.54-.63-.53-1.05-1.22.2,1.06.21,1.31.33,1.8-.35-.08-.55-.05-.55-.05,0,0,.29.25.46.51.13.2.11.4.26.51-.5-.24-.22-.02-.72-.26.4.71.51.82,1.22,1.35-.36.05-.13-.07-.57,0,.44.22.88.9,1.34.99-.17.09-.34.18-.51.27.32.1,1.07.01,1.56-.11.31-.08.47-.21.47-.21Z"/>
  <g>
    <path class="st0" d="M6.6,3.38c-.03-.18-.14-.86.01-1.12.12-.21.52-.21.62-.05.07.12,0,.34,0,.34,0,0,.04-.21.33-.28.19-.04.73.32.46.69-.25.34-.52.35-.77.59.16-.04.48-.21.65-.21.14,0,.34.07.34.41s-.35.26-.46.28c.13.03.41.15.39.37-.02.24-.16.46-.43.41-.49-.09-.59-.28-.87-.51.27.26.48.51.4.88-.03.11-.31.31-.51.3-.15,0-.24-.2-.26-.26-.05-.2-.05-.41.01-.6-.03.33-.03.61-.29.82-.07.05-.54,0-.62-.28-.07-.25.19-.62.3-.74,0,0,0,0,0,0,0,0-.35.32-.75.37-.2.03-.34-.25-.38-.32-.05-.08.01-.18.08-.25.14-.13.31-.22.5-.26-.16.01-.32.01-.47-.03-.22-.06-.21-.46-.08-.55.47-.32.99.2.42-.25-.11-.09-.16-.23-.11-.36.1-.28.35-.18.43-.09,0-.19.03-.41.19-.49.12-.06.27-.08.38-.02.36.18.48,1.2.48,1.2Z"/>
    <path class="st3" d="M6.72,3.43s-.03.1.02.25.22.16.22.16c0,0-.15.03-.24.11s-.11.23-.11.23c0,0-.06-.14-.14-.2s-.26-.02-.26-.02c0,0,.15-.08.15-.21,0-.11-.09-.25-.12-.27.02,0,.14.06.25.05.12-.02.24-.11.24-.11Z"/>
    <g>
      <path class="st0" d="M23.24,12.24c-.23-.35-.59-1-.51-1.41s.59-.39.7-.28c.13.14.14.29.14.29,0,0,.07-.36.25-.46s.83.01.71.5c-.09.39-.45,1.02-.73,1.3.27-.35.63-.8,1.04-.97.61-.24,1.04.54.39.77.11,0,.33-.11.51.01.27.19.41.82.04.95-.18.06-.49.09-.8.07-.39-.03-.72-.15-.81-.18.4.18.64.21.94.53.19.2.16.33-.02.61-.06.1-.36.17-.43.08.11.17-.17.47-.36.42s-.33-.19-.4-.37c-.11-.28-.12-.49-.17-.78.06.4.09.51.02.79s-.16.42-.43.51c-.03.01-.42-.07-.52-.24-.08-.13.07-.36.07-.36,0,0-.13.19-.27.18s-.73-.31-.46-.76c.17-.29.58-.44.86-.64-.58.4-1.3.48-1.54.27s-.22-.65-.02-.8c.12-.09.26-.13.41-.12-.16-.14-.16-.37-.09-.57.06-.18.25-.32.45-.33.34-.02.53.27.58.33.18.2.46.67.46.67Z"/>
      <path class="st3" d="M22.98,12.42s.27.07.36.17c.1.11.05.35.05.35,0,0,.13-.17.26-.18.11,0,.28.11.28.11,0,0-.09-.19-.1-.29s.17-.23.17-.23c0,0-.2.07-.29.01-.09-.06-.09-.3-.09-.3,0,0-.09.18-.22.26-.15.09-.43.09-.43.09Z"/>
      <path class="st5" d="M23.57,12.47s-.03,0-.05,0-.02.03-.02.05c0,.01,0,.03,0,.04,0,.03.05.05.08.04s.05-.05.05-.08-.04-.06-.07-.07c0,0-.02,0-.03,0s-.02.01-.02.02"/>
    </g>
    <path class="st0" d="M31.25,21.85c0-.07-.12-.24-.19-.26-.03,0-.18-.14-.26-.02-.1-.13-.28-.19-.44-.14-.28.09-.36.44-.35.73,0,.2.04.39.09.58h0s.1.42,0,.71-.17.57-.17.57c0,0,0,.09.11.05.03-.01.07-.09.11-.2.17-.2.47-.69.57-.8.08-.09.18-.3.25-.4.12-.2.29-.57.27-.8Z"/>
    <path class="st0" d="M34.17-.28c0-.07-.12-.24-.19-.26-.03,0-.18-.14-.26-.02-.1-.13-.28-.19-.44-.14-.28.09-.36.44-.35.73,0,.2.04.39.09.58h0s.1.42,0,.71-.17.57-.17.57c0,0,0,.09.11.05.03-.01.07-.09.11-.2.17-.2.47-.69.57-.8.08-.09.18-.3.25-.4.12-.2.29-.57.27-.8Z"/>
    <path class="st0" d="M28.94,21.39c0-.24.06-.37,0-.73-.07-.49-.17-.7-.45-.92-.03-.03-.08-.04-.12-.03-.15.04-.08.12-.2.16-.08.03-.15.01-.15.01,0,0-.1-.03-.17.09h0s-.44.15-.08.76c.33.55.67.64.84.83.01.02.03.03.04.05.01.02.02.03.03.04.18.26.28.61.3.64.06.08.17-.03.17-.03,0,0-.2-.52-.21-.88Z"/>
    <path class="st0" d="M31.51,1.81c0-.24.06-.37,0-.73-.07-.49-.17-.7-.45-.92-.03-.03-.08-.04-.12-.03-.15.04-.08.12-.2.16-.08.03-.15.01-.15.01,0,0-.1-.03-.17.09h0s-.44.15-.08.76c.33.55.67.64.84.83.01.02.03.03.04.05.01.02.02.03.03.04.18.26.28.61.3.64.06.08.17-.03.17-.03,0,0-.2-.52-.21-.88Z"/>
    <path class="st2" d="M24.32,24.76c-.83-.14-1.01-.6-1.33-1.12-.22-.36-.42-.88-.48-1.1-.02-.08.32.82.81,1.45.34.44.84.68,1,.67.22-.01.38-.33.46-.46.25-.41.33-.9.4-1.21-.1.19-.27.21-.47.3.08-.5-.03-.96-.03-.96,0,0-.32.17-.67.44-.18-.65-.07-1.08-.07-1.08,0,0-.42.25-.49.34-.28-.41-.31-1.01-.31-1.01,0,0-.22.31-.36.53-.04-.27-.34-.57-.28-.91.02-.14-.38.4-.41.56-.44-.54-.63-.53-1.05-1.22.2,1.06.21,1.31.33,1.8-.35-.08-.55-.05-.55-.05,0,0,.29.25.46.51.13.2.11.4.26.51-.5-.24-.22-.02-.72-.26.4.71.51.82,1.22,1.35-.36.05-.13-.07-.57,0,.44.22.88.9,1.34.99-.17.09-.34.18-.51.27.32.1,1.07.01,1.56-.11.31-.08.47-.21.47-.21Z"/>
    <path class="st0" d="M26.97,14.96c-.03-.18-.14-.86.01-1.12.12-.21.52-.21.62-.05.07.12,0,.34,0,.34,0,0,.04-.21.33-.28.19-.04.73.32.46.69-.25.34-.52.35-.77.59.16-.04.48-.21.65-.21.14,0,.34.07.34.41s-.35.26-.46.28c.13.03.41.15.39.37-.02.24-.16.46-.43.41-.49-.09-.59-.28-.87-.51.27.26.48.51.4.88-.03.11-.31.31-.51.3-.15,0-.24-.2-.26-.26-.05-.2-.05-.41.01-.6-.03.33-.03.61-.29.82-.07.05-.54,0-.62-.28-.07-.25.19-.62.3-.74,0,0,0,0,0,0,0,0-.35.32-.75.37-.2.03-.34-.25-.38-.32-.05-.08.01-.18.08-.25.14-.13.31-.22.5-.26-.16.01-.32.01-.47-.03-.22-.06-.21-.46-.08-.55.47-.32.99.2.42-.25-.11-.09-.16-.23-.11-.36.1-.28.35-.18.43-.09,0-.19.03-.41.19-.49.12-.06.27-.08.38-.02.36.18.48,1.2.48,1.2Z"/>
    <path class="st3" d="M27.09,15.02s-.03.1.02.25.22.16.22.16c0,0-.15.03-.24.11s-.11.23-.11.23c0,0-.06-.14-.14-.2s-.26-.02-.26-.02c0,0,.15-.08.15-.21,0-.11-.09-.25-.12-.27.02,0,.14.06.25.05.12-.02.24-.11.24-.11Z"/>
    <path class="st0" d="M17.61,14.16c-.03-.18-.14-.86.01-1.12.12-.21.52-.21.62-.05.07.12,0,.34,0,.34,0,0,.04-.21.33-.28.19-.04.73.32.46.69-.25.34-.52.35-.77.59.16-.04.48-.21.65-.21.14,0,.34.07.34.41s-.35.26-.46.28c.13.03.41.15.39.37-.02.24-.16.46-.43.41-.49-.09-.59-.28-.87-.51.27.26.48.51.4.88-.03.11-.31.31-.51.3-.15,0-.24-.2-.26-.26-.05-.2-.05-.41.01-.6-.03.33-.03.61-.29.82-.07.05-.54,0-.62-.28-.07-.25.19-.62.3-.74,0,0,0,0,0,0,0,0-.35.32-.75.37-.2.03-.34-.25-.38-.32-.05-.08.01-.18.08-.25.14-.13.31-.22.5-.26-.16.01-.32.01-.47-.03-.22-.06-.21-.46-.08-.55.47-.32.99.2.42-.25-.11-.09-.16-.23-.11-.36.1-.28.35-.18.43-.09,0-.19.03-.41.19-.49.12-.06.27-.08.38-.02.36.18.48,1.2.48,1.2Z"/>
    <path class="st3" d="M17.72,14.21s-.03.1.02.25.22.16.22.16c0,0-.15.03-.24.11s-.11.23-.11.23c0,0-.06-.14-.14-.2s-.26-.02-.26-.02c0,0,.15-.08.15-.21,0-.11-.09-.25-.12-.27.02,0,.14.06.25.05.12-.02.24-.11.24-.11Z"/>
    <path class="st5" d="M6.54,3.7s-.06.04-.06.07.02.07.05.07c.01,0,.03,0,.04,0,.03-.02.04-.05.04-.09s-.02-.05-.07-.05Z"/>
    <path class="st0" d="M30.24,12.85c.14-.12.68-.54.98-.53.24,0,.44.35.34.52-.07.12-.3.17-.3.17,0,0,.21-.07.4.15.13.14.07.79-.39.74-.42-.05-.56-.28-.89-.39.12.12.42.32.5.47.07.13.11.33-.19.5s-.4-.18-.47-.26c.04.13.06.43-.13.52-.22.1-.48.08-.57-.18-.16-.48-.04-.65.02-1.01-.1.36-.21.67-.57.77-.11.03-.42-.12-.51-.31-.07-.14.06-.31.1-.35.15-.14.33-.24.53-.28-.31.13-.55.27-.86.14-.08-.03-.26-.48-.06-.68.18-.19.63-.13.8-.1.01,0,0,0,0,0,0,0-.45-.15-.69-.47-.12-.16.05-.41.09-.48.05-.08.17-.08.26-.05.18.06.34.17.47.31-.09-.13-.16-.27-.2-.42-.05-.22.3-.4.44-.33.51.25.31.97.42.24.02-.14.13-.25.26-.28.29-.05.33.22.29.34.16-.09.37-.18.52-.07.11.08.2.19.21.33.02.4-.82,1-.82,1Z"/>
    <path class="st3" d="M30.25,12.98s-.11.03-.21.13-.03.27-.03.27c0,0-.1-.11-.22-.16s-.26.01-.26.01c0,0,.09-.12.1-.22s-.11-.24-.11-.24c0,0,.14.09.26.03.1-.05.17-.19.17-.23,0,.02.01.15.08.25.07.1.21.16.21.16Z"/>
    <path class="st5" d="M29.94,12.96s-.06-.03-.09-.02-.05.05-.04.08c0,.01.02.03.03.03.03.01.07,0,.09-.01s.03-.04,0-.08Z"/>
  </g>
  <g>
    <path class="st1" d="M18.38,23.36c-.03-.18-.14-.86.01-1.12.12-.21.52-.21.62-.05.07.12,0,.34,0,.34,0,0,.04-.21.33-.28.19-.04.73.32.46.69-.25.34-.52.35-.77.59.16-.04.48-.21.65-.21.14,0,.34.07.34.41s-.35.26-.46.28c.13.03.41.15.39.37-.02.24-.16.46-.43.41-.49-.09-.59-.28-.87-.51.27.26.48.51.4.88-.03.11-.31.31-.51.3-.15,0-.24-.2-.26-.26-.05-.2-.05-.41.01-.6-.03.33-.03.61-.29.82-.07.05-.54,0-.62-.28-.07-.25.19-.62.3-.74,0,0,0,0,0,0,0,0-.35.32-.75.37-.2.03-.34-.25-.38-.32-.05-.08.01-.18.08-.25.14-.13.31-.22.5-.26-.16.01-.32.01-.47-.03-.22-.06-.21-.46-.08-.55.47-.32.99.2.42-.25-.11-.09-.16-.23-.11-.36.1-.28.35-.18.43-.09,0-.19.03-.41.19-.49.12-.06.27-.08.38-.02.36.18.48,1.2.48,1.2Z"/>
    <path class="st3" d="M18.49,23.41s-.03.1.02.25.22.16.22.16c0,0-.15.03-.24.11s-.11.23-.11.23c0,0-.06-.14-.14-.2s-.26-.02-.26-.02c0,0,.15-.08.15-.21,0-.11-.09-.25-.12-.27.02,0,.14.06.25.05.12-.02.24-.11.24-.11Z"/>
    <path class="st5" d="M18.32,23.68s-.06.04-.06.07.02.07.05.07c.01,0,.03,0,.04,0,.03-.02.04-.05.04-.09s-.02-.05-.07-.05Z"/>
  </g>
  <path class="st1" d="M27.08,23.11c-.33-.2-.78-.46-1.16-.36-.09.02-.16.26-.17.36-.01.1.11.18.21.19s.22,0,.31.06c-.12.03-.25.05-.35.13s-.15.22-.09.33c.08.14.28.13.44.1.24-.05.48-.11.71-.19-.19.23-.55.35-.64.63-.02.08.26.45.54.38.14-.03.13-.16.25-.22,0,.14,0,.29.06.41s.21.13.35.14c.22,0,.3-.07.31-.2.02-.23-.13-.6-.11-.83.22.36.47.79.87.95.08.03.28-.08.34-.14.09-.09-.01-.23-.1-.32.3.14.65.11.71-.19s-.1-.3-.37-.44-.57-.21-.87-.27c.29.06.69.15.97.06.09-.03.16-.08.17-.17.01-.09-.13-.29-.22-.31s-.18,0-.27.02c.06-.07.28,0,.12-.25s-.63-.06-.93.03c-.04.01-.12.02-.12.02,0,0-.03-.23-.01-.35s-.09-.27-.22-.3c-.5-.11-.24.09-.38.11-.23.03-.11-.3-.64-.21-.04,0-.06.04-.07.08,0,.04.01.08.04.12.12.19.23.38.35.57"/>
  <path class="st0" d="M15.06,21.22c-.39.05-.89.13-1.13.44-.06.07.04.31.09.39.06.09.19.07.29.01s.17-.14.28-.14c-.08.1-.16.2-.19.32s.02.27.13.32c.15.06.3-.07.41-.2.16-.19.3-.39.44-.59,0,.29-.22.62-.1.89.03.08.48.19.66-.04.09-.11,0-.2.06-.33.08.11.17.23.3.29s.25-.03.36-.11c.18-.13.19-.24.12-.34-.13-.19-.47-.39-.6-.58.4.15.86.32,1.27.21.09-.02.17-.23.18-.32.01-.12-.15-.17-.28-.18.32-.07.58-.32.43-.59s-.27-.17-.56-.11-.58.19-.85.33c.26-.13.63-.31.8-.56.05-.08.07-.16.02-.24-.05-.08-.28-.14-.36-.11s-.14.11-.2.18c0-.09.22-.18-.06-.27s-.53.34-.71.6c-.02.03-.08.09-.08.09,0,0-.17-.16-.23-.27s-.24-.16-.36-.1c-.46.22-.13.23-.23.32-.16.17-.27-.17-.64.24-.02.03-.02.07,0,.1.02.04.06.06.1.07.21.08.42.16.63.23"/>
  <path class="st0" d="M25.76,10.66c-.39.05-.89.13-1.13.44-.06.07.04.31.09.39.06.09.19.07.29.01s.17-.14.28-.14c-.08.1-.16.2-.19.32s.02.27.13.32c.15.06.3-.07.41-.2.16-.19.3-.39.44-.59,0,.29-.22.62-.1.89.03.08.48.19.66-.04.09-.11,0-.2.06-.33.08.11.17.23.3.29s.25-.03.36-.11c.18-.13.19-.24.12-.34-.13-.19-.47-.39-.6-.58.4.15.86.32,1.27.21.09-.02.17-.23.18-.32.01-.12-.15-.17-.28-.18.32-.07.58-.32.43-.59s-.27-.17-.56-.11-.58.19-.85.33c.26-.13.63-.31.8-.56.05-.08.07-.16.02-.24-.05-.08-.28-.14-.36-.11s-.14.11-.2.18c0-.09.22-.18-.06-.27s-.53.34-.71.6c-.02.03-.08.09-.08.09,0,0-.17-.16-.23-.27s-.24-.16-.36-.1c-.46.22-.13.23-.23.32-.16.17-.27-.17-.64.24-.02.03-.02.07,0,.1.02.04.06.06.1.07.21.08.42.16.63.23"/>
  <g>
    <path class="st0" d="M44.16,20.35c.17-.26.54-.25.82,0,.2.17.11.53.06.6.08-.03.37-.32.61-.25s.66.82.11,1.06c-.45.2-.58.27-1.05.42.54-.08.88-.2,1.34.08.16.1.2.4.15.59-.07.25-.42.27-.68.23.18.13.34.15.37.4.01.09-.25.55-.63.45-.34-.09-.8-.74-.95-.91.34.46.44.53.61.92.16.37-.13.6-.37.67-.22.06-.38-.19-.45-.4.01.13-.07.38-.28.46-.23.09-.57-.04-.67-.17-.33-.41.16-1,.39-1.43-.25.35-.67.67-1.04.87-.46.24-.7-.21-.72-.42s.13-.43.33-.48c-.58.05-.56-.67-.37-.77.42-.22,1.17-.11,1.63.03-.39-.2-1.1-.33-1.29-.73-.14-.29.06-.54.25-.67s.61.13.61.13c0,0-.3-.37-.17-.58.1-.15.59-.46.84.02.32.6.32.79.49,1.27,0,0-.22-.94.07-1.39Z"/>
    <path class="st3" d="M43.57,22.43s.16,0,.27.1.13.24.13.24c0,0,.02-.11.15-.17s.31,0,.31,0c0,0-.1-.16-.14-.26s.06-.22.06-.22c0,0-.23.05-.29.03-.08-.04-.19-.18-.19-.18,0,0,0,.22-.06.34s-.24.13-.24.13Z"/>
    <path class="st5" d="M43.98,22.4s.05.05.08.05c0,0,.02,0,.02,0,0,0,.02-.01.02-.02.04-.05.03-.13-.03-.15-.02,0-.09.01-.1.04-.01.02,0,.07,0,.08Z"/>
  </g>
  <g>
    <path class="st1" d="M42.18,10.01s0-.22-.15-.21c.04-.16-.03-.34-.17-.43-.24-.16-.57,0-.79.19-.15.13-.28.28-.39.44h0s-.26.35-.54.45c-.28.1-.54.23-.54.23,0,0-.07.06.03.11.03.01.11,0,.23-.04.26,0,.83-.08.98-.07.12,0,.34-.05.47-.07.23-.04.62-.14.79-.3.05-.05.1-.25.08-.31Z"/>
    <path class="st1" d="M39.95,9.23c.18-.16.32-.19.57-.46.33-.37.43-.58.43-.94,0-.04-.02-.09-.06-.11-.12-.09-.14.02-.25-.05-.07-.04-.1-.11-.1-.11,0,0-.04-.09-.18-.07h0s-.4-.24-.64.42c-.22.6-.07.92-.11,1.18,0,.02,0,.04-.01.07,0,.02,0,.03-.01.04-.09.31-.29.6-.3.64-.02.1.13.11.13.11,0,0,.27-.48.54-.72Z"/>
  </g>
  <path class="st2" d="M24.13,5.46c-.07.05-.14.09-.21.11-.5.15-1.1.25-1.62.09.17-.09.34-.18.51-.27-.47-.09-.9-.76-1.34-.99.44-.06.21.05.57,0-.71-.53-.83-.64-1.22-1.35.5.24.22.02.72.26-.33-.26-.2-.35-.43-.59-.29-.32-.54-.43-.54-.43,0,0,.47-.04.81.04-.48-.66-.7-1.5-.59-2.31.42.69.88,1.04,1.3,1.73.07-.34.02-.35-.08-.68.39.3.71.55.78,1.04.14-.22.15-.28.12-.54.32.42.55.5.55,1.02.18-.26.24-.12.26-.43.28.52.55.63.31,1.17.34-.26.41-.35.69-.65-.09.43.02,1.04-.18,1.44.19-.09.55-.38.65-.56-.13.6-.38,1.23-.8,1.68-.05.06-.18.22-.26.22-.11,0-.59-.46-.78-.76-.29-.46-.5-1.06-.75-1.55s-.56-.66-.67-.82c.43.57.72,1.32,1.07,1.89.32.51.57.94,1.05,1.3"/>
  <g>
    <path class="st1" d="M41.42,14.83c-.03-.18-.14-.86.01-1.12.12-.21.52-.21.62-.05.07.12,0,.34,0,.34,0,0,.04-.21.33-.28.19-.04.73.32.46.69-.25.34-.52.35-.77.59.16-.04.48-.21.65-.21.14,0,.34.07.34.41s-.35.26-.46.28c.13.03.41.15.39.37-.02.24-.16.46-.43.41-.49-.09-.59-.28-.87-.51.27.26.48.51.4.88-.03.11-.31.31-.51.3-.15,0-.24-.2-.26-.26-.05-.2-.05-.41.01-.6-.03.33-.03.61-.29.82-.07.05-.54,0-.62-.28-.07-.25.19-.62.3-.74,0,0,0,0,0,0,0,0-.35.32-.75.37-.2.03-.34-.25-.38-.32-.05-.08.01-.18.08-.25.14-.13.31-.22.5-.26-.16.01-.32.01-.47-.03-.22-.06-.21-.46-.08-.55.47-.32.99.2.42-.25-.11-.09-.16-.23-.11-.36.1-.28.35-.18.43-.09,0-.19.03-.41.19-.49.12-.06.27-.08.38-.02.36.18.48,1.2.48,1.2Z"/>
    <path class="st3" d="M41.53,14.88s-.03.1.02.25.22.16.22.16c0,0-.15.03-.24.11s-.11.23-.11.23c0,0-.06-.14-.14-.2s-.26-.02-.26-.02c0,0,.15-.08.15-.21,0-.11-.09-.25-.12-.27.02,0,.14.06.25.05.12-.02.24-.11.24-.11Z"/>
    <path class="st5" d="M41.36,15.15s-.06.04-.06.07.02.07.05.07c.01,0,.03,0,.04,0,.03-.02.04-.05.04-.09s-.02-.05-.07-.05Z"/>
  </g>
  <g>
    <path class="st1" d="M43.81,17.69c.07-.17.34-.8.61-.94.21-.11.55.1.55.29,0,.14-.18.29-.18.29,0,0,.15-.16.43-.06.18.06.44.66.02.83-.39.16-.63.02-.97.08.16.05.52.08.66.17.12.08.26.24.07.53s-.44.03-.54,0c.1.09.26.35.13.52-.15.19-.38.31-.59.12-.37-.34-.35-.55-.47-.9.09.37.14.69-.13.95-.08.08-.43.1-.59-.02-.12-.09-.1-.3-.08-.36.06-.19.18-.37.33-.5-.21.26-.35.5-.68.54-.08,0-.46-.29-.38-.56.07-.25.49-.42.65-.47.01,0,0,0,0,0,0,0-.47.08-.83-.08-.18-.08-.15-.39-.15-.47,0-.09.11-.15.2-.17.19-.04.38-.02.56.05-.14-.07-.27-.16-.38-.28-.15-.17.07-.5.23-.5.57-.02.73.7.49,0-.05-.13-.01-.28.1-.37.23-.19.4.03.41.16.1-.16.24-.33.43-.31.13.01.27.07.34.19.21.34-.24,1.27-.24,1.27Z"/>
    <path class="st3" d="M43.88,17.79s-.08.07-.12.22.1.25.1.25c0,0-.14-.05-.27-.03s-.22.14-.22.14c0,0,.03-.15-.01-.24s-.21-.16-.21-.16c0,0,.17.01.24-.1.06-.09.06-.25.04-.29.01.02.09.13.19.18.11.05.26.04.26.04Z"/>
    <path class="st5" d="M43.59,17.93s-.07,0-.09.03-.02.07,0,.09c.01,0,.03.02.04.01.03,0,.06-.02.08-.06s0-.05-.03-.07Z"/>
  </g>
  <path class="st0" d="M39.62,24.2c-.39.05-.89.13-1.13.44-.06.07.04.31.09.39.06.09.19.07.29.01s.17-.14.28-.14c-.08.1-.16.2-.19.32s.02.27.13.32c.15.06.3-.07.41-.2.16-.19.3-.39.44-.59,0,.29-.22.62-.1.89.03.08.48.19.66-.04.09-.11,0-.2.06-.33.08.11.17.23.3.29s.25-.03.36-.11c.18-.13.19-.24.12-.34-.13-.19-.47-.39-.6-.58.4.15.86.32,1.27.21.09-.02.17-.23.18-.32.01-.12-.15-.17-.28-.18.32-.07.58-.32.43-.59s-.27-.17-.56-.11-.58.19-.85.33c.26-.13.63-.31.8-.56.05-.08.07-.16.02-.24-.05-.08-.28-.14-.36-.11s-.14.11-.2.18c0-.09.22-.18-.06-.27s-.53.34-.71.6c-.02.03-.08.09-.08.09,0,0-.17-.16-.23-.27s-.24-.16-.36-.1c-.46.22-.13.23-.23.32-.16.17-.27-.17-.64.24-.02.03-.02.07,0,.1.02.04.06.06.1.07.21.08.42.16.63.23"/>
</svg>