<?xml version="1.0" encoding="UTF-8"?>
<svg width="68px" height="246px" viewBox="0 0 68 246" version="1.1" xmlns="http://www.w3.org/2000/svg" xmlns:xlink="http://www.w3.org/1999/xlink">
    <title>scroll_arrow</title>
    <g id="scroll_arrow" stroke="none" stroke-width="1" fill="none" fill-rule="evenodd">
        <path d="M34.5,80.2755698 L34.5,113.14442 L61.1537197,113.14442 C62.1566083,98.9110885 58.9333152,89.6078925 51.4838405,85.2348315 C44.0343657,80.8617705 38.3730856,79.2086832 34.5,80.2755698 Z" id="路径-245" fill="#77C8FF"></path>
        <path d="M34.5,80.1775598 C24.7871257,80.8612902 17.9902379,83.668334 14.1093367,88.5986912 C10.2284354,93.5290484 8.3754343,101.710958 8.55033323,113.14442 L34.5,113.14442 L34.5,80.1775598 Z" id="路径-247" fill="#00FFF8"></path>
        <path d="M8.53901994,112.737495 L61.1537197,113.14442 C62.035432,132.275055 60.8178041,144.908065 57.5008359,151.043449 C54.1838678,157.178834 46.5169225,161.497684 34.5,164 C23.0206973,162.406625 15.2260229,157.710409 11.1159766,149.911352 C7.00593035,142.112294 6.14694479,129.721009 8.53901994,112.737495 Z" id="路径-248" fill="#003163"></path>
        <path d="M30.3226813,89.3112606 L30.3226813,99.96995 C30.8086282,101.497373 32.2010678,102.261085 34.5,102.261085 C36.7989322,102.261085 37.9483983,101.497373 37.9483983,99.96995 L37.9483983,89.3112606 C38.2817316,87.3645574 37.1322655,86.3912058 34.5,86.3912058 C31.8677345,86.3912058 30.4752949,87.3645574 30.3226813,89.3112606 Z" id="路径-249" fill="#E1FF00"></path>
        <path d="M33.1023141,9.56545309 C29.8198408,18.0595711 26.9607915,23.8214168 24.5251661,26.8509901 C22.0895406,29.8805634 18.2496699,33.948161 13.0055539,39.0537828 L47.9161058,39.0537828 C43.644833,35.668732 40.3409971,32.2010324 38.0045983,28.6506841 C35.6681994,25.1003358 34.1075604,19.0674102 33.3226813,10.5519072 C31.7056957,17.2474601 30.6247397,22.1826195 30.0798132,25.3573856 C28.8123405,32.7417379 28.1786042,39.7100924 28.1786042,46.2624494 C28.1786042,57.040404 31.0284638,67.2575328 36.728183,76.9138359" id="路径-250" stroke="#4C4744" stroke-width="3"></path>
        <path d="M29.6071684,167.766135 C35.074635,172.803684 37.8737783,181.146 38.0045983,192.793081 C38.1354182,204.440163 36.8005521,218.634702 34,235.376697 C38.1261231,228.475149 41.2293325,223.814204 43.3096283,221.393864 C45.3899242,218.973523 49.1480039,215.508902 54.5838675,211 L21.51951,211 C26.307386,214.962956 29.2417764,218.427577 30.3226813,221.393864 C31.4035861,224.36015 32.629359,229.021095 34,235.376697" id="路径-251" stroke="#4C4744" stroke-width="3"></path>
    </g>
</svg>