<?xml version="1.0" encoding="UTF-8"?>
<svg id="_图层_1" data-name=" 图层 1" xmlns="http://www.w3.org/2000/svg" viewBox="0 0 45.34 25.55">
  <defs>
    <style>
      .cls-1 {
        fill: #466c37;
      }

      .cls-2 {
        fill: #4b733b;
      }

      .cls-3 {
        fill: #ec7a96;
      }

      .cls-4 {
        fill: #ba173d;
      }

      .cls-5 {
        fill: #eeece6;
      }

      .cls-6 {
        fill: #d1093f;
      }
    </style>
  </defs>
  <rect class="cls-5" width="45.34" height="25.55"/>
  <g>
    <g>
      <path class="cls-4" d="M8.24,8.97c-.05-.05-.12-.09-.18-.08-.05,0-.09.04-.13.07-.13.1-.26.21-.34.35-.09.16-.1.34-.1.52,0,.38.06.75.17,1.11-.02.48.07.96.25,1.41.05.14.12.28.23.38s.26.17.41.14c.28-.06.36-.41.39-.7.06-.56.11-1.13.03-1.7-.08-.56-.3-1.12-.73-1.5Z"/>
      <path class="cls-6" d="M10.96,9.53c-.11-.32-.49-.57-.8-.43-.22.1-.33.34-.38.58l.19-.38c-.26.9-.4,1.84-.41,2.79,0,.11,0,.22.04.32.04.1.13.19.24.19.13,0,.24-.1.32-.2.42-.53.62-1.2.77-1.86.08-.33.15-.68.04-1.01h0Z"/>
    </g>
    <path class="cls-4" d="M8.14,10.75c.01-.42.09-.85.34-1.19s.72-.53,1.11-.37c.05.02.11.05.17.05.07,0,.12-.04.19-.05.11-.02.22.05.3.13.55.49.7,1.33.47,2.03s-.8,1.25-1.47,1.57c-.39.19-.92.28-1.21-.04-.1-.11-.15-.25-.18-.4-.07-.33-.03-.66,0-.99.06-.53.13-1.08.39-1.55"/>
    <path class="cls-6" d="M7.91,13.18c-.97-.72-1.83-1.75-1.9-2.96-.01-.18,0-.37.1-.52s.3-.25.46-.17c.06.03.11.07.17.08.1,0,.17-.09.24-.15.19-.16.49-.12.69.03s.33.37.45.58c.38.67.77,1.41.65,2.17-.03.21.09.65-.04.83-.15.21-.43.37-.83.12"/>
    <path class="cls-3" d="M9.26,12.93c.31-.26.36-.7.49-1.08.24-.71.04-1.68.02-2.44.14,1.22.29,2.59-.51,3.51"/>
    <path class="cls-3" d="M6.7,9.84c-.02.2-.04.94.14,1.53.27.89.71,1.53.71,1.53l-.04-.03s-.48-.86-.65-1.43-.25-1.24-.16-1.67"/>
    <path class="cls-6" d="M8.51,12.96c.58-.26,1.03-.69,1.26-1.28.25-.65,1.06-1.74,1.74-2.02.4-.03-.18.7-.25.97-.11.44-.25.88-.41,1.31-.15.39-.32.79-.65,1.05-.22.17-.82.26-1.25.23s-.68-.15-.44-.25h0Z"/>
  </g>
  <path class="cls-1" d="M8.8,13.43c.39,1.37.6,2.88.65,3.8.15,3.01-.3,5.07-1.55,7.86.12.08.34.15.38.02.35-.97.65-1.87.91-2.87.73-2.8.66-6.05-.15-8.83-.06,0-.11-.01-.17-.02"/>
  <g>
    <path class="cls-4" d="M4.43,13.98c.3.58.31,1.08.16,1.4-.05-.36-.47-1.16-.73-1.42-.26-.26-1.89-1.56-1.89-1.56,0,0,.33-.31.63-.3.17,0,.29.34.56.58.22.2,1.09.99,1.25,1.31h.02Z"/>
    <path class="cls-4" d="M4.59,15.22c.04-.28-.82-1.45-1.27-1.8-.36-.28-.78-.48-1.1-.8-.13-.13-.57-.64-.71-.64-.03,0-.3.02-.6.65-.13.27-.04.61.07.89.06.15.15.29.24.43.45.64.83,1.35,1.55,1.68.17.08,1.16.44,1.47.26.29-.17.35-.62.35-.67Z"/>
    <path class="cls-6" d="M1.03,13.32c.03.2,1.59.53,2.55,1.09.62.36.91,1.18.92,1.17.12-.2.18-.54.09-.9-.09-.32-2.95-2.7-3.08-2.69-.07,0,.09.44-.02.75-.1.28-.47.43-.45.58h-.01Z"/>
    <path class="cls-6" d="M4.31,15.84c-.13.13-.64.42-1.14.39-.67-.04-1.14-.79-1.33-1-.34-.36-1.49-1.57-1.56-1.94-.02-.12,0-.29.11-.32.05-.01.1,0,.15.03.34.17.67.04.98.26.13.09,1.68,1.03,2.36,1.76,0,0,.72.54.43.82Z"/>
    <path class="cls-6" d="M2.66,12.11c.16.05,1.76,1.57,1.86,2.05,0,.03-1.01-1.13-1.16-1.2s-.54-.21-.53-.44c0-.29-.17-.41-.17-.41Z"/>
    <path class="cls-3" d="M.69,13.05c-.04.29.04.68.16.95.17.36.56.62.75.97,0,0-.74-.78-.85-1.23s-.1-.57-.06-.68"/>
    <path class="cls-3" d="M1.52,12.36s.42.09.82.33c.56.34,1.2.88,1.3.98.19.19.5.46.67.67,0,0-.44-.49-1.14-1.02s-1.01-.85-1.65-.96Z"/>
  </g>
  <path class="cls-1" d="M4.77,15.62c-.06.25.09.49.17.73.2.58.04,1.21-.08,1.81-.44,2.14-.39,4.37.12,6.49h.43c-.52-1.25-.69-3.62-.59-4.98s.48-1.74.36-3.1c-.03-.36-.09-.73-.33-1"/>
  <path class="cls-2" d="M8.57,17.22c-.68.87-.41,1.5-.59,2.6s-.81,2.66-.85,3.76c-.03.62-.08,1.28-.42,1.8h0c-.8-2.85.07-5.89,1.86-8.16Z"/>
  <g>
    <path class="cls-4" d="M17.83,21.81c.25,0,.44-.71.58-.99.54-1,.95-2.11,1.08-3.24,0-.07.01-.11-.02-.17-.02-.04-.12-.09-.16-.09-.03,0-.1-.02-.14-.05s-.1-.11-.14-.1c-.03,0-.06-.06-.08-.05-.06.03-.13.09-.17.14-.65.75-1.13,1.67-1.67,2.5-.17.26-.34.54-.4.85s-.03.72.22.91c.11.08.65.3.9.3h0Z"/>
    <path class="cls-6" d="M17.16,21.45c-.4-.34.46-2.1.74-2.31.31-.24.6-.5.86-.8.23-.26.45-.66.25-.95-.16-.23-.12-.51-.36-.37s-.52.21-.96.9c-.28.44-.54.88-.81,1.32-.18.3-.37.61-.46.95s-.08.72.12,1.02.62.51.87.52c-.12-.14-.26-.28-.26-.28h0Z"/>
    <path class="cls-6" d="M17.68,20.76c.46-.76.12-1.08.39-1.74.31-.77,1.15-1.56,1.36-1.53.14.02.19-.07.23.06s.01.7,0,.84c-.07.55-.16,1.1-.2,1.65-.09,1.48-1.41,2.03-1.79,1.69,0,0-.28-.49.02-.97h0Z"/>
    <path class="cls-3" d="M19.53,17.58c.12,1.34-.3,3.56-.76,3.91.3-.16.37-.64.46-.97.27-.95.33-1.89.34-2.88,0-.04-.02-.1-.06-.08"/>
    <path class="cls-3" d="M17.51,18.24c.35-.39.61-.64,1.05-.93.14-.09.35-.13.36-.11s-.08-.07-.54.23c-.14.09-.89.75-.94.91"/>
  </g>
  <path class="cls-2" d="M16.64,22.79c-.09.51-.12,1.03-.1,1.55,0,.04,0,.08.02.12.05.09.09.06.2.04.02,0,.05-.01.06-.03.02-.02.01-.06,0-.09-.2-.78-.03-1.75.4-2.43-.07-.06,0-.13-.1-.14,0,0-.44.67-.49.98h.01Z"/>
  <path class="cls-2" d="M17.78,25.03c-.07-.17-.04-.66.01-.84.28-.88,1.04-1.51,1.62-2.23.46-.58.82-1.25,1.04-1.96-.18,1.13-.22,1.57-.86,2.52-.56.84-1.29,2.19-1.38,2.52"/>
  <g>
    <path class="cls-4" d="M19.75,8.36c.07-.01.21,0,.26.04.06.05.15-.09.28.33.01.05-.28.14-.44.35-.31.41-.65,1.07-.9,1.29-.38.34-.85.59-1.36.64-.21.02-.9.01-.96-.19s.56-.42.73-.54c.83-.57,1.51-1.24,2.35-1.82"/>
    <path class="cls-4" d="M16.35,7.95c.37-.56.94-1.01,1.6-1.11.08-.01.17-.02.26,0,.11.02.2.08.29.14s.18.12.27.17c.08-.08.21-.08.31-.01s.15.17.19.27c.07.17.1.35.11.52,0,.52-.26,1.01-.63,1.37s-.83.62-1.29.86c-.23.12-.49.39-.74.4s-.55-.08-.65-.32c0,0-.05-1.76.31-2.3h-.03Z"/>
    <path class="cls-6" d="M17.15,6.19c-.43-.11-.53.49-.79.84-.51.7-.74,1.45-.79,2.31-.03.69.59,1.18.7,1.05.03-.04-.19-.77-.08-1.28.21-.9.8-1.11,1.25-1.84.16-.26.32-.53.15-.68-.16-.13-.15-.35-.2-.42-.11-.14-.24.01-.24.01h0Z"/>
    <path class="cls-6" d="M19.65,9.03c.16-.32.28-.85.15-1.08-.05-.08-.16-.24-.35-.24-.11,0-.17-.17-.28-.19s-.24.24-.34.27c-.2.06-.49.07-.65.21-.64.58-1.3,1.16-1.63,1.96-.02.06-.43.49-.26.63.14.12.57.5,1.22.25.83-.33,1.92-1.38,2.13-1.82h.01Z"/>
    <path class="cls-3" d="M19.42,7.89c.04.38-.11,1.28-.61,1.8-.45.48-1.41,1.11-2.06,1.11.77-.06,1.55-.53,2.06-1.11.46-.53.72-1.21.65-1.91"/>
    <path class="cls-3" d="M16.46,6.91c.13-.12.32-.34.49-.49.21-.18.39-.28.39-.28,0,0,.02,0,.02.01s-.02,0-.03.01c-.02.02-.18.09-.36.24-.19.17-.4.44-.54.54"/>
  </g>
  <path class="cls-1" d="M15.95,10.68c-.75,1.37-1.51,2.75-2.01,4.23-.26.78-.46,1.58-.65,2.38-.2.82-.39,1.65-.59,2.47-.41,1.7-.82,3.45-.56,5.18.13-.13.27,0,.3-.19.02-.16-.07-.61-.07-.76,0-1.12.22-2.22.45-3.32.69-3.33,1.4-6.74,3.18-9.63.1-.17.31-.45.12-.4"/>
  <path class="cls-1" d="M13,21.49c.39-.82.92-1.04,1.4-1.83,1.38-2.29,3.04-4.95,5.43-6.08-1.07.29-2.32.27-3.15,1.46-.96,1.38-1.78,1.84-2.44,2.98-1,1.73-1.17,3.17-1.24,3.47Z"/>
  <path class="cls-1" d="M6.36,14.49c-1.73-1.88-2.63-4.53-2.4-7.06.1,1.55.32,1.16,1.02,2.56.59,1.18-.33.93,2.39,5.25-.34-.33-1.01-.75-1.01-.75Z"/>
  <path class="cls-2" d="M2.88,24.91c-.05-1.59-.53-2.4-1.07-3.9-.43-1.19-.82-3.09-1.53-4.14.58.19,1.57,1.76,1.74,2.35,1.1,3.69,1.63,2,1.29,5.92-.19.02-.44,0-.44,0"/>
  <g>
    <path class="cls-4" d="M.62,3.56c-.02.07-.06.17.34.76.36.53,1.27,1.07,1.44,1.19.33.24.85.46,1.26.4.23-.04.47-.14.57-.35.03-.07.05-.14.09-.2.06-.08.16-.1.24-.15.16-.1.25-.29.26-.48s-.04-.37-.09-.55c-.24-.76-.64-1.48-1.15-2.09-.22-.26-.58-.69-.9-.55,0,0-2.02,1.92-2.05,2.04v-.02Z"/>
    <path class="cls-6" d="M3.27,2.29c-.32-.57-.58-.81-1.22-.97-.23-.06-.53-.05-.63.17-.04.1-.03.21-.03.32,0,.27-.12.53-.32.71-.09.08-.2.15-.27.26-.17.24.04.68.22.91.59.75,2.11,2,2.45,2.03s.72-.09.95-.36c.25-.3.28-.73.17-1.09s-.31-.4-.54-.71c-.2-.28-.79-1.27-.79-1.27h0Z"/>
  </g>
  <g>
    <path class="cls-4" d="M10.48,1.79c-.06-.32-.19-.62-.39-.87-.02-.03-.05-.06-.09-.07-.07-.02-.13.03-.17.08-.25.28-.36.66-.46,1.03-.13.49-.26.97-.33,1.47-.06.49-.03,1.06.34,1.38.17.15.39.22.6.27.13.03.26.04.38-.01.17-.08.26-.27.33-.45.23-.6.47-1.24.33-1.87-.09-.45-.37-.83-.63-1.2"/>
    <path class="cls-6" d="M10.27,1.75c0-.65.18-.75.24-.91.06-.14.16-.31.31-.3.11,0,.21.11.32.11.04,0,.07,0,.11,0,.04.02.05.06.05.11.04.35.08.93-.23,1.09-.04.02-.2.23-.24.23-.13,0-.35.18-.37.05"/>
    <path class="cls-4" d="M11.91,2.6c.19-.32.42-.62.69-.87.08-.07.19-.15.28-.1.08.04.1.16.07.25s-.08.17-.1.27c-.02.12.02.24.04.36.03.23-.03.47-.09.69-.1.35-.21.69-.33,1.03-.13.36-.29.75-.63.94-.29.16-.65.13-.98.07-.17-.03-.35-.07-.46-.21-.12-.16-.08-.38-.03-.57.33-1.19,1.19-2.22,2.3-2.77"/>
    <path class="cls-6" d="M10.83.89s.05-.08.1-.09.1.02.15.05c.27.15.68-.18.95-.05.29.14.56.39.55.71s-.35.98-.39,1.29c-.05.36,0,.73-.05,1.09-.05.36-.18.74-.49.93-.14.09-.52.81-1.53.42-.45-.18-.7-.79-.68-1.13.06-.91,1.02-2.61,1.39-3.22Z"/>
    <path class="cls-3" d="M12.03.79c.16.38-.06.9-.05,1.63,0,1.08-.59,2.05-1.14,2.66-.27.3-.36.24-.36.24,0,0,.11.05.3-.14.52-.55.69-.9,1.01-1.65.11-.25.16-.67.18-1.02.03-.69.16-1.29.12-1.69-.04,0-.05-.03-.05-.03h-.01Z"/>
  </g>
  <path class="cls-1" d="M11.09,15.89c.28-1.4.61-2.79.98-4.16.22-.82.47-1.65.85-2.41.75-1.48,1.99-2.65,3.26-3.72-1.36,1.14-1.75,2.46-2.4,4.12-.18.47-.7,1.16-.99,1.69-.71,1.29-1.79,6.11-1.79,6.11,0,0,.04-1.09.04-1.35"/>
  <path class="cls-1" d="M10.51,5.56c.33,1.11.47,2.28.39,3.44.07.02.12.42.19.44.12-1.07.09-2.58-.22-3.54-.05-.16-.09-.43-.26-.4"/>
  <path class="cls-1" d="M4.99,6.31c.31.85.59,2.37.63,2.88,0,.09-.22.23-.28.17,0-.54-.09-1.62-.34-2.43-.23-.72-.62-1.2-.63-1.25,0,0,.11-.15.19-.12,0,0,.33.47.43.74h0Z"/>
  <g>
    <path class="cls-4" d="M41.84,2.83c.02.07.06.17-.34.76-.36.53-1.27,1.07-1.44,1.19-.33.24-.85.46-1.26.4-.23-.04-.47-.14-.57-.35-.03-.07-.05-.14-.09-.2-.06-.08-.16-.1-.24-.15-.16-.1-.25-.29-.26-.48s.04-.37.09-.55c.24-.76.64-1.48,1.15-2.09.22-.26.58-.69.9-.55,0,0,2.02,1.92,2.05,2.04v-.02Z"/>
    <path class="cls-6" d="M39.2,1.56c.32-.57.58-.81,1.22-.97.23-.06.53-.05.63.17.04.1.03.21.03.32,0,.27.12.53.32.71.09.08.2.15.27.26.17.24-.04.68-.22.91-.59.75-2.11,2-2.45,2.03s-.72-.09-.95-.36c-.25-.3-.28-.73-.17-1.09s.31-.4.54-.71c.2-.28.79-1.27.79-1.27h-.01Z"/>
  </g>
  <path class="cls-1" d="M37.48,5.58c-.31.85-.59,2.37-.63,2.88,0,.09.22.23.28.17,0-.54.09-1.62.34-2.43.23-.72.62-1.2.63-1.25,0,0-.11-.15-.19-.12,0,0-.33.47-.43.74h0Z"/>
  <path class="cls-1" d="M7.18,8.17c.12-.01.17-.41.14-.69.2-1.17-.04-2.33-.55-3.44-.6-1.31-1.66-2.48-2.03-3.85-.01.76.15,1.52.46,2.23.57,1.32,2.09,5.32,1.98,5.74h0Z"/>
  <path class="cls-1" d="M14.14,5.04c.53-2.07,2.07-3.37,4.02-4.28-.97.65-1.77,1.55-2.3,2.59-.29.58-.5,1.19-.8,1.77s-1.36,1.46-1.94,1.77c.07-.18.19-.27.39-.53.27-.28.46-.63.55-1"/>
  <path class="cls-6" d="M18.01,4.06c0-.36.11-.72.32-1.02.05-.08.12-.15.21-.19s.2-.02.26.05c.08.11,0,.26-.07.38-.18.25-.39.48-.62.69"/>
  <path class="cls-6" d="M17.16,4.66c-.09-.26-.09-.55-.01-.81.03-.11.13-.24.24-.2.09.04.1.16.09.26-.04.31-.14.61-.28.89"/>
  <path class="cls-6" d="M9.46,7.87l-.18-.53c-.03-.09-.07-.19-.06-.29s.07-.2.17-.23c.23.33.29.77.14,1.15"/>
  <path class="cls-6" d="M6.98,17.85c-.2-.3-.31-.66-.32-1.02,0-.07,0-.16.06-.21.06-.06.16-.06.24,0s.11.13.14.21c.12.35.04.73-.06,1.08"/>
  <path class="cls-6" d="M17.17,12.86c.23-.31.51-.59.82-.83.02-.02.04-.03.07-.03.07,0,.09.1.07.16-.08.41-.48.73-.9.72"/>
  <path class="cls-6" d="M1.75,8.45c-.16-.21-.29-.45-.38-.7-.03-.08-.05-.17,0-.24.06-.09.2-.08.28-.01s.11.18.14.29c.05.23.07.47.05.71"/>
  <path class="cls-6" d="M9.89,23.79c-.09-.27-.12-.56-.08-.85.02-.13.08-.29.22-.3.18-.02.25.23.23.41-.03.31-.13.61-.28.88"/>
  <path class="cls-6" d="M2.58,18.93c-.18-.19-.32-.41-.44-.64-.06-.12-.1-.28,0-.36.07-.05.18-.03.25.04s.09.15.12.24c.07.26.09.54.08.81"/>
  <path class="cls-6" d="M3.19,19.47c-.02-.17-.04-.33,0-.5s.15-.32.3-.37c0,.33-.11.66-.3.94"/>
  <path class="cls-6" d="M13.73,23.92c.02-.34.14-.67.35-.93.05-.06.12-.13.2-.11.07.02.11.1.11.17.01.16-.08.31-.18.44-.15.21-.29.41-.44.62"/>
  <g>
    <g>
      <path class="cls-4" d="M32.32,7.14c-.05-.05-.12-.09-.18-.08-.05,0-.09.04-.13.07-.13.1-.26.21-.34.35-.09.16-.1.34-.1.52,0,.38.06.75.17,1.11-.02.48.07.96.25,1.41.05.14.12.28.23.38s.26.17.41.14c.28-.06.36-.41.39-.7.06-.56.11-1.13.03-1.7-.08-.56-.3-1.12-.73-1.5Z"/>
      <path class="cls-6" d="M35.04,7.7c-.11-.32-.49-.57-.8-.43-.22.1-.33.34-.38.58l.19-.38c-.26.9-.4,1.84-.41,2.79,0,.11,0,.22.04.32.04.1.13.19.24.19.13,0,.24-.1.32-.2.42-.53.62-1.2.77-1.86.08-.33.15-.68.04-1.01h-.01Z"/>
    </g>
    <path class="cls-4" d="M32.23,8.91c0-.42.09-.85.34-1.19s.72-.53,1.11-.37c.05.02.11.05.17.05.07,0,.12-.04.19-.05.11-.02.22.05.3.13.55.49.7,1.33.47,2.03s-.8,1.25-1.47,1.57c-.39.19-.92.28-1.21-.04-.1-.11-.15-.25-.18-.4-.07-.33-.03-.66,0-.99.06-.53.13-1.08.39-1.55"/>
    <path class="cls-6" d="M32,11.35c-.97-.72-1.83-1.75-1.9-2.96-.01-.18,0-.37.1-.52s.3-.25.46-.17c.06.03.11.07.17.08.1,0,.17-.09.24-.15.19-.16.49-.12.69.03s.33.37.45.58c.38.67.77,1.41.65,2.17-.03.21.09.65-.04.83-.15.21-.43.37-.83.12"/>
    <path class="cls-3" d="M33.34,11.1c.31-.26.36-.7.49-1.08.24-.71.04-1.68.02-2.44.14,1.22.29,2.59-.51,3.51"/>
    <path class="cls-3" d="M30.79,8.01c-.02.2-.04.94.14,1.53.27.89.71,1.53.71,1.53l-.04-.03s-.48-.86-.65-1.43-.25-1.24-.16-1.67"/>
    <path class="cls-6" d="M32.59,11.13c.58-.26,1.03-.69,1.26-1.28.25-.65,1.06-1.74,1.74-2.02.4-.03-.18.7-.25.97-.11.44-.25.88-.41,1.31-.15.39-.32.79-.65,1.05-.22.17-.82.26-1.25.23s-.68-.15-.44-.25h0Z"/>
  </g>
  <path class="cls-1" d="M32.89,11.59c.39,1.37.6,2.88.65,3.8.15,3.01-.3,5.07-1.55,7.86.12.08.34.15.38.02.35-.97.65-1.87.91-2.87.73-2.8.66-6.05-.15-8.83-.06,0-.11-.01-.17-.02"/>
  <g>
    <path class="cls-4" d="M24.03,13.57c.3.58.31,1.08.16,1.4-.05-.36-.47-1.16-.73-1.42s-1.89-1.56-1.89-1.56c0,0,.33-.31.63-.3.17,0,.29.34.56.58.22.2,1.09.99,1.25,1.31h.02Z"/>
    <path class="cls-4" d="M24.19,14.81c.04-.28-.82-1.45-1.27-1.8-.36-.28-.78-.48-1.1-.8-.13-.13-.57-.64-.71-.64-.03,0-.3.02-.6.65-.13.27-.04.61.07.89.06.15.15.29.24.43.45.64.83,1.35,1.55,1.68.17.08,1.16.44,1.47.26.29-.17.35-.62.35-.67Z"/>
    <path class="cls-6" d="M20.63,12.9c.03.2,1.59.53,2.55,1.09.62.36.91,1.18.92,1.17.12-.2.18-.54.09-.9-.09-.32-2.95-2.7-3.08-2.69-.07,0,.09.44-.02.75-.1.28-.47.43-.45.58h0Z"/>
    <path class="cls-6" d="M23.91,15.42c-.13.13-.64.42-1.14.39-.67-.04-1.14-.79-1.33-1-.34-.36-1.49-1.57-1.56-1.94-.02-.12,0-.29.11-.32.05-.01.1,0,.15.03.34.17.67.04.98.26.13.09,1.68,1.03,2.36,1.76,0,0,.72.54.43.82Z"/>
    <path class="cls-6" d="M22.25,11.7c.16.05,1.76,1.57,1.86,2.05,0,.03-1.01-1.13-1.16-1.2s-.54-.21-.53-.44c.01-.29-.17-.41-.17-.41Z"/>
    <path class="cls-3" d="M20.28,12.64c-.04.29.04.68.16.95.17.36.56.62.75.97,0,0-.74-.78-.85-1.23s-.1-.57-.06-.68"/>
    <path class="cls-3" d="M21.12,11.95s.42.09.82.33c.56.34,1.2.88,1.3.98.19.19.5.46.67.67,0,0-.44-.49-1.14-1.02s-1.01-.85-1.65-.96Z"/>
  </g>
  <path class="cls-1" d="M24.37,15.2c-.06.25.09.49.17.73.2.58.04,1.21-.08,1.81-.44,2.14-.39,4.37.12,6.49h.43c-.52-1.25-.69-3.62-.59-4.98s.48-1.74.36-3.1c-.03-.36-.09-.73-.33-1"/>
  <path class="cls-2" d="M28.37,17.05c-.68.87-.41,1.5-.59,2.6s-.81,2.66-.85,3.76c-.03.62-.08,1.28-.42,1.8h0c-.8-2.85.07-5.89,1.86-8.16Z"/>
  <g>
    <path class="cls-4" d="M30.55,19.66c.25,0,.44-.71.58-.99.54-1,.95-2.11,1.08-3.24,0-.07,0-.11-.02-.17-.02-.04-.12-.09-.16-.09-.03,0-.1-.02-.14-.05s-.1-.11-.14-.1c-.03,0-.06-.06-.08-.05-.06.03-.13.09-.17.14-.65.75-1.13,1.67-1.67,2.5-.17.26-.34.54-.4.85s-.03.72.22.91c.11.08.65.3.9.3h0Z"/>
    <path class="cls-6" d="M29.89,19.3c-.4-.34.46-2.1.74-2.31.31-.24.6-.5.86-.8.23-.26.45-.66.25-.95-.16-.23-.12-.51-.36-.37s-.52.21-.96.9c-.28.44-.54.88-.81,1.32-.18.3-.37.61-.46.95s-.08.72.12,1.02.62.51.87.52c-.12-.14-.26-.28-.26-.28h0Z"/>
    <path class="cls-6" d="M30.41,18.61c.46-.76.12-1.08.39-1.74.31-.77,1.15-1.56,1.36-1.53.14.02.19-.07.23.06s0,.7,0,.84c-.07.55-.16,1.1-.2,1.65-.09,1.48-1.41,2.03-1.79,1.69,0,0-.28-.49.02-.97h0Z"/>
    <path class="cls-3" d="M32.26,15.43c.12,1.34-.3,3.56-.76,3.91.3-.16.37-.64.46-.97.27-.95.33-1.89.34-2.88,0-.04-.02-.1-.06-.08"/>
    <path class="cls-3" d="M30.24,16.09c.35-.39.61-.64,1.05-.93.14-.09.35-.13.36-.11s-.08-.07-.54.23c-.14.09-.89.75-.94.91"/>
  </g>
  <path class="cls-2" d="M29.37,20.64c-.09.51-.12,1.03-.1,1.55,0,.04,0,.08.02.12.05.09.09.06.2.04.02,0,.05-.01.06-.03.02-.02.01-.06,0-.09-.2-.78-.03-1.75.4-2.43-.07-.06,0-.13-.1-.14,0,0-.44.67-.49.98h.01Z"/>
  <path class="cls-2" d="M42.2,25.15c-.07-.17-.04-.66,0-.84.28-.88,1.04-1.51,1.62-2.23.46-.58.82-1.25,1.04-1.96-.18,1.13-.22,1.57-.86,2.52-.56.84-1.29,2.19-1.38,2.52"/>
  <g>
    <path class="cls-4" d="M44.49,8c.07-.01.21,0,.26.04.06.05.15-.09.28.33,0,.05-.28.14-.44.35-.31.41-.65,1.07-.9,1.29-.38.34-.85.59-1.36.64-.21.02-.9.01-.96-.19-.06-.2.56-.42.73-.54.83-.57,1.51-1.24,2.35-1.82"/>
    <path class="cls-4" d="M41.1,7.59c.37-.56.94-1.01,1.6-1.11.08-.01.17-.02.26,0,.11.02.2.08.29.14s.18.12.27.17c.08-.08.21-.08.31-.01s.15.17.19.27c.07.17.1.35.11.52,0,.52-.26,1.01-.63,1.37s-.83.62-1.29.86c-.23.12-.49.39-.74.4s-.55-.08-.65-.32c0,0-.05-1.76.31-2.3h-.03Z"/>
    <path class="cls-6" d="M41.9,5.83c-.43-.11-.53.49-.79.84-.51.7-.74,1.45-.79,2.31-.03.69.59,1.18.7,1.05.03-.04-.19-.77-.08-1.28.21-.9.8-1.11,1.25-1.84.16-.26.32-.53.15-.68-.16-.13-.15-.35-.2-.42-.11-.14-.24.01-.24.01h0Z"/>
    <path class="cls-6" d="M44.4,8.67c.16-.32.28-.85.15-1.08-.05-.08-.16-.24-.35-.24-.11,0-.17-.17-.28-.19s-.24.24-.34.27c-.2.06-.49.07-.65.21-.64.58-1.3,1.16-1.63,1.96-.02.06-.43.49-.26.63.14.12.57.5,1.22.25.83-.33,1.92-1.38,2.13-1.82h0Z"/>
    <path class="cls-3" d="M44.17,7.52c.04.38-.11,1.28-.61,1.8-.45.48-1.41,1.11-2.06,1.11.77-.06,1.55-.53,2.06-1.11.46-.53.72-1.21.65-1.91"/>
    <path class="cls-3" d="M41.2,6.54c.13-.12.32-.34.49-.49.21-.18.39-.28.39-.28,0,0,.02,0,.02.01s-.02,0-.03.01c-.02.02-.18.09-.36.24-.19.17-.4.44-.54.54"/>
  </g>
  <path class="cls-1" d="M40.69,10.32c-.75,1.37-1.51,2.75-2.01,4.23-.26.78-.46,1.58-.65,2.38-.2.82-.39,1.65-.59,2.47-.41,1.7-.82,3.45-.56,5.18.13-.13.27,0,.3-.19.02-.16-.07-.61-.07-.76,0-1.12.22-2.22.45-3.32.69-3.33,1.4-6.74,3.18-9.63.1-.17.31-.45.12-.4"/>
  <path class="cls-1" d="M38.09,20.18c.39-.82.92-1.04,1.4-1.83,1.38-2.29,3.04-4.95,5.43-6.08-1.07.29-2.32.27-3.15,1.46-.96,1.38-1.78,1.84-2.44,2.98-1,1.73-1.17,3.17-1.24,3.47Z"/>
  <path class="cls-1" d="M30.44,12.66c-1.73-1.88-2.63-4.53-2.4-7.06.1,1.55.32,1.16,1.02,2.56.59,1.18-.33.93,2.39,5.25-.34-.33-1.01-.75-1.01-.75Z"/>
  <path class="cls-2" d="M22.95,24.58c-.05-1.59-.53-2.4-1.07-3.9-.43-1.19-.82-3.09-1.53-4.14.58.19,1.57,1.76,1.74,2.35,1.1,3.69,1.63,2,1.29,5.92-.19.02-.44,0-.44,0"/>
  <g>
    <path class="cls-4" d="M19.24,4.86c-.02.07-.06.17.34.76.36.53,1.27,1.07,1.44,1.19.33.24.85.46,1.26.4.23-.04.47-.14.57-.35.03-.07.05-.14.09-.2.06-.08.16-.1.24-.15.16-.1.25-.29.26-.48s-.04-.37-.09-.55c-.24-.76-.64-1.48-1.15-2.09-.22-.26-.58-.69-.9-.55,0,0-2.02,1.92-2.05,2.04v-.02Z"/>
    <path class="cls-6" d="M21.88,3.59c-.32-.57-.58-.81-1.22-.97-.23-.06-.53-.05-.63.17-.04.1-.03.21-.03.32,0,.27-.12.53-.32.71-.09.08-.2.15-.27.26-.17.24.04.68.22.91.59.75,2.11,2,2.45,2.03s.72-.09.95-.36c.25-.3.28-.73.17-1.09s-.31-.4-.54-.71c-.2-.28-.79-1.27-.79-1.27h.01Z"/>
  </g>
  <g>
    <path class="cls-4" d="M26.14,1.61c-.06-.32-.19-.62-.39-.87-.02-.03-.05-.06-.09-.07-.07-.02-.13.03-.17.08-.25.28-.36.66-.46,1.03-.13.49-.26.97-.33,1.47-.06.49-.03,1.06.34,1.38.17.15.39.22.6.27.13.03.26.04.38-.01.17-.08.26-.27.33-.45.23-.6.47-1.24.33-1.87-.09-.45-.37-.83-.63-1.2"/>
    <path class="cls-6" d="M25.92,1.56c0-.65.18-.75.24-.91.06-.14.16-.31.31-.3.11,0,.21.11.32.11.04,0,.07,0,.11,0,.04.02.05.06.05.11.04.35.08.93-.23,1.09-.04.02-.2.23-.24.23-.13,0-.35.18-.37.05"/>
    <path class="cls-4" d="M27.56,2.42c.19-.32.42-.62.69-.87.08-.07.19-.15.28-.1.08.04.1.16.07.25s-.08.17-.1.27c-.02.12.02.24.04.36.03.23-.03.47-.09.69-.1.35-.21.69-.33,1.03-.13.36-.29.75-.63.94-.29.16-.65.13-.98.07-.17-.03-.35-.07-.46-.21-.12-.16-.08-.38-.03-.57.33-1.19,1.19-2.22,2.3-2.77"/>
    <path class="cls-6" d="M26.49.7s.05-.08.1-.09c.05,0,.1.02.15.05.27.15.68-.18.95-.05.29.14.56.39.55.71s-.35.98-.39,1.29c-.05.36,0,.73-.05,1.09s-.18.74-.49.93c-.14.09-.52.81-1.53.42-.45-.18-.7-.79-.68-1.13.06-.91,1.02-2.61,1.39-3.22Z"/>
    <path class="cls-3" d="M27.68.61c.16.38-.06.9-.05,1.63,0,1.08-.59,2.05-1.14,2.66-.27.3-.36.24-.36.24,0,0,.11.05.3-.14.52-.55.69-.9,1.01-1.65.11-.25.16-.67.18-1.02.03-.69.16-1.29.12-1.69-.04,0-.05-.03-.05-.03h-.01Z"/>
  </g>
  <path class="cls-1" d="M34.51,17.64c.28-1.4.61-2.79.98-4.16.22-.82.47-1.65.85-2.41.75-1.48,1.99-2.65,3.26-3.72-1.36,1.14-1.75,2.46-2.4,4.12-.18.47-.7,1.16-.99,1.69-.71,1.29-1.79,6.11-1.79,6.11,0,0,.04-1.09.04-1.35"/>
  <path class="cls-1" d="M26.16,5.37c.33,1.11.47,2.28.39,3.44.07.02.12.42.19.44.12-1.07.09-2.58-.22-3.54-.05-.16-.09-.43-.26-.4"/>
  <path class="cls-1" d="M23.6,7.61c.31.85.59,2.37.63,2.88,0,.09-.22.23-.28.17,0-.54-.09-1.62-.34-2.43-.23-.72-.62-1.2-.63-1.25,0,0,.11-.15.19-.12,0,0,.33.47.43.74h0Z"/>
  <g>
    <path class="cls-4" d="M44.76,19.24c.02.07.06.17-.34.76-.36.53-1.27,1.07-1.44,1.19-.33.24-.85.46-1.26.4-.23-.04-.47-.14-.57-.35-.03-.07-.05-.14-.09-.2-.06-.08-.16-.1-.24-.15-.16-.1-.25-.29-.26-.48s.04-.37.09-.55c.24-.76.64-1.48,1.15-2.09.22-.26.58-.69.9-.55,0,0,2.02,1.92,2.05,2.04v-.02Z"/>
    <path class="cls-6" d="M42.12,17.97c.32-.57.58-.81,1.22-.97.23-.06.53-.05.63.17.04.1.03.21.03.32,0,.27.12.53.32.71.09.08.2.15.27.26.17.24-.04.68-.22.91-.59.75-2.11,2-2.45,2.03s-.72-.09-.95-.36c-.25-.3-.28-.73-.17-1.09s.31-.4.54-.71c.2-.28.79-1.27.79-1.27h-.01Z"/>
  </g>
  <path class="cls-1" d="M40.4,21.99c-.31.85-.59,2.37-.63,2.88,0,.09.22.23.28.17,0-.54.09-1.62.34-2.43.23-.72.62-1.2.63-1.25,0,0-.11-.15-.19-.12,0,0-.33.47-.43.74h0Z"/>
  <path class="cls-1" d="M26.81,14.22c.12-.01.17-.41.14-.69.2-1.17-.04-2.33-.55-3.44-.6-1.31-1.66-2.48-2.03-3.85-.01.76.15,1.52.46,2.23.57,1.32,2.09,5.32,1.98,5.74h0Z"/>
  <path class="cls-1" d="M30.14,4.86c.53-2.07,2.07-3.37,4.02-4.28-.97.65-1.77,1.55-2.3,2.59-.29.58-.5,1.19-.8,1.77s-1.36,1.46-1.94,1.77c.07-.18.19-.27.39-.53.27-.28.46-.63.55-1"/>
  <path class="cls-6" d="M33.56,25.16c0-.36.11-.72.32-1.02.05-.08.12-.15.21-.19s.2-.02.26.05c.08.11,0,.26-.07.38-.18.25-.39.48-.62.69"/>
  <path class="cls-6" d="M38.17,25.19c-.09-.26-.09-.55,0-.81.03-.11.13-.24.24-.2.09.04.1.16.09.26-.04.31-.14.61-.28.89"/>
  <path class="cls-6" d="M33.55,6.03l-.18-.53c-.03-.09-.07-.19-.06-.29s.07-.2.17-.23c.23.33.29.77.14,1.15"/>
  <path class="cls-6" d="M26.78,17.67c-.2-.3-.31-.66-.32-1.02,0-.07,0-.16.06-.21.06-.06.16-.06.24,0s.11.13.14.21c.12.35.04.73-.06,1.08"/>
  <path class="cls-6" d="M33.49,21.43c.23-.31.51-.59.82-.83.02-.02.04-.03.07-.03.07,0,.09.1.07.16-.08.41-.48.73-.9.72"/>
  <path class="cls-6" d="M23.13,1.77c-.16-.21-.29-.45-.38-.7-.03-.08-.05-.17,0-.24.06-.09.2-.08.28,0s.11.18.14.29c.05.23.07.47.05.71"/>
  <path class="cls-6" d="M30.04,24.44c-.09-.27-.12-.56-.08-.85.02-.13.08-.29.22-.3.18-.02.25.23.23.41-.03.31-.13.61-.28.88"/>
  <path class="cls-6" d="M20.88,20.58c-.18-.19-.32-.41-.44-.64-.06-.12-.1-.28,0-.36.07-.05.18-.03.25.04s.09.15.12.24c.07.26.09.54.08.81"/>
  <path class="cls-6" d="M25.56,14.32c-.02-.17-.04-.33,0-.5s.15-.32.3-.37c0,.33-.11.66-.3.94"/>
  <path class="cls-6" d="M40.84,12.65c.02-.34.14-.67.35-.93.05-.06.12-.13.2-.11.07.02.11.1.11.17,0,.16-.08.31-.18.44-.15.21-.29.41-.44.62"/>
  <path class="cls-6" d="M28.57,20.05l-.18-.53c-.03-.09-.07-.19-.06-.29s.07-.2.17-.23c.23.33.29.77.14,1.15"/>
  <path class="cls-6" d="M43.47,4.29l.18-.53c.03-.09.07-.19.06-.29s-.07-.2-.17-.23c-.23.33-.29.77-.14,1.15"/>
  <path class="cls-6" d="M36.29,2.78c-.2-.3-.31-.66-.32-1.02,0-.07,0-.16.06-.21.06-.06.16-.06.24,0s.11.13.14.21c.12.35.04.73-.06,1.08"/>
</svg>